<svg xmlns="http://www.w3.org/2000/svg" width="20" height="18.095" viewBox="0 0 20 18.095">
  <g id="Group_8779" data-name="Group 8779" transform="translate(-18861.5 19016.5)">
    <path id="Path_5035" data-name="Path 5035" d="M65.079,63.81V61.9a1.9,1.9,0,0,1,1.9-1.9h5.086a1.9,1.9,0,0,1,1.9,1.9V63.81h3.176a1.9,1.9,0,0,1,1.9,1.9V75.24a1.9,1.9,0,0,1-1.9,1.9H61.9a1.9,1.9,0,0,1-1.9-1.9V65.713a1.9,1.9,0,0,1,1.9-1.9Zm0,12.063h8.889V65.079H65.079Zm10.159,0h1.906a.635.635,0,0,0,.634-.633V65.713a.632.632,0,0,0-.634-.633H75.238ZM63.81,65.079H61.9a.635.635,0,0,0-.634.633V75.24a.632.632,0,0,0,.634.633H63.81Zm2.54-1.27H72.7V61.9a.634.634,0,0,0-.632-.634H66.981a.632.632,0,0,0-.632.634Z" transform="translate(18801.977 -19076.023)" fill="currentColor"/>
    <path id="Path_5035_-_Outline" data-name="Path 5035 - Outline" d="M66.957,59.5h5.086a2.381,2.381,0,0,1,2.378,2.38v1.43h2.7a2.382,2.382,0,0,1,2.38,2.379v9.527A2.382,2.382,0,0,1,77.12,77.6H61.88a2.382,2.382,0,0,1-2.38-2.379V65.689a2.382,2.382,0,0,1,2.38-2.379h2.7V61.88A2.381,2.381,0,0,1,66.957,59.5ZM77.12,76.643a1.429,1.429,0,0,0,1.427-1.427V65.689a1.429,1.429,0,0,0-1.427-1.427H73.468V61.88a1.428,1.428,0,0,0-1.425-1.427H66.957a1.428,1.428,0,0,0-1.425,1.427v2.382H61.88a1.429,1.429,0,0,0-1.427,1.427v9.527a1.429,1.429,0,0,0,1.427,1.427ZM66.957,60.77h5.086a1.11,1.11,0,0,1,1.108,1.11v2.382h-7.3V61.88A1.11,1.11,0,0,1,66.957,60.77ZM72.2,63.31V61.88a.159.159,0,0,0-.156-.157H66.957a.157.157,0,0,0-.156.157v1.43ZM61.88,64.579h2.382V76.325H61.88a1.111,1.111,0,0,1-1.11-1.11V65.689A1.111,1.111,0,0,1,61.88,64.579Zm1.43.952H61.88a.159.159,0,0,0-.157.157v9.527a.156.156,0,0,0,.157.157h1.43Zm1.27-.952h9.841V76.325H64.579Zm8.889.952H65.532v9.841h7.937Zm1.27-.952H77.12a1.111,1.111,0,0,1,1.11,1.109v9.527a1.111,1.111,0,0,1-1.11,1.11H74.738ZM77.12,75.373a.159.159,0,0,0,.157-.157V65.689a.156.156,0,0,0-.157-.157H75.69v9.841Z" transform="translate(18802 -19076)" fill="currentColor"/>
  </g>
</svg>
