<svg xmlns="http://www.w3.org/2000/svg" width="36" height="19.576" viewBox="0 0 36 19.576">
  <g id="Group_110" data-name="Group 110" transform="translate(948.1 -974.3)">
    <path id="Path_34" data-name="Path 34" d="M-944.727,974.74a.446.446,0,0,0-.44-.44h-2.493a.446.446,0,0,0-.44.44v18.7a.446.446,0,0,0,.44.44h2.493a.446.446,0,0,0,.44-.44v-3.666h29.255v3.666a.446.446,0,0,0,.44.44h2.493a.446.446,0,0,0,.44-.44v-7h-32.591l-.037-11.694Z" transform="translate(0 0)" fill="#0065cc"/>
    <circle id="Ellipse_2" data-name="Ellipse 2" cx="3.849" cy="3.849" r="3.849" transform="translate(-943.298 977.343)" fill="#0065cc"/>
    <path id="Path_35" data-name="Path 35" d="M-891.687,985.025l-15.837-3.409a2.215,2.215,0,0,0-2.676,2.163v5.865h22.069v-.22A4.475,4.475,0,0,0-891.687,985.025Z" transform="translate(-24.006 -4.603)" fill="#0065cc"/>
  </g>
</svg>
