<svg xmlns="http://www.w3.org/2000/svg" width="32" height="18.314" viewBox="0 0 32 18.314">
  <g id="Group_110" data-name="Group 110" transform="translate(949.1 -973.3)">
    <path id="Path_34" data-name="Path 34" d="M-945.29,974.667a.371.371,0,0,0-.367-.367h-2.077a.372.372,0,0,0-.367.367v15.58a.372.372,0,0,0,.367.367h2.077a.371.371,0,0,0,.367-.367v-3.055h24.379v3.055a.372.372,0,0,0,.367.367h2.077a.371.371,0,0,0,.367-.367v-5.835h-27.159l-.031-9.745Z" transform="translate(0 0)" fill="none" stroke="#fff" stroke-width="2"/>
    <circle id="Ellipse_2" data-name="Ellipse 2" cx="3.208" cy="3.208" r="3.208" transform="translate(-944.098 976.836)" fill="none" stroke="#fff" stroke-width="2" path="#fff"/>
    <path id="Path_35" data-name="Path 35" d="M-894.772,984.449l-13.2-2.841a1.845,1.845,0,0,0-2.23,1.8V988.3h18.391v-.183A3.73,3.73,0,0,0-894.772,984.449Z" transform="translate(-26.322 -5.047)" fill="none" stroke="#fff" stroke-width="2"/>
  </g>
</svg>
