<svg width="24" height="24" viewBox="0 0 24 24" fill="none" xmlns="http://www.w3.org/2000/svg">
<g clip-path="url(#clip0_2379_56038)">
<rect x="5" y="1.50006" width="14" height="2" rx="1" fill="currentColor"/>
<rect x="3" y="4.50006" width="18" height="2" rx="1" fill="currentColor"/>
<path fill-rule="evenodd" clip-rule="evenodd" d="M1 10.5001C1 8.84321 2.34315 7.50006 4 7.50006H20C21.6569 7.50006 23 8.84321 23 10.5001V19.5001C23 21.1569 21.6569 22.5001 20 22.5001H4C2.34315 22.5001 1 21.1569 1 19.5001V10.5001ZM4 9.50006C3.44772 9.50006 3 9.94778 3 10.5001V19.5001C3 20.0523 3.44772 20.5001 4 20.5001H20C20.5523 20.5001 21 20.0523 21 19.5001V10.5001C21 9.94778 20.5523 9.50006 20 9.50006H4Z" fill="currentColor"/>
</g>
<defs>
<clipPath id="clip0_2379_56038">
<rect width="24" height="24" fill="white"/>
</clipPath>
</defs>
</svg>
