<svg width="100%" height="100%" viewBox="0 0 24 24" fill="none" xmlns="http://www.w3.org/2000/svg">
<g clip-path="url(#clip0_2379_56050)">
<g clip-path="url(#clip1_2379_56050)">
<path d="M21.75 12.0001C21.7495 11.8154 21.6978 11.6345 21.6007 11.4774C21.5036 11.3203 21.365 11.1932 21.2 11.1101L15.08 8.05009V4.05009C15.08 3.23323 14.7555 2.44982 14.1779 1.8722C13.6003 1.29459 12.8169 0.970093 12 0.970093C11.1832 0.970093 10.3998 1.29459 9.82215 1.8722C9.24453 2.44982 8.92003 3.23323 8.92003 4.05009V8.05009L2.80003 11.1101C2.63512 11.1932 2.49644 11.3203 2.39936 11.4774C2.30228 11.6345 2.25059 11.8154 2.25003 12.0001V15.3301C2.24868 15.493 2.28714 15.6538 2.36208 15.7984C2.43702 15.9431 2.54617 16.0672 2.68003 16.1601C2.81313 16.2513 2.96632 16.3089 3.12653 16.3281C3.28673 16.3472 3.44919 16.3273 3.60003 16.2701L8.92003 14.2701V18.0001L7.10003 18.6001C6.90141 18.6672 6.7289 18.795 6.60688 18.9655C6.48485 19.1359 6.41949 19.3404 6.42003 19.5501V22.0001C6.42058 22.1324 6.44738 22.2633 6.49888 22.3852C6.55038 22.507 6.62555 22.6175 6.72003 22.7101C6.9063 22.8948 7.15769 22.999 7.42003 23.0001H16.59C16.8553 23.0001 17.1096 22.8947 17.2971 22.7072C17.4847 22.5197 17.59 22.2653 17.59 22.0001V19.5001C17.5906 19.2904 17.5252 19.0859 17.4032 18.9155C17.2812 18.745 17.1087 18.6172 16.91 18.5501L15.08 18.0001V14.2801L20.4 16.2801C20.5509 16.3373 20.7133 16.3572 20.8735 16.3381C21.0337 16.3189 21.1869 16.2613 21.32 16.1701C21.4539 16.0772 21.563 15.9531 21.638 15.8084C21.7129 15.6638 21.7514 15.503 21.75 15.3401V12.0001ZM14.44 11.9001C14.2878 11.8411 14.1235 11.8203 13.9614 11.8395C13.7993 11.8587 13.6443 11.9172 13.51 12.0101C13.3776 12.102 13.2693 12.2245 13.1944 12.3673C13.1195 12.5101 13.0803 12.6689 13.08 12.8301V18.6701C13.0802 18.881 13.147 19.0864 13.2709 19.257C13.3949 19.4276 13.5695 19.5547 13.77 19.6201L15.58 20.2201V21.0001H8.41003V20.2201L10.22 19.6201C10.4205 19.5547 10.5952 19.4276 10.7191 19.257C10.8431 19.0864 10.9099 18.881 10.91 18.6701V12.8301C10.9098 12.6689 10.8705 12.5101 10.7957 12.3673C10.7208 12.2245 10.6125 12.102 10.48 12.0101C10.3458 11.9172 10.1908 11.8587 10.0287 11.8395C9.8666 11.8203 9.70226 11.8411 9.55003 11.9001L4.24003 13.9001V12.6201L10.35 9.56009C10.5168 9.47838 10.6575 9.35184 10.7565 9.19464C10.8554 9.03745 10.9085 8.85581 10.91 8.67009V4.08009C10.91 3.79366 11.0238 3.51896 11.2264 3.31642C11.4289 3.11388 11.7036 3.00009 11.99 3.00009C12.2765 3.00009 12.5512 3.11388 12.7537 3.31642C12.9562 3.51896 13.07 3.79366 13.07 4.08009V8.67009C13.0715 8.85581 13.1247 9.03745 13.2236 9.19464C13.3225 9.35184 13.4633 9.47838 13.63 9.56009L19.74 12.6201V13.8901L14.44 11.9001Z" fill="currentColor"/>
</g>
</g>
<defs>
<clipPath id="clip0_2379_56050">
<rect width="24" height="24" fill="white"/>
</clipPath>
<clipPath id="clip1_2379_56050">
<rect width="24" height="24" fill="white"/>
</clipPath>
</defs>
</svg>
