<svg width="24" height="24" viewBox="0 0 24 24" fill="none" xmlns="http://www.w3.org/2000/svg">
<g clip-path="url(#clip0_2379_56056)">
<path d="M13 10.0001H11C10.7348 10.0001 10.4804 10.1055 10.2929 10.293C10.1054 10.4806 10 10.7349 10 11.0001C10 11.2653 10.1054 11.5197 10.2929 11.7072C10.4804 11.8948 10.7348 12.0001 11 12.0001H13C13.2652 12.0001 13.5196 11.8948 13.7071 11.7072C13.8946 11.5197 14 11.2653 14 11.0001C14 10.7349 13.8946 10.4806 13.7071 10.293C13.5196 10.1055 13.2652 10.0001 13 10.0001ZM18 10.0001C17.9971 9.11556 17.7011 8.25691 17.1583 7.55848C16.6155 6.86006 15.8565 6.36126 15 6.14012V5.00012C15 4.20447 14.6839 3.44141 14.1213 2.8788C13.5587 2.31619 12.7956 2.00012 12 2.00012C11.2044 2.00012 10.4413 2.31619 9.87868 2.8788C9.31607 3.44141 9 4.20447 9 5.00012V6.14012C8.14353 6.36126 7.38451 6.86006 6.84169 7.55848C6.29887 8.25691 6.00287 9.11556 6 10.0001C4.93913 10.0001 3.92172 10.4215 3.17157 11.1717C2.42143 11.9218 2 12.9393 2 14.0001V17.0001C2 17.7958 2.31607 18.5588 2.87868 19.1214C3.44129 19.6841 4.20435 20.0001 5 20.0001H6.18C6.38631 20.5837 6.76807 21.0891 7.27293 21.4472C7.7778 21.8052 8.38106 21.9984 9 22.0001H15C15.6189 21.9984 16.2222 21.8052 16.7271 21.4472C17.2319 21.0891 17.6137 20.5837 17.82 20.0001H19C19.7956 20.0001 20.5587 19.6841 21.1213 19.1214C21.6839 18.5588 22 17.7958 22 17.0001V14.0001C22 12.9393 21.5786 11.9218 20.8284 11.1717C20.0783 10.4215 19.0609 10.0001 18 10.0001ZM6 18.0001H5C4.73478 18.0001 4.48043 17.8948 4.29289 17.7072C4.10536 17.5197 4 17.2653 4 17.0001V14.0001C4 13.4697 4.21071 12.961 4.58579 12.5859C4.96086 12.2108 5.46957 12.0001 6 12.0001V18.0001ZM11 5.00012C11 4.73491 11.1054 4.48055 11.2929 4.29302C11.4804 4.10548 11.7348 4.00012 12 4.00012C12.2652 4.00012 12.5196 4.10548 12.7071 4.29302C12.8946 4.48055 13 4.73491 13 5.00012V6.00012H11V5.00012ZM16 19.0001C16 19.2653 15.8946 19.5197 15.7071 19.7072C15.5196 19.8948 15.2652 20.0001 15 20.0001H9C8.73478 20.0001 8.48043 19.8948 8.29289 19.7072C8.10536 19.5197 8 19.2653 8 19.0001V18.0001C8 17.4697 8.21071 16.961 8.58579 16.5859C8.96086 16.2108 9.46957 16.0001 10 16.0001H14C14.5304 16.0001 15.0391 16.2108 15.4142 16.5859C15.7893 16.961 16 17.4697 16 18.0001V19.0001ZM16 14.5601C15.396 14.1966 14.705 14.0031 14 14.0001H10C9.29504 14.0031 8.60399 14.1966 8 14.5601V10.0001C8 9.46969 8.21071 8.96098 8.58579 8.58591C8.96086 8.21084 9.46957 8.00012 10 8.00012H14C14.5304 8.00012 15.0391 8.21084 15.4142 8.58591C15.7893 8.96098 16 9.46969 16 10.0001V14.5601ZM20 17.0001C20 17.2653 19.8946 17.5197 19.7071 17.7072C19.5196 17.8948 19.2652 18.0001 19 18.0001H18V12.0001C18.5304 12.0001 19.0391 12.2108 19.4142 12.5859C19.7893 12.961 20 13.4697 20 14.0001V17.0001Z" fill="currentColor"/>
</g>
<defs>
<clipPath id="clip0_2379_56056">
<rect width="24" height="24" fill="white"/>
</clipPath>
</defs>
</svg>
