<svg width="20" height="18" viewBox="0 0 20 18" fill="none" xmlns="http://www.w3.org/2000/svg">
<path fill="currentColor" fill="#0DADB9" fill-rule="evenodd" clip-rule="evenodd" d="M12.2344 2.42143H4.43237L2.64665 6.5881H8.33337V8.25477H2.50004V11.5881H8.33337V13.2548H4.16671V14.0881C4.16671 14.5483 3.79361 14.9214 3.33337 14.9214C2.87314 14.9214 2.50004 14.5483 2.50004 14.0881V13.2548C1.57957 13.2548 0.833374 12.5086 0.833374 11.5881V6.9302C0.833374 6.70449 0.87922 6.48113 0.968132 6.27367L2.90046 1.7649C3.16309 1.1521 3.76565 0.754768 4.43237 0.754768H12.2344C12.9011 0.754768 13.5037 1.1521 13.7663 1.7649L15.1191 4.92143H13.3058L12.2344 2.42143ZM5.41671 9.92144C5.41671 10.3817 5.04361 10.7548 4.58337 10.7548C4.12314 10.7548 3.75004 10.3817 3.75004 9.92144C3.75004 9.4612 4.12314 9.0881 4.58337 9.0881C5.04361 9.0881 5.41671 9.4612 5.41671 9.92144ZM17.5 7.42143H10.8334V9.92143H17.5V7.42143ZM9.16671 9.92143V11.5881V14.0881C9.16671 15.0086 9.9129 15.7548 10.8334 15.7548L10.8334 16.588C10.8334 17.0483 11.2065 17.4214 11.6667 17.4214C12.1269 17.4214 12.5 17.0483 12.5 16.588V15.7548H15.8334V16.588C15.8334 17.0483 16.2065 17.4214 16.6667 17.4214C17.1269 17.4214 17.5 17.0483 17.5 16.588V15.7548C18.4205 15.7548 19.1667 15.0086 19.1667 14.0881V7.42143C19.1667 6.50096 18.4205 5.75477 17.5 5.75477H10.8334C9.9129 5.75477 9.16671 6.50096 9.16671 7.42144V9.92143ZM17.5 11.5881H10.8334V14.0881H17.5V11.5881ZM12.9167 12.8381C12.9167 13.2983 12.5436 13.6714 12.0834 13.6714C11.6231 13.6714 11.25 13.2983 11.25 12.8381C11.25 12.3779 11.6231 12.0048 12.0834 12.0048C12.5436 12.0048 12.9167 12.3779 12.9167 12.8381ZM16.25 13.6714C16.7103 13.6714 17.0834 13.2983 17.0834 12.8381C17.0834 12.3779 16.7103 12.0048 16.25 12.0048C15.7898 12.0048 15.4167 12.3779 15.4167 12.8381C15.4167 13.2983 15.7898 13.6714 16.25 13.6714Z" />
</svg>
