<svg width="24" height="24" viewBox="0 0 24 24" fill="none" xmlns="http://www.w3.org/2000/svg">
<g clip-path="url(#clip0_2379_56068)">
<path d="M18.428 7.1342C18.6577 7.00159 18.8253 6.78317 18.8939 6.52699C18.9626 6.27082 18.9266 5.99786 18.794 5.76818L16.794 2.30407C16.6614 2.07439 16.443 1.90679 16.1868 1.83815C15.9306 1.76951 15.6577 1.80544 15.428 1.93805L1.57159 9.93805C1.34191 10.0707 1.17431 10.2891 1.10567 10.5453C1.03702 10.8014 1.07296 11.0744 1.20557 11.3041L3.20557 14.7682C3.33817 14.9979 3.55659 15.1655 3.81277 15.2341C4.06895 15.3027 4.34191 15.2668 4.57159 15.1342C4.80128 15.0016 5.07423 14.9657 5.33041 15.0343C5.58659 15.1029 5.80501 15.2705 5.93762 15.5002C6.07023 15.7299 6.10616 16.0029 6.03752 16.259C5.96887 16.5152 5.80128 16.7336 5.57159 16.8663C5.34191 16.9989 5.17431 17.2173 5.10567 17.4735C5.03702 17.7296 5.07296 18.0026 5.20557 18.2323L7.20557 21.6964C7.33817 21.9261 7.55659 22.0937 7.81277 22.1623C8.06895 22.2309 8.34191 22.195 8.57159 22.0624L22.428 14.0624C22.6577 13.9298 22.8253 13.7114 22.8939 13.4552C22.9626 13.199 22.9266 12.9261 22.794 12.6964L20.794 9.23228C20.6614 9.00259 20.443 8.83499 20.1868 8.76635C19.9306 8.69771 19.6577 8.73364 19.428 8.86625C19.1983 8.99886 18.9254 9.0348 18.6692 8.96615C18.413 8.89751 18.1946 8.72991 18.062 8.50023C17.9294 8.27054 17.8934 7.99759 17.9621 7.74141C18.0307 7.48523 18.1983 7.26681 18.428 7.1342ZM16.652 6.05804C16.2555 6.52965 16.0139 7.1119 15.9599 7.72565C15.9059 8.3394 16.0422 8.95489 16.3503 9.48847C16.6584 10.022 17.1232 10.4478 17.6817 10.708C18.2402 10.9681 18.8653 11.05 19.472 10.9424L20.562 12.8304L13.6338 16.8304C13.5012 16.6007 13.2827 16.4331 13.0266 16.3644C12.7704 16.2958 12.4974 16.3317 12.2677 16.4643C12.0381 16.5969 11.8705 16.8154 11.8018 17.0715C11.7332 17.3277 11.7691 17.6007 11.9017 17.8304L8.43762 19.8304L7.34762 17.9424C7.74408 17.4708 7.98571 16.8886 8.03969 16.2748C8.09366 15.661 7.95736 15.0456 7.6493 14.512C7.34124 13.9784 6.87636 13.5526 6.31785 13.2925C5.75934 13.0324 5.13428 12.9505 4.52762 13.058L3.43762 11.1701L6.90172 9.1701C7.03433 9.39978 7.25275 9.56738 7.50893 9.63603C7.7651 9.70467 8.03806 9.66873 8.26774 9.53613C8.49743 9.40352 8.66503 9.1851 8.73367 8.92892C8.80231 8.67274 8.76638 8.39978 8.63377 8.1701L15.562 4.1701L16.652 6.05804Z" fill="currentColor"/>
<path d="M13.8217 9.71986C13.7766 9.67964 13.7216 9.65322 13.6634 9.64379C13.6051 9.63436 13.5461 9.64233 13.4935 9.66673L11.8871 10.2937L10.4148 9.27162C10.3671 9.23797 10.3116 9.2184 10.2546 9.21515C10.1977 9.2119 10.1416 9.2251 10.0929 9.25324C10.0442 9.28138 10.0047 9.32332 9.97904 9.37426C9.95338 9.42519 9.94257 9.48307 9.94783 9.54125L10.0953 11.3245L8.75068 12.405C8.70678 12.4399 8.67381 12.487 8.65551 12.5411C8.63721 12.5952 8.63431 12.6541 8.64714 12.711C8.6606 12.7661 8.68835 12.817 8.7274 12.8583C8.76645 12.8995 8.81533 12.9295 8.86879 12.9451L10.5675 13.4128L11.1986 15.1051C11.2177 15.1623 11.2523 15.2133 11.2983 15.252C11.3443 15.2906 11.3997 15.3153 11.4579 15.3231C11.5161 15.3308 11.5746 15.3212 11.6263 15.2955C11.678 15.2698 11.7207 15.2291 11.7494 15.1782L12.654 13.6891L14.3958 13.6503C14.4446 13.6507 14.4922 13.6382 14.534 13.6139C14.589 13.5824 14.6322 13.5334 14.6573 13.474C14.6801 13.4205 14.6872 13.3609 14.6778 13.3022C14.6684 13.2435 14.6429 13.188 14.6042 13.1425L13.4542 11.7497L13.8986 10.0448C13.9169 9.98995 13.9193 9.9303 13.9057 9.87278C13.8921 9.81526 13.863 9.76223 13.8217 9.71986Z" fill="currentColor"/>
</g>
<defs>
<clipPath id="clip0_2379_56068">
<rect width="24" height="24" fill="white" transform="translate(0 0.000244141)"/>
</clipPath>
</defs>
</svg>
