<svg width="24" height="24" viewBox="0 0 24 24" fill="none" xmlns="http://www.w3.org/2000/svg">
<g clip-path="url(#clip0_2379_56074)">
<path d="M16.84 11.6302C17.2405 11.6352 17.638 11.5599 18.009 11.4087C18.38 11.2576 18.7169 11.0337 19 10.7502L21.83 7.92022C22.0162 7.73285 22.1208 7.4794 22.1208 7.21522C22.1208 6.95103 22.0162 6.69758 21.83 6.51022C21.737 6.41649 21.6264 6.34209 21.5046 6.29133C21.3827 6.24056 21.252 6.21442 21.12 6.21442C20.988 6.21442 20.8573 6.24056 20.7354 6.29133C20.6136 6.34209 20.5029 6.41649 20.41 6.51022L17.55 9.33022C17.457 9.42395 17.3464 9.49834 17.2246 9.54911C17.1027 9.59988 16.972 9.62602 16.84 9.62602C16.708 9.62602 16.5773 9.59988 16.4554 9.54911C16.3336 9.49834 16.2229 9.42395 16.13 9.33022L19.67 5.80022C19.7632 5.70698 19.8372 5.59629 19.8876 5.47447C19.9381 5.35264 19.9641 5.22208 19.9641 5.09022C19.9641 4.95836 19.9381 4.82779 19.8876 4.70597C19.8372 4.58415 19.7632 4.47346 19.67 4.38022C19.5767 4.28698 19.4661 4.21302 19.3442 4.16256C19.2224 4.1121 19.0918 4.08613 18.96 4.08613C18.8281 4.08613 18.6976 4.1121 18.5757 4.16256C18.4539 4.21302 18.3432 4.28698 18.25 4.38022L14.72 7.92022C14.5337 7.73285 14.4292 7.4794 14.4292 7.21522C14.4292 6.95103 14.5337 6.69758 14.72 6.51022L17.55 3.68022C17.6432 3.58698 17.7172 3.47629 17.7676 3.35447C17.8181 3.23264 17.8441 3.10208 17.8441 2.97022C17.8441 2.83836 17.8181 2.70779 17.7676 2.58597C17.7172 2.46415 17.6432 2.35346 17.55 2.26022C17.4567 2.16698 17.3461 2.09302 17.2242 2.04256C17.1024 1.9921 16.9718 1.96613 16.84 1.96613C16.7081 1.96613 16.5776 1.9921 16.4557 2.04256C16.3339 2.09302 16.2232 2.16698 16.13 2.26022L13.3 5.09022C12.7382 5.65272 12.4226 6.41522 12.4226 7.21022C12.4226 8.00522 12.7382 8.76772 13.3 9.33022L12 10.6202L3.72999 2.32022L3.62999 2.26022C3.57887 2.21562 3.52162 2.17857 3.45999 2.15022L3.27999 2.08022L3.15999 2.00022H3.08999H2.88999C2.83037 1.99068 2.76961 1.99068 2.70999 2.00022C2.64945 2.02225 2.59224 2.05254 2.53999 2.09022L2.37999 2.19022H2.30999L2.24999 2.29022C2.20766 2.34302 2.17081 2.39997 2.13999 2.46022C2.1107 2.5212 2.08726 2.58481 2.06999 2.65022C2.06999 2.65022 2.06999 2.72022 2.06999 2.76022C1.82732 4.45163 1.98204 6.17631 2.52186 7.79753C3.06169 9.41875 3.97179 10.8919 5.17999 12.1002L7.81999 14.7302L2.40999 20.1302C2.31626 20.2232 2.24186 20.3338 2.1911 20.4556C2.14033 20.5775 2.11419 20.7082 2.11419 20.8402C2.11419 20.9722 2.14033 21.1029 2.1911 21.2248C2.24186 21.3467 2.31626 21.4573 2.40999 21.5502C2.50343 21.6429 2.61424 21.7162 2.73608 21.766C2.85792 21.8158 2.98838 21.841 3.11999 21.8402C3.25159 21.841 3.38206 21.8158 3.50389 21.766C3.62573 21.7162 3.73655 21.6429 3.82999 21.5502L9.89999 15.5702L12.73 12.7402L14.73 10.7402C15.288 11.3042 16.0466 11.6242 16.84 11.6302ZM9.18999 13.4502L6.55999 10.8102C5.11844 9.34895 4.21583 7.44148 3.99999 5.40022L10.61 12.0002L9.18999 13.4502ZM15.43 14.0202C15.2417 13.8306 14.9858 13.7235 14.7185 13.7226C14.4513 13.7217 14.1946 13.8269 14.005 14.0152C13.8154 14.2035 13.7083 14.4594 13.7074 14.7267C13.7064 14.9939 13.8117 15.2506 14 15.4402L20.3 21.7402C20.491 21.914 20.7418 22.0072 21 22.0002C21.1316 22.001 21.2621 21.9758 21.3839 21.926C21.5057 21.8762 21.6165 21.8029 21.71 21.7102C21.8037 21.6173 21.8781 21.5067 21.9289 21.3848C21.9796 21.2629 22.0058 21.1322 22.0058 21.0002C22.0058 20.8682 21.9796 20.7375 21.9289 20.6156C21.8781 20.4938 21.8037 20.3832 21.71 20.2902L15.43 14.0202Z" fill="currentColor"/>
</g>
<defs>
<clipPath id="clip0_2379_56074">
<rect width="24" height="24" fill="white" transform="translate(0 0.000244141)"/>
</clipPath>
</defs>
</svg>
