<svg width="24" height="24" viewBox="0 0 24 24" fill="none" xmlns="http://www.w3.org/2000/svg">
<g clip-path="url(#clip0_2379_56044)">
<path d="M7 12.5001C7.59334 12.5001 8.17336 12.3242 8.66671 11.9945C9.16006 11.6649 9.54458 11.1964 9.77164 10.6482C9.9987 10.1 10.0581 9.49679 9.94236 8.91485C9.8266 8.33291 9.54088 7.79836 9.12132 7.3788C8.70176 6.95924 8.16721 6.67352 7.58527 6.55777C7.00333 6.44201 6.40013 6.50142 5.85195 6.72848C5.30377 6.95555 4.83524 7.34006 4.50559 7.83341C4.17595 8.32676 4 8.90678 4 9.50012C4 10.2958 4.31607 11.0588 4.87868 11.6214C5.44129 12.1841 6.20435 12.5001 7 12.5001ZM7 8.50012C7.19778 8.50012 7.39112 8.55877 7.55557 8.66865C7.72002 8.77853 7.84819 8.93471 7.92388 9.11744C7.99957 9.30016 8.01937 9.50123 7.98079 9.69521C7.9422 9.88919 7.84696 10.0674 7.70711 10.2072C7.56725 10.3471 7.38907 10.4423 7.19509 10.4809C7.00111 10.5195 6.80004 10.4997 6.61732 10.424C6.43459 10.3483 6.27841 10.2201 6.16853 10.0557C6.05865 9.89124 6 9.6979 6 9.50012C6 9.23491 6.10536 8.98055 6.29289 8.79302C6.48043 8.60548 6.73478 8.50012 7 8.50012ZM20 6.50012H12C11.7348 6.50012 11.4804 6.60548 11.2929 6.79302C11.1054 6.98055 11 7.23491 11 7.50012V13.5001H3V5.50012C3 5.23491 2.89464 4.98055 2.70711 4.79302C2.51957 4.60548 2.26522 4.50012 2 4.50012C1.73478 4.50012 1.48043 4.60548 1.29289 4.79302C1.10536 4.98055 1 5.23491 1 5.50012V18.5001C1 18.7653 1.10536 19.0197 1.29289 19.2072C1.48043 19.3948 1.73478 19.5001 2 19.5001C2.26522 19.5001 2.51957 19.3948 2.70711 19.2072C2.89464 19.0197 3 18.7653 3 18.5001V15.5001H21V18.5001C21 18.7653 21.1054 19.0197 21.2929 19.2072C21.4804 19.3948 21.7348 19.5001 22 19.5001C22.2652 19.5001 22.5196 19.3948 22.7071 19.2072C22.8946 19.0197 23 18.7653 23 18.5001V9.50012C23 8.70447 22.6839 7.94141 22.1213 7.3788C21.5587 6.81619 20.7956 6.50012 20 6.50012ZM21 13.5001H13V8.50012H20C20.2652 8.50012 20.5196 8.60548 20.7071 8.79302C20.8946 8.98055 21 9.23491 21 9.50012V13.5001Z" fill="currentColor"/>
</g>
<defs>
<clipPath id="clip0_2379_56044">
<rect width="24" height="24" fill="white"/>
</clipPath>
</defs>
</svg>
