<svg width="24" height="24" viewBox="0 0 24 24" fill="none" xmlns="http://www.w3.org/2000/svg">
<g clip-path="url(#clip0_2379_56062)">
<path d="M19 9.50017L17.75 5.88018C17.5268 5.32544 17.1428 4.85007 16.6475 4.51509C16.1521 4.18011 15.568 4.0008 14.97 4.00018H8.45C7.75529 3.99819 7.08142 4.23737 6.54342 4.6769C6.00541 5.11642 5.63662 5.72904 5.5 6.41018L4.98 9.50017H5C4.20435 9.50017 3.44129 9.81624 2.87868 10.3789C2.31607 10.9415 2 11.7045 2 12.5002V15.5002C2 15.7654 2.10536 16.0197 2.29289 16.2073C2.48043 16.3948 2.73478 16.5002 3 16.5002H4C4 17.2958 4.31607 18.0589 4.87868 18.6215C5.44129 19.1841 6.20435 19.5002 7 19.5002C7.79565 19.5002 8.55871 19.1841 9.12132 18.6215C9.68393 18.0589 10 17.2958 10 16.5002H14C14 17.2958 14.3161 18.0589 14.8787 18.6215C15.4413 19.1841 16.2044 19.5002 17 19.5002C17.7956 19.5002 18.5587 19.1841 19.1213 18.6215C19.6839 18.0589 20 17.2958 20 16.5002H21C21.2652 16.5002 21.5196 16.3948 21.7071 16.2073C21.8946 16.0197 22 15.7654 22 15.5002V12.5002C22 11.7045 21.6839 10.9415 21.1213 10.3789C20.5587 9.81624 19.7956 9.50017 19 9.50017ZM13 6.00018H14.97C15.1686 6.00198 15.3621 6.06286 15.526 6.17506C15.6898 6.28725 15.8165 6.44569 15.89 6.63018L16.84 9.50017H13V6.00018ZM7.46 6.80018C7.50675 6.57091 7.63242 6.36529 7.81514 6.21911C7.99786 6.07294 8.22605 5.99547 8.46 6.00018H11V9.50017H7.02L7.46 6.80018ZM7 17.5002C6.80222 17.5002 6.60888 17.4415 6.44443 17.3316C6.27998 17.2218 6.15181 17.0656 6.07612 16.8829C6.00043 16.7001 5.98063 16.4991 6.01921 16.3051C6.0578 16.1111 6.15304 15.9329 6.29289 15.7931C6.43275 15.6532 6.61093 15.558 6.80491 15.5194C6.99889 15.4808 7.19996 15.5006 7.38268 15.5763C7.56541 15.652 7.72159 15.7802 7.83147 15.9446C7.94135 16.109 8 16.3024 8 16.5002C8 16.7654 7.89464 17.0197 7.70711 17.2073C7.51957 17.3948 7.26522 17.5002 7 17.5002ZM17 17.5002C16.8022 17.5002 16.6089 17.4415 16.4444 17.3316C16.28 17.2218 16.1518 17.0656 16.0761 16.8829C16.0004 16.7001 15.9806 16.4991 16.0192 16.3051C16.0578 16.1111 16.153 15.9329 16.2929 15.7931C16.4327 15.6532 16.6109 15.558 16.8049 15.5194C16.9989 15.4808 17.2 15.5006 17.3827 15.5763C17.5654 15.652 17.7216 15.7802 17.8315 15.9446C17.9414 16.109 18 16.3024 18 16.5002C18 16.7654 17.8946 17.0197 17.7071 17.2073C17.5196 17.3948 17.2652 17.5002 17 17.5002ZM20 14.5002H19.22C18.9388 14.1908 18.5961 13.9436 18.2138 13.7745C17.8315 13.6054 17.418 13.518 17 13.518C16.582 13.518 16.1685 13.6054 15.7862 13.7745C15.4039 13.9436 15.0612 14.1908 14.78 14.5002H9.22C8.93882 14.1908 8.59609 13.9436 8.21378 13.7745C7.83148 13.6054 7.41805 13.518 7 13.518C6.58195 13.518 6.16852 13.6054 5.78622 13.7745C5.40391 13.9436 5.06118 14.1908 4.78 14.5002H4V12.5002C4 12.235 4.10536 11.9806 4.29289 11.7931C4.48043 11.6055 4.73478 11.5002 5 11.5002H19C19.2652 11.5002 19.5196 11.6055 19.7071 11.7931C19.8946 11.9806 20 12.235 20 12.5002V14.5002Z" fill="currentColor"/>
</g>
<defs>
<clipPath id="clip0_2379_56062">
<rect width="24" height="24" fill="white"/>
</clipPath>
</defs>
</svg>
