<svg xmlns="http://www.w3.org/2000/svg" width="12" height="9.098" viewBox="0 0 12 9.098">
  <path id="Path_5030" data-name="Path 5030" d="M143.612-514.082c-.147-.146-.3-.285-.438-.441a.6.6,0,0,0-.943-.006q-3.1,3.121-6.217,6.226a1.314,1.314,0,0,0-.116.16c-.069-.066-.1-.094-.13-.124l-2.218-2.217a2.611,2.611,0,0,0-.207-.192.57.57,0,0,0-.75.007,7.839,7.839,0,0,0-.565.552.6.6,0,0,0,.025.913q1.676,1.68,3.356,3.355a.57.57,0,0,0,.853,0c.143-.137.281-.278.421-.418l5.022-5.024q.959-.959,1.916-1.918A.556.556,0,0,0,143.612-514.082Z" transform="translate(-131.831 514.752)" fill="#4d4d4d"/>
</svg>
