<svg xmlns="http://www.w3.org/2000/svg" width="16.982" height="24" viewBox="0 0 16.982 24">
  <g id="Group_29" data-name="Group 29" transform="translate(-701.81 -669)">
    <path id="Path_12" data-name="Path 12" d="M16.928,3.025a.48.48,0,0,0-.48-.48h-.139a.624.624,0,0,0-.648.619V8.7a.84.84,0,0,1-1.526.48.96.96,0,0,1-.154-.523V3.169a.624.624,0,0,0-.624-.624h0a.624.624,0,0,0-.624.624v5.5a.96.96,0,0,1-.154.523.84.84,0,0,1-1.526-.48V3.164a.624.624,0,0,0-.624-.624H10.29a.48.48,0,0,0-.48.48v8.8a1.574,1.574,0,0,0,1.531,1.574h1.013L11.37,24.759a1.891,1.891,0,0,0,2.011,1.747h0a1.891,1.891,0,0,0,2.011-1.747L14.4,13.393h1.013a1.574,1.574,0,0,0,1.522-1.574V3.025Z" transform="translate(692 666.479)" fill="#fff"/>
    <path id="Path_13" data-name="Path 13" d="M38.419,15.58a1.891,1.891,0,0,0,.446-1.234V4.3a1.714,1.714,0,0,0-1.627-1.8c-3.47.379-5.65,11.712-1.387,13.085h0L35.078,24.5a2.006,2.006,0,0,0,2.021,2h0a2.006,2.006,0,0,0,2.011-2Z" transform="translate(679.683 666.5)" fill="#fff"/>
  </g>
</svg>
