<svg xmlns="http://www.w3.org/2000/svg" width="35.9" height="11.002" viewBox="0 0 35.9 11.002">
  <g id="Group_8212" data-name="Group 8212" transform="translate(2138.654 3347.647)">
    <path id="Path_69" data-name="Path 69" d="M-2128.481-3346.875c.73-.261,1.411-.5,2.091-.748a.67.67,0,0,1,.5.085q5.107,2.042,10.211,4.087c.262.1.53.189.8.279.062.02.142.046.179-.031.055-.116-.055-.13-.122-.159l-1.9-.778c-.4-.16-.792-.322-1.289-.525.756-.216,1.408-.421,2.069-.593,2.494-.652,4.957-1.424,7.487-1.925a8.747,8.747,0,0,1,4.911.469,1.989,1.989,0,0,1,.349.2.772.772,0,0,1,.2,1.266,4.591,4.591,0,0,1-.914.792,10.148,10.148,0,0,1-3.47,1.354q-10.588,2.955-21.185,5.887a13.627,13.627,0,0,1-4.625.541,1.543,1.543,0,0,1-1.488-1.6,1.106,1.106,0,0,0-.269-.77c-1.195-1.428-2.368-2.872-3.562-4.3-.215-.256-.191-.344.123-.442a7.116,7.116,0,0,1,1.788-.575,4.791,4.791,0,0,1,1.75.669c1.573.659,3.146,1.319,4.711,2a1.308,1.308,0,0,0,.97.049c1.5-.464,3.007-.911,4.505-1.382a.536.536,0,0,1,.576.12c.633.523,1.282,1.029,1.928,1.537.083.066.184.242.294.1s-.088-.2-.169-.266q-3.034-2.516-6.074-5.026C-2128.223-3346.651-2128.333-3346.748-2128.481-3346.875Z" transform="translate(0 0)" fill="#7b7c7e"/>
  </g>
</svg>
