<svg xmlns="http://www.w3.org/2000/svg" width="24.047" height="24.396" viewBox="0 0 24.047 24.396">
  <g id="Group_6885" data-name="Group 6885" transform="translate(0)">
    <path id="Path_2652" data-name="Path 2652" d="M24.006,21.09q-.748-4.2-1.5-8.408-.783-4.366-1.564-8.731A1.266,1.266,0,0,0,20.23,3a3.022,3.022,0,0,0-1.357-.274c-.207,0-.256.087-.251.271.009.357,0,.714,0,1.071,0,.134.01.264.19.235.387-.063.429.173.482.475.529,2.964,1.073,5.926,1.611,8.889q.67,3.7,1.334,7.4a1.34,1.34,0,0,1-.893,1.6,1.488,1.488,0,0,1-2.017-1.417c.039-2,.017-4.008.029-6.012a14.3,14.3,0,0,0-.073-1.561,2.13,2.13,0,0,0-1.624-1.948,4.062,4.062,0,0,0-1.094-.172c-.189,0-.342.01-.336-.27.006-.3.2-.234.366-.237a8.836,8.836,0,0,1,.946,0c.334.03.414-.1.412-.417q-.016-5.106,0-10.213C17.957.1,17.881,0,17.55,0,14.694.016,11.839.01,8.984.01,6.144.009,3.3.019.462,0,.07,0-.007.118,0,.479.023,1.549.008,2.62.008,3.691c0,2.333.007,4.667-.008,7,0,.332.1.434.415.406.259-.023.524.02.781-.011.39-.046.468.115.467.48-.012,4.1,0,8.209-.014,12.313,0,.3.059.4.379.4q6.9-.016,13.8,0c.331,0,.409-.1.407-.421-.012-2.732-.007-5.463-.007-8.195,0-.714.012-1.428-.006-2.141-.007-.274.086-.348.349-.345.761.009.983.209.986.978q.01,3.5,0,7a3.477,3.477,0,0,0,.141,1.054,3.34,3.34,0,0,0,5.455,1.253A2.592,2.592,0,0,0,24.006,21.09ZM14.794,9.108c-1.935.007-3.87,0-5.8,0q-2.861,0-5.722,0c-.922,0-1.132-.217-1.133-1.145q0-2.635,0-5.269c0-.7.258-.987.958-.988q5.886-.012,11.773,0c.687,0,.955.3.956,1q0,2.7,0,5.392C15.824,8.831,15.553,9.1,14.794,9.108Z" transform="translate(0 0)" fill="#818284"/>
  </g>
</svg>
