<svg xmlns="http://www.w3.org/2000/svg" width="21.194" height="24" viewBox="0 0 21.194 24">
  <g id="noun_shopping_3639179" transform="translate(-5.536 -2.067)">
    <g id="Layer_75" data-name="Layer 75" transform="translate(5.536 2.067)">
      <path id="Path_4917" data-name="Path 4917" d="M26.726,23.473l-.981-13.179a2.427,2.427,0,0,0-2.4-2.247H22.072C21.055.07,11.18.078,10.163,8.047H8.925a2.427,2.427,0,0,0-2.4,2.243L5.542,23.469a2.435,2.435,0,0,0,2.4,2.6H24.311a2.439,2.439,0,0,0,2.415-2.595ZM16.134,3.642c2.194,0,4,1.918,4.341,4.4h-8.7C12.105,5.56,13.923,3.642,16.134,3.642Zm8.81,20.563a.8.8,0,0,1-.6.26H7.956a.8.8,0,0,1-.8-.877L8.125,10.41a.8.8,0,0,1,.8-.761h1.2v1.842a.8.8,0,1,0,1.6,0V9.649h8.81v1.842a.8.8,0,1,0,1.6,0V9.649h1.2a.8.8,0,0,1,.8.757l.965,13.179a.8.8,0,0,1-.2.621Z" transform="translate(-5.536 -2.067)" fill="#0065cc"/>
    </g>
  </g>
</svg>
