<svg xmlns="http://www.w3.org/2000/svg" width="16" height="16" viewBox="0 0 16 16">
  <path id="Path_233" data-name="Path 233" d="M2888.744-1380.851a7.978,7.978,0,0,1-8.013,7.989,7.945,7.945,0,0,1-7.987-8.008,7.964,7.964,0,0,1,8.123-7.991A7.993,7.993,0,0,1,2888.744-1380.851Zm-9.091,2.53c-.085.008-.132.015-.179.017-.443.021-.561.141-.563.574,0,.144,0,.288,0,.431,0,.475.135.612.615.614.719,0,1.438-.009,2.156,0,.907.016.9-.14.888-.887-.013-.662-.024-.684-.684-.749-.016,0-.031-.018-.08-.047v-.319c0-.891,0-1.783,0-2.674,0-.427-.143-.566-.572-.568-.489,0-.978,0-1.466,0-.824,0-.858.034-.858.853,0,.67.026.7.692.783.016,0,.029.022.051.039Zm2.462-5.656a1.358,1.358,0,0,0-1.367-1.366,1.356,1.356,0,0,0-1.378,1.412,1.353,1.353,0,0,0,1.394,1.335A1.353,1.353,0,0,0,2882.115-1383.977Z" transform="translate(-2872.744 1388.862)" fill="currentColor"/>
</svg>
