<svg xmlns="http://www.w3.org/2000/svg" width="20" height="15.814" viewBox="0 0 20 15.814">
  <g id="Group_8777" data-name="Group 8777" transform="translate(-18607 19176)">
    <g id="Group_8775" data-name="Group 8775" transform="translate(18607 -19176)">
      <path id="Path_5034" data-name="Path 5034" d="M27,976.268a9.988,9.988,0,0,0-8.125,15.814l1.42-1.117a8.134,8.134,0,0,1-1.42-3.788h2.367v-1.818H18.866a8.125,8.125,0,0,1,1.742-4.2L21.64,982.2l.644.644,1.288-1.288-.644-.644L21.9,979.876a8.118,8.118,0,0,1,4.2-1.742v2.377h1.818v-2.377a8.118,8.118,0,0,1,4.2,1.742l-1.032,1.032-.644.644,1.288,1.288.644-.644,1.032-1.042a8.125,8.125,0,0,1,1.742,4.2H32.758v1.818h2.367a8.134,8.134,0,0,1-1.42,3.788l1.42,1.117A9.988,9.988,0,0,0,27,976.268Zm5.36,7.974-6.43,4.29a1.513,1.513,0,0,0,2.14,2.14Z" transform="translate(-17 -976.268)" fill="currentColor"/>
    </g>
  </g>
</svg>
