<svg xmlns="http://www.w3.org/2000/svg" width="21.332" height="23.968" viewBox="0 0 21.332 23.968">
  <path id="Path_70" data-name="Path 70" d="M-620.15-2476.9c-.5-.065-1.008,0-1.555-.047.419-.424.807-.816,1.2-1.207a.88.88,0,0,0,.275-.478.8.8,0,0,0-.4-.856.79.79,0,0,0-.955.154c-.729.716-1.459,1.432-2.173,2.163a.773.773,0,0,1-.615.246q-6.568-.011-13.136-.007a2.087,2.087,0,0,0-1.792.819,1.984,1.984,0,0,0,.257,2.674q4.213,4.221,8.432,8.435a.717.717,0,0,1,.24.56c-.011,1.922-.006,3.844-.006,5.766,0,.392,0,.392-.4.392-1.275,0-2.55-.007-3.825,0a1.313,1.313,0,0,0-1.335,1.306,1.31,1.31,0,0,0,1.284,1.358q5.612.007,11.223,0a1.235,1.235,0,0,0,.958-.459,1.261,1.261,0,0,0,.194-1.441,1.262,1.262,0,0,0-1.211-.764c-1.294,0-2.588-.008-3.882,0-.268,0-.364-.046-.362-.346.016-1.931.012-3.863,0-5.794a.746.746,0,0,1,.238-.588q3.222-3.2,6.43-6.418c.7-.7,1.4-1.385,2.085-2.092a1.882,1.882,0,0,0,.466-2.071A1.907,1.907,0,0,0-620.15-2476.9Zm-.808,2.353q-3.938,3.94-7.872,7.883c-.176.177-.255.167-.425,0q-3.919-3.938-7.854-7.861a2.019,2.019,0,0,0-.247-.183l.059-.079h11.1c-.451.453-.87.873-1.287,1.294-.067.068-.133.031-.207.012a3.1,3.1,0,0,0-3.63,2.936,2,2,0,0,0,2.738,1.855,3.128,3.128,0,0,0,2.3-2.609,1.848,1.848,0,0,0-.06-.835.3.3,0,0,1,.1-.343q1.1-1.087,2.2-2.18a.35.35,0,0,1,.259-.142c1,0,2,0,3.058,0C-620.828-2474.695-620.89-2474.62-620.959-2474.552Z" transform="translate(639.709 2479.589)" fill="#fff"/>
</svg>
