<svg xmlns="http://www.w3.org/2000/svg" width="25" height="24" viewBox="0 0 25 24">
  <g id="Group_3" data-name="Group 3" transform="translate(-2 -2.5)">
    <path id="Path_6" data-name="Path 6" d="M4,10.5H25a2,2,0,0,1,2,2v12a2,2,0,0,1-2,2H4a2,2,0,0,1-2-2v-12A2,2,0,0,1,4,10.5Z" fill="#0065cc"/>
    <path id="Path_7" data-name="Path 7" d="M7,2.5H22a1,1,0,0,1,1,1h0a1,1,0,0,1-1,1H7a1,1,0,0,1-1-1H6A1,1,0,0,1,7,2.5Z" fill="#0065cc"/>
    <path id="Path_8" data-name="Path 8" d="M5,6.5H24a1,1,0,0,1,1,1h0a1,1,0,0,1-1,1H5a1,1,0,0,1-1-1H4A1,1,0,0,1,5,6.5Z" fill="#0065cc"/>
  </g>
</svg>
