<svg xmlns="http://www.w3.org/2000/svg" width="24" height="24" viewBox="0 0 24 24">
  <g id="Group_7" data-name="Group 7" transform="translate(-1.917 -954.279)">
    <path id="Path_14" data-name="Path 14" d="M1.917,969.455l.529.529,1.941,1.941.529.529.529-.529a2,2,0,0,1,2.824,2.824l-.529.529.529.529,1.941,1.941.529.529.529-.529,14.118-14.118.529-.529-.529-.529-1.941-1.941-.529-.529-.529.529a2,2,0,0,1-2.824-2.824l.529-.529-.529-.529-1.941-1.941-.529-.529-.529.529L2.446,968.926l-.529.529Zm2.118,0,8.647-8.647,6.706,6.706-8.647,8.647-.949-.949A3.483,3.483,0,0,0,4.977,970.4l-.943-.943Zm9.706-9.706,3.353-3.353.943.943a3.483,3.483,0,0,0,4.814,4.814l.949.949-3.353,3.353-6.706-6.706Zm-3.529,5.294.982,2.305-1.7,1.919,2.52-.27,1.257,2.162.579-2.476,2.476-.579-2.162-1.257.27-2.52-1.919,1.7Z" fill="#fff"/>
  </g>
</svg>
