<svg width="100%" height="100%" viewBox="0 0 24 24" xmlns="http://www.w3.org/2000/svg">
<path fill="currentColor" fill-rule="evenodd" clip-rule="evenodd" d="M18.8941 6.52663C18.8255 6.78281 18.6579 7.00123 18.4282 7.13384C18.1985 7.26645 18.0309 7.48487 17.9623 7.74105C17.8936 7.99723 17.9296 8.27018 18.0622 8.49987C18.1948 8.72955 18.4132 8.89715 18.6694 8.96579C18.9255 9.03443 19.1985 8.9985 19.4282 8.86589C19.6579 8.73328 19.9308 8.69735 20.187 8.76599C20.4432 8.83463 20.6616 9.00223 20.7942 9.23192L22.7942 12.696C22.9268 12.9257 22.9628 13.1987 22.8941 13.4548C22.8255 13.711 22.6579 13.9294 22.4282 14.062L8.57178 22.062C8.3421 22.1947 8.06914 22.2306 7.81296 22.1619C7.55678 22.0933 7.33836 21.9257 7.20575 21.696L5.20575 18.2319C5.07315 18.0022 5.03721 17.7293 5.10585 17.4731C5.1745 17.2169 5.3421 16.9985 5.57178 16.8659C5.80146 16.7333 5.96906 16.5149 6.03771 16.2587C6.10635 16.0025 6.07041 15.7295 5.93781 15.4999C5.8052 15.2702 5.58678 15.1026 5.3306 15.0339C5.07442 14.9653 4.80146 15.0012 4.57178 15.1338C4.3421 15.2664 4.06914 15.3024 3.81296 15.2337C3.55678 15.1651 3.33836 14.9975 3.20575 14.7678L1.20575 11.3037C1.07315 11.074 1.03721 10.8011 1.10585 10.5449C1.1745 10.2887 1.3421 10.0703 1.57178 9.93769L15.4282 1.93769C15.6579 1.80508 15.9308 1.76914 16.187 1.83779C16.4432 1.90643 16.6616 2.07403 16.7942 2.30371L18.7942 5.76781C18.9268 5.9975 18.9628 6.27045 18.8941 6.52663ZM15.9601 7.72529C16.0141 7.11154 16.2557 6.52929 16.6522 6.05767L15.5622 4.16974L8.63396 8.16974C8.76657 8.39942 8.8025 8.67238 8.73386 8.92856C8.66522 9.18474 8.49762 9.40316 8.26793 9.53576C8.03825 9.66837 7.76529 9.70431 7.50911 9.63566C7.25293 9.56702 7.03451 9.39942 6.90191 9.16974L3.43781 11.1697L4.52781 13.0577C5.13447 12.9501 5.75953 13.032 6.31804 13.2921C6.87655 13.5523 7.34142 13.9781 7.64948 14.5116C7.95754 15.0452 8.09385 15.6607 8.03987 16.2744C7.9859 16.8882 7.74426 17.4704 7.34781 17.9421L8.43781 19.83L11.9019 17.83C11.7693 17.6003 11.7334 17.3274 11.802 17.0712C11.8706 16.815 12.0382 16.5966 12.2679 16.464C12.4976 16.3314 12.7706 16.2954 13.0268 16.3641C13.2829 16.4327 13.5013 16.6003 13.634 16.83L20.5622 12.83L19.4722 10.9421C18.8655 11.0496 18.2404 10.9677 17.6819 10.7076C17.1234 10.4475 16.6585 10.0217 16.3505 9.4881C16.0424 8.95453 15.9061 8.33904 15.9601 7.72529ZM13.6634 9.64349C13.7216 9.65292 13.7766 9.67934 13.8217 9.71956C13.863 9.76193 13.8921 9.81496 13.9057 9.87248C13.9194 9.93 13.9169 9.98965 13.8986 10.0445L13.4542 11.7494L14.6042 13.1422C14.6429 13.1877 14.6684 13.2432 14.6778 13.3019C14.6872 13.3606 14.6801 13.4202 14.6573 13.4737C14.6322 13.5331 14.589 13.5821 14.534 13.6136C14.4922 13.6379 14.4446 13.6504 14.3958 13.65L12.654 13.6888L11.7494 15.1779C11.7207 15.2288 11.678 15.2695 11.6263 15.2952C11.5746 15.3209 11.5161 15.3305 11.4579 15.3228C11.3997 15.315 11.3443 15.2903 11.2983 15.2517C11.2523 15.213 11.2177 15.162 11.1986 15.1048L10.5675 13.4125L8.8688 12.9448C8.81534 12.9292 8.76646 12.8992 8.72741 12.858C8.68836 12.8167 8.66061 12.7658 8.64714 12.7107C8.63432 12.6538 8.63722 12.5949 8.65552 12.5408C8.67382 12.4867 8.70679 12.4396 8.75068 12.4047L10.0953 11.3242L9.94784 9.54095C9.94257 9.48277 9.95339 9.42489 9.97904 9.37396C10.0047 9.32302 10.0442 9.28108 10.0929 9.25294C10.1416 9.2248 10.1977 9.2116 10.2546 9.21485C10.3116 9.2181 10.3671 9.23767 10.4149 9.27132L11.8871 10.2934L13.4935 9.66643C13.5461 9.64203 13.6051 9.63406 13.6634 9.64349Z" fill="#454545"/>
</svg>
