<svg xmlns="http://www.w3.org/2000/svg" width="15.496" height="24" viewBox="0 0 15.496 24">
  <path id="Path_15" data-name="Path 15" d="M11.648,1.65h-.009A7.759,7.759,0,0,0,3.9,9.4a7.658,7.658,0,0,0,1.066,3.851L7.33,21.53v0l.85,3.4a.946.946,0,0,0,.917.716h5.1a.944.944,0,0,0,.917-.716l.85-3.4v0l2.364-8.281A7.657,7.657,0,0,0,19.4,9.4,7.756,7.756,0,0,0,11.648,1.65Zm0,2.245a7.392,7.392,0,0,1,0,11.006,7.392,7.392,0,0,1,0-11.006ZM5.79,9.4A5.842,5.842,0,0,1,8.776,4.324a9.472,9.472,0,0,0,0,10.146A5.839,5.839,0,0,1,5.79,9.4ZM8.959,20.359,7.727,16.042A7.663,7.663,0,0,0,10.7,17.05v3.309Zm4.5,3.4H9.836l-.378-1.512h4.38Zm.877-3.4H12.593V17.05a7.663,7.663,0,0,0,2.976-1.007Zm.183-5.887a9.465,9.465,0,0,0,0-10.148,5.805,5.805,0,0,1,0,10.148Z" transform="translate(-3.9 -1.65)" fill="#0065cc"/>
</svg>
