<svg xmlns="http://www.w3.org/2000/svg" width="32" height="22.352" viewBox="0 0 32 22.352">
  <g id="Group_235" data-name="Group 235" transform="translate(1 0.99)">
    <path id="Path_10" data-name="Path 10" d="M5.828,1.243A3.557,3.557,0,0,1,7.978.287a46.148,46.148,0,0,1,14.045,0,3.429,3.429,0,0,1,2.1.955c.525,1.72,1,3.439,1.481,5.207a1.334,1.334,0,0,1,.86-.287h2.054A1.458,1.458,0,0,1,30,7.644a1.479,1.479,0,0,1-1.481,1.433h-.955a6.438,6.438,0,0,1,.525,2.771c.048,2.484.048,4.968.048,7.452a.805.805,0,0,1-.812.812H23.6a.805.805,0,0,1-.812-.812v-1H7.213v1a.817.817,0,0,1-.86.812H2.675a.817.817,0,0,1-.86-.812c0-2.484.048-4.968.048-7.452a6.438,6.438,0,0,1,.525-2.771H1.433A1.469,1.469,0,0,1,0,7.644,1.448,1.448,0,0,1,1.433,6.163h2.1a1.3,1.3,0,0,1,.812.287C4.825,4.682,5.3,2.963,5.828,1.243Zm5.78,13.041h6.783a.764.764,0,0,1,0,1.529H11.608a.764.764,0,0,1,0-1.529ZM7.213,1.912c-.382,1.433-.764,2.914-1.194,4.395a86.358,86.358,0,0,1,17.914,0c-.382-1.481-.812-2.962-1.194-4.395A44.6,44.6,0,0,0,7.213,1.912ZM23.646,9.985a1.652,1.652,0,0,0-1.672,1.624,1.693,1.693,0,0,0,1.672,1.672,1.652,1.652,0,0,0,1.624-1.672A1.611,1.611,0,0,0,23.646,9.985Zm-17.293,0a1.611,1.611,0,0,1,1.624,1.624,1.625,1.625,0,1,1-3.248,0A1.611,1.611,0,0,1,6.354,9.985Z" transform="translate(0 0.25)" fill="none" stroke="#0065cc" stroke-width="2" fill-rule="evenodd"/>
  </g>
</svg>
