<?xml version="1.0" encoding="utf-8"?>
<!-- Generator: Adobe Illustrator 26.0.0, SVG Export Plug-In . SVG Version: 6.00 Build 0)  -->
<svg version="1.1" width="24" height="20" id="Layer_1" xmlns="http://www.w3.org/2000/svg" xmlns:xlink="http://www.w3.org/1999/xlink" x="0px" y="0px"
	 viewBox="0 0 50 50" style="enable-background:new 0 0 50 50;" xml:space="preserve">
<path d="M11,0C4.9,0,0,4.9,0,11v28c0,1.1,0.4,2.2,1,3v3c0,1.7,1.3,3,3,3h4c1.7,0,3-1.3,3-3v-1h11v-6.2c0-0.9,0.2-1.9,0.5-2.7
	l1.6-3.6l1-2.2c0.2-0.4,0.4-0.8,0.7-1.1H7c-1.1,0-2-0.9-2-2V13c0-1.1,0.9-2,2-2h24c1.1,0,2,0.9,2,2v12h5V11c0-6.1-4.9-11-11-11H11z
	 M12,4h15c0.6,0,1,0.4,1,1v2c0,0.6-0.4,1-1,1H12c-0.6,0-1-0.4-1-1V5C11,4.4,11.4,4,12,4z M31.6,27c-2,0-3.7,1.1-4.6,3l-1,2.2
	l-1.6,3.6c-0.2,0.6-0.4,1.3-0.4,2V46v1v1c0,1.2,0.8,2,2,2h3c1.2,0,2-0.8,2-2v-1h12v1c0,1.2,0.8,2,2,2h3c1.2,0,2-0.8,2-2v-1v-1v-8.2
	c0-0.7-0.1-1.3-0.4-2L47,30c-0.9-1.8-2.6-3-4.6-3H31.6z M31.7,29h10.8c1.2,0,2.3,0.7,2.8,1.8l1.3,2.8c0.1,0.3,0.2,0.5,0.2,0.8V36
	c0,0.6-0.4,1-1,1H28.4c-0.6,0-1-0.4-1-1v-1.6c0-0.3,0.1-0.6,0.2-0.8l1.3-2.8C29.4,29.7,30.5,29,31.7,29z M8.5,32
	c1.9,0,3.5,1.6,3.5,3.5S10.4,39,8.5,39S5,37.4,5,35.5S6.6,32,8.5,32z M30,39c1.1,0,2,0.9,2,2s-0.9,2-2,2s-2-0.9-2-2S28.9,39,30,39z
	 M44,39c1.1,0,2,0.9,2,2s-0.9,2-2,2s-2-0.9-2-2S42.9,39,44,39z" transform="translate(0 0)" fill="#fff" fill-rule="evenodd"/>
</svg>
