<svg xmlns="http://www.w3.org/2000/svg" width="24" height="16.29" viewBox="0 0 24 16.29">
  <g id="Group_41" data-name="Group 41" transform="translate(0 0.25)">
    <path id="Path_10" data-name="Path 10" d="M4.662.944A2.846,2.846,0,0,1,6.382.18a36.918,36.918,0,0,1,11.236,0A2.743,2.743,0,0,1,19.3.944c.42,1.376.8,2.752,1.185,4.166a1.067,1.067,0,0,1,.688-.229h1.643A1.167,1.167,0,0,1,24,6.065a1.183,1.183,0,0,1-1.185,1.146h-.764a5.15,5.15,0,0,1,.42,2.217c.038,1.987.038,3.975.038,5.962a.644.644,0,0,1-.65.65H18.879a.644.644,0,0,1-.65-.65v-.8H5.771v.8a.654.654,0,0,1-.688.65H2.14a.654.654,0,0,1-.688-.65c0-1.987.038-3.975.038-5.962a5.15,5.15,0,0,1,.42-2.217H1.146A1.176,1.176,0,0,1,0,6.065,1.158,1.158,0,0,1,1.146,4.881H2.828a1.038,1.038,0,0,1,.65.229C3.86,3.7,4.242,2.32,4.662.944ZM9.287,11.377h5.427a.611.611,0,0,1,0,1.223H9.287a.611.611,0,1,1,0-1.223Zm-3.516-9.9C5.465,2.626,5.159,3.811,4.815,5A69.086,69.086,0,0,1,19.146,5c-.306-1.185-.65-2.369-.955-3.516A35.681,35.681,0,0,0,5.771,1.479ZM18.917,7.938a1.321,1.321,0,0,0-1.338,1.3,1.354,1.354,0,0,0,1.338,1.338,1.321,1.321,0,0,0,1.3-1.338A1.289,1.289,0,0,0,18.917,7.938Zm-13.834,0a1.289,1.289,0,0,1,1.3,1.3,1.3,1.3,0,1,1-2.6,0A1.289,1.289,0,0,1,5.083,7.938Z" transform="translate(0 0)" fill="#fff" fill-rule="evenodd"/>
  </g>
</svg>
