<svg width="100%" height="100%" xmlns="http://www.w3.org/2000/svg" viewBox="0 0 24 24"><path fill="currentColor" d="M18.1089 11.8717C18.1115 12.2478 17.9904 12.6126 17.7675 12.9L18.2965 20.3333C18.2953 20.7765 18.1324 21.2011 17.8437 21.5136C17.555 21.8262 17.1642 22.0011 16.757 22C16.5548 22.0016 16.3542 21.9598 16.1669 21.8768C15.9796 21.7939 15.8091 21.6714 15.6654 21.5166C15.5216 21.3617 15.4074 21.1775 15.3292 20.9744C15.2511 20.7714 15.2105 20.5535 15.2099 20.3333L15.8017 12.9042C12.5383 11.76 14.2071 2.31583 16.8634 2C17.0357 2.00928 17.2047 2.05547 17.3606 2.13591C17.5165 2.21636 17.6563 2.32948 17.7719 2.46881C17.8876 2.60813 17.9769 2.77093 18.0348 2.94787C18.0926 3.12482 18.1178 3.31244 18.1089 3.5V11.8717ZM11.3413 2.13719C11.4102 2.21221 11.4489 2.31395 11.4489 2.42004H11.4543V9.74837C11.4545 10.0889 11.333 10.4161 11.1156 10.6609C10.8981 10.9056 10.6018 11.0488 10.2892 11.06H9.51372L10.2731 20.5317C10.2449 20.9464 10.0672 21.3321 9.77884 21.6048C9.49048 21.8775 9.1148 22.0151 8.73366 21.9875C8.35252 22.0151 7.97684 21.8775 7.68848 21.6048C7.40012 21.3321 7.22245 20.9464 7.19421 20.5317L7.94747 11.0609H7.17201C6.85818 11.0515 6.56009 10.9092 6.3412 10.6642C6.1223 10.4193 5.99988 10.091 6 9.7492V2.41587C6 2.30978 6.03871 2.20804 6.10762 2.13303C6.17653 2.05801 6.26999 2.01587 6.36745 2.01587H6.47385C6.53658 2.01587 6.5987 2.02932 6.65666 2.05545C6.71461 2.08158 6.76727 2.11989 6.81163 2.16817C6.85598 2.21646 6.89117 2.27378 6.91518 2.33687C6.93918 2.39996 6.95154 2.46758 6.95154 2.53587V7.1592C6.95231 7.30747 6.99631 7.45165 7.0772 7.57095C7.15809 7.69024 7.27168 7.7785 7.40162 7.82299C7.53155 7.86748 7.6711 7.8659 7.80016 7.8185C7.92922 7.77109 8.04111 7.6803 8.11972 7.5592C8.19688 7.42938 8.23783 7.278 8.2376 7.12337V2.54004C8.2376 2.40212 8.28793 2.26986 8.37751 2.17234C8.4671 2.07482 8.5886 2.02004 8.71529 2.02004C8.84198 2.02004 8.96348 2.07482 9.05306 2.17234C9.14264 2.26986 9.19297 2.40212 9.19297 2.54004V7.11337C9.19275 7.268 9.2337 7.41938 9.31086 7.5492C9.38946 7.6703 9.50136 7.76109 9.63042 7.8085C9.75947 7.85591 9.89903 7.85748 10.029 7.81299C10.1589 7.7685 10.2725 7.68024 10.3534 7.56095C10.4343 7.44165 10.4783 7.29747 10.479 7.1492V2.53587C10.4795 2.46622 10.4928 2.39738 10.5182 2.33343C10.5436 2.26949 10.5805 2.21175 10.6268 2.16364C10.673 2.11552 10.7277 2.07802 10.7875 2.05335C10.8474 2.02868 10.9112 2.01736 10.9751 2.02004H11.0815C11.179 2.02004 11.2724 2.06218 11.3413 2.13719Z"/></svg>