<svg width="400" height="27" viewBox="0 0 400 27" fill="none" xmlns="http://www.w3.org/2000/svg">
<path d="M10.9381 21.446C4.91599 21.446 0 17.2981 0 10.8459C0 4.36294 4.91599 0.245801 10.9381 0.245801C15.1781 0.245801 17.8512 2.39654 19.3874 4.82381L15.7926 6.79021C14.8401 5.34614 13.0888 4.11714 10.9381 4.11714C7.18963 4.11714 4.48584 6.97456 4.48584 10.8459C4.48584 14.7172 7.18963 17.5747 10.9381 17.5747C12.7508 17.5747 14.4407 16.7758 15.2703 16.0077V13.5497H9.8627V9.7398H19.6332V17.6054C17.5439 19.9405 14.6251 21.446 10.9381 21.446Z" fill="white"/>
<path d="M26.9066 21.0773H23.0046V0.583773H26.9066V21.0773Z" fill="white"/>
<path d="M37.6582 21.446C32.7729 21.446 29.8233 17.8512 29.8233 13.6419C29.8233 9.43255 32.7729 5.86846 37.6582 5.86846C42.5742 5.86846 45.5238 9.43255 45.5238 13.6419C45.5238 17.8512 42.5742 21.446 37.6582 21.446ZM37.6582 17.9741C40.1162 17.9741 41.4681 15.977 41.4681 13.6419C41.4681 11.3375 40.1162 9.34038 37.6582 9.34038C35.2309 9.34038 33.879 11.3375 33.879 13.6419C33.879 15.977 35.2309 17.9741 37.6582 17.9741Z" fill="white"/>
<path d="M52.3507 16.3149C53.0266 17.2674 54.44 17.9741 55.7304 17.9741C57.9734 17.9741 59.4789 16.2228 59.4789 13.6419C59.4789 11.0917 57.9734 9.34038 55.7304 9.34038C54.44 9.34038 53.0266 10.0778 52.3507 11.061V16.3149ZM52.3507 21.0773H48.4486V0.583773H52.3507V8.1421C53.5182 6.60586 55.1774 5.86846 56.9287 5.86846C60.7079 5.86846 63.5038 8.81805 63.5038 13.6419C63.5038 18.6193 60.6772 21.446 56.9287 21.446C55.1467 21.446 53.5182 20.6471 52.3507 19.1723V21.0773Z" fill="white"/>
<path d="M79.2945 21.0773H75.3617V19.5103C74.3478 20.7393 72.5965 21.446 70.6608 21.446C68.295 21.446 65.5298 19.8483 65.5298 16.53C65.5298 13.0274 68.295 11.7369 70.6608 11.7369C72.658 11.7369 74.3785 12.3821 75.3617 13.5497V11.6755C75.3617 10.1699 74.0713 9.18675 72.1049 9.18675C70.5379 9.18675 69.0631 9.80125 67.8341 10.9381L66.2979 8.20355C68.1107 6.57513 70.4458 5.86846 72.7808 5.86846C76.1913 5.86846 79.2945 7.22036 79.2945 11.4911V21.0773ZM72.2278 18.8037C73.4875 18.8037 74.7165 18.3735 75.3617 17.5132V15.6697C74.7165 14.8094 73.4875 14.3485 72.2278 14.3485C70.6916 14.3485 69.4318 15.1781 69.4318 16.5915C69.4318 18.0048 70.6916 18.8037 72.2278 18.8037Z" fill="white"/>
<path d="M87.0362 21.0773H83.1342V0.583773H87.0362V21.0773Z" fill="white"/>
<path d="M113.391 21.0773H98.8889V0.583773H113.391V4.42439H103.252V8.72588H113.176V12.5665H103.252V17.2367H113.391V21.0773Z" fill="white"/>
<path d="M130.259 21.0773H125.896L122.517 16.0691L119.106 21.0773H114.774L120.059 13.4575L115.081 6.23716H119.444L122.517 10.7844L125.558 6.23716H129.921L124.975 13.4575L130.259 21.0773Z" fill="white"/>
<path d="M140.672 21.446C138.921 21.446 137.323 20.7086 136.094 19.1723V26.7307H132.192V6.23716H136.094V8.11138C137.231 6.66731 138.859 5.86846 140.672 5.86846C144.482 5.86846 147.247 8.69515 147.247 13.6419C147.247 18.5886 144.482 21.446 140.672 21.446ZM139.443 17.9741C141.686 17.9741 143.222 16.2228 143.222 13.6419C143.222 11.0917 141.686 9.34038 139.443 9.34038C138.183 9.34038 136.77 10.047 136.094 11.0302V16.2535C136.739 17.206 138.183 17.9741 139.443 17.9741Z" fill="white"/>
<path d="M157.079 21.446C152.563 21.446 149.152 18.4042 149.152 13.6419C149.152 9.34037 152.348 5.86846 156.834 5.86846C161.289 5.86846 164.269 9.18675 164.269 14.0106V14.9323H153.239C153.515 16.7451 154.99 18.2506 157.51 18.2506C158.769 18.2506 160.49 17.7283 161.442 16.8065L163.194 19.3874C161.719 20.7393 159.384 21.446 157.079 21.446ZM160.521 12.2285C160.398 10.8152 159.415 9.06385 156.834 9.06385C154.406 9.06385 153.362 10.7537 153.208 12.2285H160.521Z" fill="white"/>
<path d="M170.99 21.0773H167.088V6.23716H170.99V8.23428C172.065 6.94383 173.878 5.86846 175.721 5.86846V9.67835C175.445 9.6169 175.107 9.58618 174.646 9.58618C173.355 9.58618 171.635 10.3236 170.99 11.276V21.0773Z" fill="white"/>
<path d="M180.095 4.63946C178.835 4.63946 177.791 3.59482 177.791 2.30437C177.791 1.01392 178.835 0 180.095 0C181.386 0 182.43 1.01392 182.43 2.30437C182.43 3.59482 181.386 4.63946 180.095 4.63946ZM182.061 21.0773H178.159V6.23716H182.061V21.0773Z" fill="white"/>
<path d="M192.905 21.446C188.389 21.446 184.978 18.4042 184.978 13.6419C184.978 9.34037 188.174 5.86846 192.659 5.86846C197.115 5.86846 200.095 9.18675 200.095 14.0106V14.9323H189.065C189.341 16.7451 190.816 18.2506 193.335 18.2506C194.595 18.2506 196.316 17.7283 197.268 16.8065L199.019 19.3874C197.545 20.7393 195.21 21.446 192.905 21.446ZM196.346 12.2285C196.223 10.8152 195.24 9.06385 192.659 9.06385C190.232 9.06385 189.187 10.7537 189.034 12.2285H196.346Z" fill="white"/>
<path d="M216.862 21.0773H212.93V12.1056C212.93 10.047 211.854 9.34038 210.195 9.34038C208.659 9.34038 207.491 10.2007 206.815 11.061V21.0773H202.913V6.23716H206.815V8.1421C207.768 7.03601 209.611 5.86846 212.008 5.86846C215.296 5.86846 216.862 7.71195 216.862 10.6001V21.0773Z" fill="white"/>
<path d="M227.619 21.446C223.072 21.446 219.754 18.2199 219.754 13.6419C219.754 9.09458 223.072 5.86846 227.619 5.86846C230.661 5.86846 232.505 7.18963 233.488 8.54153L230.938 10.9381C230.231 9.89342 229.156 9.34038 227.804 9.34038C225.438 9.34038 223.779 11.061 223.779 13.6419C223.779 16.2228 225.438 17.9741 227.804 17.9741C229.156 17.9741 230.231 17.3596 230.938 16.3457L233.488 18.7422C232.505 20.0941 230.661 21.446 227.619 21.446Z" fill="white"/>
<path d="M243.013 21.446C238.497 21.446 235.086 18.4042 235.086 13.6419C235.086 9.34037 238.282 5.86846 242.767 5.86846C247.223 5.86846 250.203 9.18675 250.203 14.0106V14.9323H239.173C239.449 16.7451 240.924 18.2506 243.443 18.2506C244.703 18.2506 246.424 17.7283 247.376 16.8065L249.127 19.3874C247.653 20.7393 245.318 21.446 243.013 21.446ZM246.454 12.2285C246.331 10.8152 245.348 9.06385 242.767 9.06385C240.34 9.06385 239.296 10.7537 239.142 12.2285H246.454Z" fill="white"/>
<path d="M265.368 21.0773H261.005V0.583773H270.591C275.046 0.583773 277.473 3.59482 277.473 7.18963C277.473 10.7537 275.015 13.7648 270.591 13.7648H265.368V21.0773ZM269.976 9.92415C271.697 9.92415 273.018 8.8795 273.018 7.18963C273.018 5.46904 271.697 4.42439 269.976 4.42439H265.368V9.92415H269.976Z" fill="white"/>
<path d="M284.018 21.0773H280.116V0.583773H284.018V21.0773Z" fill="white"/>
<path d="M300.73 21.0773H296.797V19.5103C295.783 20.7393 294.032 21.446 292.096 21.446C289.73 21.446 286.965 19.8483 286.965 16.53C286.965 13.0274 289.73 11.7369 292.096 11.7369C294.093 11.7369 295.814 12.3821 296.797 13.5497V11.6755C296.797 10.1699 295.507 9.18675 293.54 9.18675C291.973 9.18675 290.499 9.80125 289.27 10.9381L287.733 8.20355C289.546 6.57513 291.881 5.86846 294.216 5.86846C297.627 5.86846 300.73 7.22036 300.73 11.4911V21.0773ZM293.663 18.8037C294.923 18.8037 296.152 18.3735 296.797 17.5132V15.6697C296.152 14.8094 294.923 14.3485 293.663 14.3485C292.127 14.3485 290.867 15.1781 290.867 16.5915C290.867 18.0048 292.127 18.8037 293.663 18.8037Z" fill="white"/>
<path d="M309.547 21.446C306.813 21.446 305.368 20.0326 305.368 17.3596V9.64763H302.91V6.23716H305.368V2.18147H309.271V6.23716H312.282V9.64763H309.271V16.3149C309.271 17.2674 309.762 17.9741 310.622 17.9741C311.206 17.9741 311.759 17.759 311.974 17.5132L312.804 20.4935C312.22 21.0158 311.176 21.446 309.547 21.446Z" fill="white"/>
<path d="M319.744 21.0773H315.842V9.64763H313.384V6.23716H315.842V5.62266C315.842 2.27364 317.839 0.276525 320.82 0.276525C322.264 0.276525 323.8 0.675949 324.691 1.68987L323.216 4.05569C322.817 3.68699 322.295 3.47192 321.588 3.47192C320.482 3.47192 319.744 4.17859 319.744 5.62266V6.23716H322.755V9.64763H319.744V21.0773Z" fill="white"/>
<path d="M331.885 21.446C327 21.446 324.05 17.8512 324.05 13.6419C324.05 9.43255 327 5.86846 331.885 5.86846C336.801 5.86846 339.751 9.43255 339.751 13.6419C339.751 17.8512 336.801 21.446 331.885 21.446ZM331.885 17.9741C334.343 17.9741 335.695 15.977 335.695 13.6419C335.695 11.3375 334.343 9.34038 331.885 9.34038C329.458 9.34038 328.106 11.3375 328.106 13.6419C328.106 15.977 329.458 17.9741 331.885 17.9741Z" fill="white"/>
<path d="M346.578 21.0773H342.676V6.23716H346.578V8.23428C347.653 6.94383 349.466 5.86846 351.309 5.86846V9.67835C351.033 9.6169 350.695 9.58618 350.234 9.58618C348.944 9.58618 347.223 10.3236 346.578 11.276V21.0773Z" fill="white"/>
<path d="M376.085 21.0773H372.152V11.7062C372.152 10.3236 371.537 9.34038 369.94 9.34038C368.557 9.34038 367.42 10.2621 366.867 11.061V21.0773H362.934V11.7062C362.934 10.3236 362.32 9.34038 360.722 9.34038C359.37 9.34038 358.233 10.2621 357.65 11.061V21.0773H353.747V6.23716H357.65V8.1421C358.295 7.2818 360.23 5.86846 362.504 5.86846C364.686 5.86846 366.099 6.88238 366.621 8.54153C367.482 7.22036 369.448 5.86846 371.722 5.86846C374.456 5.86846 376.085 7.31253 376.085 10.3543V21.0773Z" fill="white"/>
<path d="M400 6.79021C400 10.385 397.112 13.3039 393.486 13.3039C389.892 13.3039 386.973 10.385 386.973 6.79021C386.973 3.16467 389.892 0.276525 393.486 0.276525C397.112 0.276525 400 3.16467 400 6.79021ZM399.017 6.79021C399.017 3.68699 396.559 1.25972 393.486 1.25972C390.414 1.25972 387.956 3.68699 387.956 6.79021C387.956 9.83197 390.414 12.3207 393.486 12.3207C396.559 12.3207 399.017 9.83197 399.017 6.79021ZM396.559 10.5386H395.268L393.333 7.58906H392.042V10.5386H390.998V3.07249H394.039C395.299 3.07249 396.467 3.96351 396.467 5.34614C396.467 7.00528 394.992 7.55833 394.562 7.55833L396.559 10.5386ZM395.391 5.34614C395.391 4.51656 394.685 3.99424 394.039 3.99424H392.042V6.63658H394.039C394.685 6.63658 395.391 6.11426 395.391 5.34614Z" fill="white"/>
</svg>
