<svg  viewBox="0 0 16 17" fill="none" xmlns="http://www.w3.org/2000/svg">
<path d="M7.52699 3.36085C7.46451 3.42283 7.41491 3.49656 7.38106 3.5778C7.34722 3.65904 7.32979 3.74618 7.32979 3.83419C7.32979 3.92219 7.34722 4.00933 7.38106 4.09057C7.41491 4.17181 7.46451 4.24554 7.52699 4.30752L11.0603 7.83419L3.33366 7.83419C3.15685 7.83419 2.98728 7.90442 2.86225 8.02945C2.73723 8.15447 2.66699 8.32404 2.66699 8.50085C2.66699 8.67766 2.73723 8.84723 2.86225 8.97226C2.98728 9.09728 3.15685 9.16752 3.33366 9.16752L11.0603 9.16752L7.52699 12.6942C7.40146 12.8197 7.33093 12.99 7.33093 13.1675C7.33093 13.3451 7.40146 13.5153 7.52699 13.6409C7.65253 13.7664 7.82279 13.8369 8.00033 13.8369C8.17786 13.8369 8.34812 13.7664 8.47366 13.6409L13.1403 8.97419C13.201 8.91078 13.2486 8.83602 13.2803 8.75419C13.3156 8.67439 13.3338 8.5881 13.3338 8.50085C13.3338 8.41361 13.3156 8.32732 13.2803 8.24752C13.2486 8.16568 13.201 8.09092 13.1403 8.02752L8.47366 3.36085C8.41168 3.29837 8.33795 3.24877 8.25671 3.21492C8.17547 3.18108 8.08833 3.16365 8.00033 3.16365C7.91232 3.16365 7.82518 3.18108 7.74394 3.21492C7.6627 3.24877 7.58897 3.29837 7.52699 3.36085Z" fill="currentColor"/>
</svg>
