<svg width="17" height="16" viewBox="0 0 17 16" fill="none" xmlns="http://www.w3.org/2000/svg">
<path d="M16.2102 7.29C16.1172 7.19627 16.0066 7.12188 15.8848 7.07111C15.7629 7.02034 15.6322 6.9942 15.5002 6.9942C15.3682 6.9942 15.2375 7.02034 15.1156 7.07111C14.9937 7.12188 14.8831 7.19627 14.7902 7.29L9.50019 12.59V1C9.50019 0.734784 9.39483 0.48043 9.20729 0.292893C9.01976 0.105357 8.7654 0 8.50019 0C8.23497 0 7.98062 0.105357 7.79308 0.292893C7.60554 0.48043 7.50019 0.734784 7.50019 1V12.59L2.21019 7.29C2.02188 7.1017 1.76649 6.99591 1.50019 6.99591C1.23388 6.99591 0.978489 7.1017 0.790185 7.29C0.601882 7.4783 0.496094 7.7337 0.496094 8C0.496094 8.2663 0.601882 8.5217 0.790185 8.71L7.79019 15.71C7.88529 15.801 7.99743 15.8724 8.12019 15.92C8.23989 15.9729 8.36931 16.0002 8.50019 16.0002C8.63106 16.0002 8.76049 15.9729 8.88019 15.92C9.00294 15.8724 9.11508 15.801 9.21019 15.71L16.2102 8.71C16.3039 8.61704 16.3783 8.50644 16.4291 8.38458C16.4798 8.26272 16.506 8.13201 16.506 8C16.506 7.86799 16.4798 7.73728 16.4291 7.61542C16.3783 7.49356 16.3039 7.38296 16.2102 7.29Z" fill="#0DADB9"/>
</svg>
