<svg width="20" height="20" viewBox="0 0 20 20" xmlns="http://www.w3.org/2000/svg">
<path fill-rule="evenodd" clip-rule="evenodd" d="M13.8487 6.52153L5.35261 6.52742C5.2426 6.52787 5.13359 6.50654 5.03186 6.46465C4.93014 6.42276 4.83772 6.36114 4.75993 6.28335C4.68214 6.20556 4.62053 6.11314 4.57864 6.01142C4.53675 5.9097 4.51541 5.80069 4.51586 5.69068C4.51541 5.58067 4.53675 5.47166 4.57864 5.36994C4.62053 5.26822 4.68214 5.1758 4.75993 5.09801C4.83772 5.02022 4.93014 4.9586 5.03186 4.91671C5.13359 4.87482 5.2426 4.85349 5.35261 4.85394L13.8487 4.85983L12.0785 3.08958C11.9222 2.9333 11.8344 2.72134 11.8344 2.50033C11.8344 2.27931 11.9222 2.06735 12.0785 1.91107C12.2348 1.75479 12.4467 1.66699 12.6677 1.66699C12.8888 1.66699 13.1007 1.75479 13.257 1.91107L16.4474 5.10143C16.5234 5.17936 16.5835 5.27145 16.6241 5.37248C16.7083 5.57626 16.7083 5.8051 16.6241 6.00888C16.5835 6.10992 16.5234 6.20201 16.4474 6.27994L13.257 9.47029C13.1007 9.62657 12.8888 9.71437 12.6677 9.71437C12.4467 9.71437 12.2348 9.62657 12.0785 9.47029C11.9222 9.31401 11.8344 9.10205 11.8344 8.88104C11.8344 8.66002 11.9222 8.44806 12.0785 8.29178L13.8487 6.52153ZM6.17252 13.3362L14.6687 13.3303C14.7787 13.3299 14.8877 13.3512 14.9894 13.3931C15.0911 13.435 15.1835 13.4966 15.2613 13.5744C15.3391 13.6522 15.4007 13.7446 15.4426 13.8463C15.4845 13.948 15.5059 14.057 15.5054 14.167C15.5059 14.2771 15.4845 14.3861 15.4426 14.4878C15.4007 14.5895 15.3391 14.6819 15.2613 14.7597C15.1835 14.8375 15.0911 14.8991 14.9894 14.941C14.8877 14.9829 14.7787 15.0042 14.6687 15.0038L6.17252 14.9979L7.94277 16.7681C8.09905 16.9244 8.18685 17.1364 8.18685 17.3574C8.18685 17.5784 8.09905 17.7904 7.94277 17.9467C7.78649 18.1029 7.57453 18.1907 7.35352 18.1907C7.1325 18.1907 6.92054 18.1029 6.76426 17.9467L3.5739 14.7563C3.49783 14.6784 3.43777 14.5863 3.39713 14.4852C3.31294 14.2815 3.31294 14.0526 3.39713 13.8488C3.43777 13.7478 3.49783 13.6557 3.5739 13.5778L6.76426 10.3874C6.92054 10.2312 7.1325 10.1434 7.35352 10.1434C7.57453 10.1434 7.78649 10.2311 7.94277 10.3874C8.09905 10.5437 8.18685 10.7557 8.18685 10.9767C8.18685 11.1977 8.09905 11.4097 7.94277 11.5659L6.17252 13.3362Z"/>
</svg>