<svg width="20" height="20" viewBox="0 0 20 20" xmlns="http://www.w3.org/2000/svg">
<g clip-path="url(#clip0_26038_88831)">
<path d="M9.40898 3.57582C9.33088 3.65329 9.26888 3.74546 9.22657 3.84701C9.18427 3.94856 9.16249 4.05748 9.16249 4.16749C9.16249 4.2775 9.18427 4.38642 9.22657 4.48797C9.26888 4.58952 9.33088 4.68169 9.40898 4.75915L13.8257 9.16749L4.16732 9.16749C3.9463 9.16749 3.73434 9.25529 3.57806 9.41157C3.42178 9.56785 3.33398 9.77981 3.33398 10.0008C3.33398 10.2218 3.42178 10.4338 3.57806 10.5901C3.73434 10.7464 3.9463 10.8342 4.16732 10.8342L13.8257 10.8342L9.40898 15.2425C9.25206 15.3994 9.16391 15.6122 9.16391 15.8342C9.16391 16.0561 9.25206 16.2689 9.40898 16.4258C9.5659 16.5827 9.77873 16.6709 10.0007 16.6709C10.2226 16.6709 10.4354 16.5827 10.5923 16.4258L16.4256 10.5925C16.5015 10.5132 16.561 10.4198 16.6007 10.3175C16.6447 10.2177 16.6675 10.1099 16.6675 10.0008C16.6675 9.89176 16.6447 9.7839 16.6007 9.68415C16.561 9.58186 16.5015 9.48841 16.4256 9.40915L10.5923 3.57582C10.5148 3.49772 10.4227 3.43572 10.3211 3.39341C10.2196 3.35111 10.1107 3.32932 10.0007 3.32932C9.89064 3.32932 9.78172 3.35111 9.68017 3.39341C9.57862 3.43572 9.48645 3.49772 9.40898 3.57582Z"/>
</g>
<defs>
<clipPath id="clip0_26038_88831">
<rect width="20" height="20" fill="white"/>
</clipPath>
</defs>
</svg>