
<svg width="16" height="17" viewBox="0 0 16 17" xmlns="http://www.w3.org/2000/svg">
<path fill-rule="evenodd" clip-rule="evenodd" d="M13 2.16667C12.5398 2.16667 12.1667 2.53976 12.1667 3C12.1667 3.46024 12.5398 3.83333 13 3.83333C13.4602 3.83333 13.8333 3.46024 13.8333 3C13.8333 2.53976 13.4602 2.16667 13 2.16667ZM5.35775 3.83333H10.6423C10.6499 3.8549 10.6578 3.87633 10.666 3.89761L4.27712 10.8504C3.90334 10.6278 3.4666 10.5 3 10.5C1.61929 10.5 0.5 11.6193 0.5 13C0.5 14.3807 1.61929 15.5 3 15.5C4.08743 15.5 5.0127 14.8057 5.35672 13.8362L12.6815 13.8308L11.7446 14.7678C11.5883 14.924 11.5005 15.136 11.5005 15.357C11.5005 15.578 11.5883 15.79 11.7446 15.9463C11.9009 16.1026 12.1128 16.1904 12.3338 16.1904C12.5548 16.1904 12.7668 16.1026 12.9231 15.9463L15.2801 13.5893C15.3562 13.5113 15.4162 13.4192 15.4569 13.3182C15.5411 13.1144 15.5411 12.8856 15.4569 12.6818C15.4162 12.5808 15.3562 12.4887 15.2801 12.4107L12.9231 10.0537C12.7668 9.89744 12.5548 9.80964 12.3338 9.80964C12.1128 9.80964 11.9009 9.89744 11.7446 10.0537C11.5883 10.21 11.5005 10.422 11.5005 10.643C11.5005 10.864 11.5883 11.076 11.7446 11.2322L12.6815 12.1691L5.35672 12.1638C5.35177 12.1498 5.3467 12.1359 5.34151 12.1221L11.7979 5.19255C12.1546 5.38853 12.5643 5.5 13 5.5C14.3807 5.5 15.5 4.38071 15.5 3C15.5 1.61929 14.3807 0.5 13 0.5C11.9115 0.5 10.9855 1.19567 10.6423 2.16667H5.35775C5.01455 1.19567 4.08852 0.5 3 0.5C1.61929 0.5 0.5 1.61929 0.5 3C0.5 4.38071 1.61929 5.5 3 5.5C4.08852 5.5 5.01455 4.80433 5.35775 3.83333ZM3.83153 12.9448C3.8031 12.5103 3.44168 12.1667 3 12.1667C2.53976 12.1667 2.16667 12.5398 2.16667 13C2.16667 13.4602 2.53976 13.8333 3 13.8333C3.44168 13.8333 3.8031 13.4897 3.83153 13.0552C3.83039 13.0369 3.82985 13.0184 3.82992 13C3.82985 12.9816 3.83039 12.9631 3.83153 12.9448ZM2.16667 3C2.16667 2.53976 2.53976 2.16667 3 2.16667C3.46024 2.16667 3.83333 2.53976 3.83333 3C3.83333 3.46024 3.46024 3.83333 3 3.83333C2.53976 3.83333 2.16667 3.46024 2.16667 3Z"/>
</svg>