<svg width="100%" height="100%" viewBox="0 0 24 24" fill="none" xmlns="http://www.w3.org/2000/svg">
<path d="M12.711 19.7092C12.8047 19.6162 12.8791 19.5056 12.9299 19.3838C12.9806 19.2619 13.0068 19.1312 13.0068 18.9992C13.0068 18.8672 12.9806 18.7365 12.9299 18.6146C12.8791 18.4928 12.8047 18.3822 12.711 18.2892L7.41098 12.9992L19.001 12.9992C19.2662 12.9992 19.5205 12.8939 19.7081 12.7063C19.8956 12.5188 20.001 12.2644 20.001 11.9992C20.001 11.734 19.8956 11.4796 19.7081 11.2921C19.5205 11.1046 19.2662 10.9992 19.001 10.9992L7.41098 10.9992L12.711 5.70921C12.8993 5.5209 13.0051 5.26551 13.0051 4.99921C13.0051 4.73291 12.8993 4.47751 12.711 4.28921C12.5227 4.1009 12.2673 3.99512 12.001 3.99512C11.7347 3.99512 11.4793 4.1009 11.291 4.28921L4.29098 11.2892C4.19994 11.3843 4.12857 11.4965 4.08098 11.6192C4.02807 11.7389 4.00074 11.8683 4.00074 11.9992C4.00074 12.1301 4.02807 12.2595 4.08098 12.3792C4.12857 12.502 4.19994 12.6141 4.29098 12.7092L11.291 19.7092C11.3839 19.8029 11.4945 19.8773 11.6164 19.9281C11.7383 19.9789 11.869 20.005 12.001 20.005C12.133 20.005 12.2637 19.9789 12.3856 19.9281C12.5074 19.8773 12.618 19.8029 12.711 19.7092Z" fill="currentColor"/>
</svg>
