<svg width="14" height="15" viewBox="0 0 14 15" fill="none" xmlns="http://www.w3.org/2000/svg">
<path fill-rule="evenodd" clip-rule="evenodd" d="M11.6663 5.00065H8.99967V1.00065C8.99967 1.00065 8.99967 0.333984 8.33301 0.333984H5.66634C4.99967 0.333984 4.99967 1.00065 4.99967 1.00065V5.00065H2.33301C1.80257 5.00065 1.29387 5.21677 0.918794 5.60146C0.543722 5.98615 0.333008 6.5079 0.333008 7.05193V10.9494C0.333008 11.4934 0.543722 12.0152 0.918794 12.3998C1.29387 12.7845 1.80257 13.0007 2.33301 13.0007H2.99967V13.6673C2.99967 13.6673 2.99967 14.334 3.66634 14.334C4.33301 14.334 4.33301 13.6673 4.33301 13.6673V13.0007H9.66634V13.6673C9.66634 13.6673 9.66634 14.334 10.333 14.334C10.9997 14.334 10.9997 13.6673 10.9997 13.6673V13.0007H11.6663C12.1968 13.0007 12.7055 12.7845 13.0806 12.3998C13.4556 12.0152 13.6663 11.4934 13.6663 10.9494V7.05193C13.6663 6.5079 13.4556 5.98615 13.0806 5.60146C12.7055 5.21677 12.1968 5.00065 11.6663 5.00065ZM12.1377 11.4329C12.2628 11.3046 12.333 11.182 12.333 11.0007V9.00065H9.66634V11.6673H11.6663C11.8432 11.6673 12.0127 11.5611 12.1377 11.4329ZM1.8616 11.4329C1.98663 11.5611 2.1562 11.6673 2.33301 11.6673H4.33301V9.00065H1.66634V10.9494C1.66634 11.1307 1.73658 11.3046 1.8616 11.4329ZM8.33301 9.00065H5.66634V11.6673H8.33301V9.00065ZM1.66634 7.66732H12.333V7.05193C12.333 6.87059 12.2628 6.69667 12.1377 6.56844C12.0127 6.44021 11.8432 6.36817 11.6663 6.36817H2.33301C2.1562 6.36817 1.98663 6.44021 1.8616 6.56844C1.73658 6.69667 1.66634 6.87059 1.66634 7.05193V7.66732ZM7.66634 5.00065H6.33301V1.66732H7.66634V5.00065Z" fill="currentColor"/>
</svg>
