<svg width="14" height="14" viewBox="0 0 14 14" fill="none" xmlns="http://www.w3.org/2000/svg">
<path d="M11.6663 3.33268H9.66634V2.66602C9.66634 2.13558 9.45563 1.62687 9.08055 1.2518C8.70548 0.876729 8.19677 0.666016 7.66634 0.666016H6.33301C5.80258 0.666016 5.29387 0.876729 4.91879 1.2518C4.54372 1.62687 4.33301 2.13558 4.33301 2.66602V3.33268H2.33301C1.80257 3.33268 1.29387 3.5434 0.918794 3.91847C0.543722 4.29354 0.333008 4.80225 0.333008 5.33268V11.3327C0.333008 11.8631 0.543722 12.3718 0.918794 12.7469C1.29387 13.122 1.80257 13.3327 2.33301 13.3327H11.6663C12.1968 13.3327 12.7055 13.122 13.0806 12.7469C13.4556 12.3718 13.6663 11.8631 13.6663 11.3327V5.33268C13.6663 4.80225 13.4556 4.29354 13.0806 3.91847C12.7055 3.5434 12.1968 3.33268 11.6663 3.33268ZM5.66634 2.66602C5.66634 2.4892 5.73658 2.31964 5.8616 2.19461C5.98663 2.06959 6.1562 1.99935 6.33301 1.99935H7.66634C7.84315 1.99935 8.01272 2.06959 8.13775 2.19461C8.26277 2.31964 8.33301 2.4892 8.33301 2.66602V3.33268H5.66634V2.66602ZM12.333 11.3327C12.333 11.5095 12.2628 11.6791 12.1377 11.8041C12.0127 11.9291 11.8432 11.9993 11.6663 11.9993H2.33301C2.1562 11.9993 1.98663 11.9291 1.8616 11.8041C1.73658 11.6791 1.66634 11.5095 1.66634 11.3327V7.96601H3.66634V8.66602C3.66634 8.84283 3.73658 9.01239 3.8616 9.13742C3.98663 9.26244 4.1562 9.33268 4.33301 9.33268C4.50982 9.33268 4.67939 9.26244 4.80441 9.13742C4.92944 9.01239 4.99967 8.84283 4.99967 8.66602V7.96601H8.99967V8.66602C8.99967 8.84283 9.06991 9.01239 9.19494 9.13742C9.31996 9.26244 9.48953 9.33268 9.66634 9.33268C9.84315 9.33268 10.0127 9.26244 10.1377 9.13742C10.2628 9.01239 10.333 8.84283 10.333 8.66602V7.96601H12.333V11.3327ZM12.333 6.66602H1.66634V5.33268C1.66634 5.15587 1.73658 4.9863 1.8616 4.86128C1.98663 4.73625 2.1562 4.66602 2.33301 4.66602H11.6663C11.8432 4.66602 12.0127 4.73625 12.1377 4.86128C12.2628 4.9863 12.333 5.15587 12.333 5.33268V6.66602Z" fill="#0DADB9"/>
</svg>
