<svg viewBox="0 0 16 16" fill="none" xmlns="http://www.w3.org/2000/svg">
<path d="M15.3335 4.87979C15.3752 4.70849 15.3515 4.52778 15.2668 4.37312C15.0508 3.99821 14.7628 3.66966 14.4195 3.40632C14.0761 3.14297 13.6841 2.95002 13.266 2.83853C12.8479 2.72703 12.412 2.6992 11.9831 2.75662C11.5542 2.81403 11.1409 2.95558 10.7668 3.17312L9.33349 3.99979L6.00015 2.43312C5.90539 2.38402 5.80022 2.3584 5.69349 2.3584C5.58676 2.3584 5.48159 2.38402 5.38682 2.43312L3.38682 3.58645C3.28798 3.64347 3.20543 3.7249 3.14706 3.82295C3.0887 3.921 3.05648 4.03239 3.05349 4.14645C3.05026 4.26137 3.0768 4.37516 3.13053 4.47679C3.18427 4.57841 3.26337 4.66442 3.36015 4.72645L5.56015 6.11312L4.40015 6.77979L1.21349 7.16645C1.08539 7.1823 0.964637 7.23499 0.865903 7.31814C0.76717 7.40128 0.694696 7.5113 0.657282 7.63484C0.619868 7.75838 0.619121 7.89012 0.655134 8.01407C0.691147 8.13803 0.762369 8.24886 0.860155 8.33312L3.22015 10.3731C3.53085 10.6696 3.92876 10.8583 4.35499 10.9111C4.78122 10.9639 5.21313 10.8782 5.58682 10.6665L15.0002 5.28645C15.0804 5.24481 15.1513 5.18728 15.2086 5.11737C15.2659 5.04746 15.3084 4.96663 15.3335 4.87979ZM4.98015 9.54645C4.85209 9.61692 4.70442 9.64334 4.55987 9.62166C4.41532 9.59998 4.28191 9.53139 4.18015 9.42645L2.91349 8.33979L4.73349 8.11979C4.82292 8.10833 4.90911 8.07884 4.98682 8.03312L7.22682 6.74645C7.32661 6.68886 7.40978 6.60638 7.4682 6.50707C7.52662 6.40775 7.5583 6.29499 7.56015 6.17979C7.56152 6.06536 7.53342 5.95252 7.47854 5.8521C7.42366 5.75169 7.34386 5.66709 7.24682 5.60645L5.04682 4.21312L5.78015 3.79312L9.11349 5.33979C9.20825 5.38888 9.31342 5.41451 9.42015 5.41451C9.52688 5.41451 9.63205 5.38888 9.72682 5.33979L11.4335 4.35312C11.7832 4.15712 12.1838 4.07076 12.5832 4.10523C12.9827 4.1397 13.3625 4.29343 13.6735 4.54645L4.98015 9.54645Z" fill="currentColor"/>
<path fill-rule="evenodd" clip-rule="evenodd" d="M1.33325 14.0002C1.33325 13.632 1.63173 13.3335 1.99992 13.3335H13.9999C14.3681 13.3335 14.6666 13.632 14.6666 14.0002C14.6666 14.3684 14.3681 14.6668 13.9999 14.6668H1.99992C1.63173 14.6668 1.33325 14.3684 1.33325 14.0002Z" fill="#454545"/>
</svg>
