<svg width="20" height="20" viewBox="0 0 20 20" fill="none" xmlns="http://www.w3.org/2000/svg">
<g clip-path="url(#clip0_20089_90512)">
<path fill-rule="evenodd" clip-rule="evenodd" d="M15 4.16667C14.5398 4.16667 14.1667 4.53976 14.1667 5C14.1667 5.46024 14.5398 5.83333 15 5.83333C15.4602 5.83333 15.8333 5.46024 15.8333 5C15.8333 4.53976 15.4602 4.16667 15 4.16667ZM7.35775 5.83333H12.6423C12.6499 5.8549 12.6578 5.87633 12.666 5.89761L6.27712 12.8504C5.90334 12.6278 5.4666 12.5 5 12.5C3.61929 12.5 2.5 13.6193 2.5 15C2.5 16.3807 3.61929 17.5 5 17.5C6.08743 17.5 7.0127 16.8057 7.35672 15.8362L14.6815 15.8308L13.7446 16.7678C13.5883 16.924 13.5005 17.136 13.5005 17.357C13.5005 17.578 13.5883 17.79 13.7446 17.9463C13.9009 18.1026 14.1128 18.1904 14.3338 18.1904C14.5548 18.1904 14.7668 18.1026 14.9231 17.9463L17.2801 15.5893C17.3562 15.5113 17.4162 15.4192 17.4569 15.3182C17.5411 15.1144 17.5411 14.8856 17.4569 14.6818C17.4162 14.5808 17.3562 14.4887 17.2801 14.4107L14.9231 12.0537C14.7668 11.8974 14.5548 11.8096 14.3338 11.8096C14.1128 11.8096 13.9009 11.8974 13.7446 12.0537C13.5883 12.21 13.5005 12.422 13.5005 12.643C13.5005 12.864 13.5883 13.076 13.7446 13.2322L14.6815 14.1691L7.35672 14.1638C7.35177 14.1498 7.3467 14.1359 7.34151 14.1221L13.7979 7.19255C14.1546 7.38853 14.5643 7.5 15 7.5C16.3807 7.5 17.5 6.38071 17.5 5C17.5 3.61929 16.3807 2.5 15 2.5C13.9115 2.5 12.9855 3.19567 12.6423 4.16667H7.35775C7.01455 3.19567 6.08852 2.5 5 2.5C3.61929 2.5 2.5 3.61929 2.5 5C2.5 6.38071 3.61929 7.5 5 7.5C6.08852 7.5 7.01455 6.80433 7.35775 5.83333ZM5.83153 14.9448C5.8031 14.5103 5.44168 14.1667 5 14.1667C4.53976 14.1667 4.16667 14.5398 4.16667 15C4.16667 15.4602 4.53976 15.8333 5 15.8333C5.44168 15.8333 5.8031 15.4897 5.83153 15.0552C5.83039 15.0369 5.82985 15.0184 5.82992 15C5.82985 14.9816 5.83039 14.9631 5.83153 14.9448ZM4.16667 5C4.16667 4.53976 4.53976 4.16667 5 4.16667C5.46024 4.16667 5.83333 4.53976 5.83333 5C5.83333 5.46024 5.46024 5.83333 5 5.83333C4.53976 5.83333 4.16667 5.46024 4.16667 5Z" fill="#454545"/>
</g>
<defs>
<clipPath id="clip0_20089_90512">
<rect width="20" height="20" fill="white"/>
</clipPath>
</defs>
</svg>
