<svg width="16" height="16" viewBox="0 0 16 16" fill="none" xmlns="http://www.w3.org/2000/svg">
<g clip-path="url(#clip0_12112_72513)">
<path d="M12.6673 4.33268H10.6673V3.66602C10.6673 3.13558 10.4566 2.62687 10.0815 2.2518C9.70646 1.87673 9.19775 1.66602 8.66732 1.66602H7.33398C6.80355 1.66602 6.29484 1.87673 5.91977 2.2518C5.5447 2.62687 5.33398 3.13558 5.33398 3.66602V4.33268H3.33398C2.80355 4.33268 2.29484 4.5434 1.91977 4.91847C1.5447 5.29354 1.33398 5.80225 1.33398 6.33268V12.3327C1.33398 12.8631 1.5447 13.3718 1.91977 13.7469C2.29484 14.122 2.80355 14.3327 3.33398 14.3327H12.6673C13.1978 14.3327 13.7065 14.122 14.0815 13.7469C14.4566 13.3718 14.6673 12.8631 14.6673 12.3327V6.33268C14.6673 5.80225 14.4566 5.29354 14.0815 4.91847C13.7065 4.5434 13.1978 4.33268 12.6673 4.33268ZM6.66732 3.66602C6.66732 3.4892 6.73756 3.31964 6.86258 3.19461C6.9876 3.06959 7.15717 2.99935 7.33398 2.99935H8.66732C8.84413 2.99935 9.0137 3.06959 9.13872 3.19461C9.26375 3.31964 9.33398 3.4892 9.33398 3.66602V4.33268H6.66732V3.66602ZM13.334 12.3327C13.334 12.5095 13.2637 12.6791 13.1387 12.8041C13.0137 12.9291 12.8441 12.9993 12.6673 12.9993H3.33398C3.15717 12.9993 2.9876 12.9291 2.86258 12.8041C2.73756 12.6791 2.66732 12.5095 2.66732 12.3327V8.96601H4.66732V9.66602C4.66732 9.84283 4.73756 10.0124 4.86258 10.1374C4.9876 10.2624 5.15717 10.3327 5.33398 10.3327C5.5108 10.3327 5.68036 10.2624 5.80539 10.1374C5.93041 10.0124 6.00065 9.84283 6.00065 9.66602V8.96601H10.0007V9.66602C10.0007 9.84283 10.0709 10.0124 10.1959 10.1374C10.3209 10.2624 10.4905 10.3327 10.6673 10.3327C10.8441 10.3327 11.0137 10.2624 11.1387 10.1374C11.2637 10.0124 11.334 9.84283 11.334 9.66602V8.96601H13.334V12.3327ZM13.334 7.66602H2.66732V6.33268C2.66732 6.15587 2.73756 5.9863 2.86258 5.86128C2.9876 5.73625 3.15717 5.66602 3.33398 5.66602H12.6673C12.8441 5.66602 13.0137 5.73625 13.1387 5.86128C13.2637 5.9863 13.334 6.15587 13.334 6.33268V7.66602Z" fill="#8A8A8A"/>
</g>
<path fill-rule="evenodd" clip-rule="evenodd" d="M2.29289 2.70711C2.68342 2.31658 3.42211 2.42211 3.94281 2.94281L13.3709 12.3709C13.8916 12.8916 13.9971 13.6303 13.6066 14.0208C13.2161 14.4113 12.4774 14.3058 11.9567 13.7851L2.5286 4.35702C2.0079 3.83632 1.90237 3.09763 2.29289 2.70711Z" fill="#F04343"/>
<defs>
<clipPath id="clip0_12112_72513">
<rect width="16" height="16" fill="white"/>
</clipPath>
</defs>
</svg>
