<svg width="16" height="16" viewBox="0 0 16 16" fill="none" xmlns="http://www.w3.org/2000/svg">
<g clip-path="url(#clip0_12112_71904)">
<path d="M12.6663 2.66732H11.333V2.00065C11.333 1.82384 11.2628 1.65427 11.1377 1.52925C11.0127 1.40422 10.8432 1.33398 10.6663 1.33398C10.4895 1.33398 10.32 1.40422 10.1949 1.52925C10.0699 1.65427 9.99967 1.82384 9.99967 2.00065V2.66732H5.99967V2.00065C5.99967 1.82384 5.92944 1.65427 5.80441 1.52925C5.67939 1.40422 5.50982 1.33398 5.33301 1.33398C5.1562 1.33398 4.98663 1.40422 4.8616 1.52925C4.73658 1.65427 4.66634 1.82384 4.66634 2.00065V2.66732H3.33301C2.80257 2.66732 2.29387 2.87803 1.91879 3.2531C1.54372 3.62818 1.33301 4.13688 1.33301 4.66732V12.6673C1.33301 13.1978 1.54372 13.7065 1.91879 14.0815C2.29387 14.4566 2.80257 14.6673 3.33301 14.6673H12.6663C13.1968 14.6673 13.7055 14.4566 14.0806 14.0815C14.4556 13.7065 14.6663 13.1978 14.6663 12.6673V4.66732C14.6663 4.13688 14.4556 3.62818 14.0806 3.2531C13.7055 2.87803 13.1968 2.66732 12.6663 2.66732ZM13.333 12.6673C13.333 12.8441 13.2628 13.0137 13.1377 13.1387C13.0127 13.2637 12.8432 13.334 12.6663 13.334H3.33301C3.1562 13.334 2.98663 13.2637 2.8616 13.1387C2.73658 13.0137 2.66634 12.8441 2.66634 12.6673V8.00065H13.333V12.6673ZM13.333 6.66732H2.66634V4.66732C2.66634 4.49051 2.73658 4.32094 2.8616 4.19591C2.98663 4.07089 3.1562 4.00065 3.33301 4.00065H4.66634V4.66732C4.66634 4.84413 4.73658 5.0137 4.8616 5.13872C4.98663 5.26375 5.1562 5.33398 5.33301 5.33398C5.50982 5.33398 5.67939 5.26375 5.80441 5.13872C5.92944 5.0137 5.99967 4.84413 5.99967 4.66732V4.00065H9.99967V4.66732C9.99967 4.84413 10.0699 5.0137 10.1949 5.13872C10.32 5.26375 10.4895 5.33398 10.6663 5.33398C10.8432 5.33398 11.0127 5.26375 11.1377 5.13872C11.2628 5.0137 11.333 4.84413 11.333 4.66732V4.00065H12.6663C12.8432 4.00065 13.0127 4.07089 13.1377 4.19591C13.2628 4.32094 13.333 4.49051 13.333 4.66732V6.66732Z" fill="#8A8A8A"/>
</g>
<path fill-rule="evenodd" clip-rule="evenodd" d="M2.29289 2.70711C2.68342 2.31658 3.42211 2.42211 3.94281 2.94281L13.3709 12.3709C13.8916 12.8916 13.9971 13.6303 13.6066 14.0208C13.2161 14.4113 12.4774 14.3058 11.9567 13.7851L2.5286 4.35702C2.0079 3.83632 1.90237 3.09763 2.29289 2.70711Z" fill="#F04343"/>
<defs>
<clipPath id="clip0_12112_71904">
<rect width="16" height="16" fill="white"/>
</clipPath>
</defs>
</svg>
