<svg width="20" height="20" viewBox="0 0 20 20" fill="none" xmlns="http://www.w3.org/2000/svg">
<path d="M15.834 9.16658H10.834V4.16659C10.834 3.94557 10.7462 3.73361 10.5899 3.57733C10.4336 3.42105 10.2217 3.33325 10.0007 3.33325C9.77964 3.33325 9.56768 3.42105 9.4114 3.57733C9.25512 3.73361 9.16732 3.94557 9.16732 4.16659V9.16658H4.16732C3.9463 9.16658 3.73434 9.25438 3.57806 9.41066C3.42178 9.56694 3.33398 9.7789 3.33398 9.99992C3.33398 10.2209 3.42178 10.4329 3.57806 10.5892C3.73434 10.7455 3.9463 10.8333 4.16732 10.8333H9.16732V15.8333C9.16732 16.0543 9.25512 16.2662 9.4114 16.4225C9.56768 16.5788 9.77964 16.6666 10.0007 16.6666C10.2217 16.6666 10.4336 16.5788 10.5899 16.4225C10.7462 16.2662 10.834 16.0543 10.834 15.8333V10.8333H15.834C16.055 10.8333 16.267 10.7455 16.4232 10.5892C16.5795 10.4329 16.6673 10.2209 16.6673 9.99992C16.6673 9.7789 16.5795 9.56694 16.4232 9.41066C16.267 9.25438 16.055 9.16658 15.834 9.16658Z" fill="#0DADB9"/>
</svg>
