<svg width="14" height="14" viewBox="0 0 14 14" fill="none" xmlns="http://www.w3.org/2000/svg">
<path d="M11.6673 1.66732H10.334V1.00065C10.334 0.82384 10.2637 0.654271 10.1387 0.529246C10.0137 0.404222 9.84413 0.333984 9.66732 0.333984C9.49051 0.333984 9.32094 0.404222 9.19591 0.529246C9.07089 0.654271 9.00065 0.82384 9.00065 1.00065V1.66732H5.00065V1.00065C5.00065 0.82384 4.93041 0.654271 4.80539 0.529246C4.68036 0.404222 4.5108 0.333984 4.33398 0.333984C4.15717 0.333984 3.9876 0.404222 3.86258 0.529246C3.73756 0.654271 3.66732 0.82384 3.66732 1.00065V1.66732H2.33398C1.80355 1.66732 1.29484 1.87803 0.919771 2.2531C0.544698 2.62818 0.333984 3.13688 0.333984 3.66732V11.6673C0.333984 12.1978 0.544698 12.7065 0.919771 13.0815C1.29484 13.4566 1.80355 13.6673 2.33398 13.6673H11.6673C12.1978 13.6673 12.7065 13.4566 13.0815 13.0815C13.4566 12.7065 13.6673 12.1978 13.6673 11.6673V3.66732C13.6673 3.13688 13.4566 2.62818 13.0815 2.2531C12.7065 1.87803 12.1978 1.66732 11.6673 1.66732ZM12.334 11.6673C12.334 11.8441 12.2637 12.0137 12.1387 12.1387C12.0137 12.2637 11.8441 12.334 11.6673 12.334H2.33398C2.15717 12.334 1.9876 12.2637 1.86258 12.1387C1.73756 12.0137 1.66732 11.8441 1.66732 11.6673V7.00065H12.334V11.6673ZM12.334 5.66732H1.66732V3.66732C1.66732 3.49051 1.73756 3.32094 1.86258 3.19591C1.9876 3.07089 2.15717 3.00065 2.33398 3.00065H3.66732V3.66732C3.66732 3.84413 3.73756 4.0137 3.86258 4.13872C3.9876 4.26375 4.15717 4.33398 4.33398 4.33398C4.5108 4.33398 4.68036 4.26375 4.80539 4.13872C4.93041 4.0137 5.00065 3.84413 5.00065 3.66732V3.00065H9.00065V3.66732C9.00065 3.84413 9.07089 4.0137 9.19591 4.13872C9.32094 4.26375 9.49051 4.33398 9.66732 4.33398C9.84413 4.33398 10.0137 4.26375 10.1387 4.13872C10.2637 4.0137 10.334 3.84413 10.334 3.66732V3.00065H11.6673C11.8441 3.00065 12.0137 3.07089 12.1387 3.19591C12.2637 3.32094 12.334 3.49051 12.334 3.66732V5.66732Z" fill="currentColor"/>
</svg>
