<svg width="20" height="20" viewBox="0 0 20 20" fill="none" xmlns="http://www.w3.org/2000/svg">
<path fill-rule="evenodd" clip-rule="evenodd" d="M13.8487 6.52104L5.35261 6.52693C5.2426 6.52739 5.13359 6.50605 5.03186 6.46416C4.93014 6.42227 4.83772 6.36065 4.75993 6.28286C4.68214 6.20508 4.62053 6.11266 4.57864 6.01093C4.53675 5.90921 4.51541 5.8002 4.51586 5.69019C4.51541 5.58018 4.53675 5.47117 4.57864 5.36945C4.62053 5.26773 4.68214 5.17531 4.75993 5.09752C4.83772 5.01973 4.93014 4.95811 5.03186 4.91622C5.13359 4.87433 5.2426 4.853 5.35261 4.85345L13.8487 4.85934L12.0785 3.08909C11.9222 2.93281 11.8344 2.72085 11.8344 2.49984C11.8344 2.27882 11.9222 2.06686 12.0785 1.91058C12.2348 1.7543 12.4467 1.6665 12.6677 1.6665C12.8888 1.6665 13.1007 1.7543 13.257 1.91058L16.4474 5.10094C16.5234 5.17887 16.5835 5.27096 16.6241 5.372C16.7083 5.57577 16.7083 5.80461 16.6241 6.00839C16.5835 6.10943 16.5234 6.20152 16.4474 6.27945L13.257 9.46981C13.1007 9.62609 12.8888 9.71388 12.6677 9.71388C12.4467 9.71388 12.2348 9.62609 12.0785 9.46981C11.9222 9.31353 11.8344 9.10156 11.8344 8.88055C11.8344 8.65954 11.9222 8.44757 12.0785 8.29129L13.8487 6.52104ZM6.17252 13.3357L14.6687 13.3298C14.7787 13.3294 14.8877 13.3507 14.9894 13.3926C15.0911 13.4345 15.1835 13.4961 15.2613 13.5739C15.3391 13.6517 15.4007 13.7441 15.4426 13.8458C15.4845 13.9475 15.5059 14.0565 15.5054 14.1666C15.5059 14.2766 15.4845 14.3856 15.4426 14.4873C15.4007 14.589 15.3391 14.6814 15.2613 14.7592C15.1835 14.837 15.0911 14.8986 14.9894 14.9405C14.8877 14.9824 14.7787 15.0037 14.6687 15.0033L6.17252 14.9974L7.94277 16.7677C8.09905 16.9239 8.18685 17.1359 8.18685 17.3569C8.18685 17.5779 8.09905 17.7899 7.94277 17.9462C7.78649 18.1024 7.57453 18.1902 7.35352 18.1902C7.1325 18.1902 6.92054 18.1024 6.76426 17.9462L3.5739 14.7558C3.49783 14.6779 3.43777 14.5858 3.39713 14.4848C3.31294 14.281 3.31294 14.0521 3.39713 13.8484C3.43777 13.7473 3.49783 13.6552 3.5739 13.5773L6.76426 10.3869C6.92054 10.2307 7.1325 10.1429 7.35352 10.1429C7.57453 10.1429 7.78649 10.2307 7.94277 10.3869C8.09905 10.5432 8.18685 10.7552 8.18685 10.9762C8.18685 11.1972 8.09905 11.4092 7.94277 11.5655L6.17252 13.3357Z" fill="#454545"/>
</svg>
