<svg width="14" height="11" viewBox="0 0 14 11" fill="none" xmlns="http://www.w3.org/2000/svg">
<path fill-rule="evenodd" clip-rule="evenodd" d="M3.33301 1.83268C3.33301 2.47701 2.81067 2.99935 2.16634 2.99935C1.52201 2.99935 0.999674 2.47701 0.999674 1.83268C0.999674 1.18835 1.52201 0.666016 2.16634 0.666016C2.81067 0.666016 3.33301 1.18835 3.33301 1.83268ZM3.19494 3.52794C3.45529 3.26759 3.8774 3.26759 4.13775 3.52794L7.27582 6.66602H11.2758L13.4711 8.86128C13.7314 9.12163 13.7314 9.54374 13.4711 9.80409C13.2107 10.0644 12.7886 10.0644 12.5283 9.80409L10.7235 7.99935H6.72353L3.19494 4.47075C2.93459 4.2104 2.93459 3.78829 3.19494 3.52794ZM1.47108 4.86128C1.21073 4.60093 0.788619 4.60093 0.52827 4.86128C0.26792 5.12163 0.26792 5.54374 0.52827 5.80409L5.3902 10.666H10.333C10.7012 10.666 10.9997 10.3675 10.9997 9.99935C10.9997 9.63116 10.7012 9.33268 10.333 9.33268H5.94248L1.47108 4.86128Z" fill="#0DADB9"/>
</svg>
