<svg width="14" height="8" viewBox="0 0 14 8" fill="none" xmlns="http://www.w3.org/2000/svg">
<path d="M7.02227 2.8146L11.5623 7.3546C11.7496 7.54085 12.0031 7.64539 12.2673 7.64539C12.5315 7.64539 12.7849 7.54085 12.9723 7.3546C13.066 7.26164 13.1404 7.15104 13.1912 7.02918C13.2419 6.90732 13.2681 6.77661 13.2681 6.6446C13.2681 6.51259 13.2419 6.38188 13.1912 6.26003C13.1404 6.13817 13.066 6.02756 12.9723 5.9346L7.73227 0.694602C7.63931 0.600873 7.5287 0.526479 7.40685 0.475711C7.28499 0.424942 7.15428 0.398803 7.02227 0.398803C6.89026 0.398803 6.75955 0.424942 6.63769 0.475711C6.51583 0.526479 6.40523 0.600873 6.31227 0.694602L1.02227 5.9346C0.929587 6.02804 0.856262 6.13886 0.806497 6.26069C0.756733 6.38253 0.731506 6.51299 0.732267 6.6446C0.731506 6.77621 0.756733 6.90667 0.806497 7.02851C0.856262 7.15035 0.929587 7.26116 1.02227 7.3546C1.20963 7.54085 1.46308 7.64539 1.72727 7.64539C1.99145 7.64539 2.24491 7.54085 2.43227 7.3546L7.02227 2.8146Z" fill="currentColor"/>
</svg>
