<svg width="9" height="14" viewBox="0 0 9 14" fill="none" xmlns="http://www.w3.org/2000/svg">
<path d="M5.70481 7.0443L1.16481 11.5843C0.978556 11.7717 0.874015 12.0251 0.874015 12.2893C0.874015 12.5535 0.978556 12.8069 1.16481 12.9943C1.25777 13.088 1.36837 13.1624 1.49023 13.2132C1.61209 13.264 1.7428 13.2901 1.87481 13.2901C2.00682 13.2901 2.13753 13.264 2.25938 13.2132C2.38124 13.1624 2.49184 13.088 2.58481 12.9943L7.82481 7.7543C7.91854 7.66134 7.99293 7.55074 8.0437 7.42888C8.09447 7.30702 8.12061 7.17631 8.12061 7.0443C8.12061 6.91229 8.09447 6.78158 8.0437 6.65973C7.99293 6.53787 7.91854 6.42727 7.82481 6.3343L2.58481 1.0443C2.49137 0.951621 2.38055 0.878295 2.25871 0.828531C2.13688 0.778766 2.00642 0.75354 1.87481 0.754301C1.7432 0.753539 1.61274 0.778766 1.4909 0.828531C1.36906 0.878295 1.25825 0.95162 1.16481 1.0443C0.978557 1.23166 0.874016 1.48512 0.874016 1.7493C0.874016 2.01349 0.978557 2.26694 1.16481 2.4543L5.70481 7.0443Z" fill="currentColor"/>
</svg>
