<svg width="10" height="11" viewBox="0 0 10 11" fill="none" xmlns="http://www.w3.org/2000/svg">
<path d="M8.5 1.5H7.5V1C7.5 0.867392 7.44732 0.740215 7.35355 0.646447C7.25979 0.552678 7.13261 0.5 7 0.5C6.86739 0.5 6.74021 0.552678 6.64645 0.646447C6.55268 0.740215 6.5 0.867392 6.5 1V1.5H3.5V1C3.5 0.867392 3.44732 0.740215 3.35355 0.646447C3.25979 0.552678 3.13261 0.5 3 0.5C2.86739 0.5 2.74021 0.552678 2.64645 0.646447C2.55268 0.740215 2.5 0.867392 2.5 1V1.5H1.5C1.10218 1.5 0.720644 1.65804 0.43934 1.93934C0.158035 2.22064 0 2.60218 0 3V9C0 9.39782 0.158035 9.77936 0.43934 10.0607C0.720644 10.342 1.10218 10.5 1.5 10.5H8.5C8.89782 10.5 9.27936 10.342 9.56066 10.0607C9.84196 9.77936 10 9.39782 10 9V3C10 2.60218 9.84196 2.22064 9.56066 1.93934C9.27936 1.65804 8.89782 1.5 8.5 1.5ZM9 9C9 9.13261 8.94732 9.25979 8.85355 9.35355C8.75979 9.44732 8.63261 9.5 8.5 9.5H1.5C1.36739 9.5 1.24021 9.44732 1.14645 9.35355C1.05268 9.25979 1 9.13261 1 9V5.5H9V9ZM9 4.5H1V3C1 2.86739 1.05268 2.74021 1.14645 2.64645C1.24021 2.55268 1.36739 2.5 1.5 2.5H2.5V3C2.5 3.13261 2.55268 3.25979 2.64645 3.35355C2.74021 3.44732 2.86739 3.5 3 3.5C3.13261 3.5 3.25979 3.44732 3.35355 3.35355C3.44732 3.25979 3.5 3.13261 3.5 3V2.5H6.5V3C6.5 3.13261 6.55268 3.25979 6.64645 3.35355C6.74021 3.44732 6.86739 3.5 7 3.5C7.13261 3.5 7.25979 3.44732 7.35355 3.35355C7.44732 3.25979 7.5 3.13261 7.5 3V2.5H8.5C8.63261 2.5 8.75979 2.55268 8.85355 2.64645C8.94732 2.74021 9 2.86739 9 3V4.5Z" fill="#7A7A7A"/>
</svg>
