<svg width="21" height="21" viewBox="0 0 21 21" fill="none" xmlns="http://www.w3.org/2000/svg">
<path d="M17.4824 2.54649L15.4824 2.53784L15.4867 1.53785C15.4879 1.27264 15.3836 1.01783 15.1969 0.829485C15.0102 0.64114 14.7563 0.534684 14.4911 0.533538C14.2259 0.532391 13.9711 0.636648 13.7827 0.823372C13.5944 1.0101 13.4879 1.26399 13.4868 1.52921L13.4824 2.5292L7.4825 2.50326L7.48682 1.50327C7.48797 1.23806 7.38371 0.98325 7.19699 0.794905C7.01026 0.606559 6.75637 0.500104 6.49115 0.498958C6.22594 0.497811 5.97113 0.602068 5.78279 0.788792C5.59444 0.975516 5.48799 1.22941 5.48684 1.49463L5.48252 2.49462L3.48254 2.48597C2.6869 2.48253 1.92248 2.7953 1.35744 3.35547C0.792404 3.91565 0.473038 4.67733 0.469598 5.47298L0.417728 17.4729C0.414289 18.2685 0.727058 19.0329 1.28723 19.598C1.8474 20.163 2.60909 20.4824 3.40473 20.4858L17.4046 20.5463C18.2002 20.5498 18.9647 20.237 19.5297 19.6768C20.0947 19.1166 20.4141 18.355 20.4175 17.5593L20.4694 5.55943C20.4729 4.76378 20.1601 3.99936 19.5999 3.43433C19.0397 2.86929 18.278 2.54993 17.4824 2.54649ZM18.4176 17.5507C18.4164 17.8159 18.31 18.0698 18.1216 18.2565C17.9333 18.4432 17.6785 18.5475 17.4132 18.5463L3.41338 18.4858C3.14816 18.4847 2.89427 18.3782 2.70754 18.1899C2.52082 18.0015 2.41656 17.7467 2.41771 17.4815L2.44797 10.4816L18.4478 10.5507L18.4176 17.5507ZM18.4565 8.55075L2.45661 8.48159L2.46958 5.48162C2.47073 5.21641 2.57718 4.96251 2.76553 4.77579C2.95387 4.58906 3.20868 4.48481 3.47389 4.48595L5.47387 4.4946L5.46955 5.49459C5.46841 5.7598 5.57266 6.01461 5.75939 6.20295C5.94611 6.3913 6.20001 6.49776 6.46522 6.4989C6.73043 6.50005 6.98524 6.39579 7.17359 6.20907C7.36193 6.02234 7.46839 5.76845 7.46953 5.50323L7.47386 4.50324L13.4738 4.52918L13.4695 5.52917C13.4683 5.79438 13.5726 6.04919 13.7593 6.23753C13.946 6.42588 14.1999 6.53234 14.4651 6.53348C14.7304 6.53463 14.9852 6.43037 15.1735 6.24365C15.3619 6.05692 15.4683 5.80303 15.4695 5.53781L15.4738 4.53782L17.4738 4.54647C17.739 4.54761 17.9929 4.65407 18.1796 4.84242C18.3663 5.03076 18.4706 5.28557 18.4694 5.55078L18.4565 8.55075Z" fill="currentColor"/>
</svg>
