<svg width="16" height="16" viewBox="0 0 16 16" fill="none" xmlns="http://www.w3.org/2000/svg">
  <path
    d="M9.06667 6.93333L8.4 5.00267C8.28094 4.7068 8.07617 4.45327 7.81199 4.27462C7.5478 4.09596 7.23626 4.00033 6.91733 4H3.44C3.06949 3.99894 2.71009 4.1265 2.42316 4.36091C2.13622 4.59533 1.93953 4.92205 1.86667 5.28533L1.58933 6.93333H1.6C1.17565 6.93333 0.768687 7.1019 0.468629 7.40196C0.168571 7.70201 0 8.10898 0 8.53333V10.1333C0 10.2748 0.0561903 10.4104 0.15621 10.5105C0.256229 10.6105 0.391885 10.6667 0.533333 10.6667H1.06667C1.06667 11.091 1.23524 11.498 1.5353 11.798C1.83535 12.0981 2.24232 12.2667 2.66667 12.2667C3.09101 12.2667 3.49798 12.0981 3.79804 11.798C4.0981 11.498 4.26667 11.091 4.26667 10.6667H6.4C6.4 11.091 6.56857 11.498 6.86863 11.798C7.16869 12.0981 7.57565 12.2667 8 12.2667C8.42435 12.2667 8.83131 12.0981 9.13137 11.798C9.43143 11.498 9.6 11.091 9.6 10.6667H10.1333C10.2748 10.6667 10.4104 10.6105 10.5105 10.5105C10.6105 10.4104 10.6667 10.2748 10.6667 10.1333V8.53333C10.6667 8.10898 10.4981 7.70201 10.198 7.40196C9.89798 7.1019 9.49101 6.93333 9.06667 6.93333ZM5.86667 5.06667H6.91733C7.02324 5.06762 7.12646 5.10009 7.21384 5.15993C7.30123 5.21977 7.36882 5.30427 7.408 5.40267L7.91467 6.93333H5.86667V5.06667ZM2.912 5.49333C2.93693 5.37105 3.00396 5.26139 3.10141 5.18343C3.19886 5.10547 3.32056 5.06415 3.44533 5.06667H4.8V6.93333H2.67733L2.912 5.49333ZM2.66667 11.2C2.56118 11.2 2.45807 11.1687 2.37036 11.1101C2.28266 11.0515 2.2143 10.9682 2.17393 10.8708C2.13356 10.7733 2.123 10.6661 2.14358 10.5626C2.16416 10.4592 2.21496 10.3641 2.28954 10.2895C2.36413 10.2149 2.45916 10.1642 2.56262 10.1436C2.66608 10.123 2.77331 10.1336 2.87076 10.1739C2.96822 10.2143 3.05151 10.2826 3.11012 10.3704C3.16872 10.4581 3.2 10.5612 3.2 10.6667C3.2 10.8081 3.14381 10.9438 3.04379 11.0438C2.94377 11.1438 2.80812 11.2 2.66667 11.2ZM8 11.2C7.89452 11.2 7.7914 11.1687 7.7037 11.1101C7.61599 11.0515 7.54763 10.9682 7.50726 10.8708C7.4669 10.7733 7.45634 10.6661 7.47691 10.5626C7.49749 10.4592 7.54829 10.3641 7.62288 10.2895C7.69746 10.2149 7.7925 10.1642 7.89595 10.1436C7.99941 10.123 8.10664 10.1336 8.2041 10.1739C8.30155 10.2143 8.38485 10.2826 8.44345 10.3704C8.50205 10.4581 8.53333 10.5612 8.53333 10.6667C8.53333 10.8081 8.47714 10.9438 8.37712 11.0438C8.27711 11.1438 8.14145 11.2 8 11.2ZM9.6 9.59999H9.184C9.03404 9.435 8.85125 9.30318 8.64735 9.21297C8.44346 9.12276 8.22296 9.07616 8 9.07616C7.77704 9.07616 7.55654 9.12276 7.35265 9.21297C7.14875 9.30318 6.96596 9.435 6.816 9.59999H3.85067C3.7007 9.435 3.51791 9.30318 3.31402 9.21297C3.11012 9.12276 2.88963 9.07616 2.66667 9.07616C2.44371 9.07616 2.22321 9.12276 2.01932 9.21297C1.81542 9.30318 1.63263 9.435 1.48267 9.59999H1.06667V8.53333C1.06667 8.39188 1.12286 8.25622 1.22288 8.1562C1.3229 8.05618 1.45855 7.99999 1.6 7.99999H9.06667C9.20812 7.99999 9.34377 8.05618 9.44379 8.1562C9.54381 8.25622 9.6 8.39188 9.6 8.53333V9.59999Z"
    fill="currentColor"/>
  <path
    d="M14.8108 6.7621C14.8719 6.82367 14.9445 6.87254 15.0245 6.90589C15.1046 6.93923 15.1904 6.9564 15.2772 6.9564C15.3639 6.9564 15.4497 6.93923 15.5298 6.90589C15.6098 6.87254 15.6825 6.82367 15.7435 6.7621C15.8051 6.70104 15.854 6.62839 15.8873 6.54835C15.9207 6.4683 15.9378 6.38245 15.9378 6.29573C15.9378 6.20902 15.9207 6.12317 15.8873 6.04312C15.854 5.96308 15.8051 5.89043 15.7435 5.82936L14.1014 4.18721C14.0389 4.12741 13.9652 4.08054 13.8846 4.04927C13.7247 3.98358 13.5453 3.98358 13.3854 4.04927C13.3048 4.08054 13.2311 4.12741 13.1686 4.18721L11.5265 5.82936C11.4028 5.95305 11.3333 6.12081 11.3333 6.29573C11.3333 6.47066 11.4028 6.63842 11.5265 6.7621C11.6502 6.88579 11.8179 6.95528 11.9929 6.95528C12.1678 6.95528 12.3355 6.88579 12.4592 6.7621L12.9782 6.23662V9.63915L12.4592 9.11366C12.3355 8.98997 12.1678 8.92049 11.9929 8.92049C11.8179 8.92049 11.6502 8.98997 11.5265 9.11366C11.4028 9.23735 11.3333 9.40511 11.3333 9.58003C11.3333 9.75496 11.4028 9.92271 11.5265 10.0464L13.1686 11.6886C13.2311 11.7484 13.3048 11.7952 13.3854 11.8265C13.464 11.8612 13.549 11.8792 13.635 11.8792C13.721 11.8792 13.806 11.8612 13.8846 11.8265C13.9652 11.7952 14.0389 11.7484 14.1014 11.6886L15.7435 10.0464C15.8672 9.92271 15.9367 9.75496 15.9367 9.58003C15.9367 9.40511 15.8672 9.23735 15.7435 9.11366C15.6198 8.98997 15.4521 8.92049 15.2772 8.92049C15.1022 8.92049 14.9345 8.98997 14.8108 9.11366L14.2919 9.63915V6.23662L14.8108 6.7621Z"
    fill="currentColor"/>
</svg>
