<svg width="24" height="24" viewBox="0 0 16 16" fill="currentColor" xmlns="http://www.w3.org/2000/svg">
  <g>
    <path
      d="M11.7333 10.2667L11.0667 8.33604C10.9476 8.04018 10.7428 7.78665 10.4787 7.60799C10.2145 7.42933 9.90293 7.3337 9.584 7.33337H6.10667C5.73616 7.33231 5.37676 7.45988 5.08983 7.69429C4.80289 7.9287 4.6062 8.25543 4.53334 8.61871L4.25601 10.2667H4.26667C3.84233 10.2667 3.43536 10.4353 3.1353 10.7353C2.83524 11.0354 2.66667 11.4424 2.66667 11.8667V13.4667C2.66667 13.6081 2.72286 13.7438 2.82288 13.8438C2.9229 13.9438 3.05856 14 3.20001 14H3.73334C3.73334 14.4244 3.90191 14.8313 4.20197 15.1314C4.50203 15.4315 4.90899 15.6 5.33334 15.6C5.75768 15.6 6.16465 15.4315 6.46471 15.1314C6.76477 14.8313 6.93334 14.4244 6.93334 14H9.06667C9.06667 14.4244 9.23524 14.8313 9.5353 15.1314C9.83536 15.4315 10.2423 15.6 10.6667 15.6C11.091 15.6 11.498 15.4315 11.798 15.1314C12.0981 14.8313 12.2667 14.4244 12.2667 14H12.8C12.9415 14 13.0771 13.9438 13.1771 13.8438C13.2771 13.7438 13.3333 13.6081 13.3333 13.4667V11.8667C13.3333 11.4424 13.1648 11.0354 12.8647 10.7353C12.5647 10.4353 12.1577 10.2667 11.7333 10.2667ZM8.53334 8.40004H9.584C9.68991 8.401 9.79313 8.43347 9.88052 8.49331C9.9679 8.55315 10.0355 8.63765 10.0747 8.73604L10.5813 10.2667H8.53334V8.40004ZM5.57867 8.82671C5.60361 8.70443 5.67063 8.59476 5.76808 8.5168C5.86553 8.43884 5.98723 8.39752 6.112 8.40004H7.46667V10.2667H5.344L5.57867 8.82671ZM5.33334 14.5334C5.22785 14.5334 5.12474 14.5021 5.03703 14.4435C4.94933 14.3849 4.88097 14.3016 4.8406 14.2041C4.80024 14.1067 4.78967 13.9994 4.81025 13.896C4.83083 13.7925 4.88163 13.6975 4.95621 13.6229C5.0308 13.5483 5.12583 13.4975 5.22929 13.4769C5.33275 13.4564 5.43998 13.4669 5.53744 13.5073C5.63489 13.5477 5.71819 13.616 5.77679 13.7037C5.83539 13.7914 5.86667 13.8946 5.86667 14C5.86667 14.1415 5.81048 14.2771 5.71046 14.3772C5.61044 14.4772 5.47479 14.5334 5.33334 14.5334ZM10.6667 14.5334C10.5612 14.5334 10.4581 14.5021 10.3704 14.4435C10.2827 14.3849 10.2143 14.3016 10.1739 14.2041C10.1336 14.1067 10.123 13.9994 10.1436 13.896C10.1642 13.7925 10.215 13.6975 10.2895 13.6229C10.3641 13.5483 10.4592 13.4975 10.5626 13.4769C10.6661 13.4564 10.7733 13.4669 10.8708 13.5073C10.9682 13.5477 11.0515 13.616 11.1101 13.7037C11.1687 13.7914 11.2 13.8946 11.2 14C11.2 14.1415 11.1438 14.2771 11.0438 14.3772C10.9438 14.4772 10.8081 14.5334 10.6667 14.5334ZM12.2667 12.9334H11.8507C11.7007 12.7684 11.5179 12.6366 11.314 12.5463C11.1101 12.4561 10.8896 12.4095 10.6667 12.4095C10.4437 12.4095 10.2232 12.4561 10.0193 12.5463C9.81543 12.6366 9.63263 12.7684 9.48267 12.9334H6.51734C6.36737 12.7684 6.18458 12.6366 5.98069 12.5463C5.77679 12.4561 5.5563 12.4095 5.33334 12.4095C5.11038 12.4095 4.88988 12.4561 4.68599 12.5463C4.48209 12.6366 4.2993 12.7684 4.14934 12.9334H3.73334V11.8667C3.73334 11.7253 3.78953 11.5896 3.88955 11.4896C3.98957 11.3896 4.12522 11.3334 4.26667 11.3334H11.7333C11.8748 11.3334 12.0104 11.3896 12.1105 11.4896C12.2105 11.5896 12.2667 11.7253 12.2667 11.8667V12.9334Z"
    />
    <path
      d="M8.04741 1.08094C8.08126 0.999696 8.13085 0.925963 8.19334 0.863987C8.25531 0.801501 8.32905 0.751904 8.41029 0.718058C8.49153 0.684213 8.57866 0.666788 8.66667 0.666788C8.75468 0.666788 8.84182 0.684213 8.92306 0.718058C9.0043 0.751904 9.07803 0.801501 9.14 0.863987L11.14 2.86399C11.2007 2.92739 11.2483 3.00215 11.28 3.08399C11.3153 3.16379 11.3335 3.25007 11.3335 3.33732C11.3335 3.42457 11.3153 3.51085 11.28 3.59065C11.2483 3.67249 11.2007 3.74725 11.14 3.81065L9.14 5.81065C9.01447 5.93619 8.84421 6.00671 8.66667 6.00671C8.48914 6.00671 8.31888 5.93619 8.19334 5.81065C8.0678 5.68512 7.99728 5.51485 7.99728 5.33732C7.99728 5.15979 8.0678 4.98952 8.19334 4.86399L9.06001 4.00399L5.33334 4.00399C5.15653 4.00399 4.98696 3.93375 4.86193 3.80872C4.73691 3.6837 4.66667 3.51413 4.66667 3.33732C4.66667 3.16051 4.73691 2.99094 4.86193 2.86591C4.98696 2.74089 5.15653 2.67065 5.33334 2.67065L9.06001 2.67065L8.19334 1.81065C8.13085 1.74868 8.08126 1.67494 8.04741 1.5937C8.01357 1.51246 7.99614 1.42533 7.99614 1.33732C7.99614 1.24931 8.01357 1.16217 8.04741 1.08094Z"
    />
  </g>
</svg>
