<svg width="18" height="14" viewBox="0 0 18 14" fill="none" xmlns="http://www.w3.org/2000/svg">
<path d="M14.8337 4.91731L13.792 1.90065C13.606 1.43836 13.286 1.04222 12.8732 0.763071C12.4604 0.48392 11.9736 0.334498 11.4753 0.333984H6.04199C5.46307 0.332327 4.90151 0.531644 4.45317 0.897912C4.00484 1.26418 3.69751 1.77469 3.58366 2.34232L3.15033 4.91731H3.16699C2.50395 4.91731 1.86807 5.1807 1.39923 5.64954C0.930384 6.11838 0.666992 6.75427 0.666992 7.41731V9.91731C0.666992 10.1383 0.75479 10.3503 0.91107 10.5066C1.06735 10.6628 1.27931 10.7506 1.50033 10.7506H2.33366C2.33366 11.4137 2.59705 12.0496 3.06589 12.5184C3.53473 12.9872 4.17062 13.2506 4.83366 13.2506C5.4967 13.2506 6.13259 12.9872 6.60143 12.5184C7.07027 12.0496 7.33366 11.4137 7.33366 10.7506H10.667C10.667 11.4137 10.9304 12.0496 11.3992 12.5184C11.8681 12.9872 12.504 13.2506 13.167 13.2506C13.83 13.2506 14.4659 12.9872 14.9348 12.5184C15.4036 12.0496 15.667 11.4137 15.667 10.7506H16.5003C16.7213 10.7506 16.9333 10.6628 17.0896 10.5066C17.2459 10.3503 17.3337 10.1383 17.3337 9.91731V7.41731C17.3337 6.75427 17.0703 6.11838 16.6014 5.64954C16.1326 5.1807 15.4967 4.91731 14.8337 4.91731ZM9.83366 2.00065H11.4753C11.6408 2.00215 11.8021 2.05288 11.9386 2.14638C12.0752 2.23988 12.1808 2.37191 12.242 2.52565L13.0337 4.91731H9.83366V2.00065ZM5.21699 2.66732C5.25595 2.47625 5.36068 2.3049 5.51294 2.18309C5.66521 2.06128 5.85537 1.99672 6.05033 2.00065H8.16699V4.91731H4.85033L5.21699 2.66732ZM4.83366 11.584C4.66884 11.584 4.50773 11.5351 4.37068 11.4435C4.23364 11.352 4.12683 11.2218 4.06376 11.0695C4.00069 10.9173 3.98418 10.7497 4.01634 10.5881C4.04849 10.4264 4.12786 10.2779 4.2444 10.1614C4.36095 10.0448 4.50943 9.96547 4.67108 9.93332C4.83273 9.90117 5.00029 9.91767 5.15256 9.98074C5.30483 10.0438 5.43498 10.1506 5.52655 10.2877C5.61812 10.4247 5.66699 10.5858 5.66699 10.7506C5.66699 10.9717 5.5792 11.1836 5.42291 11.3399C5.26663 11.4962 5.05467 11.584 4.83366 11.584ZM13.167 11.584C13.0022 11.584 12.8411 11.5351 12.704 11.4435C12.567 11.352 12.4602 11.2218 12.3971 11.0695C12.334 10.9173 12.3175 10.7497 12.3497 10.5881C12.3818 10.4264 12.4612 10.2779 12.5777 10.1614C12.6943 10.0448 12.8428 9.96547 13.0044 9.93332C13.1661 9.90117 13.3336 9.91767 13.4859 9.98074C13.6382 10.0438 13.7683 10.1506 13.8599 10.2877C13.9515 10.4247 14.0003 10.5858 14.0003 10.7506C14.0003 10.9717 13.9125 11.1836 13.7562 11.3399C13.6 11.4962 13.388 11.584 13.167 11.584ZM15.667 9.08397H15.017C14.7827 8.82618 14.4971 8.6202 14.1785 8.47925C13.8599 8.3383 13.5154 8.26549 13.167 8.26549C12.8186 8.26549 12.4741 8.3383 12.1555 8.47925C11.8369 8.6202 11.5513 8.82618 11.317 9.08397H6.68366C6.44934 8.82618 6.16373 8.6202 5.84515 8.47925C5.52656 8.3383 5.18203 8.26549 4.83366 8.26549C4.48529 8.26549 4.14076 8.3383 3.82217 8.47925C3.50359 8.6202 3.21798 8.82618 2.98366 9.08397H2.33366V7.41731C2.33366 7.19629 2.42146 6.98433 2.57774 6.82805C2.73402 6.67177 2.94598 6.58397 3.16699 6.58397H14.8337C15.0547 6.58397 15.2666 6.67177 15.4229 6.82805C15.5792 6.98433 15.667 7.19629 15.667 7.41731V9.08397Z" fill="currentColor"/>
</svg>
