<svg width="52" height="56" viewBox="0 0 52 56" fill="none" xmlns="http://www.w3.org/2000/svg">
<g filter="url(#filter0_d_2142_606)">
<path d="M40 28C40 36.8366 32.8366 44 24 44C15.1634 44 8 36.8366 8 28C8 19.1634 15.1634 12 24 12C32.8366 12 40 19.1634 40 28Z" fill="white" fill-opacity="0.9"/>
<path d="M22.29 27.9999L26.83 23.4599C27.0163 23.2726 27.1208 23.0191 27.1208 22.7549C27.1208 22.4908 27.0163 22.2373 26.83 22.0499C26.737 21.9562 26.6264 21.8818 26.5046 21.8311C26.3827 21.7803 26.252 21.7542 26.12 21.7542C25.988 21.7542 25.8573 21.7803 25.7354 21.8311C25.6136 21.8818 25.503 21.9562 25.41 22.0499L20.17 27.2899C20.0763 27.3829 20.0019 27.4935 19.9511 27.6154C19.9003 27.7372 19.8742 27.8679 19.8742 27.9999C19.8742 28.132 19.9003 28.2627 19.9511 28.3845C20.0019 28.5064 20.0763 28.617 20.17 28.7099L25.41 33.9999C25.5034 34.0926 25.6143 34.166 25.7361 34.2157C25.8579 34.2655 25.9884 34.2907 26.12 34.2899C26.2516 34.2907 26.3821 34.2655 26.5039 34.2157C26.6257 34.166 26.7366 34.0926 26.83 33.9999C27.0163 33.8126 27.1208 33.5591 27.1208 33.2949C27.1208 33.0308 27.0163 32.7773 26.83 32.5899L22.29 27.9999Z" fill="#7A7A7A"/>
<path d="M24 13C32.2843 13 39 19.7157 39 28L41 28C41 18.6112 33.3888 11 24 11L24 13ZM9 28C9 19.7157 15.7157 13 24 13L24 11C14.6112 11 7 18.6112 7 28L9 28ZM24 43C15.7157 43 9 36.2843 9 28L7 28C7 37.3888 14.6112 45 24 45L24 43ZM24 45C33.3888 45 41 37.3888 41 28L39 28C39 36.2843 32.2843 43 24 43L24 45Z" fill="#E6E6E6"/>
</g>
<defs>
<filter id="filter0_d_2142_606" x="-4" y="0" width="56" height="56" filterUnits="userSpaceOnUse" color-interpolation-filters="sRGB">
<feFlood flood-opacity="0" result="BackgroundImageFix"/>
<feColorMatrix in="SourceAlpha" type="matrix" values="0 0 0 0 0 0 0 0 0 0 0 0 0 0 0 0 0 0 127 0" result="hardAlpha"/>
<feOffset/>
<feGaussianBlur stdDeviation="6"/>
<feColorMatrix type="matrix" values="0 0 0 0 0 0 0 0 0 0 0 0 0 0 0 0 0 0 0.08 0"/>
<feBlend mode="normal" in2="BackgroundImageFix" result="effect1_dropShadow_2142_606"/>
<feBlend mode="normal" in="SourceGraphic" in2="effect1_dropShadow_2142_606" result="shape"/>
</filter>
</defs>
</svg>
