<svg width="52" height="56" viewBox="0 0 52 56" fill="none" xmlns="http://www.w3.org/2000/svg">
<g filter="url(#filter0_d_2142_603)">
<path d="M44 28C44 36.8366 36.8366 44 28 44C19.1634 44 12 36.8366 12 28C12 19.1634 19.1634 12 28 12C36.8366 12 44 19.1634 44 28Z" fill="white" fill-opacity="0.9"/>
<path d="M29.705 28.0442L25.165 32.5842C24.9787 32.7716 24.8742 33.0251 24.8742 33.2892C24.8742 33.5534 24.9787 33.8069 25.165 33.9942C25.258 34.088 25.3686 34.1624 25.4904 34.2131C25.6123 34.2639 25.743 34.29 25.875 34.29C26.007 34.29 26.1377 34.2639 26.2596 34.2131C26.3814 34.1624 26.492 34.088 26.585 33.9942L31.825 28.7542C31.9187 28.6613 31.9931 28.5507 32.0439 28.4288C32.0947 28.307 32.1208 28.1763 32.1208 28.0442C32.1208 27.9122 32.0947 27.7815 32.0439 27.6597C31.9931 27.5378 31.9187 27.4272 31.825 27.3342L26.585 22.0442C26.4916 21.9516 26.3807 21.8782 26.2589 21.8285C26.1371 21.7787 26.0066 21.7535 25.875 21.7542C25.7434 21.7535 25.6129 21.7787 25.4911 21.8285C25.3692 21.8782 25.2584 21.9516 25.165 22.0442C24.9787 22.2316 24.8742 22.4851 24.8742 22.7492C24.8742 23.0134 24.9787 23.2669 25.165 23.4542L29.705 28.0442Z" fill="#7A7A7A"/>
<path d="M28 13C36.2843 13 43 19.7157 43 28L45 28C45 18.6112 37.3888 11 28 11L28 13ZM13 28C13 19.7157 19.7157 13 28 13L28 11C18.6112 11 11 18.6112 11 28L13 28ZM28 43C19.7157 43 13 36.2843 13 28L11 28C11 37.3888 18.6112 45 28 45L28 43ZM28 45C37.3888 45 45 37.3888 45 28L43 28C43 36.2843 36.2843 43 28 43L28 45Z" fill="#E6E6E6"/>
</g>
<defs>
<filter id="filter0_d_2142_603" x="0" y="0" width="56" height="56" filterUnits="userSpaceOnUse" color-interpolation-filters="sRGB">
<feFlood flood-opacity="0" result="BackgroundImageFix"/>
<feColorMatrix in="SourceAlpha" type="matrix" values="0 0 0 0 0 0 0 0 0 0 0 0 0 0 0 0 0 0 127 0" result="hardAlpha"/>
<feOffset/>
<feGaussianBlur stdDeviation="6"/>
<feColorMatrix type="matrix" values="0 0 0 0 0 0 0 0 0 0 0 0 0 0 0 0 0 0 0.08 0"/>
<feBlend mode="normal" in2="BackgroundImageFix" result="effect1_dropShadow_2142_603"/>
<feBlend mode="normal" in="SourceGraphic" in2="effect1_dropShadow_2142_603" result="shape"/>
</filter>
</defs>
</svg>
