<svg width="16" height="16" viewBox="0 0 16 16" fill="none" xmlns="http://www.w3.org/2000/svg">
  <path
    d="M12.6667 3.99992H10.6667V1.99992C10.6667 1.82311 10.5965 1.65354 10.4715 1.52851C10.3465 1.40349 10.1769 1.33325 10.0001 1.33325C9.82327 1.33325 9.6537 1.40349 9.52868 1.52851C9.40365 1.65354 9.33341 1.82311 9.33341 1.99992V3.99992H6.66675V1.99992C6.66675 1.82311 6.59651 1.65354 6.47149 1.52851C6.34646 1.40349 6.17689 1.33325 6.00008 1.33325C5.82327 1.33325 5.6537 1.40349 5.52868 1.52851C5.40365 1.65354 5.33341 1.82311 5.33341 1.99992V3.99992H3.33341C3.1566 3.99992 2.98703 4.07016 2.86201 4.19518C2.73699 4.32021 2.66675 4.48977 2.66675 4.66659C2.66675 4.8434 2.73699 5.01297 2.86201 5.13799C2.98703 5.26301 3.1566 5.33325 3.33341 5.33325H4.00008V8.66659C3.99957 8.75432 4.01639 8.8413 4.04957 8.92252C4.08274 9.00375 4.13163 9.07763 4.19341 9.13992L6.00008 10.9399V13.9999C6.00008 14.1767 6.07032 14.3463 6.19534 14.4713C6.32037 14.5963 6.48994 14.6666 6.66675 14.6666C6.84356 14.6666 7.01313 14.5963 7.13815 14.4713C7.26318 14.3463 7.33341 14.1767 7.33341 13.9999V11.3333H8.66675V13.9999C8.66675 14.1767 8.73699 14.3463 8.86201 14.4713C8.98703 14.5963 9.1566 14.6666 9.33341 14.6666C9.51023 14.6666 9.67979 14.5963 9.80482 14.4713C9.92984 14.3463 10.0001 14.1767 10.0001 13.9999V10.9399L11.8067 9.13992C11.8685 9.07763 11.9174 9.00375 11.9506 8.92252C11.9838 8.8413 12.0006 8.75432 12.0001 8.66659V5.33325H12.6667C12.8436 5.33325 13.0131 5.26301 13.1382 5.13799C13.2632 5.01297 13.3334 4.8434 13.3334 4.66659C13.3334 4.48977 13.2632 4.32021 13.1382 4.19518C13.0131 4.07016 12.8436 3.99992 12.6667 3.99992ZM10.6667 8.39325L9.06008 9.99992H6.94008L5.33341 8.39325V5.33325H10.6667V8.39325ZM7.33341 8.66659H8.66675C8.84356 8.66659 9.01313 8.59635 9.13815 8.47132C9.26318 8.3463 9.33341 8.17673 9.33341 7.99992C9.33341 7.82311 9.26318 7.65354 9.13815 7.52851C9.01313 7.40349 8.84356 7.33325 8.66675 7.33325H7.33341C7.1566 7.33325 6.98703 7.40349 6.86201 7.52851C6.73699 7.65354 6.66675 7.82311 6.66675 7.99992C6.66675 8.17673 6.73699 8.3463 6.86201 8.47132C6.98703 8.59635 7.1566 8.66659 7.33341 8.66659Z"
    fill="currentColor"/>
</svg>
