<svg width="16" height="12" viewBox="0 0 16 12" fill="none" xmlns="http://www.w3.org/2000/svg">
<path d="M14.7104 1.21017C14.6175 1.11644 14.5069 1.04204 14.385 0.991274C14.2632 0.940506 14.1324 0.914368 14.0004 0.914368C13.8684 0.914368 13.7377 0.940506 13.6159 0.991274C13.494 1.04204 13.3834 1.11644 13.2904 1.21017L5.84044 8.67017L2.71044 5.53017C2.61392 5.43693 2.49998 5.36361 2.37512 5.31441C2.25026 5.26521 2.11694 5.24108 1.98276 5.2434C1.84858 5.24572 1.71617 5.27445 1.59309 5.32794C1.47001 5.38143 1.35868 5.45864 1.26544 5.55517C1.1722 5.65169 1.09889 5.76563 1.04968 5.89048C1.00048 6.01534 0.976347 6.14866 0.978669 6.28284C0.98099 6.41702 1.00972 6.54943 1.06321 6.67251C1.1167 6.79559 1.19392 6.90693 1.29044 7.00017L5.13044 10.8402C5.2234 10.9339 5.334 11.0083 5.45586 11.0591C5.57772 11.1098 5.70843 11.136 5.84044 11.136C5.97245 11.136 6.10316 11.1098 6.22502 11.0591C6.34687 11.0083 6.45748 10.9339 6.55044 10.8402L14.7104 2.68017C14.8119 2.58652 14.893 2.47287 14.9484 2.34637C15.0038 2.21987 15.0324 2.08327 15.0324 1.94517C15.0324 1.80706 15.0038 1.67046 14.9484 1.54396C14.893 1.41746 14.8119 1.30381 14.7104 1.21017Z" fill="#fff"/>
</svg>
