<svg width="10" height="5" viewBox="0 0 14 8" fill="none" xmlns="http://www.w3.org/2000/svg">
<path d="M6.97773 5.22965L2.43773 0.689649C2.25037 0.503397 1.99692 0.398856 1.73273 0.398856C1.46855 0.398856 1.21509 0.503397 1.02773 0.689649C0.934003 0.782612 0.859609 0.893213 0.80884 1.01507C0.758071 1.13693 0.731933 1.26764 0.731933 1.39965C0.731933 1.53166 0.758071 1.66237 0.80884 1.78423C0.859609 1.90608 0.934003 2.01669 1.02773 2.10965L6.26773 7.34965C6.36069 7.44338 6.4713 7.51777 6.59315 7.56854C6.71501 7.61931 6.84572 7.64545 6.97773 7.64545C7.10974 7.64545 7.24045 7.61931 7.36231 7.56854C7.48417 7.51777 7.59477 7.44338 7.68773 7.34965L12.9777 2.10965C13.0704 2.01621 13.1437 1.90539 13.1935 1.78355C13.2433 1.66172 13.2685 1.53125 13.2677 1.39965C13.2685 1.26804 13.2433 1.13758 13.1935 1.01574C13.1437 0.893904 13.0704 0.783088 12.9777 0.689648C12.7904 0.503397 12.5369 0.398856 12.2727 0.398856C12.0085 0.398856 11.7551 0.503397 11.5677 0.689648L6.97773 5.22965Z" fill="currentColor"/>
</svg>
