<svg width="24" height="24" viewBox="0 0 24 24" fill="none" xmlns="http://www.w3.org/2000/svg">
<path d="M12.0221 10.8146L16.5621 15.3546C16.7495 15.5409 17.003 15.6454 17.2671 15.6454C17.5313 15.6454 17.7848 15.5409 17.9721 15.3546C18.0659 15.2617 18.1403 15.1511 18.191 15.0292C18.2418 14.9074 18.2679 14.7766 18.2679 14.6446C18.2679 14.5126 18.2418 14.3819 18.191 14.2601C18.1403 14.1382 18.0659 14.0276 17.9721 13.9346L12.7321 8.69463C12.6392 8.6009 12.5286 8.52651 12.4067 8.47574C12.2849 8.42497 12.1542 8.39883 12.0221 8.39883C11.8901 8.39883 11.7594 8.42497 11.6376 8.47574C11.5157 8.52651 11.4051 8.6009 11.3121 8.69463L6.02215 13.9346C5.92947 14.0281 5.85614 14.1389 5.80638 14.2607C5.75661 14.3826 5.73138 14.513 5.73215 14.6446C5.73138 14.7762 5.75661 14.9067 5.80638 15.0285C5.85614 15.1504 5.92946 15.2612 6.02215 15.3546C6.20951 15.5409 6.46296 15.6454 6.72715 15.6454C6.99133 15.6454 7.24478 15.5409 7.43215 15.3546L12.0221 10.8146Z" fill="currentColor"/>
</svg>
