<svg width="100%" height="100%" viewBox="0 0 20 20" fill="none" xmlns="http://www.w3.org/2000/svg">
<path d="M11.4209 10.0364L7.63758 13.8197C7.48237 13.9758 7.39526 14.1871 7.39526 14.4072C7.39526 14.6274 7.48237 14.8386 7.63758 14.9947C7.71505 15.0728 7.80722 15.1348 7.90877 15.1771C8.01032 15.2194 8.11924 15.2412 8.22925 15.2412C8.33926 15.2412 8.44818 15.2194 8.54973 15.1771C8.65128 15.1348 8.74345 15.0728 8.82092 14.9947L13.1876 10.628C13.2657 10.5506 13.3277 10.4584 13.37 10.3569C13.4123 10.2553 13.4341 10.1464 13.4341 10.0364C13.4341 9.92637 13.4123 9.81745 13.37 9.7159C13.3277 9.61435 13.2657 9.52218 13.1876 9.44471L8.82092 5.03638C8.74305 4.95914 8.6507 4.89804 8.54917 4.85657C8.44764 4.8151 8.33892 4.79408 8.22925 4.79471C8.11958 4.79408 8.01086 4.8151 7.90933 4.85657C7.8078 4.89804 7.71545 4.95914 7.63758 5.03638C7.48238 5.19251 7.39526 5.40372 7.39526 5.62388C7.39526 5.84403 7.48237 6.05524 7.63758 6.21138L11.4209 10.0364Z" fill="currentColor"/>
</svg>
