<svg width="24" height="24" viewBox="0 0 24 24" fill="none" xmlns="http://www.w3.org/2000/svg">
<path d="M11.9779 13.2296L7.43785 8.68962C7.25049 8.50337 6.99704 8.39882 6.73285 8.39882C6.46867 8.39882 6.21522 8.50337 6.02785 8.68962C5.93413 8.78258 5.85973 8.89318 5.80896 9.01504C5.75819 9.1369 5.73206 9.26761 5.73206 9.39962C5.73206 9.53163 5.75819 9.66233 5.80896 9.78419C5.85973 9.90605 5.93413 10.0167 6.02785 10.1096L11.2679 15.3496C11.3608 15.4433 11.4714 15.5177 11.5933 15.5685C11.7151 15.6193 11.8458 15.6454 11.9779 15.6454C12.1099 15.6454 12.2406 15.6193 12.3624 15.5685C12.4843 15.5177 12.5949 15.4433 12.6879 15.3496L17.9779 10.1096C18.0705 10.0162 18.1439 9.90536 18.1936 9.78352C18.2434 9.66169 18.2686 9.53122 18.2679 9.39962C18.2686 9.26801 18.2434 9.13755 18.1936 9.01571C18.1439 8.89387 18.0705 8.78306 17.9779 8.68962C17.7905 8.50337 17.537 8.39882 17.2729 8.39882C17.0087 8.39882 16.7552 8.50337 16.5679 8.68962L11.9779 13.2296Z" fill="currentColor"/>
</svg>
