<svg width="18" height="18" viewBox="0 0 18 18" fill="none" xmlns="http://www.w3.org/2000/svg">
<path fill="currentColor" d="M9.00008 0.666626C7.35191 0.666626 5.74074 1.15537 4.37033 2.07105C2.99992 2.98672 1.93182 4.28821 1.30109 5.81093C0.670359 7.33365 0.505331 9.0092 0.826874 10.6257C1.14842 12.2422 1.94209 13.7271 3.10753 14.8925C4.27297 16.058 5.75782 16.8516 7.37433 17.1732C8.99084 17.4947 10.6664 17.3297 12.1891 16.699C13.7118 16.0682 15.0133 15.0001 15.929 13.6297C16.8447 12.2593 17.3334 10.6481 17.3334 8.99996C17.3334 7.90561 17.1179 6.82198 16.6991 5.81093C16.2803 4.79988 15.6665 3.88122 14.8926 3.1074C14.1188 2.33358 13.2002 1.71975 12.1891 1.30096C11.1781 0.882174 10.0944 0.666626 9.00008 0.666626ZM9.00008 15.6666C7.68154 15.6666 6.39261 15.2756 5.29628 14.5431C4.19996 13.8105 3.34547 12.7694 2.84089 11.5512C2.3363 10.333 2.20428 8.99256 2.46152 7.69936C2.71875 6.40615 3.35369 5.21826 4.28604 4.28591C5.21839 3.35356 6.40628 2.71863 7.69948 2.46139C8.99269 2.20416 10.3331 2.33618 11.5513 2.84076C12.7695 3.34535 13.8107 4.19983 14.5432 5.29616C15.2758 6.39249 15.6668 7.68142 15.6668 8.99996C15.6668 10.7681 14.9644 12.4638 13.7141 13.714C12.4639 14.9642 10.7682 15.6666 9.00008 15.6666ZM9.00008 3.99996C8.77907 3.99996 8.56711 4.08776 8.41083 4.24404C8.25455 4.40032 8.16675 4.61228 8.16675 4.83329V8.51663L6.41675 9.52496C6.25622 9.61593 6.13041 9.75761 6.05907 9.92778C5.98773 10.0979 5.97488 10.287 6.02254 10.4652C6.0702 10.6435 6.17568 10.8009 6.32243 10.9127C6.46918 11.0246 6.6489 11.0846 6.83342 11.0833C6.9794 11.0843 7.12308 11.0469 7.25008 10.975L9.41675 9.72496L9.49175 9.64996L9.62508 9.54163C9.65767 9.50037 9.68562 9.45566 9.70842 9.40829C9.73558 9.36355 9.75792 9.31607 9.77509 9.26663C9.79775 9.21364 9.81182 9.15738 9.81675 9.09996L9.83342 8.99996V4.83329C9.83342 4.61228 9.74562 4.40032 9.58934 4.24404C9.43306 4.08776 9.2211 3.99996 9.00008 3.99996Z" />
</svg>
