<svg width="100%" height="100%" viewBox="0 0 16 16" fill="none" xmlns="http://www.w3.org/2000/svg">
<g clip-path="url(#clip0_7277_455818)">
<path d="M8.00001 1.3335C6.68147 1.3335 5.39254 1.72449 4.29621 2.45703C3.19988 3.18957 2.3454 4.23077 1.84082 5.44894C1.33623 6.66711 1.20421 8.00756 1.46144 9.30077C1.71868 10.594 2.35362 11.7819 3.28597 12.7142C4.21832 13.6466 5.4062 14.2815 6.69941 14.5387C7.99262 14.796 9.33306 14.6639 10.5512 14.1594C11.7694 13.6548 12.8106 12.8003 13.5431 11.704C14.2757 10.6076 14.6667 9.31871 14.6667 8.00016C14.6667 7.12468 14.4942 6.25778 14.1592 5.44894C13.8242 4.6401 13.3331 3.90517 12.7141 3.28612C12.095 2.66706 11.3601 2.176 10.5512 1.84097C9.7424 1.50593 8.87549 1.3335 8.00001 1.3335ZM8.00001 13.3335C6.94518 13.3335 5.91403 13.0207 5.03697 12.4347C4.15991 11.8486 3.47632 11.0157 3.07266 10.0411C2.66899 9.0666 2.56337 7.99425 2.76916 6.95968C2.97495 5.92512 3.4829 4.97481 4.22878 4.22893C4.97466 3.48305 5.92497 2.9751 6.95953 2.76931C7.9941 2.56352 9.06645 2.66914 10.041 3.07281C11.0155 3.47647 11.8485 4.16006 12.4345 5.03712C13.0206 5.91418 13.3333 6.94533 13.3333 8.00016C13.3333 9.41465 12.7714 10.7712 11.7712 11.7714C10.7711 12.7716 9.4145 13.3335 8.00001 13.3335ZM8.00001 4.00016C7.8232 4.00016 7.65363 4.0704 7.52861 4.19543C7.40358 4.32045 7.33335 4.49002 7.33335 4.66683V7.6135L5.93335 8.42016C5.80492 8.49294 5.70427 8.60628 5.6472 8.74242C5.59013 8.87855 5.57985 9.02978 5.61798 9.17238C5.65611 9.31499 5.74049 9.44091 5.85789 9.53039C5.97529 9.61987 6.11907 9.66786 6.26668 9.66683C6.38346 9.66764 6.49841 9.63775 6.60001 9.58016L8.33335 8.58016L8.39335 8.52016L8.50001 8.4335C8.52608 8.40049 8.54844 8.36472 8.56668 8.32683C8.58841 8.29104 8.60628 8.25305 8.62001 8.2135C8.63815 8.17111 8.6494 8.1261 8.65335 8.08016L8.66668 8.00016V4.66683C8.66668 4.49002 8.59644 4.32045 8.47142 4.19543C8.34639 4.0704 8.17682 4.00016 8.00001 4.00016Z" fill="currentColor"/>
</g>
<defs>
<clipPath id="clip0_7277_455818">
<rect width="16" height="16" fill="white"/>
</clipPath>
</defs>
</svg>
