<svg width="25" height="25" viewBox="0 0 25 25" fill="none" xmlns="http://www.w3.org/2000/svg">
<path d="M13.6685 12.9001L17.9685 8.61009C18.1568 8.42178 18.2626 8.16639 18.2626 7.90009C18.2626 7.63379 18.1568 7.37839 17.9685 7.19009C17.7802 7.00178 17.5248 6.896 17.2585 6.896C16.9922 6.896 16.7368 7.00178 16.5485 7.19009L12.2585 11.4901L7.96848 7.19009C7.78018 7.00178 7.52479 6.896 7.25848 6.896C6.99218 6.896 6.73679 7.00178 6.54848 7.19009C6.36018 7.37839 6.25439 7.63379 6.25439 7.90009C6.25439 8.16639 6.36018 8.42178 6.54848 8.61009L10.8485 12.9001L6.54848 17.1901C6.45476 17.2831 6.38036 17.3937 6.32959 17.5155C6.27882 17.6374 6.25269 17.7681 6.25269 17.9001C6.25269 18.0321 6.27882 18.1628 6.32959 18.2847C6.38036 18.4065 6.45476 18.5171 6.54848 18.6101C6.64145 18.7038 6.75205 18.7782 6.87391 18.829C6.99577 18.8797 7.12647 18.9059 7.25848 18.9059C7.3905 18.9059 7.5212 18.8797 7.64306 18.829C7.76492 18.7782 7.87552 18.7038 7.96848 18.6101L12.2585 14.3101L16.5485 18.6101C16.6414 18.7038 16.752 18.7782 16.8739 18.829C16.9958 18.8797 17.1265 18.9059 17.2585 18.9059C17.3905 18.9059 17.5212 18.8797 17.6431 18.829C17.7649 18.7782 17.8755 18.7038 17.9685 18.6101C18.0622 18.5171 18.1366 18.4065 18.1874 18.2847C18.2381 18.1628 18.2643 18.0321 18.2643 17.9001C18.2643 17.7681 18.2381 17.6374 18.1874 17.5155C18.1366 17.3937 18.0622 17.2831 17.9685 17.1901L13.6685 12.9001Z" fill="currentColor"/>
</svg>
