<svg width="60" height="61" viewBox="0 0 60 61" fill="none" xmlns="http://www.w3.org/2000/svg">
  <g clip-path="url(#clip0_33201_575815)">
    <path d="M39.2751 21.2251C39.0427 20.9908 38.7662 20.8048 38.4615 20.6778C38.1569 20.5509 37.8301 20.4856 37.5001 20.4856C37.17 20.4856 36.8433 20.5509 36.5386 20.6778C36.234 20.8048 35.9575 20.9908 35.7251 21.2251L30.0001 26.9751L24.2751 21.2251C23.8043 20.7543 23.1658 20.4898 22.5001 20.4898C21.8343 20.4898 21.1958 20.7543 20.7251 21.2251C20.2543 21.6958 19.9898 22.3343 19.9898 23.0001C19.9898 23.6658 20.2543 24.3043 20.7251 24.7751L26.4751 30.5001L20.7251 36.2251C20.4908 36.4575 20.3048 36.734 20.1778 37.0386C20.0509 37.3433 19.9856 37.67 19.9856 38.0001C19.9856 38.3301 20.0509 38.6569 20.1778 38.9615C20.3048 39.2662 20.4908 39.5427 20.7251 39.7751C20.9575 40.0094 21.234 40.1954 21.5386 40.3223C21.8433 40.4492 22.17 40.5146 22.5001 40.5146C22.8301 40.5146 23.1569 40.4492 23.4615 40.3223C23.7662 40.1954 24.0427 40.0094 24.2751 39.7751L30.0001 34.0251L35.7251 39.7751C35.9575 40.0094 36.234 40.1954 36.5386 40.3223C36.8433 40.4492 37.17 40.5146 37.5001 40.5146C37.8301 40.5146 38.1569 40.4492 38.4615 40.3223C38.7662 40.1954 39.0427 40.0094 39.2751 39.7751C39.5094 39.5427 39.6954 39.2662 39.8223 38.9615C39.9492 38.6569 40.0146 38.3301 40.0146 38.0001C40.0146 37.67 39.9492 37.3433 39.8223 37.0386C39.6954 36.734 39.5094 36.4575 39.2751 36.2251L33.5251 30.5001L39.2751 24.7751C39.5094 24.5427 39.6954 24.2662 39.8223 23.9615C39.9492 23.6569 40.0146 23.3301 40.0146 23.0001C40.0146 22.67 39.9492 22.3433 39.8223 22.0386C39.6954 21.734 39.5094 21.4575 39.2751 21.2251ZM47.6751 12.8251C45.3689 10.4373 42.6103 8.53277 39.5602 7.22254C36.5101 5.91232 33.2296 5.22266 29.9101 5.19382C26.5906 5.16497 23.2986 5.79751 20.2262 7.05453C17.1538 8.31156 14.3625 10.1679 12.0152 12.5152C9.66788 14.8625 7.81156 17.6538 6.55453 20.7262C5.29751 23.7986 4.66497 27.0906 4.69382 30.4101C4.72266 33.7296 5.41232 37.0101 6.72254 40.0602C8.03277 43.1103 9.93732 45.8689 12.3251 48.1751C14.6312 50.5628 17.3899 52.4674 20.44 53.7776C23.4901 55.0878 26.7706 55.7775 30.09 55.8063C33.4095 55.8352 36.7015 55.2026 39.7739 53.9456C42.8463 52.6886 45.6376 50.8323 47.985 48.485C50.3323 46.1376 52.1886 43.3463 53.4456 40.2739C54.7026 37.2015 55.3352 33.9095 55.3063 30.59C55.2775 27.2706 54.5878 23.9901 53.2776 20.94C51.9674 17.8899 50.0628 15.1312 47.6751 12.8251ZM44.1501 44.6501C40.8802 47.9236 36.5764 49.9621 31.9721 50.4184C27.3677 50.8746 22.7476 49.7202 18.8989 47.152C15.0502 44.5838 12.211 40.7606 10.865 36.3338C9.51904 31.907 9.74959 27.1504 11.5174 22.8745C13.2851 18.5986 16.4808 15.0679 20.5598 12.884C24.6388 10.7 29.3489 9.9979 33.8876 10.8973C38.4263 11.7966 42.5127 14.2418 45.4507 17.8162C48.3887 21.3907 49.9964 25.8732 50.0001 30.5001C50.009 33.1283 49.4966 35.7322 48.4924 38.161C47.4882 40.5899 46.0123 42.7954 44.1501 44.6501Z" fill="#D10808"/>
  </g>
  <defs>
    <clipPath id="clip0_33201_575815">
      <rect width="60" height="60" fill="white" transform="translate(0 0.5)"/>
    </clipPath>
  </defs>
</svg>
