<svg width="17" height="16" viewBox="0 0 17 16" fill="none" xmlns="http://www.w3.org/2000/svg">
<path d="M8.97325 10.86L8.87325 10.78C8.83609 10.7548 8.79573 10.7346 8.75325 10.72L8.63325 10.6667C8.52513 10.6441 8.41309 10.6487 8.3072 10.6801C8.20131 10.7115 8.10488 10.7688 8.02659 10.8467C7.9677 10.9115 7.92035 10.9859 7.88659 11.0667C7.83613 11.1881 7.82274 11.3218 7.84809 11.4509C7.87344 11.58 7.9364 11.6986 8.02905 11.792C8.1217 11.8854 8.23989 11.9492 8.36876 11.9756C8.49762 12.0019 8.6314 11.9895 8.75325 11.94C8.83292 11.9014 8.90693 11.852 8.97325 11.7933C9.06576 11.6996 9.12842 11.5805 9.15334 11.4512C9.17825 11.3219 9.16431 11.1881 9.11325 11.0667C9.08001 10.9896 9.03251 10.9195 8.97325 10.86ZM11.1666 1.33334H5.83325C5.30282 1.33334 4.79411 1.54406 4.41904 1.91913C4.04397 2.2942 3.83325 2.80291 3.83325 3.33334V12.6667C3.83325 13.1971 4.04397 13.7058 4.41904 14.0809C4.79411 14.456 5.30282 14.6667 5.83325 14.6667H11.1666C11.697 14.6667 12.2057 14.456 12.5808 14.0809C12.9559 13.7058 13.1666 13.1971 13.1666 12.6667V3.33334C13.1666 2.80291 12.9559 2.2942 12.5808 1.91913C12.2057 1.54406 11.697 1.33334 11.1666 1.33334ZM11.8333 12.6667C11.8333 12.8435 11.763 13.0131 11.638 13.1381C11.513 13.2631 11.3434 13.3333 11.1666 13.3333H5.83325C5.65644 13.3333 5.48687 13.2631 5.36185 13.1381C5.23682 13.0131 5.16659 12.8435 5.16659 12.6667V3.33334C5.16659 3.15653 5.23682 2.98696 5.36185 2.86194C5.48687 2.73691 5.65644 2.66668 5.83325 2.66668H11.1666C11.3434 2.66668 11.513 2.73691 11.638 2.86194C11.763 2.98696 11.8333 3.15653 11.8333 3.33334V12.6667Z" fill="currentColor"/>
</svg>
