<svg width="14" height="14" viewBox="0 0 14 14" fill="none" xmlns="http://www.w3.org/2000/svg">
<path d="M13.0002 7.00006C12.8234 7.00006 12.6538 7.0703 12.5288 7.19532C12.4037 7.32035 12.3335 7.48992 12.3335 7.66673V11.6667C12.3335 11.8435 12.2633 12.0131 12.1382 12.1381C12.0132 12.2632 11.8436 12.3334 11.6668 12.3334H2.3335C2.15669 12.3334 1.98712 12.2632 1.86209 12.1381C1.73707 12.0131 1.66683 11.8435 1.66683 11.6667V2.33339C1.66683 2.15658 1.73707 1.98701 1.86209 1.86199C1.98712 1.73697 2.15669 1.66673 2.3335 1.66673H6.3335C6.51031 1.66673 6.67988 1.59649 6.8049 1.47147C6.92992 1.34644 7.00016 1.17687 7.00016 1.00006C7.00016 0.82325 6.92992 0.653681 6.8049 0.528656C6.67988 0.403632 6.51031 0.333394 6.3335 0.333394H2.3335C1.80306 0.333394 1.29436 0.544108 0.919283 0.919181C0.54421 1.29425 0.333496 1.80296 0.333496 2.33339V11.6667C0.333496 12.1972 0.54421 12.7059 0.919283 13.0809C1.29436 13.456 1.80306 13.6667 2.3335 13.6667H11.6668C12.1973 13.6667 12.706 13.456 13.081 13.0809C13.4561 12.7059 13.6668 12.1972 13.6668 11.6667V7.66673C13.6668 7.48992 13.5966 7.32035 13.4716 7.19532C13.3465 7.0703 13.177 7.00006 13.0002 7.00006ZM3.00016 7.50673V10.3334C3.00016 10.5102 3.0704 10.6798 3.19543 10.8048C3.32045 10.9298 3.49002 11.0001 3.66683 11.0001H6.4935C6.58123 11.0006 6.66821 10.9838 6.74943 10.9506C6.83066 10.9174 6.90454 10.8685 6.96683 10.8067L11.5802 6.18673L13.4735 4.33339C13.536 4.27142 13.5856 4.19769 13.6194 4.11645C13.6533 4.03521 13.6707 3.94807 13.6707 3.86006C13.6707 3.77205 13.6533 3.68492 13.6194 3.60368C13.5856 3.52244 13.536 3.4487 13.4735 3.38673L10.6468 0.526728C10.5849 0.464242 10.5111 0.414646 10.4299 0.3808C10.3486 0.346954 10.2615 0.329529 10.1735 0.329529C10.0855 0.329529 9.99835 0.346954 9.91711 0.3808C9.83587 0.414646 9.76214 0.464242 9.70016 0.526728L7.82016 2.41339L3.1935 7.03339C3.13171 7.09569 3.08283 7.16957 3.04965 7.25079C3.01647 7.33202 2.99966 7.41899 3.00016 7.50673ZM10.1735 1.94006L12.0602 3.82673L11.1135 4.77339L9.22683 2.88673L10.1735 1.94006ZM4.3335 7.78006L8.28683 3.82673L10.1735 5.71339L6.22016 9.66673H4.3335V7.78006Z" fill="currentColor"/>
</svg>
