<svg width="158" height="146" viewBox="0 0 158 146" fill="none" xmlns="http://www.w3.org/2000/svg">
<circle cx="71.9432" cy="71.927" r="71.7747" fill="url(#paint0_linear_18341_32198)"/>
<circle cx="71.356" cy="71.6212" r="41.9195" fill="#EDFBFC" stroke="#8CD6DB" stroke-width="2"/>
<circle cx="71.356" cy="71.6212" r="29.6568" fill="url(#paint1_linear_18341_32198)" stroke="#8CD6DB" stroke-width="2"/>
<path d="M71.3561 49.0827C71.3561 48.6325 70.9909 48.2661 70.541 48.2818C64.9084 48.4784 59.5259 50.7069 55.3976 54.5707C51.2694 58.4346 48.69 63.658 48.1216 69.2653C48.0762 69.7132 48.4177 70.1018 48.8669 70.1316C49.3161 70.1613 49.7028 69.8209 49.7493 69.3731C50.2897 64.1787 52.6855 59.3421 56.5117 55.761C60.3378 52.1799 65.3223 50.1089 70.541 49.9131C70.9909 49.8963 71.3561 49.5329 71.3561 49.0827Z" fill="#8CD6DB"/>
<rect x="104.033" y="117.135" width="14" height="42" rx="7" transform="rotate(-45 104.033 117.135)" fill="#EDFBFC" stroke="#8CD6DB" stroke-width="2"/>
<rect x="0.688849" width="0.974179" height="15.3623" rx="0.487089" transform="matrix(0.707107 -0.707106 0.707107 0.707106 119.011 120.992)" fill="white" stroke="#8CD6DB" stroke-width="0.974179"/>
<rect x="0.707106" width="1" height="7" transform="matrix(0.707106 -0.707107 0.707106 0.707107 102.818 107.728)" fill="#C4C4C4" stroke="#8CD6DB"/>
<rect x="123.831" y="66.585" width="20" height="2" rx="1" fill="#B8E0E3"/>
<rect x="0.168457" y="83.1296" width="20" height="2" rx="1" fill="#B8E0E3"/>
<rect x="147.831" y="66.585" width="10" height="2" rx="1" fill="#B8E0E3"/>
<rect x="128.831" y="73.9231" width="10" height="2" rx="1" fill="#B8E0E3"/>
<rect x="5.16846" y="90.4678" width="10" height="2" rx="1" fill="#B8E0E3"/>
<defs>
<linearGradient id="paint0_linear_18341_32198" x1="71.9432" y1="0.152344" x2="71.9432" y2="143.702" gradientUnits="userSpaceOnUse">
<stop stop-color="#F5FCFC"/>
<stop offset="1" stop-color="#D8EEF0"/>
</linearGradient>
<linearGradient id="paint1_linear_18341_32198" x1="71.356" y1="40.9644" x2="71.356" y2="102.278" gradientUnits="userSpaceOnUse">
<stop stop-color="#D8EEF0"/>
<stop offset="1" stop-color="#FFFEFF" stop-opacity="0"/>
</linearGradient>
</defs>
</svg>
