<svg width="16" height="16" viewBox="0 0 16 16" fill="none" xmlns="http://www.w3.org/2000/svg">
<g clip-path="url(#clip0_30401_590336)">
<path d="M9.33333 7.33334H8.66667V4.66667H10C10.1768 4.66667 10.3464 4.73691 10.4714 4.86193C10.5964 4.98696 10.6667 5.15652 10.6667 5.33334C10.6667 5.51015 10.7369 5.67972 10.8619 5.80474C10.987 5.92976 11.1565 6 11.3333 6C11.5101 6 11.6797 5.92976 11.8047 5.80474C11.9298 5.67972 12 5.51015 12 5.33334C12 4.8029 11.7893 4.2942 11.4142 3.91912C11.0391 3.54405 10.5304 3.33334 10 3.33334H8.66667V2C8.66667 1.82319 8.59643 1.65362 8.4714 1.5286C8.34638 1.40357 8.17681 1.33334 8 1.33334C7.82319 1.33334 7.65362 1.40357 7.5286 1.5286C7.40357 1.65362 7.33333 1.82319 7.33333 2V3.33334H6.66667C5.95942 3.33334 5.28115 3.61429 4.78105 4.11438C4.28095 4.61448 4 5.29276 4 6C4 6.70725 4.28095 7.38552 4.78105 7.88562C5.28115 8.38572 5.95942 8.66667 6.66667 8.66667H7.33333V11.3333H6C5.82319 11.3333 5.65362 11.2631 5.5286 11.1381C5.40357 11.0131 5.33333 10.8435 5.33333 10.6667C5.33333 10.4899 5.2631 10.3203 5.13807 10.1953C5.01305 10.0702 4.84348 10 4.66667 10C4.48986 10 4.32029 10.0702 4.19526 10.1953C4.07024 10.3203 4 10.4899 4 10.6667C4 11.1971 4.21071 11.7058 4.58579 12.0809C4.96086 12.456 5.46957 12.6667 6 12.6667H7.33333V14C7.33333 14.1768 7.40357 14.3464 7.5286 14.4714C7.65362 14.5964 7.82319 14.6667 8 14.6667C8.17681 14.6667 8.34638 14.5964 8.4714 14.4714C8.59643 14.3464 8.66667 14.1768 8.66667 14V12.6667H9.33333C10.0406 12.6667 10.7189 12.3857 11.219 11.8856C11.719 11.3855 12 10.7072 12 10C12 9.29276 11.719 8.61448 11.219 8.11438C10.7189 7.61429 10.0406 7.33334 9.33333 7.33334V7.33334ZM7.33333 7.33334H6.66667C6.31304 7.33334 5.97391 7.19286 5.72386 6.94281C5.47381 6.69276 5.33333 6.35362 5.33333 6C5.33333 5.64638 5.47381 5.30724 5.72386 5.05719C5.97391 4.80715 6.31304 4.66667 6.66667 4.66667H7.33333V7.33334ZM9.33333 11.3333H8.66667V8.66667H9.33333C9.68696 8.66667 10.0261 8.80715 10.2761 9.05719C10.5262 9.30724 10.6667 9.64638 10.6667 10C10.6667 10.3536 10.5262 10.6928 10.2761 10.9428C10.0261 11.1929 9.68696 11.3333 9.33333 11.3333Z" fill="#D4D4D4"/>
</g>
<defs>
<clipPath id="clip0_30401_590336">
<rect width="16" height="16" fill="white"/>
</clipPath>
</defs>
</svg>
