<svg width="16" height="16" viewBox="0 0 16 16" fill="none" xmlns="http://www.w3.org/2000/svg">
<path d="M12.6663 2.66669H3.33301C2.80257 2.66669 2.29387 2.8774 1.91879 3.25247C1.54372 3.62755 1.33301 4.13625 1.33301 4.66669V11.3334C1.33301 11.8638 1.54372 12.3725 1.91879 12.7476C2.29387 13.1226 2.80257 13.3334 3.33301 13.3334H12.6663C13.1968 13.3334 13.7055 13.1226 14.0806 12.7476C14.4556 12.3725 14.6663 11.8638 14.6663 11.3334V4.66669C14.6663 4.13625 14.4556 3.62755 14.0806 3.25247C13.7055 2.8774 13.1968 2.66669 12.6663 2.66669V2.66669ZM3.33301 4.00002H12.6663C12.8432 4.00002 13.0127 4.07026 13.1377 4.19528C13.2628 4.32031 13.333 4.48988 13.333 4.66669L7.99967 7.92002L2.66634 4.66669C2.66634 4.48988 2.73658 4.32031 2.8616 4.19528C2.98663 4.07026 3.1562 4.00002 3.33301 4.00002V4.00002ZM13.333 11.3334C13.333 11.5102 13.2628 11.6797 13.1377 11.8048C13.0127 11.9298 12.8432 12 12.6663 12H3.33301C3.1562 12 2.98663 11.9298 2.8616 11.8048C2.73658 11.6797 2.66634 11.5102 2.66634 11.3334V6.18669L7.65301 9.23335C7.75435 9.29187 7.86932 9.32267 7.98634 9.32267C8.10337 9.32267 8.21833 9.29187 8.31967 9.23335L13.333 6.18669V11.3334Z" fill="currentColor"/>
</svg>
