<svg width="21" height="21" viewBox="0 0 24 24" fill="none" xmlns="http://www.w3.org/2000/svg">
<path fill-rule="evenodd" clip-rule="evenodd" d="M0.897966 18.8654C0.430287 19.333 0.367741 20.0287 0.758266 20.4193C1.14879 20.8098 1.8445 20.7472 2.31218 20.2796L19.7796 2.81213C20.2473 2.34445 20.3098 1.64874 19.9193 1.25821C19.5288 0.867688 18.8331 0.930234 18.3654 1.39791L15.1706 4.59274C14.1532 4.2046 13.0871 4 12 4C7.89996 4 4.09996 6.91 2.07996 11.6C2.02489 11.7262 1.99647 11.8623 1.99647 12C1.99647 12.1377 2.02489 12.2738 2.07996 12.4C2.615 13.6422 3.27492 14.7596 4.03221 15.7311L0.897966 18.8654ZM5.46366 14.2997L8.00741 11.7559C8.03431 11.3159 8.13392 10.8809 8.30444 10.4693C8.60719 9.73836 9.11988 9.11365 9.77768 8.67412C10.3676 8.27992 11.0505 8.05057 11.7559 8.00745L13.5744 6.1889C13.0578 6.06433 12.5313 6 12 6C8.82996 6 5.82996 8.29 4.09996 12C4.49321 12.8433 4.95208 13.6133 5.46366 14.2997ZM12 20C10.2238 20 8.50396 19.4539 6.96073 18.4535L8.41721 16.997C9.54119 17.6482 10.7575 18 12 18C15.17 18 18.17 15.71 19.9 12C19.19 10.4774 18.2661 9.19402 17.2043 8.20992L18.6231 6.7912C19.9549 8.03983 21.0883 9.66905 21.92 11.6C21.975 11.7262 22.0034 11.8623 22.0034 12C22.0034 12.1377 21.975 12.2738 21.92 12.4C19.9 17.09 16.1 20 12 20ZM11.2196 15.9231C10.7763 15.835 10.3537 15.6728 9.9685 15.4458L11.4824 13.9319C11.6503 13.9769 11.8243 14 12 14C12.5304 14 13.0391 13.7893 13.4142 13.4142C13.7892 13.0391 14 12.5304 14 12C14 11.8243 13.9768 11.6503 13.9318 11.4824L15.4457 9.96854C15.8055 10.5789 16 11.2794 16 12C16 12.7911 15.7654 13.5645 15.3258 14.2223C14.8863 14.8801 14.2616 15.3928 13.5307 15.6955C12.7998 15.9983 11.9955 16.0775 11.2196 15.9231Z" fill="#454545"/>
</svg>
