<svg width="21" height="21" viewBox="0 0 21 21" fill="none" xmlns="http://www.w3.org/2000/svg">
<path d="M18.767 10.1663C17.0836 6.25801 13.917 3.83301 10.5003 3.83301C7.08363 3.83301 3.91697 6.25801 2.23363 10.1663C2.18775 10.2715 2.16406 10.385 2.16406 10.4997C2.16406 10.6144 2.18775 10.7279 2.23363 10.833C3.91697 14.7413 7.08363 17.1663 10.5003 17.1663C13.917 17.1663 17.0836 14.7413 18.767 10.833C18.8129 10.7279 18.8365 10.6144 18.8365 10.4997C18.8365 10.385 18.8129 10.2715 18.767 10.1663ZM10.5003 15.4997C7.85863 15.4997 5.35863 13.5913 3.91697 10.4997C5.35863 7.40801 7.85863 5.49967 10.5003 5.49967C13.142 5.49967 15.642 7.40801 17.0836 10.4997C15.642 13.5913 13.142 15.4997 10.5003 15.4997ZM10.5003 7.16634C9.84103 7.16634 9.19656 7.36184 8.6484 7.72811C8.10024 8.09438 7.67299 8.61498 7.4207 9.22406C7.16841 9.83315 7.1024 10.5034 7.23102 11.15C7.35963 11.7966 7.6771 12.3905 8.14328 12.8567C8.60945 13.3229 9.2034 13.6403 9.85 13.769C10.4966 13.8976 11.1668 13.8316 11.7759 13.5793C12.385 13.327 12.9056 12.8997 13.2719 12.3516C13.6381 11.8034 13.8336 11.1589 13.8336 10.4997C13.8336 9.61562 13.4824 8.76777 12.8573 8.14265C12.2322 7.51753 11.3844 7.16634 10.5003 7.16634ZM10.5003 12.1663C10.1707 12.1663 9.84843 12.0686 9.57435 11.8855C9.30027 11.7023 9.08665 11.442 8.9605 11.1375C8.83435 10.8329 8.80135 10.4978 8.86566 10.1745C8.92997 9.85122 9.0887 9.55425 9.32179 9.32116C9.55488 9.08808 9.85185 8.92934 10.1751 8.86503C10.4985 8.80072 10.8336 8.83373 11.1381 8.95988C11.4426 9.08602 11.7029 9.29964 11.8861 9.57372C12.0692 9.84781 12.167 10.17 12.167 10.4997C12.167 10.9417 11.9914 11.3656 11.6788 11.6782C11.3663 11.9907 10.9423 12.1663 10.5003 12.1663Z" fill="#454545"/>
</svg>
