<svg width="14" height="14" viewBox="0 0 14 14" fill="none" xmlns="http://www.w3.org/2000/svg">
<path d="M11.4167 0.333374H2.08337C1.55294 0.333374 1.04423 0.544088 0.669161 0.919161C0.294088 1.29423 0.0833741 1.80294 0.0833741 2.33337V3.11337C0.0832786 3.38867 0.140018 3.66102 0.250041 3.91337V3.95337C0.344227 4.16735 0.477636 4.36181 0.643374 4.52671L4.75004 8.60671V13C4.74981 13.1133 4.77846 13.2248 4.83329 13.324C4.88811 13.4231 4.9673 13.5067 5.06337 13.5667C5.16947 13.6325 5.29189 13.6671 5.41671 13.6667C5.52107 13.6661 5.62383 13.641 5.71671 13.5934L8.38337 12.26C8.49332 12.2046 8.58577 12.1199 8.65049 12.0152C8.71521 11.9104 8.74967 11.7898 8.75004 11.6667V8.60671L12.83 4.52671C12.9958 4.36181 13.1292 4.16735 13.2234 3.95337V3.91337C13.3426 3.66299 13.4084 3.39056 13.4167 3.11337V2.33337C13.4167 1.80294 13.206 1.29423 12.8309 0.919161C12.4558 0.544088 11.9471 0.333374 11.4167 0.333374ZM7.61004 7.86004C7.54825 7.92233 7.49937 7.99621 7.46619 8.07744C7.43302 8.15866 7.4162 8.24564 7.41671 8.33337V11.2534L6.08337 11.92V8.33337C6.08388 8.24564 6.06706 8.15866 6.03389 8.07744C6.00071 7.99621 5.95183 7.92233 5.89004 7.86004L2.35671 4.33337H11.1434L7.61004 7.86004ZM12.0834 3.00004H1.41671V2.33337C1.41671 2.15656 1.48695 1.98699 1.61197 1.86197C1.73699 1.73695 1.90656 1.66671 2.08337 1.66671H11.4167C11.5935 1.66671 11.7631 1.73695 11.8881 1.86197C12.0131 1.98699 12.0834 2.15656 12.0834 2.33337V3.00004Z" fill="currentColor"/>
</svg>
