<svg width="24" height="14" viewBox="0 0 24 14" fill="none" xmlns="http://www.w3.org/2000/svg">
<path d="M23.0006 4.31919C23.0632 4.06225 23.0276 3.79118 22.9006 3.55919C22.5765 2.99683 22.1446 2.504 21.6295 2.10899C21.1145 1.71397 20.5266 1.42454 19.8994 1.2573C19.2723 1.09006 18.6183 1.04831 17.975 1.13443C17.3316 1.22056 16.7117 1.43287 16.1506 1.75919L14.0006 2.99919L9.0006 0.64919C8.85845 0.575547 8.70069 0.537109 8.5406 0.537109C8.3805 0.537109 8.22275 0.575547 8.0806 0.64919L5.0806 2.37919C4.93234 2.46471 4.80851 2.58685 4.72096 2.73393C4.63342 2.88101 4.58509 3.04809 4.5806 3.21919C4.57576 3.39156 4.61557 3.56225 4.69617 3.71469C4.77677 3.86713 4.89542 3.99614 5.0406 4.08919L8.3406 6.16919L6.6006 7.16919L1.8206 7.74919C1.62844 7.77296 1.44732 7.852 1.29922 7.97672C1.15112 8.10143 1.04241 8.26646 0.986289 8.45177C0.930167 8.63708 0.929048 8.83469 0.983067 9.02062C1.03709 9.20655 1.14392 9.3728 1.2906 9.49919L4.8306 12.5592C5.29665 13.004 5.8935 13.2869 6.53285 13.3662C7.17219 13.4454 7.82006 13.3167 8.3806 12.9992L22.5006 4.92919C22.6209 4.86672 22.7273 4.78043 22.8133 4.67557C22.8992 4.5707 22.963 4.44945 23.0006 4.31919ZM7.4706 11.3192C7.27851 11.4249 7.057 11.4645 6.84018 11.432C6.62335 11.3995 6.42322 11.2966 6.2706 11.1392L4.3706 9.50919L7.1006 9.17919C7.23475 9.162 7.36403 9.11778 7.4806 9.04919L10.8406 7.11919C10.9903 7.0328 11.115 6.90908 11.2027 6.76011C11.2903 6.61114 11.3378 6.442 11.3406 6.26919C11.3427 6.09756 11.3005 5.92829 11.2182 5.77767C11.1359 5.62705 11.0162 5.50015 10.8706 5.40919L7.5706 3.31919L8.6706 2.68919L13.6706 5.00919C13.8127 5.08283 13.9705 5.12127 14.1306 5.12127C14.2907 5.12127 14.4484 5.08283 14.5906 5.00919L17.1506 3.52919C17.6752 3.23519 18.2761 3.10564 18.8752 3.15736C19.4743 3.20907 20.0441 3.43965 20.5106 3.81919L7.4706 11.3192Z" fill="#7A7A7A"/>
</svg>
