<svg width="16" height="16" viewBox="0 0 16 16" fill="none" xmlns="http://www.w3.org/2000/svg">
<path d="M15.3334 4.87979C15.3751 4.70849 15.3513 4.52778 15.2667 4.37312C15.0506 3.99821 14.7627 3.66966 14.4193 3.40632C14.076 3.14297 13.684 2.95002 13.2659 2.83853C12.8478 2.72703 12.4118 2.6992 11.9829 2.75662C11.5541 2.81403 11.1407 2.95558 10.7667 3.17312L9.33337 3.99979L6.00003 2.43312C5.90526 2.38402 5.8001 2.3584 5.69337 2.3584C5.58664 2.3584 5.48147 2.38402 5.3867 2.43312L3.3867 3.58645C3.28786 3.64347 3.2053 3.7249 3.14694 3.82295C3.08858 3.921 3.05636 4.03239 3.05337 4.14645C3.05014 4.26137 3.07668 4.37516 3.13041 4.47679C3.18415 4.57841 3.26325 4.66442 3.36003 4.72645L5.56003 6.11312L4.40003 6.77979L1.21337 7.16645C1.08526 7.1823 0.964515 7.23499 0.865781 7.31814C0.767047 7.40128 0.694574 7.5113 0.65716 7.63484C0.619745 7.75838 0.618999 7.89012 0.655012 8.01407C0.691024 8.13803 0.762247 8.24886 0.860033 8.33312L3.22003 10.3731C3.53073 10.6696 3.92863 10.8583 4.35486 10.9111C4.78109 10.9639 5.21301 10.8782 5.5867 10.6665L15 5.28645C15.0803 5.24481 15.1512 5.18728 15.2085 5.11737C15.2658 5.04746 15.3083 4.96663 15.3334 4.87979ZM4.98003 9.54645C4.85197 9.61692 4.7043 9.64334 4.55975 9.62166C4.4152 9.59998 4.28178 9.53139 4.18003 9.42645L2.91337 8.33979L4.73337 8.11979C4.8228 8.10833 4.90898 8.07884 4.9867 8.03312L7.2267 6.74645C7.32649 6.68886 7.40965 6.60638 7.46807 6.50707C7.52649 6.40775 7.55818 6.29499 7.56003 6.17979C7.5614 6.06536 7.53329 5.95252 7.47842 5.8521C7.42354 5.75169 7.34374 5.66709 7.2467 5.60645L5.0467 4.21312L5.78003 3.79312L9.11337 5.33979C9.20813 5.38888 9.3133 5.41451 9.42003 5.41451C9.52676 5.41451 9.63193 5.38888 9.7267 5.33979L11.4334 4.35312C11.7831 4.15712 12.1837 4.07076 12.5831 4.10523C12.9825 4.1397 13.3624 4.29343 13.6734 4.54645L4.98003 9.54645Z" fill="#454545"/>
<path fill-rule="evenodd" clip-rule="evenodd" d="M1.33337 14.0002C1.33337 13.632 1.63185 13.3335 2.00004 13.3335H14C14.3682 13.3335 14.6667 13.632 14.6667 14.0002C14.6667 14.3684 14.3682 14.6668 14 14.6668H2.00004C1.63185 14.6668 1.33337 14.3684 1.33337 14.0002Z" fill="#454545"/>
</svg>
