<svg width="10" height="12" viewBox="0 0 10 12" fill="none" xmlns="http://www.w3.org/2000/svg">
<path d="M9.87499 5.99986C9.87471 5.90753 9.84887 5.81708 9.80033 5.73853C9.75179 5.65998 9.68244 5.59641 9.59999 5.55486L6.53999 4.02486V2.02486C6.53999 1.61643 6.37774 1.22472 6.08893 0.935919C5.80013 0.647113 5.40842 0.484863 4.99999 0.484863C4.59155 0.484863 4.19985 0.647113 3.91104 0.935919C3.62224 1.22472 3.45999 1.61643 3.45999 2.02486V4.02486L0.399987 5.55486C0.31753 5.59641 0.248188 5.65998 0.199648 5.73853C0.151109 5.81708 0.125267 5.90753 0.124987 5.99986V7.66486C0.124308 7.74632 0.143541 7.8267 0.181011 7.89903C0.218482 7.97136 0.273056 8.03344 0.339987 8.07986C0.406537 8.12546 0.483131 8.15428 0.563232 8.16385C0.643334 8.17343 0.724563 8.16348 0.799987 8.13486L3.45999 7.13486V8.99986L2.54999 9.29986C2.45068 9.33341 2.36442 9.39731 2.30341 9.48255C2.2424 9.56779 2.20972 9.67004 2.20999 9.77486V10.9999C2.21026 11.066 2.22366 11.1315 2.24941 11.1924C2.27516 11.2533 2.31274 11.3086 2.35999 11.3549C2.45312 11.4472 2.57882 11.4993 2.70999 11.4999H7.29499C7.42759 11.4999 7.55477 11.4472 7.64854 11.3534C7.74231 11.2596 7.79499 11.1325 7.79499 10.9999V9.74986C7.79526 9.64504 7.76258 9.54279 7.70157 9.45755C7.64055 9.37231 7.5543 9.30841 7.45499 9.27486L6.53999 8.99986V7.13986L9.19999 8.13986C9.27541 8.16848 9.35664 8.17843 9.43674 8.16885C9.51684 8.15928 9.59344 8.13046 9.65999 8.08486C9.72692 8.03844 9.78149 7.97636 9.81896 7.90403C9.85643 7.8317 9.87567 7.75132 9.87499 7.66986V5.99986ZM6.21999 5.94986C6.14388 5.92038 6.06171 5.90998 5.98065 5.91957C5.89959 5.92915 5.82212 5.95844 5.75499 6.00486C5.68875 6.05081 5.63461 6.11209 5.59718 6.18348C5.55974 6.25487 5.54012 6.33425 5.53999 6.41486V9.33486C5.54006 9.4403 5.57347 9.54302 5.63543 9.62833C5.6974 9.71364 5.78474 9.77718 5.88499 9.80986L6.78999 10.1099V10.4999H3.20499V10.1099L4.10999 9.80986C4.21023 9.77718 4.29758 9.71364 4.35954 9.62833C4.4215 9.54302 4.45491 9.4403 4.45499 9.33486V6.41486C4.45485 6.33425 4.43523 6.25487 4.3978 6.18348C4.36036 6.11209 4.30622 6.05081 4.23999 6.00486C4.17285 5.95844 4.09538 5.92915 4.01432 5.91957C3.93327 5.90998 3.8511 5.92038 3.77499 5.94986L1.11999 6.94986V6.30986L4.17499 4.77986C4.25838 4.73901 4.32874 4.67573 4.3782 4.59714C4.42765 4.51854 4.45424 4.42772 4.45499 4.33486V2.03986C4.45499 1.89665 4.51188 1.7593 4.61315 1.65803C4.71442 1.55676 4.85177 1.49986 4.99499 1.49986C5.1382 1.49986 5.27555 1.55676 5.37682 1.65803C5.47809 1.7593 5.53499 1.89665 5.53499 2.03986V4.33486C5.53573 4.42772 5.56232 4.51854 5.61177 4.59714C5.66123 4.67573 5.7316 4.73901 5.81499 4.77986L8.86999 6.30986V6.94486L6.21999 5.94986Z" fill="#454545"/>
</svg>
