<svg width="19" height="18" viewBox="0 0 19 18" fill="none" xmlns="http://www.w3.org/2000/svg">
<path d="M16.9251 17.0422C17.1776 16.9635 17.3916 16.7933 17.525 16.565C17.8401 15.9976 18.0401 15.3735 18.1135 14.7286C18.1868 14.0837 18.1321 13.4307 17.9524 12.807C17.7728 12.1833 17.4717 11.6012 17.0666 11.0941C16.6614 10.587 16.1601 10.1649 15.5914 9.85207L13.4212 8.6478L12.8604 3.15163C12.8503 2.99185 12.802 2.83683 12.7195 2.6996C12.6371 2.56238 12.5229 2.44695 12.3865 2.36303L9.3585 0.682548C9.20884 0.599509 9.04036 0.556274 8.86921 0.556983C8.69805 0.557692 8.52994 0.60232 8.38096 0.686596C8.23072 0.771222 8.10491 0.893261 8.01576 1.04086C7.9266 1.18846 7.87713 1.35661 7.87215 1.52898L7.78886 5.42891L6.03553 4.45247L3.07649 0.653937C2.95715 0.50147 2.79612 0.386927 2.61293 0.324214C2.42975 0.261501 2.23231 0.253315 2.04456 0.30065C1.85682 0.347984 1.68685 0.448804 1.5553 0.590868C1.42375 0.732933 1.33627 0.910133 1.30348 1.10095L0.503782 5.71134C0.362553 6.33991 0.427418 6.99724 0.688781 7.58608C0.950144 8.17492 1.39412 8.66398 1.95501 8.9809L16.1447 16.9277C16.2602 16.9987 16.389 17.0455 16.5231 17.0651C16.6573 17.0848 16.794 17.077 16.9251 17.0422ZM2.92637 7.33562C2.73684 7.2254 2.58878 7.05595 2.50498 6.85334C2.42119 6.65074 2.4063 6.42621 2.46261 6.21431L2.88122 3.74618L4.57014 5.91628C4.65397 6.02242 4.75846 6.11046 4.87729 6.17505L8.26215 8.06111C8.4133 8.14493 8.58359 8.18813 8.75642 8.18652C8.92924 8.18491 9.0987 8.13853 9.24826 8.05191C9.39644 7.96528 9.51982 7.84196 9.60653 7.69382C9.69324 7.54569 9.74036 7.37773 9.74336 7.20611L9.83521 3.30103L10.9418 3.91944L11.5283 9.40016C11.5384 9.55994 11.5867 9.71496 11.6692 9.85219C11.7516 9.98942 11.8658 10.1048 12.0022 10.1888L14.5893 11.6209C15.1115 11.9191 15.532 12.3674 15.7962 12.9076C16.0605 13.4478 16.1563 14.055 16.0712 14.6503L2.92637 7.33562Z" fill="#7A7A7A"/>
</svg>
