<svg width="116" height="109" viewBox="0 0 116 109" fill="none" xmlns="http://www.w3.org/2000/svg">
  <g clip-path="url(#clip0_21953_19930)">
    <path d="M46.7036 29.9417H42.0245V44.9104H47.0262C52.5117 44.9104 55.0938 41.9517 55.0938 36.9044C55.0938 31.8557 52.0278 29.9417 46.7036 29.9417Z" fill="currentColor"/>
    <path d="M53.8469 76.0706C54.528 73.3073 56.8564 71.3773 59.5098 71.3773C59.7896 71.3773 60.0725 71.3994 60.3498 71.4429L60.5943 71.481L61.9213 68.106L61.9325 68.0779L61.9442 68.0498C63.4959 64.2559 66.9552 61.8045 70.7576 61.8045H92.3498V51.4689V12.3982C92.3498 5.55064 87.1819 0 80.8067 0H15.9891C9.61393 0 4.44604 5.55064 4.44604 12.3982V82.9724C4.44604 89.8194 9.61393 95.3707 15.9891 95.3707H52.6061V90.0141C52.6061 87.4965 53.3586 85.045 54.739 83.0273C53.5292 81.4881 53.0354 79.3639 53.5385 77.3214L53.8469 76.0706ZM47.6721 56.7458H42.0246V78.2891H28.1482V18.1062H47.3488C58.8057 18.1062 68.6482 22.6315 68.6482 36.9043C68.6482 50.7414 58.6437 56.7458 47.6721 56.7458Z" fill="currentColor"/>
    <path d="M102.565 109.436H108.824C110.759 109.436 112.332 107.745 112.332 105.667V90.0134C112.332 88.2413 111.746 86.5194 110.68 85.1655L108.193 82.0067L110.537 80.768C111.347 80.3397 111.764 79.3572 111.533 78.4196L111.225 77.1695C111.002 76.266 110.241 75.6537 109.393 75.6537C109.303 75.6537 109.211 75.6604 109.119 75.6751L105.599 76.2239L102.748 69.7423C101.837 67.5171 99.8063 66.0796 97.5741 66.0796H70.7575C68.5253 66.0796 66.4941 67.5171 65.571 69.7751L63.0516 76.1844L59.7833 75.6751C59.6915 75.661 59.5997 75.6537 59.5091 75.6537C58.661 75.6537 57.9004 76.2654 57.6777 77.1695L57.3694 78.4196C57.1386 79.3572 57.5549 80.3397 58.3651 80.768L60.709 82.0067L58.2224 85.1655C57.1566 86.5194 56.5703 88.2413 56.5703 90.0134V105.667C56.5703 107.745 58.1443 109.436 60.0786 109.436H66.3378C68.2728 109.436 69.8468 107.745 69.8468 105.667V102.101H99.0556V105.667C99.0556 107.745 100.63 109.436 102.565 109.436ZM67.9645 77.6527L69.7506 71.7099C69.9349 71.2601 70.3294 70.9704 70.7569 70.9704H97.5735C98.0009 70.9704 98.3961 71.2608 98.6058 71.7714L100.571 77.6286C100.744 78.1439 100.388 78.6866 99.8782 78.6866H68.6649C68.1655 78.686 67.8113 78.1626 67.9645 77.6527ZM74.1653 90.2838C74.0791 91.4262 73.3253 92.2882 72.4121 92.2888L63.7992 92.3009H63.7979C63.412 92.3009 63.0491 92.1115 62.7774 91.7682C62.505 91.4242 62.3561 90.9684 62.3586 90.4832L62.3747 87.455C62.3778 86.9129 62.572 86.4063 62.907 86.065C63.1664 85.8006 63.4852 85.6601 63.8128 85.6601C63.9083 85.6601 64.0051 85.6721 64.1007 85.6969L72.7614 87.9074C73.6467 88.1336 74.2503 89.1555 74.1653 90.2838ZM96.4369 92.5846C95.523 92.5826 94.7693 91.7213 94.683 90.5796C94.598 89.4513 95.2017 88.4294 96.087 88.2025L104.748 85.9934C104.844 85.9693 104.941 85.9572 105.036 85.9572C105.2 85.9572 105.361 85.992 105.515 86.0596C105.667 86.1272 105.812 86.2283 105.941 86.3601C106.276 86.7007 106.471 87.208 106.474 87.7501L106.49 90.7784C106.492 91.2636 106.343 91.7207 106.071 92.0646C105.799 92.4073 105.438 92.5967 105.052 92.5967C105.051 92.5967 105.05 92.5967 105.05 92.5967L96.4369 92.5846Z" fill="currentColor"/>
  </g>
  <defs>
    <clipPath id="clip0_21953_19930">
      <rect width="116" height="109" fill="white"/>
    </clipPath>
  </defs>
</svg>
