<svg width="24"  height="24" viewBox="0 0 12 12" fill="none" xmlns="http://www.w3.org/2000/svg" style="transform: scaleX(-1);">
<path d="M5.64537 2.1454C5.5985 2.19188 5.5613 2.24718 5.53592 2.30811C5.51054 2.36904 5.49747 2.43439 5.49747 2.5004C5.49747 2.5664 5.51054 2.63175 5.53592 2.69268C5.5613 2.75361 5.5985 2.80891 5.64537 2.8554L8.29537 5.5004L2.50037 5.5004C2.36776 5.5004 2.24058 5.55307 2.14681 5.64684C2.05304 5.74061 2.00037 5.86779 2.00037 6.0004C2.00037 6.133 2.05304 6.26018 2.14681 6.35395C2.24058 6.44772 2.36776 6.5004 2.50037 6.5004L8.29537 6.5004L5.64537 9.1454C5.55121 9.23955 5.49832 9.36724 5.49832 9.5004C5.49832 9.63355 5.55121 9.76124 5.64537 9.8554C5.73952 9.94955 5.86722 10.0024 6.00037 10.0024C6.13352 10.0024 6.26121 9.94955 6.35537 9.8554L9.85537 6.3554C9.90089 6.30784 9.93657 6.25177 9.96037 6.1904C9.98682 6.13055 10.0005 6.06583 10.0005 6.0004C10.0005 5.93496 9.98682 5.87025 9.96037 5.81039C9.93657 5.74902 9.90089 5.69295 9.85537 5.64539L6.35537 2.1454C6.30888 2.09853 6.25358 2.06133 6.19265 2.03595C6.13172 2.01057 6.06637 1.9975 6.00037 1.9975C5.93436 1.9975 5.86901 2.01057 5.80808 2.03595C5.74715 2.06133 5.69185 2.09853 5.64537 2.1454Z" fill="#454545" />
</svg>
