<svg width="17" height="17" viewBox="0 0 16 16" fill="none" xmlns="http://www.w3.org/2000/svg">
<g clip-path="url(#clip0_34086_12156)">
<path d="M7.52683 10.1933C7.49816 10.2249 7.47145 10.2583 7.44683 10.2933C7.4216 10.3304 7.40142 10.3708 7.38683 10.4133C7.36761 10.451 7.35413 10.4915 7.34683 10.5333C7.34356 10.5776 7.34356 10.6222 7.34683 10.6666C7.34458 10.754 7.36285 10.8408 7.40017 10.9199C7.43011 11.0026 7.47788 11.0778 7.54009 11.14C7.6023 11.2022 7.67744 11.25 7.76017 11.2799C7.83997 11.3152 7.92625 11.3334 8.0135 11.3334C8.10075 11.3334 8.18703 11.3152 8.26683 11.2799C8.34956 11.25 8.4247 11.2022 8.48691 11.14C8.54912 11.0778 8.59689 11.0026 8.62683 10.9199C8.65644 10.8389 8.67002 10.7528 8.66683 10.6666C8.66734 10.5788 8.65052 10.4919 8.61735 10.4106C8.58417 10.3294 8.53529 10.2555 8.4735 10.1933C8.41152 10.1308 8.33779 10.0812 8.25655 10.0473C8.17531 10.0135 8.08817 9.99605 8.00017 9.99605C7.91216 9.99605 7.82502 10.0135 7.74378 10.0473C7.66254 10.0812 7.58881 10.1308 7.52683 10.1933ZM8.00017 1.33325C6.68162 1.33325 5.39269 1.72425 4.29636 2.45679C3.20004 3.18933 2.34555 4.23052 1.84097 5.4487C1.33638 6.66687 1.20436 8.00731 1.4616 9.30052C1.71883 10.5937 2.35377 11.7816 3.28612 12.714C4.21847 13.6463 5.40636 14.2813 6.69956 14.5385C7.99277 14.7957 9.33322 14.6637 10.5514 14.1591C11.7696 13.6545 12.8108 12.8 13.5433 11.7037C14.2758 10.6074 14.6668 9.31846 14.6668 7.99992C14.6668 7.12444 14.4944 6.25753 14.1594 5.4487C13.8243 4.63986 13.3333 3.90493 12.7142 3.28587C12.0952 2.66682 11.3602 2.17575 10.5514 1.84072C9.74255 1.50569 8.87565 1.33325 8.00017 1.33325ZM8.00017 13.3333C6.94533 13.3333 5.91419 13.0205 5.03712 12.4344C4.16006 11.8484 3.47648 11.0154 3.07281 10.0409C2.66914 9.06636 2.56352 7.994 2.76931 6.95944C2.9751 5.92487 3.48305 4.97456 4.22893 4.22868C4.97481 3.4828 5.92512 2.97485 6.95968 2.76906C7.99425 2.56328 9.06661 2.66889 10.0411 3.07256C11.0157 3.47623 11.8486 4.15982 12.4347 5.03688C13.0207 5.91394 13.3335 6.94509 13.3335 7.99992C13.3335 9.41441 12.7716 10.771 11.7714 11.7712C10.7712 12.7713 9.41465 13.3333 8.00017 13.3333ZM8.00017 4.66659C7.64888 4.66636 7.30372 4.75867 6.99944 4.93421C6.69516 5.10976 6.44248 5.36236 6.26683 5.66659C6.2186 5.74246 6.18621 5.82732 6.17162 5.91604C6.15702 6.00476 6.16053 6.09551 6.18192 6.18284C6.20331 6.27017 6.24215 6.35228 6.29609 6.42421C6.35003 6.49614 6.41797 6.55642 6.49581 6.60142C6.57366 6.64641 6.6598 6.6752 6.74905 6.68604C6.83831 6.69688 6.92884 6.68955 7.01519 6.6645C7.10154 6.63945 7.18193 6.59719 7.25153 6.54027C7.32113 6.48334 7.37849 6.41292 7.42017 6.33325C7.4789 6.23152 7.56348 6.14711 7.66533 6.08857C7.76718 6.03004 7.88269 5.99945 8.00017 5.99992C8.17698 5.99992 8.34655 6.07016 8.47157 6.19518C8.59659 6.32021 8.66683 6.48977 8.66683 6.66659C8.66683 6.8434 8.59659 7.01297 8.47157 7.13799C8.34655 7.26301 8.17698 7.33325 8.00017 7.33325C7.82336 7.33325 7.65379 7.40349 7.52876 7.52851C7.40374 7.65354 7.3335 7.82311 7.3335 7.99992V8.66659C7.3335 8.8434 7.40374 9.01297 7.52876 9.13799C7.65379 9.26301 7.82336 9.33325 8.00017 9.33325C8.17698 9.33325 8.34655 9.26301 8.47157 9.13799C8.59659 9.01297 8.66683 8.8434 8.66683 8.66659V8.54659C9.10775 8.3866 9.4784 8.07674 9.71401 7.67116C9.94962 7.26559 10.0352 6.79011 9.95576 6.32785C9.87634 5.86558 9.63697 5.44593 9.27949 5.14226C8.92202 4.83859 8.46919 4.67022 8.00017 4.66659Z" fill="#0DADB9"/>
</g>
<defs>
<clipPath id="clip0_34086_12156">
<rect width="16" height="16" fill="white"/>
</clipPath>
</defs>
</svg>
