<svg width="20" height="21" viewBox="0 0 20 21" fill="none" xmlns="http://www.w3.org/2000/svg">
<path d="M16 13.8228V3.82275C16 3.0271 15.6839 2.26404 15.1213 1.70143C14.5587 1.13882 13.7956 0.822754 13 0.822754H3C2.20435 0.822754 1.44129 1.13882 0.87868 1.70143C0.316071 2.26404 0 3.0271 0 3.82275V13.8228C0 14.6184 0.316071 15.3815 0.87868 15.9441C1.44129 16.5067 2.20435 16.8228 3 16.8228H13C13.7956 16.8228 14.5587 16.5067 15.1213 15.9441C15.6839 15.3815 16 14.6184 16 13.8228ZM2 3.82275C2 3.55754 2.10536 3.30318 2.29289 3.11565C2.48043 2.92811 2.73478 2.82275 3 2.82275H13C13.2652 2.82275 13.5196 2.92811 13.7071 3.11565C13.8946 3.30318 14 3.55754 14 3.82275V8.18275L12.92 7.09275C12.44 6.61264 11.7889 6.34286 11.11 6.34275C10.4315 6.34503 9.78125 6.61448 9.3 7.09275L8.39 8.00275L7.58 7.19275C7.03194 6.65349 6.29388 6.35126 5.525 6.35126C4.75612 6.35126 4.01806 6.65349 3.47 7.19275L2 8.67275V3.82275ZM2.12 14.2728C2.04289 14.1352 2.00162 13.9804 2 13.8228V11.4928L4.88 8.61275C4.96456 8.52779 5.06507 8.46037 5.17576 8.41437C5.28645 8.36837 5.40513 8.34468 5.525 8.34468C5.64487 8.34468 5.76356 8.36837 5.87424 8.41437C5.98493 8.46037 6.08544 8.52779 6.17 8.61275L7 9.42275L2.12 14.2728ZM10.72 8.51275C10.7693 8.45852 10.8296 8.41534 10.8968 8.38604C10.964 8.35675 11.0367 8.34199 11.11 8.34275C11.1833 8.34199 11.256 8.35675 11.3232 8.38604C11.3904 8.41534 11.4507 8.45852 11.5 8.51275L14 11.0028V13.8228C14 14.088 13.8946 14.3423 13.7071 14.5299C13.5196 14.7174 13.2652 14.8228 13 14.8228H4.4L10.72 8.51275ZM19 4.82275C18.7348 4.82275 18.4804 4.92811 18.2929 5.11565C18.1054 5.30318 18 5.55754 18 5.82275V15.8228C18 16.6184 17.6839 17.3815 17.1213 17.9441C16.5587 18.5067 15.7956 18.8228 15 18.8228H5C4.73478 18.8228 4.48043 18.9281 4.29289 19.1156C4.10536 19.3032 4 19.5575 4 19.8228C4 20.088 4.10536 20.3423 4.29289 20.5299C4.48043 20.7174 4.73478 20.8228 5 20.8228H15C16.3261 20.8228 17.5979 20.296 18.5355 19.3583C19.4732 18.4206 20 17.1488 20 15.8228V5.82275C20 5.55754 19.8946 5.30318 19.7071 5.11565C19.5196 4.92811 19.2652 4.82275 19 4.82275Z" fill="#454545"/>
</svg>
