<svg width="100" height="86" viewBox="0 0 100 86" fill="none" xmlns="http://www.w3.org/2000/svg">
<path d="M89.2612 47.3555C89.2612 68.6526 71.9965 85.9172 50.6995 85.9172C29.4025 85.9172 12.1378 68.6526 12.1378 47.3555C12.1378 26.0585 29.4025 8.79385 50.6995 8.79385C71.9965 8.79385 89.2612 26.0585 89.2612 47.3555Z" fill="#F5FCFC"/>
<rect x="9.92432" y="33.1687" width="67.3161" height="48.6839" rx="6.93333" transform="rotate(-6.74212 9.92432 33.1687)" fill="#D8EEF0"/>
<g clip-path="url(#clip0_5677_60996)">
<rect x="23.3175" y="21.5093" width="65.5827" height="46.9506" rx="6.06667" fill="white" stroke="#7AC9CF" stroke-width="1.73333"/>
<path d="M40.8324 43.1342L22.4419 61.5732L20.774 63.466C18.0376 66.5714 20.2425 71.4532 24.3815 71.4532H64.3348C68.6185 71.4532 70.7638 66.274 67.7348 63.2449L54.1687 49.6789L47.6413 43.1342C45.7625 41.2505 42.7111 41.2505 40.8324 43.1342Z" fill="url(#paint0_linear_5677_60996)"/>
<path fill-rule="evenodd" clip-rule="evenodd" d="M46.7902 43.9831C45.3811 42.5703 43.0926 42.5703 41.6836 43.9831L23.3193 62.3958L21.6759 64.2607C19.6236 66.5898 21.2773 70.2511 24.3816 70.2511H64.3349C67.5477 70.2511 69.1566 66.3667 66.8848 64.0949L46.7902 43.9831ZM39.9813 42.2853C42.3298 39.9307 46.144 39.9307 48.4925 42.2853L68.5848 62.3949C72.3712 66.1813 69.6895 72.6553 64.3349 72.6553H24.3816C19.2078 72.6553 16.4516 66.553 19.8722 62.6713L21.5646 60.7507L39.9813 42.2853Z" fill="#B8E0E3"/>
<path d="M68.6974 35.1118L32.3738 71.5313H87.6633C90.3188 71.5313 92.4716 69.3785 92.4716 66.723V52.1158L75.5057 35.1112C73.6269 33.228 70.576 33.2283 68.6974 35.1118Z" fill="url(#paint1_linear_5677_60996)"/>
<path fill-rule="evenodd" clip-rule="evenodd" d="M74.6547 35.9602C73.2456 34.5478 70.9574 34.548 69.5485 35.9607L35.2704 70.3292H87.6632C89.6549 70.3292 91.2694 68.7146 91.2694 66.723V52.6129L74.6547 35.9602ZM67.8463 34.2629C70.1944 31.9085 74.0081 31.9082 76.3566 34.2622L93.6736 51.6187V66.723C93.6736 70.0424 90.9826 72.7333 87.6632 72.7333H29.4771L67.8463 34.2629Z" fill="#B8E0E3"/>
<rect x="23.3175" y="21.5093" width="65.5827" height="46.9506" rx="6.06667" stroke="#7AC9CF" stroke-width="1.73333"/>
</g>
<path fill-rule="evenodd" clip-rule="evenodd" d="M5.32125 77.14C7.16252 77.14 8.63768 75.6502 8.63768 73.8343C8.63768 72.0185 7.16252 70.5286 5.32125 70.5286C3.47998 70.5286 2.00482 72.0185 2.00482 73.8343C2.00482 75.6502 3.47998 77.14 5.32125 77.14ZM9.82902 73.8343C9.82902 76.3239 7.81082 78.3421 5.32125 78.3421C2.83167 78.3421 0.813477 76.3239 0.813477 73.8343C0.813477 71.3447 2.83167 69.3265 5.32125 69.3265C7.81082 69.3265 9.82902 71.3447 9.82902 73.8343Z" fill="#7AC9CF"/>
<path d="M78.9423 1.40945C78.9423 1.0775 79.2114 0.808411 79.5433 0.808411H90.362C90.6939 0.808411 90.963 1.0775 90.963 1.40945C90.963 1.74139 90.6939 2.01048 90.362 2.01048H79.5433C79.2114 2.01048 78.9423 1.74139 78.9423 1.40945Z" fill="#7AC9CF"/>
<path d="M93.3671 1.40945C93.3671 1.0775 93.6362 0.808411 93.9681 0.808411H98.7764C99.1083 0.808411 99.3774 1.0775 99.3774 1.40945C99.3774 1.74139 99.1083 2.01048 98.7764 2.01048H93.9681C93.6362 2.01048 93.3671 1.74139 93.3671 1.40945Z" fill="#7AC9CF"/>
<path d="M81.9474 5.81979C81.9474 5.48784 82.2165 5.21875 82.5484 5.21875H87.3567C87.6887 5.21875 87.9577 5.48784 87.9577 5.81979C87.9577 6.15173 87.6887 6.42082 87.3567 6.42082H82.5484C82.2165 6.42082 81.9474 6.15173 81.9474 5.81979Z" fill="#7AC9CF"/>
<defs>
<linearGradient id="paint0_linear_5677_60996" x1="44.8394" y1="39.7208" x2="44.8394" y2="71.4532" gradientUnits="userSpaceOnUse">
<stop stop-color="#D0EFF1"/>
<stop offset="1" stop-color="white"/>
</linearGradient>
<linearGradient id="paint1_linear_5677_60996" x1="62.4227" y1="31.699" x2="62.4227" y2="71.5313" gradientUnits="userSpaceOnUse">
<stop stop-color="#D0EFF1"/>
<stop offset="1" stop-color="white"/>
</linearGradient>
<clipPath id="clip0_5677_60996">
<rect x="22.4508" y="20.6426" width="67.3161" height="48.6839" rx="6.93333" fill="white"/>
</clipPath>
</defs>
</svg>
