<svg width="17" height="16" viewBox="0 0 17 16" fill="none" xmlns="http://www.w3.org/2000/svg">
<g clip-path="url(#clip0_20174_34704)">
<path d="M12.4997 7.21334C12.3229 7.21334 12.1533 7.28358 12.0283 7.40861C11.9032 7.53363 11.833 7.7032 11.833 7.88001V12.6667C11.833 12.8435 11.7628 13.0131 11.6377 13.1381C11.5127 13.2631 11.3432 13.3333 11.1663 13.3333H3.83301C3.6562 13.3333 3.48663 13.2631 3.3616 13.1381C3.23658 13.0131 3.16634 12.8435 3.16634 12.6667V5.33334C3.16634 5.15653 3.23658 4.98696 3.3616 4.86194C3.48663 4.73691 3.6562 4.66668 3.83301 4.66668H8.61967C8.79649 4.66668 8.96606 4.59644 9.09108 4.47141C9.2161 4.34639 9.28634 4.17682 9.28634 4.00001C9.28634 3.8232 9.2161 3.65363 9.09108 3.52861C8.96606 3.40358 8.79649 3.33334 8.61967 3.33334H3.83301C3.30257 3.33334 2.79387 3.54406 2.41879 3.91913C2.04372 4.2942 1.83301 4.80291 1.83301 5.33334V12.6667C1.83301 13.1971 2.04372 13.7058 2.41879 14.0809C2.79387 14.456 3.30257 14.6667 3.83301 14.6667H11.1663C11.6968 14.6667 12.2055 14.456 12.5806 14.0809C12.9556 13.7058 13.1663 13.1971 13.1663 12.6667V7.88001C13.1663 7.7032 13.0961 7.53363 12.9711 7.40861C12.8461 7.28358 12.6765 7.21334 12.4997 7.21334ZM15.113 1.74668C15.0454 1.58378 14.9159 1.45433 14.753 1.38668C14.6729 1.35252 14.5868 1.3344 14.4997 1.33334H10.4997C10.3229 1.33334 10.1533 1.40358 10.0283 1.52861C9.90325 1.65363 9.83301 1.8232 9.83301 2.00001C9.83301 2.17682 9.90325 2.34639 10.0283 2.47141C10.1533 2.59644 10.3229 2.66668 10.4997 2.66668H12.893L6.02634 9.52668C5.96386 9.58865 5.91426 9.66239 5.88041 9.74363C5.84657 9.82487 5.82914 9.912 5.82914 10C5.82914 10.088 5.84657 10.1752 5.88041 10.2564C5.91426 10.3376 5.96386 10.4114 6.02634 10.4733C6.08832 10.5358 6.16205 10.5854 6.24329 10.6193C6.32453 10.6531 6.41167 10.6705 6.49967 10.6705C6.58768 10.6705 6.67482 10.6531 6.75606 10.6193C6.8373 10.5854 6.91103 10.5358 6.97301 10.4733L13.833 3.60668V6.00001C13.833 6.17682 13.9032 6.34639 14.0283 6.47141C14.1533 6.59644 14.3229 6.66668 14.4997 6.66668C14.6765 6.66668 14.8461 6.59644 14.9711 6.47141C15.0961 6.34639 15.1663 6.17682 15.1663 6.00001V2.00001C15.1653 1.91289 15.1472 1.82682 15.113 1.74668V1.74668Z" fill="currentColor"/>
</g>
<defs>
<clipPath id="clip0_20174_34704">
<rect width="16" height="16" fill="white" transform="translate(0.5)"/>
</clipPath>
</defs>
</svg>
