<svg width="14" height="8" viewBox="0 0 14 8" fill="none" xmlns="http://www.w3.org/2000/svg">
<path d="M1.22333 6.86C1.15993 6.79931 1.08517 6.75173 1.00333 6.72C0.841023 6.65332 0.658972 6.65332 0.496664 6.72C0.41483 6.75173 0.340066 6.79931 0.276664 6.86C0.21597 6.9234 0.168394 6.99817 0.136664 7.08C0.085611 7.20141 0.0716626 7.33522 0.0965787 7.46454C0.121495 7.59387 0.184159 7.71292 0.276664 7.80667C0.341465 7.86555 0.415874 7.91291 0.496664 7.94667C0.576464 7.98194 0.66275 8.00016 0.749997 8.00016C0.837245 8.00016 0.923531 7.98194 1.00333 7.94667C1.08412 7.91291 1.15853 7.86555 1.22333 7.80667C1.31584 7.71292 1.3785 7.59387 1.40342 7.46454C1.42833 7.33522 1.41438 7.20141 1.36333 7.08C1.3316 6.99817 1.28402 6.9234 1.22333 6.86ZM3.41666 1.33333H12.75C12.9268 1.33333 13.0964 1.2631 13.2214 1.13807C13.3464 1.01305 13.4167 0.843478 13.4167 0.666667C13.4167 0.489856 13.3464 0.320287 13.2214 0.195262C13.0964 0.070238 12.9268 0 12.75 0H3.41666C3.23985 0 3.07028 0.070238 2.94526 0.195262C2.82024 0.320287 2.75 0.489856 2.75 0.666667C2.75 0.843478 2.82024 1.01305 2.94526 1.13807C3.07028 1.2631 3.23985 1.33333 3.41666 1.33333ZM1.22333 3.52667C1.12958 3.43416 1.01053 3.3715 0.881206 3.34658C0.75188 3.32167 0.618071 3.33561 0.496664 3.38667C0.415874 3.42043 0.341465 3.46778 0.276664 3.52667C0.21597 3.59007 0.168394 3.66483 0.136664 3.74667C0.101394 3.82647 0.0831757 3.91275 0.0831757 4C0.0831757 4.08725 0.101394 4.17353 0.136664 4.25333C0.170425 4.33412 0.217777 4.40853 0.276664 4.47333C0.341465 4.53222 0.415874 4.57957 0.496664 4.61333C0.576464 4.6486 0.66275 4.66682 0.749997 4.66682C0.837245 4.66682 0.923531 4.6486 1.00333 4.61333C1.08412 4.57957 1.15853 4.53222 1.22333 4.47333C1.28222 4.40853 1.32957 4.33412 1.36333 4.25333C1.3986 4.17353 1.41682 4.08725 1.41682 4C1.41682 3.91275 1.3986 3.82647 1.36333 3.74667C1.3316 3.66483 1.28402 3.59007 1.22333 3.52667ZM12.75 3.33333H3.41666C3.23985 3.33333 3.07028 3.40357 2.94526 3.5286C2.82024 3.65362 2.75 3.82319 2.75 4C2.75 4.17681 2.82024 4.34638 2.94526 4.4714C3.07028 4.59643 3.23985 4.66667 3.41666 4.66667H12.75C12.9268 4.66667 13.0964 4.59643 13.2214 4.4714C13.3464 4.34638 13.4167 4.17681 13.4167 4C13.4167 3.82319 13.3464 3.65362 13.2214 3.5286C13.0964 3.40357 12.9268 3.33333 12.75 3.33333ZM1.22333 0.193333C1.15993 0.13264 1.08517 0.0850629 1.00333 0.0533333C0.881924 0.00228033 0.748115 -0.011668 0.618788 0.0132481C0.489462 0.0381642 0.370413 0.100828 0.276664 0.193333C0.217777 0.258134 0.170425 0.332543 0.136664 0.413333C0.101394 0.493134 0.0831757 0.579419 0.0831757 0.666667C0.0831757 0.753914 0.101394 0.8402 0.136664 0.92C0.170425 1.00079 0.217777 1.0752 0.276664 1.14C0.341465 1.19889 0.415874 1.24624 0.496664 1.28C0.618071 1.33105 0.75188 1.345 0.881206 1.32009C1.01053 1.29517 1.12958 1.23251 1.22333 1.14C1.28222 1.0752 1.32957 1.00079 1.36333 0.92C1.3986 0.8402 1.41682 0.753914 1.41682 0.666667C1.41682 0.579419 1.3986 0.493134 1.36333 0.413333C1.32957 0.332543 1.28222 0.258134 1.22333 0.193333ZM12.75 6.66667H3.41666C3.23985 6.66667 3.07028 6.7369 2.94526 6.86193C2.82024 6.98695 2.75 7.15652 2.75 7.33333C2.75 7.51014 2.82024 7.67971 2.94526 7.80474C3.07028 7.92976 3.23985 8 3.41666 8H12.75C12.9268 8 13.0964 7.92976 13.2214 7.80474C13.3464 7.67971 13.4167 7.51014 13.4167 7.33333C13.4167 7.15652 13.3464 6.98695 13.2214 6.86193C13.0964 6.7369 12.9268 6.66667 12.75 6.66667Z" fill="currentColor"/>
</svg>
