<svg width="40" height="20" viewBox="0 0 14 13" fill="none" xmlns="http://www.w3.org/2000/svg">
<path d="M12.9633 1.36662L8.96331 0.0332884H8.91665C8.88561 0.0301695 8.85435 0.0301695 8.82331 0.0332884H8.66998H8.58331H8.53665L4.74998 1.33329L0.963315 0.0332884C0.863058 0.00022947 0.756384 -0.00854801 0.652072 0.00767832C0.54776 0.0239046 0.448793 0.0646709 0.363315 0.126622C0.277154 0.187966 0.206825 0.268931 0.158138 0.362826C0.109452 0.456722 0.0838043 0.560855 0.0833152 0.666622V9.99996C0.0829544 10.1397 0.126528 10.2761 0.207877 10.3897C0.289225 10.5034 0.404235 10.5886 0.536649 10.6333L4.53665 11.9666C4.67095 12.0104 4.81568 12.0104 4.94998 11.9666L8.74998 10.7L12.5366 12C12.6074 12.0096 12.6792 12.0096 12.75 12C12.8894 12.0019 13.0254 11.9573 13.1366 11.8733C13.2228 11.8119 13.2931 11.731 13.3418 11.6371C13.3905 11.5432 13.4162 11.4391 13.4166 11.3333V1.99996C13.417 1.86019 13.3734 1.72385 13.2921 1.6102C13.2107 1.49655 13.0957 1.41135 12.9633 1.36662ZM4.08331 10.4066L1.41665 9.51996V1.59329L4.08331 2.47996V10.4066ZM8.08331 9.51996L5.41665 10.4066V2.47996L8.08331 1.59329V9.51996ZM12.0833 10.4066L9.41665 9.51996V1.59329L12.0833 2.47996V10.4066Z" fill="currentColor"/>
</svg>
