<svg width="12" height="9" viewBox="0 0 12 9" fill="none" xmlns="http://www.w3.org/2000/svg">
<path d="M6.15 4.61C6.41679 4.37907 6.63078 4.09344 6.77744 3.77251C6.9241 3.45158 7 3.10285 7 2.75C7 2.08696 6.73661 1.45107 6.26777 0.982233C5.79893 0.513392 5.16304 0.25 4.5 0.25C3.83696 0.25 3.20107 0.513392 2.73223 0.982233C2.26339 1.45107 2 2.08696 2 2.75C2 3.10285 2.0759 3.45158 2.22256 3.77251C2.36922 4.09344 2.58321 4.37907 2.85 4.61C2.15007 4.92694 1.55623 5.43876 1.13949 6.08427C0.722748 6.72978 0.500736 7.48166 0.5 8.25C0.5 8.38261 0.552678 8.50979 0.646447 8.60355C0.740215 8.69732 0.867392 8.75 1 8.75C1.13261 8.75 1.25979 8.69732 1.35355 8.60355C1.44732 8.50979 1.5 8.38261 1.5 8.25C1.5 7.45435 1.81607 6.69129 2.37868 6.12868C2.94129 5.56607 3.70435 5.25 4.5 5.25C5.29565 5.25 6.05871 5.56607 6.62132 6.12868C7.18393 6.69129 7.5 7.45435 7.5 8.25C7.5 8.38261 7.55268 8.50979 7.64645 8.60355C7.74021 8.69732 7.86739 8.75 8 8.75C8.13261 8.75 8.25979 8.69732 8.35355 8.60355C8.44732 8.50979 8.5 8.38261 8.5 8.25C8.49926 7.48166 8.27725 6.72978 7.86051 6.08427C7.44377 5.43876 6.84993 4.92694 6.15 4.61V4.61ZM4.5 4.25C4.20333 4.25 3.91332 4.16203 3.66664 3.9972C3.41997 3.83238 3.22771 3.59811 3.11418 3.32403C3.00065 3.04994 2.97094 2.74834 3.02882 2.45736C3.0867 2.16639 3.22956 1.89912 3.43934 1.68934C3.64912 1.47956 3.91639 1.3367 4.20736 1.27882C4.49834 1.22094 4.79994 1.25065 5.07403 1.36418C5.34811 1.47771 5.58238 1.66997 5.7472 1.91664C5.91203 2.16332 6 2.45333 6 2.75C6 3.14782 5.84196 3.52936 5.56066 3.81066C5.27936 4.09196 4.89782 4.25 4.5 4.25ZM9.37 4.41C9.68998 4.04967 9.899 3.60453 9.9719 3.12817C10.0448 2.65181 9.97846 2.16454 9.78088 1.725C9.5833 1.28546 9.2629 0.912398 8.85824 0.650711C8.45357 0.389025 7.9819 0.249871 7.5 0.25C7.36739 0.25 7.24021 0.302678 7.14645 0.396447C7.05268 0.490215 7 0.617392 7 0.75C7 0.882608 7.05268 1.00979 7.14645 1.10355C7.24021 1.19732 7.36739 1.25 7.5 1.25C7.89782 1.25 8.27936 1.40804 8.56066 1.68934C8.84196 1.97064 9 2.35218 9 2.75C8.99929 3.01262 8.92965 3.27045 8.79803 3.49771C8.66641 3.72497 8.47744 3.91369 8.25 4.045C8.17587 4.08776 8.11395 4.14883 8.07018 4.22237C8.02641 4.29591 8.00224 4.37945 8 4.465C7.99791 4.54988 8.01747 4.6339 8.05683 4.70913C8.0962 4.78436 8.15407 4.84833 8.225 4.895L8.42 5.025L8.485 5.06C9.0877 5.34586 9.59616 5.798 9.95049 6.36316C10.3048 6.92832 10.4903 7.58297 10.485 8.25C10.485 8.38261 10.5377 8.50979 10.6314 8.60355C10.7252 8.69732 10.8524 8.75 10.985 8.75C11.1176 8.75 11.2448 8.69732 11.3386 8.60355C11.4323 8.50979 11.485 8.38261 11.485 8.25C11.4891 7.48271 11.2969 6.72713 10.9267 6.05503C10.5566 5.38294 10.0207 4.81666 9.37 4.41V4.41Z" fill="#7A7A7A"/>
</svg>
