<svg width="16" height="16" viewBox="0 0 16 16" fill="none" xmlns="http://www.w3.org/2000/svg">
<g clip-path="url(#clip0_19262_39009)">
<path d="M12.9601 8.66668C12.8134 8.66668 12.6601 8.62001 12.5134 8.58668C12.2164 8.52123 11.9245 8.43434 11.6401 8.32668C11.3308 8.21417 10.9908 8.22001 10.6856 8.34309C10.3804 8.46616 10.1315 8.69777 9.98673 8.99335L9.84007 9.29335C9.19074 8.93213 8.59406 8.4835 8.06673 7.96001C7.54325 7.43269 7.09462 6.83601 6.7334 6.18668L7.0134 6.00001C7.30898 5.85529 7.54059 5.60637 7.66366 5.30114C7.78674 4.99592 7.79258 4.65596 7.68007 4.34668C7.57422 4.06163 7.48736 3.76988 7.42007 3.47335C7.38673 3.32668 7.36007 3.17335 7.34007 3.02001C7.25911 2.55043 7.01315 2.12518 6.64648 1.82084C6.27981 1.5165 5.81653 1.35309 5.34007 1.36001H3.34007C3.05275 1.35732 2.76823 1.41656 2.50587 1.5337C2.24351 1.65085 2.00947 1.82314 1.81969 2.03887C1.6299 2.25459 1.48882 2.50868 1.40606 2.78382C1.32329 3.05897 1.30079 3.34872 1.34007 3.63335C1.69523 6.42627 2.97075 9.02127 4.96517 11.0084C6.95958 12.9956 9.55921 14.2617 12.3534 14.6067H12.6067C13.0983 14.6074 13.573 14.427 13.9401 14.1C14.151 13.9114 14.3195 13.6801 14.4344 13.4216C14.5493 13.163 14.608 12.883 14.6067 12.6V10.6C14.5986 10.1369 14.4299 9.69105 14.1296 9.33846C13.8293 8.98587 13.4159 8.74843 12.9601 8.66668ZM13.2934 12.6667C13.2933 12.7613 13.273 12.8549 13.2339 12.9411C13.1948 13.0273 13.1378 13.1042 13.0667 13.1667C12.9925 13.2314 12.9054 13.2796 12.8112 13.3083C12.717 13.3371 12.6178 13.3456 12.5201 13.3333C10.0233 13.0132 7.70423 11.871 5.92854 10.0869C4.15286 8.30274 3.02167 5.97824 2.7134 3.48001C2.70279 3.38236 2.71209 3.28357 2.74074 3.18961C2.76938 3.09565 2.81678 3.00847 2.88007 2.93335C2.94254 2.86223 3.01944 2.80524 3.10565 2.76616C3.19186 2.72708 3.28541 2.7068 3.38007 2.70668H5.38007C5.5351 2.70323 5.68648 2.75393 5.80816 2.85006C5.92984 2.94619 6.01421 3.08173 6.04673 3.23335C6.0734 3.41557 6.10673 3.59557 6.14673 3.77335C6.22375 4.12478 6.32624 4.47013 6.4534 4.80668L5.52007 5.24001C5.44027 5.27663 5.36848 5.32864 5.30884 5.39308C5.2492 5.45751 5.20287 5.53309 5.17251 5.61548C5.14216 5.69786 5.12838 5.78543 5.13197 5.87316C5.13555 5.96089 5.15643 6.04704 5.1934 6.12668C6.15287 8.18185 7.8049 9.83388 9.86007 10.7933C10.0224 10.86 10.2044 10.86 10.3667 10.7933C10.4499 10.7636 10.5263 10.7176 10.5915 10.6581C10.6567 10.5986 10.7095 10.5268 10.7467 10.4467L11.1601 9.51335C11.5047 9.6366 11.8565 9.73901 12.2134 9.82001C12.3912 9.86001 12.5712 9.89335 12.7534 9.92001C12.905 9.95254 13.0406 10.0369 13.1367 10.1586C13.2328 10.2803 13.2835 10.4317 13.2801 10.5867L13.2934 12.6667Z" fill="currentColor"/>
</g>
<defs>
<clipPath id="clip0_19262_39009">
<rect width="16" height="16" fill="white"/>
</clipPath>
</defs>
</svg>
