<svg width="12" height="12" viewBox="0 0 12 12" fill="none" xmlns="http://www.w3.org/2000/svg">
<path fill="currentColor" d="M10.667 5.33333H6.66699V1.33333C6.66699 1.15652 6.59675 0.986954 6.47173 0.86193C6.34671 0.736906 6.17714 0.666668 6.00033 0.666668C5.82351 0.666668 5.65394 0.736906 5.52892 0.86193C5.4039 0.986954 5.33366 1.15652 5.33366 1.33333V5.33333H1.33366C1.15685 5.33333 0.987279 5.40357 0.862254 5.5286C0.73723 5.65362 0.666992 5.82319 0.666992 6C0.666992 6.17681 0.73723 6.34638 0.862254 6.47141C0.987279 6.59643 1.15685 6.66667 1.33366 6.66667H5.33366V10.6667C5.33366 10.8435 5.4039 11.013 5.52892 11.1381C5.65394 11.2631 5.82351 11.3333 6.00033 11.3333C6.17714 11.3333 6.34671 11.2631 6.47173 11.1381C6.59675 11.013 6.66699 10.8435 6.66699 10.6667V6.66667H10.667C10.8438 6.66667 11.0134 6.59643 11.1384 6.47141C11.2634 6.34638 11.3337 6.17681 11.3337 6C11.3337 5.82319 11.2634 5.65362 11.1384 5.5286C11.0134 5.40357 10.8438 5.33333 10.667 5.33333Z" />
</svg>
