<svg width="16" height="16" viewBox="0 0 16 16" fill="none" xmlns="http://www.w3.org/2000/svg">
<path d="M15 7.00003H9V1.00003C9 0.734814 8.89464 0.48046 8.70711 0.292924C8.51957 0.105388 8.26522 3.05176e-05 8 3.05176e-05C7.73478 3.05176e-05 7.48043 0.105388 7.29289 0.292924C7.10536 0.48046 7 0.734814 7 1.00003V7.00003H1C0.734784 7.00003 0.48043 7.10539 0.292893 7.29292C0.105357 7.48046 0 7.73481 0 8.00003C0 8.26525 0.105357 8.5196 0.292893 8.70714C0.48043 8.89467 0.734784 9.00003 1 9.00003H7V15C7 15.2652 7.10536 15.5196 7.29289 15.7071C7.48043 15.8947 7.73478 16 8 16C8.26522 16 8.51957 15.8947 8.70711 15.7071C8.89464 15.5196 9 15.2652 9 15V9.00003H15C15.2652 9.00003 15.5196 8.89467 15.7071 8.70714C15.8946 8.5196 16 8.26525 16 8.00003C16 7.73481 15.8946 7.48046 15.7071 7.29292C15.5196 7.10539 15.2652 7.00003 15 7.00003Z" fill="currentColor"/>
</svg>
