<svg class="mx-auto" width="157" height="61" viewBox="0 0 157 61" fill="none" xmlns="http://www.w3.org/2000/svg">
<g clip-path="url(#clip0_5192_30605)">
<path fill-rule="evenodd" clip-rule="evenodd" d="M68.2883 25.2134L70.019 23.1365C71.5767 24.5211 73.1344 25.2711 75.2113 25.2711C76.9998 25.2711 78.096 24.4634 78.096 23.1942V23.1365C78.096 21.9826 77.4613 21.348 74.4036 20.6557C70.8844 19.7903 68.9229 18.7519 68.9229 15.7519V15.6942C68.9229 12.8673 71.2883 10.9634 74.519 10.9634C76.8844 10.9634 78.7883 11.7134 80.4613 13.0403L78.9036 15.2326C77.4036 14.1365 75.9613 13.5596 74.4613 13.5596C72.7883 13.5596 71.8075 14.4249 71.8075 15.5211V15.5788C71.8075 16.848 72.5575 17.4249 75.6729 18.1749C79.1344 19.0403 80.9229 20.2519 80.9229 22.9634V23.0211C80.9229 26.0788 78.4998 27.925 75.0383 27.925C72.6729 27.8673 70.3075 27.0019 68.2883 25.2134ZM62.1152 19.4442C62.1152 12.5788 67.7113 6.92495 74.5767 6.92495V3.80957V0.578796L72.6729 3.92495C64.9421 4.90572 58.9998 11.4826 58.9998 19.4442C58.9998 27.4057 65.0575 33.9826 72.7883 34.9057L70.6536 31.2134C65.6921 29.598 62.1729 24.9249 62.1152 19.4442ZM90.269 19.3865C90.269 11.425 84.269 4.84803 76.596 3.92495L78.7883 7.61726C83.6344 9.29033 87.1537 13.9634 87.2113 19.3865C87.2113 26.2519 81.6152 31.9057 74.7498 31.9057V33.1749V38.1942L76.6536 34.9057C84.269 33.9826 90.269 27.348 90.269 19.3865ZM0.845947 58.0403L2.11518 56.5403C3.26902 57.5211 4.42287 58.098 5.92287 58.098C7.24979 58.098 8.05749 57.4634 8.05749 56.598V56.5403C8.05749 55.6749 7.59595 55.2134 5.34595 54.6942C2.80749 54.0596 1.36518 53.3096 1.36518 51.0596V51.0019C1.36518 48.9249 3.09595 47.4826 5.46133 47.4826C7.1921 47.4826 8.57672 48.0019 9.84595 48.9826L8.6921 50.598C7.59595 49.7903 6.55749 49.3288 5.46133 49.3288C4.24979 49.3288 3.49979 49.9634 3.49979 50.7711V50.8288C3.49979 51.7519 4.07672 52.1557 6.32672 52.7326C8.86518 53.3673 10.1921 54.2903 10.1921 56.3096V56.3673C10.1921 58.6173 8.40364 60.0019 5.92287 60.0019C4.01902 59.9442 2.28826 59.3096 0.845947 58.0403ZM24.1536 47.6557H26.4036L30.0959 53.3673L33.7306 47.6557H35.9806V59.7711H33.8459V51.0596L30.0959 56.8288H29.9806L26.2306 51.1173V59.7711H24.1536V47.6557ZM42.1536 47.6557H46.8844C49.7113 47.6557 51.4421 49.2711 51.4421 51.6942V51.7519C51.4421 54.4634 49.3075 55.9057 46.6536 55.9057H44.2883V59.8288H42.1536V47.6557ZM46.7113 53.9442C48.3267 53.9442 49.3075 53.0211 49.3075 51.7519V51.6942C49.3075 50.2519 48.269 49.5019 46.7113 49.5019H44.2306V53.8865H46.7113V53.9442ZM56.5767 47.6557H58.7113V57.8673H64.9998V59.7711H56.5767V47.6557ZM70.1344 47.6557H79.0767V49.5596H72.269V52.7326H78.269V54.6365H72.269V57.8673H79.1344V59.7711H70.1344V47.6557ZM84.6729 47.6557H86.6344L93.0383 56.0211V47.6557H95.1152V59.7711H93.3267L86.7498 51.175V59.7711H84.6729V47.6557Z" fill="white"/>
<path d="M103.538 47.6557H101.404V59.7711H103.538V47.6557Z" fill="white"/>
<path fill-rule="evenodd" clip-rule="evenodd" d="M109.192 53.7711C109.192 50.3673 111.788 47.4827 115.365 47.4827C117.442 47.4827 118.769 48.0596 119.981 49.1557L118.654 50.7711C117.731 49.9634 116.808 49.4442 115.308 49.4442C113.115 49.4442 111.442 51.4057 111.442 53.7134V53.7711C111.442 56.2519 113.058 58.098 115.538 58.098C116.692 58.098 117.673 57.7519 118.423 57.175V54.925H115.365V53.0788H120.5V58.1557C119.288 59.1942 117.615 60.0596 115.481 60.0596C111.615 60.0019 109.192 57.2903 109.192 53.7711ZM126.384 47.6557H128.519V52.675H134.231V47.6557H136.365V59.7711H134.231V54.6942H128.519V59.7711H126.384V47.6557ZM145.192 49.6173H141.384V47.6557H151.134V49.6173H147.327V59.7711H145.192V49.6173ZM154.596 50.2519C153.673 50.2519 152.981 49.5019 152.981 48.6365C152.981 47.7134 153.731 47.0211 154.596 47.0211C155.519 47.0211 156.211 47.7711 156.211 48.6365C156.211 49.5019 155.519 50.2519 154.596 50.2519ZM154.596 47.1942C153.788 47.1942 153.154 47.8288 153.154 48.6365C153.154 49.4442 153.788 50.0788 154.596 50.0788C155.404 50.0788 156.038 49.4442 156.038 48.6365C156.038 47.8288 155.346 47.1942 154.596 47.1942ZM155.058 49.5596L154.596 48.8096H154.25V49.5596H154.019V47.6557H154.769C155.058 47.6557 155.346 47.8865 155.346 48.2327C155.346 48.6365 155 48.8096 154.884 48.8096L155.404 49.5596H155.058ZM154.711 47.8865H154.192V48.5788H154.711C154.884 48.5788 155.058 48.4057 155.058 48.2327C155.058 48.0019 154.884 47.8865 154.711 47.8865Z" fill="white"/>
<path d="M17.8075 47.5981H15.7306V59.6557H17.8075V47.5981Z" fill="white"/>
</g>
<defs>
<clipPath id="clip0_5192_30605">
<rect width="155.769" height="60" fill="white" transform="translate(0.615234 0.232666)"/>
</clipPath>
</defs>
</svg>
