<svg width="95" height="36" viewBox="0 0 95 36" fill="none" xmlns="http://www.w3.org/2000/svg">
<g clip-path="url(#clip0_5187_25904)">
<path fill-rule="evenodd" clip-rule="evenodd" d="M41.3736 14.9885L42.4121 13.7423C43.3467 14.5731 44.2813 15.0231 45.5274 15.0231C46.6005 15.0231 47.2582 14.5385 47.2582 13.7769V13.7423C47.2582 13.05 46.8774 12.6692 45.0428 12.2538C42.9313 11.7346 41.7544 11.1115 41.7544 9.31154V9.27693C41.7544 7.58077 43.1736 6.43846 45.1121 6.43846C46.5313 6.43846 47.6736 6.88846 48.6774 7.68462L47.7428 9C46.8428 8.34231 45.9774 7.99616 45.0774 7.99616C44.0736 7.99616 43.4851 8.51539 43.4851 9.17308V9.2077C43.4851 9.96923 43.9351 10.3154 45.8044 10.7654C47.8813 11.2846 48.9544 12.0115 48.9544 13.6385V13.6731C48.9544 15.5077 47.5005 16.6154 45.4236 16.6154C44.0044 16.5808 42.5851 16.0615 41.3736 14.9885ZM37.6697 11.5269C37.6697 7.4077 41.0274 4.01539 45.1467 4.01539V2.14616V0.207695L44.0044 2.21539C39.3659 2.80385 35.8005 6.75 35.8005 11.5269C35.8005 16.3039 39.4351 20.25 44.0736 20.8039L42.7928 18.5885C39.8159 17.6192 37.7044 14.8154 37.6697 11.5269ZM54.562 11.4923C54.562 6.71539 50.9621 2.76923 46.3582 2.21539L47.6736 4.43077C50.5813 5.43462 52.6928 8.23847 52.7274 11.4923C52.7274 15.6115 49.3697 19.0039 45.2505 19.0039V19.7654V22.7769L46.3928 20.8039C50.9621 20.25 54.562 16.2692 54.562 11.4923ZM0.908203 34.6846L1.66974 33.7846C2.36205 34.3731 3.05436 34.7192 3.95436 34.7192C4.75051 34.7192 5.23513 34.3385 5.23513 33.8192V33.7846C5.23513 33.2654 4.9582 32.9885 3.6082 32.6769C2.08513 32.2962 1.21974 31.8462 1.21974 30.4962V30.4615C1.21974 29.2154 2.2582 28.35 3.67743 28.35C4.7159 28.35 5.54666 28.6615 6.3082 29.25L5.6159 30.2192C4.9582 29.7346 4.33513 29.4577 3.67743 29.4577C2.95051 29.4577 2.50051 29.8385 2.50051 30.3231V30.3577C2.50051 30.9115 2.84666 31.1539 4.19666 31.5C5.71974 31.8808 6.5159 32.4346 6.5159 33.6462V33.6808C6.5159 35.0308 5.44282 35.8615 3.95436 35.8615C2.81205 35.8269 1.77359 35.4462 0.908203 34.6846ZM14.8928 28.4538H16.2428L18.4582 31.8808L20.639 28.4538H21.989V35.7231H20.7082V30.4962L18.4582 33.9577H18.389L16.139 30.5308V35.7231H14.8928V28.4538ZM25.6928 28.4538H28.5313C30.2274 28.4538 31.2659 29.4231 31.2659 30.8769V30.9115C31.2659 32.5385 29.9851 33.4039 28.3928 33.4039H26.9736V35.7577H25.6928V28.4538ZM28.4274 32.2269C29.3967 32.2269 29.9851 31.6731 29.9851 30.9115V30.8769C29.9851 30.0115 29.362 29.5615 28.4274 29.5615H26.939V32.1923H28.4274V32.2269ZM34.3467 28.4538H35.6274V34.5808H39.4005V35.7231H34.3467V28.4538ZM42.4813 28.4538H47.8467V29.5962H43.7621V31.5H47.3621V32.6423H43.7621V34.5808H47.8813V35.7231H42.4813V28.4538ZM51.2044 28.4538H52.3813L56.2236 33.4731V28.4538H57.4697V35.7231H56.3967L52.4505 30.5654V35.7231H51.2044V28.4538Z" fill="#010101"/>
<path d="M62.523 28.4538H61.2422V35.7231H62.523V28.4538Z" fill="#010101"/>
<path fill-rule="evenodd" clip-rule="evenodd" d="M65.916 32.1231C65.916 30.0808 67.4737 28.35 69.6199 28.35C70.866 28.35 71.6622 28.6962 72.3891 29.3538L71.5929 30.3231C71.0391 29.8385 70.4852 29.5269 69.5852 29.5269C68.2699 29.5269 67.266 30.7038 67.266 32.0885V32.1231C67.266 33.6115 68.2352 34.7192 69.7237 34.7192C70.416 34.7192 71.0045 34.5115 71.4545 34.1654V32.8154H69.6199V31.7077H72.7006V34.7538C71.9737 35.3769 70.9699 35.8962 69.6891 35.8962C67.3699 35.8615 65.916 34.2346 65.916 32.1231ZM76.2314 28.4538H77.5122V31.4654H80.9391V28.4538H82.2199V35.7231H80.9391V32.6769H77.5122V35.7231H76.2314V28.4538ZM87.516 29.6308H85.2314V28.4538H91.0814V29.6308H88.7968V35.7231H87.516V29.6308ZM93.1583 30.0115C92.6045 30.0115 92.1891 29.5615 92.1891 29.0423C92.1891 28.4885 92.6391 28.0731 93.1583 28.0731C93.7122 28.0731 94.1276 28.5231 94.1276 29.0423C94.1276 29.5615 93.7122 30.0115 93.1583 30.0115ZM93.1583 28.1769C92.6737 28.1769 92.2929 28.5577 92.2929 29.0423C92.2929 29.5269 92.6737 29.9077 93.1583 29.9077C93.6429 29.9077 94.0237 29.5269 94.0237 29.0423C94.0237 28.5577 93.6083 28.1769 93.1583 28.1769ZM93.4352 29.5962L93.1583 29.1462H92.9506V29.5962H92.8122V28.4538H93.2622C93.4352 28.4538 93.6083 28.5923 93.6083 28.8C93.6083 29.0423 93.4006 29.1462 93.3314 29.1462L93.6429 29.5962H93.4352ZM93.2276 28.5923H92.916V29.0077H93.2276C93.3314 29.0077 93.4352 28.9038 93.4352 28.8C93.4352 28.6615 93.3314 28.5923 93.2276 28.5923Z" fill="#010101"/>
<path d="M11.085 28.4192H9.83887V35.6539H11.085V28.4192Z" fill="#010101"/>
</g>
<defs>
<clipPath id="clip0_5187_25904">
<rect width="93.4615" height="36" fill="white" transform="translate(0.769531)"/>
</clipPath>
</defs>
</svg>
