<svg width="23" height="16" viewBox="0 0 23 16" fill="none" xmlns="http://www.w3.org/2000/svg">
<path d="M6.5 8.5C7.09334 8.5 7.67336 8.32405 8.16671 7.99441C8.66006 7.66476 9.04458 7.19623 9.27164 6.64805C9.4987 6.09987 9.55811 5.49667 9.44236 4.91473C9.3266 4.33279 9.04088 3.79824 8.62132 3.37868C8.20176 2.95912 7.66721 2.6734 7.08527 2.55764C6.50333 2.44189 5.90013 2.5013 5.35195 2.72836C4.80377 2.95542 4.33524 3.33994 4.00559 3.83329C3.67595 4.32664 3.5 4.90666 3.5 5.5C3.5 6.29565 3.81607 7.05871 4.37868 7.62132C4.94129 8.18393 5.70435 8.5 6.5 8.5ZM6.5 4.5C6.69778 4.5 6.89112 4.55865 7.05557 4.66853C7.22002 4.77841 7.34819 4.93459 7.42388 5.11732C7.49957 5.30004 7.51937 5.50111 7.48079 5.69509C7.4422 5.88907 7.34696 6.06725 7.20711 6.20711C7.06725 6.34696 6.88907 6.4422 6.69509 6.48079C6.50111 6.51937 6.30004 6.49957 6.11732 6.42388C5.93459 6.34819 5.77841 6.22002 5.66853 6.05557C5.55865 5.89112 5.5 5.69778 5.5 5.5C5.5 5.23478 5.60536 4.98043 5.79289 4.79289C5.98043 4.60536 6.23478 4.5 6.5 4.5ZM19.5 2.5H11.5C11.2348 2.5 10.9804 2.60536 10.7929 2.79289C10.6054 2.98043 10.5 3.23478 10.5 3.5V9.5H2.5V1.5C2.5 1.23478 2.39464 0.98043 2.20711 0.792893C2.01957 0.605357 1.76522 0.5 1.5 0.5C1.23478 0.5 0.98043 0.605357 0.792893 0.792893C0.605357 0.98043 0.5 1.23478 0.5 1.5V14.5C0.5 14.7652 0.605357 15.0196 0.792893 15.2071C0.98043 15.3946 1.23478 15.5 1.5 15.5C1.76522 15.5 2.01957 15.3946 2.20711 15.2071C2.39464 15.0196 2.5 14.7652 2.5 14.5V11.5H20.5V14.5C20.5 14.7652 20.6054 15.0196 20.7929 15.2071C20.9804 15.3946 21.2348 15.5 21.5 15.5C21.7652 15.5 22.0196 15.3946 22.2071 15.2071C22.3946 15.0196 22.5 14.7652 22.5 14.5V5.5C22.5 4.70435 22.1839 3.94129 21.6213 3.37868C21.0587 2.81607 20.2956 2.5 19.5 2.5ZM20.5 9.5H12.5V4.5H19.5C19.7652 4.5 20.0196 4.60536 20.2071 4.79289C20.3946 4.98043 20.5 5.23478 20.5 5.5V9.5Z" fill="#7A7A7A"/>
</svg>
