<svg width="13" height="14" viewBox="0 0 13 14" fill="none" xmlns="http://www.w3.org/2000/svg">
<path d="M5.16667 11C5.34348 11 5.51305 10.9298 5.63807 10.8048C5.7631 10.6798 5.83333 10.5102 5.83333 10.3334V6.33337C5.83333 6.15656 5.7631 5.98699 5.63807 5.86197C5.51305 5.73695 5.34348 5.66671 5.16667 5.66671C4.98986 5.66671 4.82029 5.73695 4.69526 5.86197C4.57024 5.98699 4.5 6.15656 4.5 6.33337V10.3334C4.5 10.5102 4.57024 10.6798 4.69526 10.8048C4.82029 10.9298 4.98986 11 5.16667 11ZM11.8333 3.00004H9.16667V2.33337C9.16667 1.80294 8.95595 1.29423 8.58088 0.919161C8.20581 0.544088 7.6971 0.333374 7.16667 0.333374H5.83333C5.3029 0.333374 4.79419 0.544088 4.41912 0.919161C4.04405 1.29423 3.83333 1.80294 3.83333 2.33337V3.00004H1.16667C0.989856 3.00004 0.820286 3.07028 0.695262 3.1953C0.570238 3.32033 0.5 3.4899 0.5 3.66671C0.5 3.84352 0.570238 4.01309 0.695262 4.13811C0.820286 4.26314 0.989856 4.33337 1.16667 4.33337H1.83333V11.6667C1.83333 12.1971 2.04405 12.7058 2.41912 13.0809C2.79419 13.456 3.3029 13.6667 3.83333 13.6667H9.16667C9.6971 13.6667 10.2058 13.456 10.5809 13.0809C10.956 12.7058 11.1667 12.1971 11.1667 11.6667V4.33337H11.8333C12.0101 4.33337 12.1797 4.26314 12.3047 4.13811C12.4298 4.01309 12.5 3.84352 12.5 3.66671C12.5 3.4899 12.4298 3.32033 12.3047 3.1953C12.1797 3.07028 12.0101 3.00004 11.8333 3.00004ZM5.16667 2.33337C5.16667 2.15656 5.2369 1.98699 5.36193 1.86197C5.48695 1.73695 5.65652 1.66671 5.83333 1.66671H7.16667C7.34348 1.66671 7.51305 1.73695 7.63807 1.86197C7.7631 1.98699 7.83333 2.15656 7.83333 2.33337V3.00004H5.16667V2.33337ZM9.83333 11.6667C9.83333 11.8435 9.7631 12.0131 9.63807 12.1381C9.51305 12.2631 9.34348 12.3334 9.16667 12.3334H3.83333C3.65652 12.3334 3.48695 12.2631 3.36193 12.1381C3.2369 12.0131 3.16667 11.8435 3.16667 11.6667V4.33337H9.83333V11.6667ZM7.83333 11C8.01014 11 8.17971 10.9298 8.30474 10.8048C8.42976 10.6798 8.5 10.5102 8.5 10.3334V6.33337C8.5 6.15656 8.42976 5.98699 8.30474 5.86197C8.17971 5.73695 8.01014 5.66671 7.83333 5.66671C7.65652 5.66671 7.48695 5.73695 7.36193 5.86197C7.23691 5.98699 7.16667 6.15656 7.16667 6.33337V10.3334C7.16667 10.5102 7.23691 10.6798 7.36193 10.8048C7.48695 10.9298 7.65652 11 7.83333 11Z" fill="currentColor"/>
</svg>
