<svg width="16" height="16" viewBox="0 0 16 16" fill="none" xmlns="http://www.w3.org/2000/svg">
  <path d="M7.33332 5.33333H14C14.1768 5.33333 14.3464 5.2631 14.4714 5.13807C14.5964 5.01305 14.6667 4.84348 14.6667 4.66667C14.6667 4.48986 14.5964 4.32029 14.4714 4.19526C14.3464 4.07024 14.1768 4 14 4H7.33332C7.15651 4 6.98694 4.07024 6.86192 4.19526C6.7369 4.32029 6.66666 4.48986 6.66666 4.66667C6.66666 4.84348 6.7369 5.01305 6.86192 5.13807C6.98694 5.2631 7.15651 5.33333 7.33332 5.33333ZM14 7.33333H7.33332C7.15651 7.33333 6.98694 7.40357 6.86192 7.5286C6.7369 7.65362 6.66666 7.82319 6.66666 8C6.66666 8.17681 6.7369 8.34638 6.86192 8.4714C6.98694 8.59643 7.15651 8.66667 7.33332 8.66667H14C14.1768 8.66667 14.3464 8.59643 14.4714 8.4714C14.5964 8.34638 14.6667 8.17681 14.6667 8C14.6667 7.82319 14.5964 7.65362 14.4714 7.5286C14.3464 7.40357 14.1768 7.33333 14 7.33333ZM14 10.6667H7.33332C7.15651 10.6667 6.98694 10.7369 6.86192 10.8619C6.7369 10.987 6.66666 11.1565 6.66666 11.3333C6.66666 11.5101 6.7369 11.6797 6.86192 11.8047C6.98694 11.9298 7.15651 12 7.33332 12H14C14.1768 12 14.3464 11.9298 14.4714 11.8047C14.5964 11.6797 14.6667 11.5101 14.6667 11.3333C14.6667 11.1565 14.5964 10.987 14.4714 10.8619C14.3464 10.7369 14.1768 10.6667 14 10.6667Z" fill="#0DADB9"/>
  <path d="M2.66666 6.27353L2.47333 6.47353C2.41117 6.53569 2.33737 6.585 2.25616 6.61864C2.17494 6.65228 2.0879 6.66959 1.99999 6.66959C1.91209 6.66959 1.82504 6.65228 1.74383 6.61864C1.66261 6.585 1.58882 6.53569 1.52666 6.47353C1.4645 6.41137 1.41519 6.33758 1.38155 6.25637C1.34791 6.17515 1.3306 6.08811 1.3306 6.0002C1.3306 5.9123 1.34791 5.8252 1.38155 5.744C1.41519 5.6628 1.4645 5.589 1.52666 5.5269L2.85999 4.1935C2.92339 4.1328 2.99816 4.0853 3.07999 4.0535C3.15979 4.0183 3.24608 4 3.33333 4C3.42057 4 3.50686 4.0183 3.58666 4.0535C3.66849 4.0853 3.74326 4.1328 3.80666 4.1935L5.13999 5.5269C5.26553 5.6524 5.33605 5.8227 5.33605 6.0002C5.33605 6.17773 5.26553 6.348 5.13999 6.47353C5.01446 6.59907 4.84419 6.66959 4.66666 6.66959C4.48912 6.66959 4.31886 6.59907 4.19333 6.47353L3.99999 6.27353L3.99999 11.3335C3.99999 11.5103 3.92975 11.6799 3.80473 11.8049C3.67971 11.93 3.51014 12.0002 3.33333 12.0002C3.15651 12.0002 2.98695 11.93 2.86192 11.8049C2.7369 11.6799 2.66666 11.5103 2.66666 11.3335L2.66666 6.27353Z" fill="#0DADB9"/>
</svg>
