<svg width="21" height="20" viewBox="0 0 21 20" fill="none" xmlns="http://www.w3.org/2000/svg">
<path d="M20 7.67002C19.9368 7.48711 19.822 7.32645 19.6693 7.20753C19.5167 7.0886 19.3328 7.01652 19.14 7.00002L13.45 6.17002L10.9 1.00002C10.8181 0.830952 10.6902 0.688365 10.5311 0.588597C10.3719 0.488828 10.1878 0.435913 9.99998 0.435913C9.81212 0.435913 9.62806 0.488828 9.46889 0.588597C9.30971 0.688365 9.18186 0.830952 9.09998 1.00002L6.54998 6.16002L0.859977 7.00002C0.6749 7.02633 0.500902 7.10399 0.357728 7.22418C0.214554 7.34438 0.107937 7.5023 0.0499774 7.68002C-0.00307759 7.8537 -0.00783865 8.03854 0.0362052 8.21472C0.080249 8.39089 0.171435 8.55175 0.299977 8.68002L4.42998 12.68L3.42998 18.36C3.3896 18.5484 3.40453 18.7445 3.47296 18.9247C3.54139 19.1048 3.66041 19.2613 3.81571 19.3754C3.971 19.4895 4.15595 19.5563 4.34831 19.5678C4.54066 19.5792 4.73224 19.5349 4.89998 19.44L9.99998 16.77L15.1 19.44C15.2403 19.5192 15.3988 19.5606 15.56 19.56C15.7718 19.5608 15.9784 19.4942 16.15 19.37C16.3051 19.2589 16.4252 19.1057 16.4961 18.9285C16.567 18.7513 16.5857 18.5575 16.55 18.37L15.55 12.69L19.68 8.69002C19.8244 8.5677 19.9311 8.40693 19.9877 8.22637C20.0444 8.04582 20.0486 7.8529 20 7.67002Z" fill="currentColor"/>
</svg>
