<svg width="14" height="14" viewBox="0 0 14 14" fill="none" xmlns="http://www.w3.org/2000/svg">
<path d="M13.667 5.44664C13.6249 5.3247 13.5483 5.21759 13.4465 5.13831C13.3448 5.05903 13.2222 5.01097 13.0936 4.99997L9.30031 4.44664L7.60031 0.999975C7.54572 0.887261 7.46049 0.792203 7.35437 0.72569C7.24825 0.659178 7.12555 0.623901 7.00031 0.623901C6.87507 0.623901 6.75237 0.659178 6.64625 0.72569C6.54014 0.792203 6.4549 0.887261 6.40031 0.999975L4.70031 4.43997L0.906977 4.99997C0.783592 5.01751 0.667593 5.06928 0.572144 5.14941C0.476695 5.22954 0.405617 5.33482 0.366977 5.45331C0.331607 5.56909 0.328433 5.69232 0.357796 5.80977C0.387158 5.92722 0.447949 6.03446 0.533644 6.11998L3.28698 8.78664L2.62031 12.5733C2.59339 12.6989 2.60335 12.8296 2.64897 12.9497C2.69459 13.0698 2.77394 13.1742 2.87746 13.2502C2.98099 13.3263 3.10429 13.3708 3.23253 13.3785C3.36077 13.3861 3.48848 13.3565 3.60031 13.2933L7.00031 11.5133L10.4003 13.2933C10.4939 13.3461 10.5996 13.3737 10.707 13.3733C10.8482 13.3738 10.9859 13.3295 11.1003 13.2466C11.2037 13.1725 11.2838 13.0704 11.3311 12.9523C11.3783 12.8341 11.3908 12.705 11.367 12.58L10.7003 8.79331L13.4536 6.12664C13.5499 6.04509 13.621 5.93791 13.6588 5.81754C13.6966 5.69717 13.6994 5.56856 13.667 5.44664Z" fill="currentColor"/>
</svg>
