<svg width="41" height="38" viewBox="0 0 41 38" fill="none" xmlns="http://www.w3.org/2000/svg">
<path fill="currentColor" d="M34.25 8H28.25V6C28.25 4.4087 27.6179 2.88258 26.4926 1.75736C25.3674 0.632141 23.8413 0 22.25 0H18.25C16.6587 0 15.1326 0.632141 14.0074 1.75736C12.8821 2.88258 12.25 4.4087 12.25 6V8H6.25C4.6587 8 3.13258 8.63214 2.00736 9.75736C0.882141 10.8826 0.25 12.4087 0.25 14V32C0.25 33.5913 0.882141 35.1174 2.00736 36.2426C3.13258 37.3679 4.6587 38 6.25 38H34.25C35.8413 38 37.3674 37.3679 38.4926 36.2426C39.6179 35.1174 40.25 33.5913 40.25 32V14C40.25 12.4087 39.6179 10.8826 38.4926 9.75736C37.3674 8.63214 35.8413 8 34.25 8ZM16.25 6C16.25 5.46957 16.4607 4.96086 16.8358 4.58579C17.2109 4.21071 17.7196 4 18.25 4H22.25C22.7804 4 23.2891 4.21071 23.6642 4.58579C24.0393 4.96086 24.25 5.46957 24.25 6V8H16.25V6ZM36.25 32C36.25 32.5304 36.0393 33.0391 35.6642 33.4142C35.2891 33.7893 34.7804 34 34.25 34H6.25C5.71957 34 5.21086 33.7893 4.83579 33.4142C4.46071 33.0391 4.25 32.5304 4.25 32V21.9H10.25V24C10.25 24.5304 10.4607 25.0391 10.8358 25.4142C11.2109 25.7893 11.7196 26 12.25 26C12.7804 26 13.2891 25.7893 13.6642 25.4142C14.0393 25.0391 14.25 24.5304 14.25 24V21.9H26.25V24C26.25 24.5304 26.4607 25.0391 26.8358 25.4142C27.2109 25.7893 27.7196 26 28.25 26C28.7804 26 29.2891 25.7893 29.6642 25.4142C30.0393 25.0391 30.25 24.5304 30.25 24V21.9H36.25V32ZM36.25 18H4.25V14C4.25 13.4696 4.46071 12.9609 4.83579 12.5858C5.21086 12.2107 5.71957 12 6.25 12H34.25C34.7804 12 35.2891 12.2107 35.6642 12.5858C36.0393 12.9609 36.25 13.4696 36.25 14V18Z" />
</svg>
