<svg width="16" height="15" viewBox="0 0 16 15" fill="none" xmlns="http://www.w3.org/2000/svg">
<path fill="white" fill-rule="evenodd" clip-rule="evenodd" d="M12.5959 3.79537C12.5502 3.96616 12.4384 4.11177 12.2853 4.20018C12.1322 4.28858 12.0204 4.4342 11.9747 4.60498C11.9289 4.77577 11.9529 4.95774 12.0413 5.11086C12.1297 5.26398 12.2753 5.37572 12.4461 5.42148C12.6169 5.46724 12.7988 5.44328 12.952 5.35488C13.1051 5.26647 13.2871 5.24252 13.4578 5.28828C13.6286 5.33404 13.7742 5.44577 13.8626 5.5989L15.196 7.9083C15.2844 8.06142 15.3083 8.24339 15.2626 8.41418C15.2168 8.58496 15.1051 8.73058 14.952 8.81898L5.71436 14.1523C5.56123 14.2407 5.37926 14.2647 5.20848 14.2189C5.03769 14.1732 4.89208 14.0614 4.80367 13.9083L3.47034 11.5989C3.38193 11.4458 3.35798 11.2638 3.40374 11.093C3.4495 10.9222 3.56123 10.7766 3.71436 10.6882C3.86748 10.5998 3.97921 10.4542 4.02497 10.2834C4.07074 10.1126 4.04678 9.93065 3.95837 9.77753C3.86997 9.62441 3.72436 9.51267 3.55357 9.46691C3.38278 9.42115 3.20081 9.44511 3.04769 9.53351C2.89457 9.62192 2.7126 9.64587 2.54181 9.60011C2.37102 9.55435 2.22541 9.44262 2.13701 9.2895L0.803674 6.98009C0.715268 6.82697 0.691311 6.645 0.737073 6.47422C0.782835 6.30343 0.894568 6.15782 1.04769 6.06941L10.2853 0.736077C10.4384 0.647672 10.6204 0.623715 10.7912 0.669477C10.962 0.715239 11.1076 0.826971 11.196 0.980094L12.5293 3.28949C12.6177 3.44262 12.6417 3.62459 12.5959 3.79537ZM10.6399 4.59448C10.6759 4.18531 10.837 3.79715 11.1013 3.48273L10.3746 2.22411L5.75581 4.89078C5.84421 5.0439 5.86817 5.22587 5.82241 5.39666C5.77665 5.56744 5.66491 5.71306 5.51179 5.80146C5.35867 5.88987 5.1767 5.91382 5.00591 5.86806C4.83513 5.8223 4.68951 5.71057 4.60111 5.55744L2.29171 6.89078L3.01837 8.1494C3.42282 8.07771 3.83952 8.13229 4.21186 8.30571C4.5842 8.47913 4.89412 8.76299 5.09949 9.1187C5.30487 9.47442 5.39574 9.88474 5.35975 10.2939C5.32377 10.7031 5.16268 11.0912 4.89837 11.4057L5.62504 12.6643L7.93444 11.3309C7.84604 11.1778 7.82208 10.9959 7.86784 10.8251C7.9136 10.6543 8.02534 10.5087 8.17846 10.4203C8.33158 10.3319 8.51355 10.3079 8.68434 10.3537C8.85512 10.3994 9.00074 10.5112 9.08914 10.6643L13.7079 7.99761L12.9813 6.73899C12.5768 6.81068 12.1601 6.7561 11.7878 6.58268C11.4154 6.40926 11.1055 6.1254 10.9002 5.76969C10.6948 5.41397 10.6039 5.00365 10.6399 4.59448ZM9.10876 5.87328C9.14759 5.87956 9.18426 5.89718 9.2143 5.92399C9.24183 5.95224 9.26126 5.98759 9.27033 6.02594C9.27941 6.06429 9.27776 6.10405 9.26557 6.14061L8.96931 7.27724L9.736 8.20573C9.76178 8.23611 9.7788 8.27306 9.78506 8.31222C9.79132 8.35138 9.78656 8.39111 9.77134 8.42673C9.75465 8.46635 9.72587 8.49903 9.68915 8.52004C9.66133 8.53623 9.62959 8.54458 9.59704 8.54426L8.43581 8.57017L7.83275 9.56287C7.81365 9.59679 7.78515 9.62396 7.75068 9.64109C7.71621 9.65823 7.67724 9.6646 7.63845 9.65945C7.59967 9.65431 7.56272 9.63785 7.53205 9.61207C7.50139 9.58629 7.47831 9.55228 7.4656 9.51414L7.04485 8.38592L5.91237 8.07417C5.87673 8.06378 5.84414 8.04377 5.81811 8.01627C5.79207 7.98877 5.77358 7.95483 5.7646 7.91809C5.75605 7.88012 5.75798 7.84088 5.77018 7.80483C5.78238 7.76877 5.80436 7.73733 5.83363 7.71409L6.73002 6.99378L6.63173 5.80492C6.62822 5.76613 6.63543 5.72755 6.65253 5.69359C6.66964 5.65963 6.69594 5.63167 6.72844 5.61291C6.76093 5.59415 6.7983 5.58535 6.83626 5.58752C6.87422 5.58968 6.91124 5.60273 6.94307 5.62516L7.92456 6.30653L8.99551 5.88857C9.03058 5.8723 9.06992 5.86699 9.10876 5.87328Z" />
</svg>
