<svg width="16" height="16" viewBox="0 0 16 16" fill="none" xmlns="http://www.w3.org/2000/svg">
<path d="M0.666748 8.33331V11C0.666748 11.1768 0.736986 11.3464 0.86201 11.4714C0.987034 11.5964 1.1566 11.6666 1.33341 11.6666H2.00008C2.00008 12.1971 2.2108 12.7058 2.58587 13.0809C2.96094 13.4559 3.46965 13.6666 4.00008 13.6666C4.53051 13.6666 5.03922 13.4559 5.41429 13.0809C5.78937 12.7058 6.00008 12.1971 6.00008 11.6666H10.0001C10.0001 12.1971 10.2108 12.7058 10.5859 13.0809C10.9609 13.4559 11.4696 13.6666 12.0001 13.6666C12.5305 13.6666 13.0392 13.4559 13.4143 13.0809C13.7894 12.7058 14.0001 12.1971 14.0001 11.6666H14.6667C14.8436 11.6666 15.0131 11.5964 15.1382 11.4714C15.2632 11.3464 15.3334 11.1768 15.3334 11V4.33331C15.3334 3.80288 15.1227 3.29417 14.7476 2.9191C14.3726 2.54403 13.8638 2.33331 13.3334 2.33331H5.62675C5.20778 2.3341 4.79964 2.46644 4.45993 2.71165C4.12021 2.95686 3.86609 3.30257 3.73341 3.69998L2.77341 6.57331L0.966748 7.77998C0.875041 7.84037 0.799671 7.92248 0.747334 8.01901C0.694998 8.11554 0.667316 8.22351 0.666748 8.33331ZM14.0001 6.33331H12.6667V3.66665H13.3334C13.5102 3.66665 13.6798 3.73688 13.8048 3.86191C13.9298 3.98693 14.0001 4.1565 14.0001 4.33331V6.33331ZM11.3334 11.6666C11.3334 11.5348 11.3725 11.4059 11.4458 11.2963C11.519 11.1866 11.6231 11.1012 11.745 11.0507C11.8668 11.0003 12.0008 10.9871 12.1301 11.0128C12.2595 11.0385 12.3783 11.102 12.4715 11.1952C12.5647 11.2885 12.6282 11.4073 12.6539 11.5366C12.6797 11.6659 12.6665 11.8 12.616 11.9218C12.5655 12.0436 12.4801 12.1477 12.3705 12.221C12.2608 12.2942 12.1319 12.3333 12.0001 12.3333C11.8233 12.3333 11.6537 12.2631 11.5287 12.1381C11.4037 12.013 11.3334 11.8435 11.3334 11.6666ZM10.0001 7.66665H14.0001V10.3333H13.4801C13.2926 10.1271 13.0641 9.96229 12.8093 9.84953C12.5544 9.73677 12.2788 9.67853 12.0001 9.67853C11.7214 9.67853 11.4458 9.73677 11.1909 9.84953C10.936 9.96229 10.7075 10.1271 10.5201 10.3333H10.0001V7.66665ZM10.0001 3.66665H11.3334V6.33331H10.0001V3.66665ZM7.33341 7.66665H8.66675V10.3333H7.33341V7.66665ZM7.33341 3.66665H8.66675V6.33331H7.33341V3.66665ZM6.00008 6.33331H4.26008L4.99341 4.11998C5.03814 3.98757 5.12335 3.87256 5.237 3.79121C5.35064 3.70986 5.48699 3.66629 5.62675 3.66665H6.00008V6.33331ZM3.33341 11.6666C3.33341 11.5348 3.37251 11.4059 3.44577 11.2963C3.51902 11.1866 3.62314 11.1012 3.74496 11.0507C3.86678 11.0003 4.00082 10.9871 4.13014 11.0128C4.25946 11.0385 4.37825 11.102 4.47149 11.1952C4.56472 11.2885 4.62821 11.4073 4.65394 11.5366C4.67966 11.6659 4.66646 11.8 4.616 11.9218C4.56554 12.0436 4.48009 12.1477 4.37046 12.221C4.26083 12.2942 4.13194 12.3333 4.00008 12.3333C3.82327 12.3333 3.6537 12.2631 3.52868 12.1381C3.40365 12.013 3.33341 11.8435 3.33341 11.6666ZM2.00008 8.66665L3.53341 7.66665H6.00008V10.3333H5.48008C5.29263 10.1271 5.06414 9.96229 4.80927 9.84953C4.5544 9.73677 4.27878 9.67853 4.00008 9.67853C3.72138 9.67853 3.44576 9.73677 3.19089 9.84953C2.93602 9.96229 2.70754 10.1271 2.52008 10.3333H2.00008V8.66665Z" fill="currentColor"/>
</svg>
