<svg width="18" height="20" viewBox="0 0 18 20" fill="none" xmlns="http://www.w3.org/2000/svg">
<path fill="currentColor" d="M17.125 10.0881C17.1246 9.93422 17.0815 9.78346 17.0006 9.65255C16.9197 9.52164 16.8041 9.41569 16.6667 9.34644L11.5667 6.79644V3.46311C11.5667 2.78238 11.2963 2.12954 10.8149 1.6482C10.3336 1.16685 9.68075 0.896439 9.00003 0.896439C8.31931 0.896439 7.66646 1.16685 7.18512 1.6482C6.70378 2.12954 6.43336 2.78238 6.43336 3.46311V6.79644L1.33336 9.34644C1.19593 9.41569 1.08036 9.52164 0.999465 9.65255C0.918565 9.78346 0.875495 9.93422 0.875029 10.0881V12.8631C0.873898 12.9989 0.905952 13.1328 0.968403 13.2534C1.03085 13.3739 1.12181 13.4774 1.23336 13.5548C1.34428 13.6308 1.47194 13.6788 1.60544 13.6948C1.73894 13.7107 1.87432 13.6941 2.00003 13.6464L6.43336 11.9798V15.0881L4.9167 15.5881C4.75118 15.644 4.60742 15.7505 4.50573 15.8926C4.40404 16.0346 4.34958 16.2051 4.35003 16.3798V18.4214C4.35049 18.5317 4.37282 18.6408 4.41573 18.7423C4.45865 18.8439 4.52129 18.9359 4.60003 19.0131C4.75525 19.1671 4.96475 19.2539 5.18336 19.2548H12.825C13.046 19.2548 13.258 19.167 13.4143 19.0107C13.5706 18.8544 13.6584 18.6425 13.6584 18.4214V16.3381C13.6588 16.1634 13.6043 15.993 13.5027 15.8509C13.401 15.7089 13.2572 15.6023 13.0917 15.5464L11.5667 15.0881V11.9881L16 13.6548C16.1257 13.7025 16.2611 13.7191 16.3946 13.7031C16.5281 13.6871 16.6558 13.6391 16.7667 13.5631C16.8782 13.4857 16.9692 13.3823 17.0317 13.2617C17.0941 13.1412 17.1262 13.0072 17.125 12.8714V10.0881ZM11.0334 10.0048C10.9065 9.95564 10.7696 9.9383 10.6345 9.95428C10.4994 9.97026 10.3702 10.0191 10.2584 10.0964C10.148 10.173 10.0577 10.2752 9.99534 10.3941C9.93295 10.5131 9.90025 10.6454 9.90003 10.7798V15.6464C9.90016 15.8222 9.95584 15.9934 10.0591 16.1355C10.1624 16.2777 10.308 16.3836 10.475 16.4381L11.9834 16.9381V17.5881H6.00836V16.9381L7.5167 16.4381C7.68377 16.3836 7.82934 16.2777 7.93262 16.1355C8.03589 15.9934 8.09157 15.8222 8.09169 15.6464V10.7798C8.09147 10.6454 8.05877 10.5131 7.99638 10.3941C7.93399 10.2752 7.84375 10.173 7.73336 10.0964C7.62148 10.0191 7.49235 9.97026 7.35726 9.95428C7.22216 9.9383 7.08521 9.95564 6.95836 10.0048L2.53336 11.6714V10.6048L7.62503 8.05477C7.76401 7.98668 7.88129 7.88123 7.96372 7.75023C8.04614 7.61923 8.09045 7.46787 8.09169 7.31311V3.48811C8.09169 3.24941 8.18652 3.02049 8.3553 2.85171C8.52408 2.68293 8.753 2.58811 8.99169 2.58811C9.23039 2.58811 9.45931 2.68293 9.62809 2.85171C9.79687 3.02049 9.8917 3.24941 9.8917 3.48811V7.31311C9.89293 7.46787 9.93725 7.61923 10.0197 7.75023C10.1021 7.88123 10.2194 7.98668 10.3584 8.05477L15.45 10.6048V11.6631L11.0334 10.0048Z" />
</svg>
