<svg width="45" height="34" viewBox="0 0 45 34" fill="none" xmlns="http://www.w3.org/2000/svg">
<path fill="currentColor" d="M23.35 17.44C24.4172 16.5163 25.2731 15.3738 25.8597 14.09C26.4464 12.8063 26.75 11.4114 26.75 10C26.75 7.34784 25.6964 4.8043 23.8211 2.92893C21.9457 1.05357 19.4022 3.57822e-07 16.75 3.57822e-07C14.0978 3.57822e-07 11.5543 1.05357 9.67893 2.92893C7.80357 4.8043 6.75 7.34784 6.75 10C6.74998 11.4114 7.0536 12.8063 7.64025 14.09C8.2269 15.3738 9.08284 16.5163 10.15 17.44C7.35028 18.7078 4.97493 20.7551 3.30796 23.3371C1.64099 25.9191 0.752944 28.9266 0.75 32C0.75 32.5304 0.960714 33.0391 1.33579 33.4142C1.71086 33.7893 2.21957 34 2.75 34C3.28043 34 3.78914 33.7893 4.16421 33.4142C4.53929 33.0391 4.75 32.5304 4.75 32C4.75 28.8174 6.01428 25.7652 8.26472 23.5147C10.5152 21.2643 13.5674 20 16.75 20C19.9326 20 22.9848 21.2643 25.2353 23.5147C27.4857 25.7652 28.75 28.8174 28.75 32C28.75 32.5304 28.9607 33.0391 29.3358 33.4142C29.7109 33.7893 30.2196 34 30.75 34C31.2804 34 31.7891 33.7893 32.1642 33.4142C32.5393 33.0391 32.75 32.5304 32.75 32C32.7471 28.9266 31.859 25.9191 30.192 23.3371C28.5251 20.7551 26.1497 18.7078 23.35 17.44ZM16.75 16C15.5633 16 14.4033 15.6481 13.4166 14.9888C12.4299 14.3295 11.6608 13.3925 11.2067 12.2961C10.7526 11.1997 10.6338 9.99334 10.8653 8.82946C11.0968 7.66557 11.6682 6.59648 12.5074 5.75736C13.3465 4.91824 14.4156 4.3468 15.5795 4.11529C16.7433 3.88378 17.9497 4.0026 19.0461 4.45672C20.1425 4.91085 21.0795 5.67988 21.7388 6.66658C22.3981 7.65327 22.75 8.81331 22.75 10C22.75 11.5913 22.1179 13.1174 20.9926 14.2426C19.8674 15.3679 18.3413 16 16.75 16ZM36.23 16.64C37.5099 15.1987 38.346 13.4181 38.6376 11.5127C38.9292 9.60725 38.6639 7.65815 37.8735 5.9C37.0832 4.14185 35.8016 2.64959 34.1829 1.60285C32.5643 0.5561 30.6776 -0.0005152 28.75 3.57822e-07C28.2196 3.57822e-07 27.7109 0.210714 27.3358 0.585787C26.9607 0.960859 26.75 1.46957 26.75 2C26.75 2.53043 26.9607 3.03914 27.3358 3.41421C27.7109 3.78929 28.2196 4 28.75 4C30.3413 4 31.8674 4.63214 32.9926 5.75736C34.1179 6.88258 34.75 8.4087 34.75 10C34.7472 11.0505 34.4686 12.0818 33.9421 12.9908C33.4157 13.8999 32.6597 14.6548 31.75 15.18C31.4535 15.351 31.2058 15.5953 31.0307 15.8895C30.8556 16.1836 30.759 16.5178 30.75 16.86C30.7416 17.1995 30.8199 17.5356 30.9773 17.8365C31.1348 18.1374 31.3663 18.3933 31.65 18.58L32.43 19.1L32.69 19.24C35.1008 20.3834 37.1346 22.192 38.552 24.4526C39.9693 26.7133 40.7111 29.3319 40.69 32C40.69 32.5304 40.9007 33.0391 41.2758 33.4142C41.6509 33.7893 42.1596 34 42.69 34C43.2204 34 43.7291 33.7893 44.1042 33.4142C44.4793 33.0391 44.69 32.5304 44.69 32C44.7063 28.9309 43.9376 25.9085 42.4569 23.2201C40.9762 20.5317 38.8327 18.2666 36.23 16.64Z" />
</svg>
