<svg width="16" height="16" viewBox="0 0 16 16" fill="none" xmlns="http://www.w3.org/2000/svg">
  <path
    d="M7.99998 4.33334C8.26368 4.33334 8.52147 4.25514 8.74074 4.10863C8.96 3.96212 9.1309 3.75389 9.23181 3.51025C9.33273 3.26662 9.35914 2.99853 9.30769 2.73989C9.25624 2.48124 9.12925 2.24367 8.94278 2.0572C8.75631 1.87073 8.51874 1.74374 8.2601 1.69229C8.00145 1.64085 7.73337 1.66725 7.48973 1.76817C7.2461 1.86908 7.03786 2.03998 6.89135 2.25925C6.74484 2.47851 6.66664 2.7363 6.66664 3.00001C6.66664 3.35363 6.80712 3.69277 7.05717 3.94281C7.30721 4.19286 7.64635 4.33334 7.99998 4.33334ZM13 13.6667H12.3333V10.3333C12.3333 10.1565 12.2631 9.98696 12.138 9.86193C12.013 9.73691 11.8435 9.66667 11.6666 9.66667H8.33331V8.33334H11.6666C11.8435 8.33334 12.013 8.2631 12.138 8.13808C12.2631 8.01305 12.3333 7.84348 12.3333 7.66667C12.3333 7.48986 12.2631 7.32029 12.138 7.19527C12.013 7.07024 11.8435 7.00001 11.6666 7.00001H8.33331V5.66667C8.33331 5.48986 8.26307 5.32029 8.13805 5.19527C8.01302 5.07024 7.84345 5.00001 7.66664 5.00001C7.48983 5.00001 7.32026 5.07024 7.19524 5.19527C7.07021 5.32029 6.99998 5.48986 6.99998 5.66667V10.3333C6.99998 10.5101 7.07021 10.6797 7.19524 10.8047C7.32026 10.9298 7.48983 11 7.66664 11H11V14.3333C11 14.5101 11.0702 14.6797 11.1952 14.8047C11.3203 14.9298 11.4898 15 11.6666 15H13C13.1768 15 13.3464 14.9298 13.4714 14.8047C13.5964 14.6797 13.6666 14.5101 13.6666 14.3333C13.6666 14.1565 13.5964 13.987 13.4714 13.8619C13.3464 13.7369 13.1768 13.6667 13 13.6667ZM8.46664 12.6C8.13083 13.0478 7.66265 13.3785 7.12842 13.5454C6.59419 13.7123 6.021 13.7068 5.49003 13.5298C4.95907 13.3528 4.49725 13.0133 4.17 12.5592C3.84274 12.1052 3.66664 11.5597 3.66664 11C3.66743 10.4818 3.81917 9.97509 4.10332 9.54176C4.38747 9.10843 4.79172 8.76728 5.26664 8.56001C5.42931 8.48928 5.55722 8.35683 5.62223 8.1918C5.68724 8.02677 5.68403 7.84267 5.61331 7.68001C5.54258 7.51734 5.41014 7.38943 5.24511 7.32442C5.08007 7.25941 4.89597 7.26261 4.73331 7.33334C4.17231 7.5783 3.67501 7.94876 3.27973 8.41617C2.88444 8.88359 2.60171 9.4355 2.45331 10.0294C2.3049 10.6233 2.29479 11.2433 2.42374 11.8417C2.55269 12.4401 2.81727 13.001 3.1971 13.481C3.57693 13.9611 4.06188 14.3476 4.61459 14.6107C5.1673 14.8738 5.77303 15.0066 6.38513 14.9988C6.99723 14.9909 7.59937 14.8427 8.14517 14.5656C8.69098 14.2884 9.16588 13.8896 9.53331 13.4C9.6394 13.2586 9.68495 13.0808 9.65994 12.9057C9.63494 12.7307 9.54142 12.5728 9.39998 12.4667C9.25853 12.3606 9.08073 12.315 8.90569 12.34C8.73066 12.365 8.57273 12.4586 8.46664 12.6V12.6Z"
    fill="currentColor"/>
</svg>
