<svg width="22" height="22" viewBox="0 0 22 22" fill="none" xmlns="http://www.w3.org/2000/svg">
<path d="M14.71 7.29C14.617 7.19627 14.5064 7.12188 14.3846 7.07111C14.2627 7.02034 14.132 6.9942 14 6.9942C13.868 6.9942 13.7373 7.02034 13.6154 7.07111C13.4936 7.12188 13.383 7.19627 13.29 7.29L11 9.59L8.71 7.29C8.5217 7.1017 8.2663 6.99591 8 6.99591C7.7337 6.99591 7.47831 7.1017 7.29 7.29C7.1017 7.47831 6.99591 7.7337 6.99591 8C6.99591 8.2663 7.1017 8.5217 7.29 8.71L9.59 11L7.29 13.29C7.19627 13.383 7.12188 13.4936 7.07111 13.6154C7.02034 13.7373 6.9942 13.868 6.9942 14C6.9942 14.132 7.02034 14.2627 7.07111 14.3846C7.12188 14.5064 7.19627 14.617 7.29 14.71C7.38297 14.8037 7.49357 14.8781 7.61543 14.9289C7.73729 14.9797 7.86799 15.0058 8 15.0058C8.13201 15.0058 8.26272 14.9797 8.38458 14.9289C8.50644 14.8781 8.61704 14.8037 8.71 14.71L11 12.41L13.29 14.71C13.383 14.8037 13.4936 14.8781 13.6154 14.9289C13.7373 14.9797 13.868 15.0058 14 15.0058C14.132 15.0058 14.2627 14.9797 14.3846 14.9289C14.5064 14.8781 14.617 14.8037 14.71 14.71C14.8037 14.617 14.8781 14.5064 14.9289 14.3846C14.9797 14.2627 15.0058 14.132 15.0058 14C15.0058 13.868 14.9797 13.7373 14.9289 13.6154C14.8781 13.4936 14.8037 13.383 14.71 13.29L12.41 11L14.71 8.71C14.8037 8.61704 14.8781 8.50644 14.9289 8.38458C14.9797 8.26272 15.0058 8.13201 15.0058 8C15.0058 7.86799 14.9797 7.73729 14.9289 7.61543C14.8781 7.49357 14.8037 7.38297 14.71 7.29ZM18.07 3.93C17.1475 2.9749 16.0441 2.21308 14.824 1.68899C13.604 1.1649 12.2918 0.889037 10.964 0.877499C9.63622 0.86596 8.31943 1.11898 7.09046 1.62179C5.8615 2.1246 4.74498 2.86713 3.80605 3.80605C2.86713 4.74498 2.1246 5.8615 1.62179 7.09046C1.11898 8.31943 0.86596 9.63622 0.877499 10.964C0.889037 12.2918 1.1649 13.604 1.68899 14.824C2.21308 16.0441 2.9749 17.1475 3.93 18.07C4.85247 19.0251 5.95592 19.7869 7.17596 20.311C8.396 20.8351 9.7082 21.111 11.036 21.1225C12.3638 21.134 13.6806 20.881 14.9095 20.3782C16.1385 19.8754 17.255 19.1329 18.194 18.194C19.1329 17.255 19.8754 16.1385 20.3782 14.9095C20.881 13.6806 21.134 12.3638 21.1225 11.036C21.111 9.7082 20.8351 8.396 20.311 7.17596C19.7869 5.95592 19.0251 4.85247 18.07 3.93ZM16.66 16.66C15.352 17.9694 13.6305 18.7848 11.7888 18.9673C9.94705 19.1498 8.09901 18.6881 6.55953 17.6608C5.02004 16.6335 3.88436 15.1042 3.34598 13.3335C2.80759 11.5628 2.89981 9.66014 3.60692 7.94979C4.31403 6.23943 5.59228 4.82715 7.22389 3.95356C8.85551 3.07998 10.7395 2.79913 12.555 3.15888C14.3705 3.51862 16.005 4.49669 17.1802 5.92646C18.3554 7.35623 18.9985 9.14924 19 11C19.0036 12.0513 18.7986 13.0928 18.3969 14.0644C17.9953 15.0359 17.4049 15.9182 16.66 16.66Z" fill="currentColor"/>
</svg>
