<svg width="49" height="48" viewBox="0 0 49 48" fill="none" xmlns="http://www.w3.org/2000/svg">
<g clip-path="url(#clip0_2992_28021)">
<g clip-path="url(#clip1_2992_28021)">
<path d="M9.3 28.8H39.7C42.0339 28.8 44.2722 27.8729 45.9225 26.2226C47.5729 24.5723 48.5 22.3339 48.5 20V8.80003C48.5 6.46612 47.5729 4.22781 45.9225 2.57749C44.2722 0.927172 42.0339 3.05176e-05 39.7 3.05176e-05H9.3C6.96609 3.05176e-05 4.72778 0.927172 3.07746 2.57749C1.42714 4.22781 0.5 6.46612 0.5 8.80003V20C0.5 22.3339 1.42714 24.5723 3.07746 26.2226C4.72778 27.8729 6.96609 28.8 9.3 28.8ZM5.3 8.80003C5.3 7.73916 5.72143 6.72175 6.47157 5.9716C7.22172 5.22146 8.23913 4.80003 9.3 4.80003H39.7C40.7609 4.80003 41.7783 5.22146 42.5284 5.9716C43.2786 6.72175 43.7 7.73916 43.7 8.80003V20C43.7 21.0609 43.2786 22.0783 42.5284 22.8285C41.7783 23.5786 40.7609 24 39.7 24H9.3C8.23913 24 7.22172 23.5786 6.47157 22.8285C5.72143 22.0783 5.3 21.0609 5.3 20V8.80003Z" fill="currentColor"/>
<path d="M15.7 39.1999V34.3999H10.9V39.1999C10.9 40.2608 10.4786 41.2782 9.72843 42.0284C8.97828 42.7785 7.96087 43.1999 6.9 43.1999H4.5V47.9999H6.9C8.05563 47.9999 9.19995 47.7723 10.2676 47.3301C11.3353 46.8878 12.3054 46.2396 13.1225 45.4225C13.9397 44.6053 14.5879 43.6352 15.0301 42.5676C15.4724 41.4999 15.7 40.3556 15.7 39.1999Z" fill="currentColor"/>
<path d="M26.9001 34.3999H22.1001V47.9999H26.9001V34.3999Z" fill="currentColor"/>
<path d="M33.2998 34.3999V39.1999C33.2998 40.3556 33.5274 41.4999 33.9697 42.5676C34.4119 43.6352 35.0601 44.6053 35.8773 45.4225C36.6944 46.2396 37.6645 46.8878 38.7322 47.3301C39.7999 47.7723 40.9442 47.9999 42.0998 47.9999H44.4998V43.1999H42.0998C41.0389 43.1999 40.0215 42.7785 39.2714 42.0284C38.5212 41.2782 38.0998 40.2608 38.0998 39.1999V34.3999H33.2998Z" fill="currentColor"/>
<path d="M13.2999 16.8C14.6254 16.8 15.6999 15.7255 15.6999 14.4C15.6999 13.0745 14.6254 12 13.2999 12C11.9744 12 10.8999 13.0745 10.8999 14.4C10.8999 15.7255 11.9744 16.8 13.2999 16.8Z" fill="currentColor"/>
<path d="M22.9 16.8C24.2255 16.8 25.3 15.7255 25.3 14.4C25.3 13.0745 24.2255 12 22.9 12C21.5745 12 20.5 13.0745 20.5 14.4C20.5 15.7255 21.5745 16.8 22.9 16.8Z" fill="currentColor"/>
</g>
</g>
<defs>
<clipPath id="clip0_2992_28021">
<rect width="48" height="48" fill="white" transform="translate(0.5)"/>
</clipPath>
<clipPath id="clip1_2992_28021">
<rect width="48" height="48" fill="white" transform="translate(0.5)"/>
</clipPath>
</defs>
</svg>
