<svg width="24" height="24" viewBox="0 0 24 24" fill="none" xmlns="http://www.w3.org/2000/svg">
<path d="M4.4 14.4H19.6C20.767 14.4 21.8861 13.9364 22.7113 13.1113C23.5364 12.2861 24 11.167 24 10V4.4C24 3.23305 23.5364 2.11389 22.7113 1.28873C21.8861 0.463571 20.767 0 19.6 0H4.4C3.23305 0 2.11389 0.463571 1.28873 1.28873C0.463571 2.11389 0 3.23305 0 4.4V10C0 11.167 0.463571 12.2861 1.28873 13.1113C2.11389 13.9364 3.23305 14.4 4.4 14.4ZM2.4 4.4C2.4 3.86957 2.61071 3.36086 2.98579 2.98579C3.36086 2.61071 3.86957 2.4 4.4 2.4H19.6C20.1304 2.4 20.6391 2.61071 21.0142 2.98579C21.3893 3.36086 21.6 3.86957 21.6 4.4V10C21.6 10.5304 21.3893 11.0391 21.0142 11.4142C20.6391 11.7893 20.1304 12 19.6 12H4.4C3.86957 12 3.36086 11.7893 2.98579 11.4142C2.61071 11.0391 2.4 10.5304 2.4 10V4.4Z" fill="#0DADB9"/>
<path d="M7.6 19.6V17.2H5.2V19.6C5.2 20.1304 4.98929 20.6391 4.61421 21.0142C4.23914 21.3892 3.73043 21.6 3.2 21.6H2V24H3.2C3.77782 24 4.34997 23.8861 4.88381 23.665C5.41764 23.4439 5.90269 23.1198 6.31127 22.7112C6.71985 22.3026 7.04395 21.8176 7.26507 21.2838C7.48619 20.7499 7.6 20.1778 7.6 19.6Z" fill="#0DADB9"/>
<path d="M13.1998 17.2H10.7998V24H13.1998V17.2Z" fill="#0DADB9"/>
<path d="M16.4004 17.2V19.6C16.4004 20.1778 16.5142 20.7499 16.7353 21.2838C16.9564 21.8176 17.2805 22.3026 17.6891 22.7112C18.0977 23.1198 18.5828 23.4439 19.1166 23.665C19.6504 23.8861 20.2226 24 20.8004 24H22.0004V21.6H20.8004C20.27 21.6 19.7612 21.3892 19.3862 21.0142C19.0111 20.6391 18.8004 20.1304 18.8004 19.6V17.2H16.4004Z" fill="#0DADB9"/>
<path d="M6.4002 8.4C7.06294 8.4 7.6002 7.86274 7.6002 7.2C7.6002 6.53726 7.06294 6 6.4002 6C5.73745 6 5.2002 6.53726 5.2002 7.2C5.2002 7.86274 5.73745 8.4 6.4002 8.4Z" fill="#0DADB9"/>
<path d="M11.2 8.4C11.8627 8.4 12.4 7.86274 12.4 7.2C12.4 6.53726 11.8627 6 11.2 6C10.5373 6 10 6.53726 10 7.2C10 7.86274 10.5373 8.4 11.2 8.4Z" fill="#0DADB9"/>
</svg>
