<svg width="24" height="24" viewBox="0 0 24 24" fill="none" xmlns="http://www.w3.org/2000/svg">
<path d="M2.823 11.3L1.39 12.24L0 11.3C0.185194 8.24305 1.5301 5.372 3.76019 3.27292C5.99028 1.17384 8.93741 0.00500488 12 0.00500488C15.0626 0.00500488 18.0097 1.17384 20.2398 3.27292C22.4699 5.372 23.8148 8.24305 24 11.3L22.472 10.363L21.177 11.3C21.04 9.54603 20.4033 7.86799 19.3424 6.46452C18.2815 5.06104 16.8407 3.99088 15.1906 3.38069C13.5404 2.7705 11.75 2.64583 10.0312 3.02142C8.31242 3.39701 6.73721 4.25715 5.492 5.50004C3.93203 7.04826 2.98415 9.10811 2.823 11.3ZM18.508 18.5C17.2641 19.7463 15.6888 20.6094 13.9689 20.9869C12.2491 21.3645 10.4571 21.2405 8.80558 20.6298C7.1541 20.0191 5.71255 18.9474 4.65209 17.5417C3.59163 16.1361 2.95681 14.4557 2.823 12.7L1.323 13.637L0 12.7C0.185194 15.757 1.5301 18.6281 3.76019 20.7272C5.99028 22.8262 8.93741 23.9951 12 23.9951C15.0626 23.9951 18.0097 22.8262 20.2398 20.7272C22.4699 18.6281 23.8148 15.757 24 12.7L22.472 11.763L21.177 12.7C21.0161 14.892 20.0682 16.952 18.508 18.5ZM16.5 7.20004L10.5 13.192L7.5 10.192L5.239 12.447L10.5 17.7L18.761 9.45004L16.5 7.20004Z" fill="#0DADB9"/>
</svg>
