<svg width="24" height="24" viewBox="0 0 24 24" fill="none" xmlns="http://www.w3.org/2000/svg">
<g clip-path="url(#clip0_3011_27271)">
<path d="M5.50024 0C4.57192 0 3.68162 0.368775 3.0252 1.0252C2.36877 1.68162 2 2.57192 2 3.50024C2 4.42857 2.36877 5.31887 3.0252 5.97529C3.68162 6.63171 4.57192 7.00049 5.50024 7.00049C5.61507 7.02199 5.72405 7.06757 5.82 7.13422C5.91595 7.20087 5.99671 7.28708 6.05695 7.38718L11.724 15.8878C11.905 16.1592 12.0016 16.4782 12.0015 16.8045V21.5015C12.0015 21.6341 11.9488 21.7613 11.8551 21.8551C11.7613 21.9488 11.6341 22.0015 11.5015 22.0015H8.00042C7.86908 22.0015 7.73904 22.0274 7.61771 22.0777C7.49637 22.1279 7.38613 22.2016 7.29326 22.2944C7.2004 22.3873 7.12673 22.4976 7.07647 22.6189C7.02621 22.7402 7.00035 22.8703 7.00035 23.0016C7.00035 23.1329 7.02621 23.263 7.07647 23.3843C7.12673 23.5056 7.2004 23.6159 7.29326 23.7088C7.38613 23.8016 7.49637 23.8753 7.61771 23.9255C7.73904 23.9758 7.86908 24.0017 8.00042 24.0017H18.0011C18.1324 24.0017 18.2625 23.9758 18.3838 23.9255C18.5052 23.8753 18.6154 23.8016 18.7083 23.7088C18.8011 23.6159 18.8748 23.5056 18.9251 23.3843C18.9753 23.263 19.0012 23.1329 19.0012 23.0016C19.0012 22.8703 18.9753 22.7402 18.9251 22.6189C18.8748 22.4976 18.8011 22.3873 18.7083 22.2944C18.6154 22.2016 18.5052 22.1279 18.3838 22.0777C18.2625 22.0274 18.1324 22.0015 18.0011 22.0015H14.5009C14.3682 22.0015 14.2411 21.9488 14.1473 21.8551C14.0535 21.7613 14.0008 21.6341 14.0008 21.5015V16.8028C14.0008 16.4766 14.0973 16.1576 14.2784 15.8861L21.8347 4.55448C21.935 4.40379 21.9926 4.22868 22.0012 4.04785C22.0098 3.86702 21.9692 3.68724 21.8836 3.5277C21.7981 3.36815 21.6708 3.23481 21.5154 3.14192C21.36 3.04902 21.1824 3.00004 21.0013 3.00021H9.44885C9.30962 2.99167 9.17645 2.94022 9.06766 2.85291C8.95887 2.76561 8.87979 2.64675 8.84131 2.51267C8.62883 1.79015 8.18898 1.15543 7.58709 0.702773C6.98519 0.250112 6.25335 0.00365415 5.50024 0V0ZM5.50024 2.00014C5.79694 2.00014 6.08697 2.08812 6.33366 2.25295C6.58035 2.41779 6.77262 2.65207 6.88616 2.92618C6.9997 3.20029 7.0294 3.50191 6.97152 3.7929C6.91364 4.08389 6.77077 4.35118 6.56098 4.56098C6.35118 4.77077 6.08389 4.91364 5.7929 4.97152C5.50191 5.02941 5.20029 4.9997 4.92618 4.88616C4.65207 4.77262 4.41779 4.58035 4.25295 4.33366C4.08812 4.08697 4.00014 3.79694 4.00014 3.50024C3.99813 3.30269 4.03556 3.10672 4.11024 2.92381C4.18492 2.74091 4.29534 2.57474 4.43504 2.43504C4.57474 2.29534 4.74091 2.18492 4.92381 2.11024C5.10672 2.03556 5.30269 1.99813 5.50024 2.00014ZM8.84464 5.00035H18.6312C18.6797 5.00027 18.7273 5.01339 18.769 5.03832C18.8106 5.06325 18.8447 5.09903 18.8676 5.14185C18.8904 5.18467 18.9012 5.2329 18.8988 5.28138C18.8963 5.32985 18.8807 5.37675 18.8537 5.41704L16.076 9.584C15.9907 9.71213 15.8751 9.81721 15.7395 9.8899C15.6038 9.9626 15.4523 10.0007 15.2984 10.0007H10.7014C10.5475 10.0007 10.396 9.9626 10.2604 9.8899C10.1247 9.81721 10.0091 9.71213 9.92388 9.584L7.78873 6.37961C7.76037 6.33284 7.74934 6.27759 7.75757 6.22352C7.76579 6.16944 7.79275 6.11998 7.83374 6.08376C8.12297 5.82378 8.36713 5.51766 8.55629 5.17786C8.58665 5.12737 8.62868 5.08489 8.67886 5.05401C8.72903 5.02312 8.78588 5.00472 8.84464 5.00035Z" fill="#0DADB9"/>
</g>
<defs>
<clipPath id="clip0_3011_27271">
<rect width="24" height="24" fill="white"/>
</clipPath>
</defs>
</svg>
