<svg width="49" height="48" viewBox="0 0 49 48" fill="none" xmlns="http://www.w3.org/2000/svg">
<g clip-path="url(#clip0_2992_28007)">
<g clip-path="url(#clip1_2992_28007)">
<path d="M44.0072 15.0686C42.2284 13.5615 40.7539 11.7286 39.6628 9.66823C35.5725 2.95573 31.5302 -0.992567 13.5989 4.81586C4.50823 7.79609 4.35622 16.1307 4.30622 20.575C4.32885 21.3356 4.27794 22.0965 4.15421 22.8472C4.0522 23.0992 3.80018 23.5553 3.55416 24.0593C1.73603 27.4435 -3.16434 36.5362 5.3723 42.9007C8.38611 45.2583 12.1027 46.5384 15.9291 46.537C19.2355 46.3884 22.5027 45.7591 25.6278 44.6688C26.9414 44.2303 28.2766 43.8591 29.6281 43.5567C31.2499 43.3178 32.8907 43.2334 34.5285 43.3047C39.2768 43.4067 45.1873 43.5047 45.6413 34.6161C45.8415 32.8957 46.2839 31.2123 46.9554 29.6157C48.5535 25.3734 50.4216 19.969 44.0072 15.0686ZM44.2592 28.7576C43.5012 30.6128 43.0083 32.5654 42.7951 34.5581C42.4911 40.6185 39.5128 40.5685 34.6125 40.4685C32.7548 40.3681 30.8917 40.47 29.0561 40.7725C27.6053 41.0845 26.1719 41.4724 24.7617 41.9346C19.4573 43.5507 13.4469 45.3689 7.08242 40.6205C1.374 36.3262 3.19213 30.8198 6.07235 25.4674C6.36566 24.9834 6.61918 24.4763 6.83041 23.9513C7.13859 22.8711 7.25902 21.746 7.18643 20.625C7.23644 16.3307 7.33844 9.86624 14.461 7.59407C31.5342 2.03766 34.0084 6.07796 37.0907 11.1803C38.3766 13.5304 40.0893 15.6203 42.141 17.3428C46.9894 20.9791 45.7753 24.4133 44.2592 28.7576Z" fill="currentColor"/>
<path d="M24.358 13.1505C22.1803 13.1505 20.0514 13.7963 18.2407 15.0062C16.43 16.2161 15.0187 17.9357 14.1853 19.9477C13.3519 21.9596 13.1339 24.1735 13.5587 26.3094C13.9836 28.4453 15.0323 30.4073 16.5722 31.9472C18.1121 33.487 20.074 34.5357 22.2099 34.9606C24.3458 35.3854 26.5597 35.1674 28.5716 34.334C30.5836 33.5006 32.3033 32.0893 33.5131 30.2786C34.723 28.4679 35.3688 26.3391 35.3688 24.1613C35.3619 21.2432 34.1997 18.4465 32.1362 16.3831C30.0728 14.3196 27.2761 13.1574 24.358 13.1505ZM24.358 32.2939C22.7495 32.2939 21.1772 31.817 19.8398 30.9233C18.5024 30.0297 17.46 28.7596 16.8444 27.2735C16.2289 25.7875 16.0679 24.1523 16.3817 22.5747C16.6955 20.9972 17.47 19.5481 18.6074 18.4107C19.7447 17.2733 21.1938 16.4988 22.7714 16.185C24.349 15.8712 25.9842 16.0322 27.4702 16.6478C28.9562 17.2633 30.2264 18.3057 31.12 19.6431C32.0136 20.9805 32.4906 22.5529 32.4906 24.1613C32.4914 25.2295 32.2816 26.2874 31.8731 27.2745C31.4647 28.2615 30.8657 29.1584 30.1104 29.9137C29.355 30.669 28.4582 31.2681 27.4711 31.6765C26.4841 32.0849 25.4262 32.2947 24.358 32.2939Z" fill="currentColor"/>
<path d="M24.358 18.4029C23.6018 18.4026 22.8528 18.5514 22.1541 18.8407C21.4553 19.13 20.8204 19.5541 20.2856 20.0889C19.7509 20.6237 19.3267 21.2586 19.0374 21.9573C18.7481 22.6561 18.5993 23.405 18.5996 24.1613C18.5996 24.5499 18.754 24.9225 19.0287 25.1973C19.3035 25.472 19.6762 25.6264 20.0647 25.6264C20.4533 25.6264 20.8259 25.472 21.1007 25.1973C21.3755 24.9225 21.5298 24.5499 21.5298 24.1613C21.5293 23.7897 21.6021 23.4217 21.744 23.0784C21.886 22.735 22.0943 22.423 22.357 22.1603C22.6197 21.8975 22.9317 21.6892 23.2751 21.5473C23.6185 21.4053 23.9865 21.3326 24.358 21.3331C24.7466 21.3331 25.1193 21.1787 25.394 20.904C25.6688 20.6292 25.8231 20.2565 25.8231 19.868C25.8231 19.4794 25.6688 19.1067 25.394 18.832C25.1193 18.5572 24.7466 18.4029 24.358 18.4029Z" fill="currentColor"/>
</g>
</g>
<defs>
<clipPath id="clip0_2992_28007">
<rect width="48" height="48" fill="white" transform="translate(0.5)"/>
</clipPath>
<clipPath id="clip1_2992_28007">
<rect width="48" height="48" fill="white" transform="translate(0.5)"/>
</clipPath>
</defs>
</svg>
