<svg width="24" height="24" viewBox="0 0 24 24" fill="none" xmlns="http://www.w3.org/2000/svg">
<g clip-path="url(#clip0_3011_29186)">
<path d="M21.7536 7.5343C20.8642 6.78075 20.1269 5.86426 19.5814 4.8341C17.5363 1.47785 15.5151 -0.496299 6.54945 2.40792C2.00412 3.89803 1.92811 8.06534 1.90311 10.2875C1.91443 10.6678 1.88897 11.0482 1.8271 11.4236C1.7761 11.5496 1.65009 11.7776 1.52708 12.0296C0.618013 13.7218 -1.83217 18.2681 2.43615 21.4503C3.94305 22.6291 5.80136 23.2692 7.71454 23.2685C9.36777 23.1942 11.0014 22.8795 12.5639 22.3344C13.2207 22.1151 13.8883 21.9295 14.5641 21.7784C15.3749 21.6589 16.1954 21.6167 17.0142 21.6523C19.3884 21.7034 22.3436 21.7524 22.5706 17.308C22.6708 16.4478 22.892 15.6061 23.2277 14.8078C24.0268 12.6867 24.9608 9.98448 21.7536 7.5343ZM21.8796 14.3788C21.5006 15.3064 21.2541 16.2827 21.1475 17.279C20.9955 20.3092 19.5064 20.2842 17.0562 20.2342C16.1274 20.184 15.1958 20.235 14.278 20.3863C13.5526 20.5422 12.8359 20.7362 12.1309 20.9673C9.47867 21.7754 6.47345 22.6844 3.29121 20.3102C0.437 18.1631 1.34607 15.4099 2.78617 12.7337C2.93283 12.4917 3.05959 12.2382 3.1652 11.9756C3.3193 11.4355 3.37951 10.873 3.34322 10.3125C3.36822 8.16535 3.41922 4.93311 6.98049 3.79702C15.5171 1.01881 16.7542 3.03896 18.2953 5.59015C18.9383 6.7652 19.7947 7.81011 20.8205 8.67138C23.2447 10.4895 22.6376 12.2066 21.8796 14.3788Z" fill="#0DADB9"/>
<path d="M11.9292 6.57524C10.8404 6.57524 9.77596 6.89813 8.8706 7.50307C7.96524 8.10801 7.2596 8.96784 6.84291 9.97382C6.42621 10.9798 6.31719 12.0868 6.52962 13.1547C6.74204 14.2226 7.26638 15.2036 8.03633 15.9736C8.80627 16.7435 9.78724 17.2678 10.8552 17.4803C11.9231 17.6927 13.0301 17.5837 14.0361 17.167C15.0421 16.7503 15.9019 16.0447 16.5068 15.1393C17.1118 14.2339 17.4346 13.1695 17.4346 12.0806C17.4312 10.6216 16.8501 9.22325 15.8184 8.19153C14.7866 7.15981 13.3883 6.57867 11.9292 6.57524ZM11.9292 16.147C11.125 16.147 10.3388 15.9085 9.67012 15.4617C9.00142 15.0148 8.48023 14.3798 8.17247 13.6368C7.8647 12.8937 7.78417 12.0761 7.94107 11.2874C8.09797 10.4986 8.48525 9.77402 9.05393 9.20534C9.62261 8.63666 10.3472 8.24938 11.1359 8.09248C11.9247 7.93558 12.7423 8.01611 13.4853 8.32388C14.2284 8.63165 14.8634 9.15283 15.3102 9.82153C15.7571 10.4902 15.9955 11.2764 15.9955 12.0806C15.9959 12.6148 15.891 13.1437 15.6868 13.6372C15.4826 14.1307 15.1831 14.5792 14.8054 14.9568C14.4278 15.3345 13.9793 15.634 13.4858 15.8382C12.9923 16.0424 12.4633 16.1473 11.9292 16.147Z" fill="#0DADB9"/>
<path d="M11.929 9.20142C11.5509 9.20128 11.1764 9.27567 10.827 9.42032C10.4777 9.56496 10.1602 9.77704 9.89282 10.0444C9.62543 10.3118 9.41335 10.6293 9.2687 10.9786C9.12406 11.328 9.04967 11.7025 9.0498 12.0806C9.0498 12.2749 9.12699 12.4612 9.26437 12.5986C9.40175 12.736 9.58808 12.8132 9.78236 12.8132C9.97665 12.8132 10.163 12.736 10.3004 12.5986C10.4377 12.4612 10.5149 12.2749 10.5149 12.0806C10.5147 11.8949 10.551 11.7108 10.622 11.5392C10.693 11.3675 10.7971 11.2115 10.9285 11.0801C11.0599 10.9488 11.2159 10.8446 11.3876 10.7736C11.5592 10.7027 11.7432 10.6663 11.929 10.6665C12.1233 10.6665 12.3096 10.5893 12.447 10.452C12.5844 10.3146 12.6616 10.1283 12.6616 9.93397C12.6616 9.73969 12.5844 9.55336 12.447 9.41598C12.3096 9.2786 12.1233 9.20142 11.929 9.20142Z" fill="#0DADB9"/>
</g>
<defs>
<clipPath id="clip0_3011_29186">
<rect width="24" height="24" fill="white"/>
</clipPath>
</defs>
</svg>
