<svg width="24" height="24" viewBox="0 0 24 24" fill="none" xmlns="http://www.w3.org/2000/svg">
<g clip-path="url(#clip0_3011_29194)">
<path d="M9.27349 8.93197L5.38449 7.26497C5.19199 7.18116 4.98482 7.13624 4.7749 7.13278C4.56498 7.12933 4.35644 7.1674 4.16128 7.24481C3.96613 7.32222 3.7882 7.43745 3.63772 7.58386C3.48725 7.73028 3.36721 7.905 3.28449 8.09797L0.128492 15.398C0.0446911 15.5905 -0.000230577 15.7976 -0.00368997 16.0076C-0.00714937 16.2175 0.0309219 16.426 0.108335 16.6212C0.185747 16.8163 0.300974 16.9943 0.44739 17.1447C0.593806 17.2952 0.768522 17.4153 0.961492 17.498L8.28449 20.654C8.47699 20.7378 8.68416 20.7827 8.89408 20.7861C9.10401 20.7896 9.31254 20.7515 9.5077 20.6741C9.70286 20.5967 9.88079 20.4815 10.0313 20.3351C10.1817 20.1887 10.3018 20.0139 10.3845 19.821L11.8495 16.437L9.34949 9.21497C9.32549 9.10897 9.29849 9.00797 9.27349 8.93197ZM5.35949 12.871C5.19108 12.8012 5.03854 12.6981 4.91106 12.5679C4.78357 12.4376 4.68379 12.2828 4.61773 12.113C4.55167 11.9431 4.52069 11.7616 4.52666 11.5794C4.53264 11.3972 4.57544 11.2182 4.65249 11.053C4.72445 10.8864 4.82879 10.7357 4.95946 10.6098C5.09012 10.4838 5.24451 10.3851 5.41365 10.3193C5.5828 10.2535 5.76332 10.222 5.94475 10.2266C6.12617 10.2312 6.30488 10.2717 6.47049 10.346C6.6389 10.4157 6.79144 10.5188 6.91893 10.6491C7.04641 10.7794 7.14619 10.9341 7.21226 11.104C7.27832 11.2739 7.3093 11.4554 7.30332 11.6375C7.29735 11.8197 7.25455 11.9988 7.17749 12.164C7.02775 12.4967 6.75326 12.7573 6.41319 12.8895C6.07311 13.0218 5.69469 13.0151 5.35949 12.871ZM9.04649 16.835C8.97454 17.0016 8.8702 17.1522 8.73953 17.2782C8.60886 17.4041 8.45447 17.5028 8.28533 17.5686C8.11619 17.6344 7.93566 17.6659 7.75424 17.6613C7.57281 17.6568 7.3941 17.6162 7.22849 17.542C7.0627 17.469 6.9129 17.3641 6.78764 17.2333C6.66238 17.1024 6.56412 16.9482 6.49847 16.7794C6.43282 16.6106 6.40106 16.4305 6.40501 16.2494C6.40896 16.0683 6.44854 15.8898 6.52149 15.724C6.59444 15.5582 6.69933 15.4084 6.83017 15.2831C6.96102 15.1579 7.11525 15.0596 7.28407 14.9939C7.45288 14.9283 7.63298 14.8965 7.81407 14.9005C7.99516 14.9044 8.1737 14.944 8.33949 15.017C8.67223 15.1667 8.93281 15.4412 9.06506 15.7813C9.19731 16.1213 9.19064 16.4998 9.04649 16.835Z" fill="#0DADB9"/>
<path d="M23.9197 12.619L21.3197 5.069C21.2518 4.8716 21.1457 4.68951 21.0075 4.53315C20.8692 4.37678 20.7015 4.24921 20.5139 4.15772C20.3263 4.06624 20.1224 4.01264 19.9141 3.99999C19.7058 3.98734 19.497 4.01589 19.2997 4.084L11.7497 6.684C11.5523 6.75183 11.3702 6.85791 11.2138 6.99618C11.0574 7.13445 10.9299 7.30218 10.8384 7.48979C10.7469 7.67741 10.6933 7.88121 10.6807 8.08956C10.668 8.2979 10.6966 8.5067 10.7647 8.704L13.3647 16.234C13.4325 16.4314 13.5386 16.6135 13.6768 16.7699C13.8151 16.9262 13.9828 17.0538 14.1705 17.1453C14.3581 17.2368 14.5619 17.2904 14.7702 17.303C14.9786 17.3157 15.1874 17.2871 15.3847 17.219L22.9137 14.614C23.1119 14.5509 23.2956 14.4489 23.454 14.3139C23.6123 14.1789 23.7421 14.0137 23.8358 13.8279C23.9295 13.6421 23.9852 13.4395 23.9996 13.2319C24.014 13.0243 23.9868 12.8159 23.9197 12.619ZM12.9137 9.513C12.8312 9.27571 12.821 9.0193 12.8843 8.7762C12.9476 8.5331 13.0815 8.31423 13.2692 8.14727C13.4569 7.98032 13.6899 7.87277 13.9387 7.83824C14.1876 7.80371 14.441 7.84374 14.6671 7.95328C14.8932 8.06281 15.0817 8.23693 15.2088 8.4536C15.3359 8.67028 15.3958 8.91978 15.3811 9.17055C15.3664 9.42133 15.2777 9.6621 15.1261 9.86243C14.9746 10.0628 14.767 10.2136 14.5297 10.296C14.2115 10.4042 13.8634 10.3827 13.561 10.2361C13.2585 10.0896 13.0259 9.82979 12.9137 9.513ZM16.1707 15.093C15.9334 15.1754 15.677 15.1857 15.4339 15.1224C15.1908 15.0591 14.9719 14.9251 14.8049 14.7374C14.638 14.5497 14.5304 14.3167 14.4959 14.0679C14.4614 13.8191 14.5014 13.5656 14.6109 13.3396C14.7205 13.1135 14.8946 12.925 15.1113 12.7979C15.3279 12.6708 15.5774 12.6108 15.8282 12.6255C16.079 12.6402 16.3198 12.729 16.5201 12.8805C16.7204 13.0321 16.8713 13.2397 16.9537 13.477C17.013 13.6345 17.0396 13.8024 17.0318 13.9704C17.0241 14.1385 16.9821 14.3033 16.9086 14.4546C16.835 14.6059 16.7314 14.7407 16.604 14.8506C16.4766 14.9606 16.3281 15.0434 16.1677 15.094L16.1707 15.093ZM17.7107 7.846C17.6282 7.60871 17.618 7.3523 17.6813 7.1092C17.7446 6.8661 17.8785 6.64723 18.0662 6.48028C18.2539 6.31332 18.4869 6.20577 18.7357 6.17124C18.9846 6.13671 19.238 6.17674 19.4641 6.28628C19.6902 6.39581 19.8787 6.56993 20.0058 6.78661C20.1329 7.00328 20.1928 7.25278 20.1781 7.50355C20.1634 7.75433 20.0747 7.9951 19.9231 8.19543C19.7716 8.39576 19.564 8.54665 19.3267 8.629C19.1693 8.68871 19.0015 8.71572 18.8334 8.70838C18.6653 8.70105 18.5004 8.65952 18.3489 8.58633C18.1974 8.51315 18.0624 8.40984 17.9521 8.28272C17.8419 8.1556 17.7587 8.00735 17.7077 7.847L17.7107 7.846ZM20.9677 13.426C20.7304 13.5084 20.474 13.5187 20.2309 13.4554C19.9878 13.3921 19.7689 13.2581 19.6019 13.0704C19.435 12.8827 19.3274 12.6497 19.2929 12.4009C19.2584 12.1521 19.2984 11.8986 19.4079 11.6726C19.5175 11.4465 19.6916 11.258 19.9083 11.1309C20.1249 11.0038 20.3744 10.9438 20.6252 10.9585C20.876 10.9732 21.1168 11.062 21.3171 11.2135C21.5174 11.3651 21.6683 11.5727 21.7507 11.81C21.8591 12.1286 21.8374 12.4771 21.6905 12.7798C21.5435 13.0826 21.283 13.3151 20.9657 13.427L20.9677 13.426Z" fill="#0DADB9"/>
</g>
<defs>
<clipPath id="clip0_3011_29194">
<rect width="24" height="24" fill="white"/>
</clipPath>
</defs>
</svg>
