<svg width="20" height="20" viewBox="0 0 20 20" fill="none" xmlns="http://www.w3.org/2000/svg">
<path d="M15 20H3C2.20435 20 1.44129 19.6839 0.87868 19.1213C0.316071 18.5587 0 17.7956 0 17V6.99997C0 6.20432 0.316071 5.44125 0.87868 4.87864C1.44129 4.31604 2.20435 3.99997 3 3.99997H4C4.01682 3.1526 4.30235 2.33248 4.81541 1.65789C5.32848 0.983305 6.04255 0.489113 6.85464 0.246599C7.66673 0.00408407 8.53486 0.0257815 9.33382 0.308562C10.1328 0.591342 10.8213 1.12059 11.3 1.81997C11.7484 2.45911 11.9925 3.21923 12 3.99997H15C15.2652 3.99997 15.5196 4.10532 15.7071 4.29286C15.8946 4.48039 16 4.73475 16 4.99997V7.99997C16.8474 8.01678 17.6675 8.30232 18.3421 8.81538C19.0167 9.32844 19.5109 10.0425 19.7534 10.8546C19.9959 11.6667 19.9742 12.5348 19.6914 13.3338C19.4086 14.1328 18.8794 14.8212 18.18 15.3C17.5409 15.7484 16.7807 15.9925 16 16V19C16 19.2652 15.8946 19.5195 15.7071 19.7071C15.5196 19.8946 15.2652 20 15 20ZM3 5.99997C2.73478 5.99997 2.48043 6.10532 2.29289 6.29286C2.10536 6.48039 2 6.73475 2 6.99997V17C2 17.2652 2.10536 17.5195 2.29289 17.7071C2.48043 17.8946 2.73478 18 3 18H14V14.82C13.9991 14.6596 14.0368 14.5014 14.1099 14.3587C14.183 14.216 14.2894 14.093 14.42 14C14.5502 13.9071 14.7008 13.8468 14.8592 13.8242C15.0175 13.8016 15.179 13.8173 15.33 13.87C15.615 13.9862 15.9254 14.0262 16.2305 13.9858C16.5357 13.9455 16.825 13.8263 17.07 13.64C17.3139 13.4913 17.523 13.292 17.6834 13.0557C17.8439 12.8194 17.9518 12.5515 18 12.27C18.0386 11.986 18.0157 11.6971 17.9329 11.4228C17.85 11.1485 17.7092 10.8951 17.52 10.68C17.2641 10.3691 16.9155 10.1481 16.5252 10.0491C16.1349 9.95019 15.7231 9.97851 15.35 10.13C15.199 10.1827 15.0375 10.1983 14.8792 10.1757C14.7208 10.1531 14.5702 10.0928 14.44 9.99997C14.3094 9.90697 14.203 9.78393 14.1299 9.64121C14.0568 9.4985 14.0191 9.34031 14.02 9.17997V5.99997H10.82C10.6557 6.00928 10.4915 5.97788 10.3422 5.90855C10.1929 5.83922 10.0631 5.7341 9.96414 5.60253C9.86522 5.47096 9.8003 5.317 9.77516 5.15432C9.75001 4.99164 9.76541 4.82526 9.82 4.66997C9.93626 4.38497 9.97619 4.07459 9.93586 3.76945C9.89552 3.46431 9.77632 3.17496 9.59 2.92997C9.44235 2.67913 9.24016 2.46473 8.9984 2.30266C8.75663 2.14058 8.4815 2.03499 8.19338 1.99369C7.90527 1.95239 7.61155 1.97645 7.33399 2.06409C7.05644 2.15173 6.80216 2.3007 6.59 2.49997C6.39298 2.69538 6.23877 2.92966 6.1372 3.1879C6.03562 3.44614 5.9889 3.72269 6 3.99997C6.00232 4.22934 6.04637 4.45637 6.13 4.66997C6.18287 4.82118 6.19863 4.98289 6.17597 5.14147C6.1533 5.30005 6.09287 5.45087 5.99976 5.58122C5.90665 5.71158 5.78358 5.81765 5.64093 5.89053C5.49827 5.9634 5.34019 6.00093 5.18 5.99997H3Z" fill="#0DADB9"/>
</svg>
