<svg width="24" height="24" viewBox="0 0 24 24" fill="none" xmlns="http://www.w3.org/2000/svg">
<g clip-path="url(#clip0_3011_29223)">
<path d="M2.96018 0.833594H2.4545C2.39475 0.833365 2.33555 0.844964 2.2803 0.867724C2.22506 0.890483 2.17486 0.923953 2.13261 0.966203C2.09036 1.00845 2.05689 1.05865 2.03413 1.11389C2.01137 1.16914 1.99977 1.22834 2 1.28809V5.02731C1.99977 5.08706 2.01137 5.14626 2.03413 5.20151C2.05689 5.25675 2.09036 5.30695 2.13261 5.3492C2.17486 5.39145 2.22506 5.42492 2.2803 5.44768C2.33555 5.47044 2.39475 5.48204 2.4545 5.48181H2.96018C3.01993 5.48204 3.07913 5.47044 3.13438 5.44768C3.18962 5.42492 3.23982 5.39145 3.28207 5.3492C3.32432 5.30695 3.35779 5.25675 3.38055 5.20151C3.40331 5.14626 3.41491 5.08706 3.41468 5.02731V1.28809C3.41766 1.22762 3.40794 1.16719 3.38615 1.1107C3.36437 1.05421 3.33099 1.0029 3.28818 0.960091C3.24537 0.917278 3.19406 0.883904 3.13757 0.862117C3.08108 0.840331 3.02065 0.830615 2.96018 0.833594Z" fill="#0DADB9"/>
<path d="M20.4415 2.65306e-05H19.4059C19.3461 -0.000202838 19.2869 0.0113967 19.2317 0.0341561C19.1764 0.0569156 19.1262 0.090385 19.084 0.132635C19.0417 0.174885 19.0083 0.22508 18.9855 0.280326C18.9627 0.335571 18.9511 0.394776 18.9514 0.454526V2.75304H17.4352C17.3482 2.63569 17.2334 2.54188 17.101 2.48009C16.9686 2.4183 16.823 2.39048 16.6771 2.39916C16.5565 2.41112 16.4398 2.44891 16.335 2.50997C16.2302 2.57104 16.1399 2.65394 16.07 2.75304H8.74508C8.59629 2.56076 8.37856 2.43386 8.13792 2.39916C7.99145 2.38482 7.84381 2.4101 7.71045 2.47236C7.5771 2.53461 7.46291 2.63155 7.37985 2.75304H5.86543V0.454526C5.86566 0.394776 5.85406 0.335571 5.8313 0.280326C5.80854 0.22508 5.77507 0.174885 5.73282 0.132635C5.69057 0.090385 5.64037 0.0569156 5.58513 0.0341561C5.52988 0.0113967 5.47068 -0.000202838 5.41093 2.65306e-05H4.37442C4.31467 -0.000202838 4.25547 0.0113967 4.20022 0.0341561C4.14498 0.0569156 4.09478 0.090385 4.05253 0.132635C4.01028 0.174885 3.97681 0.22508 3.95405 0.280326C3.9313 0.335571 3.9197 0.394776 3.91993 0.454526V5.83219C3.9197 5.89194 3.9313 5.95115 3.95405 6.00639C3.97681 6.06164 4.01028 6.11183 4.05253 6.15408C4.09478 6.19633 4.14498 6.2298 4.20022 6.25256C4.25547 6.27532 4.31467 6.28692 4.37442 6.28669H5.41006C5.46981 6.28692 5.52901 6.27532 5.58426 6.25256C5.63951 6.2298 5.6897 6.19633 5.73195 6.15408C5.7742 6.11183 5.80767 6.06164 5.83043 6.00639C5.85319 5.95115 5.86479 5.89194 5.86456 5.83219V3.53714H7.17862C6.87504 6.94762 7.20377 7.42728 7.35209 7.62937C8.14722 8.6793 9.2001 9.50602 10.4087 10.0294L10.5119 15.1581L9.52658 22.8629C9.51 22.9923 9.51908 23.1237 9.55328 23.2496C9.58749 23.3755 9.64616 23.4934 9.72593 23.5966C9.80571 23.6998 9.90504 23.7863 10.0182 23.8511C10.1314 23.916 10.2563 23.9579 10.3857 23.9744C10.5151 23.991 10.6465 23.9819 10.7724 23.9477C10.8983 23.9135 11.0162 23.8549 11.1194 23.7751C11.2226 23.6953 11.3091 23.596 11.3739 23.4828C11.4388 23.3696 11.4807 23.2447 11.4972 23.1153L12.4071 16.0897L13.2909 23.1153C13.3243 23.3553 13.4415 23.5758 13.6219 23.7376C13.8022 23.8994 14.0341 23.992 14.2763 23.9992H14.4029C14.5324 23.9828 14.6574 23.941 14.7707 23.8762C14.884 23.8114 14.9834 23.7249 15.0632 23.6215C15.143 23.5182 15.2016 23.4002 15.2356 23.2742C15.2697 23.1481 15.2785 23.0166 15.2616 22.8872L14.3014 15.1564L14.4029 10.0276C15.6028 9.49144 16.6529 8.66916 17.4612 7.63284C17.613 7.43075 17.9409 6.92507 17.6347 3.54061H18.9514V5.83913C18.9511 5.89888 18.9627 5.95809 18.9855 6.01333C19.0083 6.06858 19.0417 6.11877 19.084 6.16102C19.1262 6.20327 19.1764 6.23674 19.2317 6.2595C19.2869 6.28226 19.3461 6.29386 19.4059 6.29363H20.4415C20.5013 6.29386 20.5605 6.28226 20.6157 6.2595C20.6709 6.23674 20.7211 6.20327 20.7634 6.16102C20.8056 6.11877 20.8391 6.06858 20.8619 6.01333C20.8846 5.95809 20.8962 5.89888 20.896 5.83913V0.461465C20.9 0.400427 20.891 0.339235 20.8697 0.281908C20.8484 0.224581 20.8151 0.172415 20.7722 0.128836C20.7293 0.085257 20.6776 0.0512512 20.6206 0.0290514C20.5636 0.0068516 20.5026 -0.00303992 20.4415 2.65306e-05ZM15.9954 6.72037C15.5157 7.37697 14.1514 8.46378 13.5668 8.46378H11.2422C10.6611 8.46378 9.32188 7.35182 8.8136 6.72037C8.75711 5.65893 8.78233 4.59472 8.88906 3.53714H15.887C16.0143 4.59315 16.0506 5.65815 15.9954 6.72037Z" fill="#0DADB9"/>
<path d="M22.3615 0.833499H21.8559C21.7961 0.83327 21.7369 0.844869 21.6817 0.867629C21.6264 0.890388 21.5762 0.923858 21.534 0.966108C21.4917 1.00836 21.4583 1.05855 21.4355 1.1138C21.4127 1.16904 21.4011 1.22825 21.4014 1.288V5.02721C21.4011 5.08696 21.4127 5.14617 21.4355 5.20141C21.4583 5.25666 21.4917 5.30685 21.534 5.3491C21.5762 5.39135 21.6264 5.42482 21.6817 5.44758C21.7369 5.47034 21.7961 5.48194 21.8559 5.48171H22.3615C22.4213 5.48194 22.4805 5.47034 22.5357 5.44758C22.591 5.42482 22.6412 5.39135 22.6834 5.3491C22.7257 5.30685 22.7592 5.25666 22.7819 5.20141C22.8047 5.14617 22.8163 5.08696 22.816 5.02721V1.288C22.8163 1.22825 22.8047 1.16904 22.7819 1.1138C22.7592 1.05855 22.7257 1.00836 22.6834 0.966108C22.6412 0.923858 22.591 0.890388 22.5357 0.867629C22.4805 0.844869 22.4213 0.83327 22.3615 0.833499Z" fill="#0DADB9"/>
<path d="M12.4087 7.98321C13.5248 7.98321 14.4296 7.07839 14.4296 5.96225C14.4296 4.8461 13.5248 3.94128 12.4087 3.94128C11.2925 3.94128 10.3877 4.8461 10.3877 5.96225C10.3877 7.07839 11.2925 7.98321 12.4087 7.98321Z" fill="#0DADB9"/>
</g>
<defs>
<clipPath id="clip0_3011_29223">
<rect width="24" height="24" fill="white"/>
</clipPath>
</defs>
</svg>
