<svg width="49" height="48" viewBox="0 0 49 48" fill="none" xmlns="http://www.w3.org/2000/svg">
<g clip-path="url(#clip0_2992_28015)">
<g clip-path="url(#clip1_2992_28015)">
<path d="M4.796 21.576H0.5V41.278C0.569372 42.5906 1.15504 43.8224 2.12921 44.7048C3.10339 45.5872 4.387 46.0485 5.7 45.988H43.3C44.6127 46.0474 45.8958 45.5858 46.8697 44.7036C47.8436 43.8214 48.4296 42.5902 48.5 41.278V21.576H44.2V40.39C44.1746 40.8695 43.9606 41.3195 43.6046 41.6418C43.2487 41.964 42.7796 42.1324 42.3 42.11H6.7C6.22075 42.1323 5.75218 41.9639 5.39685 41.6415C5.04151 41.3192 4.82834 40.8692 4.804 40.39L4.796 21.576ZM42.5 23.964V38.902C42.4762 39.3398 42.2804 39.7504 41.9552 40.0445C41.6301 40.3385 41.2019 40.4922 40.764 40.472H8.23C7.79234 40.4921 7.36454 40.338 7.04029 40.0434C6.71604 39.7487 6.52176 39.3376 6.5 38.9V23.964H42.5ZM17.5 7.99403C17.5008 8.78244 17.2679 9.55339 16.8307 10.2095C16.3935 10.8656 15.7716 11.3773 15.0437 11.6801C14.3157 11.983 13.5144 12.0632 12.7408 11.9107C11.9673 11.7583 11.2563 11.38 10.6977 10.8236C10.1391 10.2672 9.75795 9.55776 9.6024 8.78485C9.44684 8.01194 9.52387 7.21026 9.82376 6.48111C10.1236 5.75196 10.6329 5.12806 11.2873 4.68824C11.9416 4.24841 12.7116 4.0124 13.5 4.01003C14.0244 4.00845 14.5439 4.11031 15.0289 4.30977C15.5139 4.50923 15.9547 4.80237 16.3263 5.17242C16.6978 5.54248 16.9927 5.98217 17.1941 6.46634C17.3955 6.95051 17.4995 7.46964 17.5 7.99403ZM16.798 23.962V16.852C16.798 16.852 16.798 12.82 13.514 12.82C11.256 12.82 10.484 14.65 10.484 16.904V23.962H16.798ZM25.296 4.01003C24.8997 4.58986 24.5352 5.19074 24.204 5.81003C23.9102 6.35277 23.6549 6.91549 23.44 7.49403C23.2137 8.08016 23.0873 8.70009 23.066 9.32803C23.0654 9.52946 23.0848 9.73045 23.124 9.92803C23.2595 10.4773 23.478 11.0027 23.772 11.486C24.192 12.226 24.698 12.962 25.084 13.712C25.4725 14.3936 25.6926 15.1582 25.726 15.942C25.7261 16.1434 25.7067 16.3444 25.668 16.542C25.398 17.6696 24.8406 18.708 24.05 19.556C23.7672 19.8785 23.4646 20.1831 23.144 20.468C23.026 20.57 22.928 20.652 22.862 20.706L22.788 20.76L22.77 20.776L23.77 22.12C24.3307 21.6845 24.8472 21.1948 25.312 20.658C26.2982 19.5871 26.9876 18.2772 27.312 16.858C27.369 16.5533 27.3978 16.244 27.398 15.934C27.3209 14.5635 26.873 13.2397 26.102 12.104C25.786 11.572 25.472 11.084 25.23 10.654C25.0221 10.3205 24.865 9.95785 24.764 9.57803L24.742 9.32803C24.7637 8.89327 24.8563 8.46497 25.016 8.06003C25.2945 7.32722 25.6386 6.62103 26.044 5.95003C26.218 5.65403 26.376 5.40603 26.49 5.23403L26.622 5.03403L26.666 4.97003L25.296 4.00403V4.01003ZM31.358 4.00403C30.9606 4.58315 30.5961 5.18409 30.266 5.80403C29.971 6.34518 29.7163 6.90738 29.504 7.48603C29.2768 8.07119 29.1503 8.69063 29.13 9.31803C29.1295 9.51955 29.1496 9.7206 29.19 9.91803C29.3241 10.4671 29.5413 10.9925 29.834 11.476C30.254 12.218 30.76 12.954 31.144 13.704C31.5345 14.3849 31.7553 15.1498 31.788 15.934C31.7882 16.1353 31.7695 16.3362 31.732 16.534C31.4605 17.6614 30.9025 18.6996 30.112 19.548C29.8295 19.8708 29.5269 20.1754 29.206 20.46C29.088 20.566 28.99 20.644 28.924 20.698L28.852 20.752L28.834 20.768L29.834 22.112C30.3937 21.6753 30.9101 21.1857 31.376 20.65C32.3606 19.578 33.0498 18.2686 33.376 16.85C33.435 16.5456 33.4645 16.2361 33.464 15.926C33.3847 14.5553 32.937 13.2315 32.168 12.094C31.85 11.562 31.536 11.076 31.294 10.646C31.0882 10.3114 30.9312 9.94908 30.828 9.57003L30.806 9.31203C30.8278 8.87773 30.9211 8.45 31.082 8.04603C31.3571 7.31861 31.6979 6.61772 32.1 5.95203C32.272 5.65803 32.432 5.40803 32.542 5.23803L32.674 5.03803L32.72 4.97603L31.35 4.01003L31.358 4.00403ZM37.412 4.01003C37.0145 4.58908 36.65 5.19003 36.32 5.81003C36.0262 6.35153 35.7722 6.91368 35.56 7.49203C35.3323 8.07715 35.2052 8.69654 35.184 9.32403C35.1836 9.52545 35.203 9.72642 35.242 9.92403C35.3774 10.4727 35.5945 10.9979 35.886 11.482C36.308 12.222 36.814 12.958 37.198 13.71C37.5871 14.3908 37.8079 15.1547 37.842 15.938C37.8421 16.1394 37.8227 16.3404 37.784 16.538C37.5132 17.6651 36.9551 18.7028 36.164 19.55C35.8815 19.8735 35.5789 20.1787 35.258 20.464C35.138 20.568 35.042 20.648 34.976 20.702L34.902 20.756L34.884 20.772L35.884 22.116C36.4429 21.6791 36.9586 21.1895 37.424 20.654C38.4096 19.5827 39.0989 18.273 39.424 16.854C39.481 16.5487 39.5098 16.2387 39.51 15.928C39.4318 14.5578 38.9839 13.2343 38.214 12.098C37.898 11.566 37.582 11.078 37.34 10.648C37.1345 10.3142 36.9782 9.95248 36.876 9.57403L36.852 9.31603C36.8743 8.88179 36.9675 8.45413 37.128 8.05003C37.4054 7.31735 37.7495 6.61172 38.156 5.94203C38.326 5.64803 38.486 5.39803 38.6 5.22803L38.732 5.02803L38.778 4.96603L37.408 4.00003" fill="currentColor"/>
</g>
</g>
<defs>
<clipPath id="clip0_2992_28015">
<rect width="48" height="48" fill="white" transform="translate(0.5)"/>
</clipPath>
<clipPath id="clip1_2992_28015">
<rect width="48" height="48" fill="white" transform="translate(0.5)"/>
</clipPath>
</defs>
</svg>
