<svg width="24" height="24" viewBox="0 0 24 24" fill="none" xmlns="http://www.w3.org/2000/svg">
<path d="M2.148 10.788H0V20.639C0.0346859 21.2953 0.327518 21.9112 0.814606 22.3524C1.30169 22.7936 1.9435 23.0242 2.6 22.994H21.4C22.0564 23.0237 22.6979 22.7929 23.1848 22.3518C23.6718 21.9107 23.9648 21.2951 24 20.639V10.788H21.85V20.195C21.8373 20.4347 21.7303 20.6597 21.5523 20.8209C21.3743 20.982 21.1398 21.0662 20.9 21.055H3.1C2.86038 21.0662 2.62609 20.9819 2.44842 20.8207C2.27075 20.6596 2.16417 20.4346 2.152 20.195L2.148 10.788ZM21 11.982V19.451C20.9881 19.6699 20.8902 19.8752 20.7276 20.0222C20.5651 20.1692 20.351 20.2461 20.132 20.236H3.865C3.64617 20.2461 3.43227 20.169 3.27015 20.0217C3.10802 19.8744 3.01088 19.6688 3 19.45V11.982H21ZM8.5 3.997C8.50039 4.39121 8.38393 4.77668 8.16533 5.10472C7.94674 5.43277 7.63581 5.68866 7.27184 5.84006C6.90787 5.99146 6.50718 6.03158 6.12042 5.95536C5.73365 5.87913 5.37816 5.68997 5.09886 5.41178C4.81956 5.1336 4.62897 4.77887 4.5512 4.39241C4.47342 4.00595 4.51194 3.60512 4.66188 3.24054C4.81182 2.87597 5.06646 2.56401 5.39363 2.3441C5.72079 2.12419 6.1058 2.00619 6.5 2.005C6.76219 2.00421 7.02197 2.05514 7.26445 2.15487C7.50694 2.2546 7.72737 2.40117 7.91314 2.5862C8.09891 2.77122 8.24637 2.99107 8.34707 3.23316C8.44777 3.47524 8.49974 3.73481 8.5 3.997ZM8.149 11.981V8.426C8.149 8.426 8.149 6.41 6.507 6.41C5.378 6.41 4.992 7.325 4.992 8.452V11.981H8.149ZM12.398 2.005C12.1999 2.29491 12.0176 2.59535 11.852 2.905C11.7051 3.17637 11.5774 3.45773 11.47 3.747C11.3568 4.04006 11.2936 4.35003 11.283 4.664C11.2827 4.76471 11.2924 4.86521 11.312 4.964C11.3797 5.23864 11.489 5.50133 11.636 5.743C11.846 6.113 12.099 6.481 12.292 6.856C12.4863 7.1968 12.5963 7.57907 12.613 7.971C12.6131 8.0717 12.6034 8.17217 12.584 8.271C12.449 8.83477 12.1703 9.35397 11.775 9.778C11.6336 9.93922 11.4823 10.0915 11.322 10.234C11.263 10.285 11.214 10.326 11.181 10.353L11.144 10.38L11.135 10.388L11.635 11.06C11.9154 10.8422 12.1736 10.5974 12.406 10.329C12.8991 9.79354 13.2438 9.1386 13.406 8.429C13.4345 8.27665 13.4489 8.12199 13.449 7.967C13.4105 7.28175 13.1865 6.61984 12.801 6.052C12.643 5.786 12.486 5.542 12.365 5.327C12.261 5.16024 12.1825 4.97891 12.132 4.789L12.121 4.664C12.1319 4.44662 12.1781 4.23247 12.258 4.03C12.3973 3.6636 12.5693 3.3105 12.772 2.975C12.859 2.827 12.938 2.703 12.995 2.617L13.061 2.517L13.083 2.485L12.398 2.002V2.005ZM15.429 2.002C15.2303 2.29156 15.048 2.59203 14.883 2.902C14.7355 3.17258 14.6081 3.45367 14.502 3.743C14.3884 4.03558 14.3252 4.3453 14.315 4.659C14.3148 4.75976 14.3248 4.86028 14.345 4.959C14.4121 5.23354 14.5207 5.49623 14.667 5.738C14.877 6.109 15.13 6.477 15.322 6.852C15.5172 7.19245 15.6277 7.57488 15.644 7.967C15.6441 8.06766 15.6347 8.1681 15.616 8.267C15.4803 8.8307 15.2013 9.34979 14.806 9.774C14.6648 9.9354 14.5135 10.0877 14.353 10.23C14.294 10.283 14.245 10.322 14.212 10.349L14.176 10.376L14.167 10.384L14.667 11.056C14.9468 10.8376 15.205 10.5928 15.438 10.325C15.9303 9.78901 16.2749 9.13428 16.438 8.425C16.4675 8.27278 16.4822 8.11806 16.482 7.963C16.4424 7.27765 16.2185 6.61571 15.834 6.047C15.675 5.781 15.518 5.538 15.397 5.323C15.2941 5.15569 15.2156 4.97452 15.164 4.785L15.153 4.656C15.1639 4.43885 15.2105 4.22499 15.291 4.023C15.4286 3.65929 15.5989 3.30884 15.8 2.976C15.886 2.829 15.966 2.704 16.021 2.619L16.087 2.519L16.11 2.488L15.425 2.005L15.429 2.002ZM18.456 2.005C18.2573 2.29453 18.075 2.595 17.91 2.905C17.7631 3.17575 17.6361 3.45682 17.53 3.746C17.4162 4.03856 17.3526 4.34826 17.342 4.662C17.3418 4.76271 17.3515 4.8632 17.371 4.962C17.4387 5.23633 17.5473 5.49892 17.693 5.741C17.904 6.111 18.157 6.479 18.349 6.855C18.5435 7.19538 18.6539 7.57732 18.671 7.969C18.6711 8.0697 18.6614 8.17017 18.642 8.269C18.5066 8.83254 18.2275 9.35139 17.832 9.775C17.6908 9.93672 17.5395 10.0894 17.379 10.232C17.319 10.284 17.271 10.324 17.238 10.351L17.201 10.378L17.192 10.386L17.692 11.058C17.9714 10.8395 18.2293 10.5947 18.462 10.327C18.9548 9.79132 19.2994 9.13647 19.462 8.427C19.4905 8.27431 19.5049 8.11933 19.505 7.964C19.4659 7.27887 19.242 6.61711 18.857 6.049C18.699 5.783 18.541 5.539 18.42 5.324C18.3172 5.15709 18.2391 4.97623 18.188 4.787L18.176 4.658C18.1871 4.44088 18.2337 4.22705 18.314 4.025C18.4527 3.65866 18.6247 3.30584 18.828 2.971C18.913 2.824 18.993 2.699 19.05 2.614L19.116 2.514L19.139 2.483L18.454 2" fill="#0DADB9"/>
</svg>
