<svg width="24" height="24" viewBox="0 0 24 24" fill="none" xmlns="http://www.w3.org/2000/svg">
<path d="M8.36364 12H15.6364M7.81818 7.45453H5.27273C5.12806 7.45453 4.98933 7.512 4.88703 7.61429C4.78474 7.71658 4.72727 7.85532 4.72727 7.99998V16C4.72727 16.0716 4.74138 16.1425 4.76879 16.2087C4.7962 16.2749 4.83638 16.335 4.88703 16.3857C4.93768 16.4363 4.99781 16.4765 5.06399 16.5039C5.13017 16.5313 5.2011 16.5454 5.27273 16.5454H7.81818C7.88981 16.5454 7.96074 16.5313 8.02692 16.5039C8.0931 16.4765 8.15323 16.4363 8.20388 16.3857C8.25453 16.335 8.2947 16.2749 8.32212 16.2087C8.34953 16.1425 8.36364 16.0716 8.36364 16V7.99998C8.36364 7.85532 8.30617 7.71658 8.20388 7.61429C8.10158 7.512 7.96285 7.45453 7.81818 7.45453ZM18.7273 7.45453H16.1818C16.0372 7.45453 15.8984 7.512 15.7961 7.61429C15.6938 7.71658 15.6364 7.85532 15.6364 7.99998V16C15.6364 16.0716 15.6505 16.1425 15.6779 16.2087C15.7053 16.2749 15.7455 16.335 15.7961 16.3857C15.8468 16.4363 15.9069 16.4765 15.9731 16.5039C16.0393 16.5313 16.1102 16.5454 16.1818 16.5454H18.7273C18.7989 16.5454 18.8698 16.5313 18.936 16.5039C19.0022 16.4765 19.0623 16.4363 19.113 16.3857C19.1636 16.335 19.2038 16.2749 19.2312 16.2087C19.2586 16.1425 19.2727 16.0716 19.2727 16V7.99998C19.2727 7.85532 19.2153 7.71658 19.113 7.61429C19.0107 7.512 18.8719 7.45453 18.7273 7.45453ZM2 14.1818V9.81817C2 9.6735 2.05747 9.53476 2.15976 9.43247C2.26205 9.33018 2.40079 9.27271 2.54545 9.27271H4.18182C4.32648 9.27271 4.46522 9.33018 4.56751 9.43247C4.66981 9.53476 4.72727 9.6735 4.72727 9.81817V14.1818C4.72727 14.3265 4.66981 14.4652 4.56751 14.5675C4.46522 14.6698 4.32648 14.7273 4.18182 14.7273H2.54545C2.40079 14.7273 2.26205 14.6698 2.15976 14.5675C2.05747 14.4652 2 14.3265 2 14.1818ZM22 14.1818V9.81817C22 9.6735 21.9425 9.53476 21.8402 9.43247C21.7379 9.33018 21.5992 9.27271 21.4545 9.27271H19.8182C19.6735 9.27271 19.5348 9.33018 19.4325 9.43247C19.3302 9.53476 19.2727 9.6735 19.2727 9.81817V14.1818C19.2727 14.3265 19.3302 14.4652 19.4325 14.5675C19.5348 14.6698 19.6735 14.7273 19.8182 14.7273H21.4545C21.5992 14.7273 21.7379 14.6698 21.8402 14.5675C21.9425 14.4652 22 14.3265 22 14.1818Z" stroke="#0DADB9" stroke-width="1.7" stroke-linecap="round" stroke-linejoin="round"/>
</svg>
