<svg width="24" height="24" viewBox="0 0 24 24" fill="none" xmlns="http://www.w3.org/2000/svg">
<path d="M16.38 15.51H19.91C20.1683 15.5177 20.4135 15.6251 20.5943 15.8097C20.7752 15.9943 20.8775 16.2416 20.88 16.5V20C20.88 20.2652 20.7746 20.5196 20.5871 20.7071C20.3996 20.8946 20.1452 21 19.88 21C19.6148 21 19.3604 20.8946 19.1729 20.7071C18.9854 20.5196 18.88 20.2652 18.88 20V19.23C17.4628 20.5735 15.6833 21.4727 13.761 21.8166C11.8387 22.1605 9.85782 21.9341 8.06274 21.1652C6.26767 20.3964 4.73699 19.1187 3.6596 17.49C2.58222 15.8613 2.00529 13.9528 2 12C2 11.7348 2.10536 11.4804 2.29289 11.2929C2.48043 11.1054 2.73478 11 3 11C3.26522 11 3.51957 11.1054 3.70711 11.2929C3.89464 11.4804 4 11.7348 4 12C4.00418 13.5955 4.48531 15.1532 5.38159 16.4732C6.27787 17.7931 7.54834 18.8149 9.02978 19.4072C10.5112 19.9996 12.1359 20.1355 13.6952 19.7974C15.2544 19.4593 16.6769 18.6627 17.78 17.51H16.38C16.1148 17.51 15.8604 17.4046 15.6729 17.2171C15.4854 17.0296 15.38 16.7752 15.38 16.51C15.38 16.2448 15.4854 15.9904 15.6729 15.8029C15.8604 15.6154 16.1148 15.51 16.38 15.51Z" fill="#0DADB9"/>
<path d="M5.12 4.77C6.97349 2.99891 9.43639 2.00731 12 2C13.3132 2 14.6136 2.25866 15.8268 2.7612C17.0401 3.26375 18.1425 4.00035 19.0711 4.92893C19.9997 5.85752 20.7362 6.95991 21.2388 8.17317C21.7413 9.38642 22 10.6868 22 12C22 12.2652 21.8946 12.5196 21.7071 12.7071C21.5196 12.8946 21.2652 13 21 13C20.7348 13 20.4804 12.8946 20.2929 12.7071C20.1054 12.5196 20 12.2652 20 12C19.9938 10.4054 19.5113 8.849 18.6142 7.5306C17.7172 6.21221 16.4466 5.19198 14.9656 4.60086C13.4846 4.00975 11.8607 3.87472 10.3024 4.21311C8.74409 4.5515 7.32247 5.34787 6.22 6.5H7.62C7.88522 6.5 8.13957 6.60536 8.32711 6.79289C8.51464 6.98043 8.62 7.23478 8.62 7.5C8.62 7.76522 8.51464 8.01957 8.32711 8.20711C8.13957 8.39464 7.88522 8.5 7.62 8.5H4.12C3.85478 8.5 3.60043 8.39464 3.41289 8.20711C3.22536 8.01957 3.12 7.76522 3.12 7.5V4C3.12 3.73478 3.22536 3.48043 3.41289 3.29289C3.60043 3.10536 3.85478 3 4.12 3C4.38522 3 4.63957 3.10536 4.82711 3.29289C5.01464 3.48043 5.12 3.73478 5.12 4V4.77Z" fill="#0DADB9"/>
<path d="M16.4065 8.07691C16.5284 8.12768 16.639 8.20207 16.7319 8.2958C16.8334 8.38944 16.9144 8.50309 16.9698 8.62959C17.0252 8.75609 17.0539 8.8927 17.0539 9.0308C17.0539 9.1689 17.0252 9.30551 16.9698 9.432C16.9144 9.5585 16.8334 9.67216 16.7319 9.7658L10.5719 15.9258C10.479 16.0195 10.3684 16.0939 10.2465 16.1447C10.1246 16.1955 9.99393 16.2216 9.86192 16.2216C9.72991 16.2216 9.5992 16.1955 9.47735 16.1447C9.35549 16.0939 9.24489 16.0195 9.15192 15.9258L6.76649 13.5404C6.66996 13.4471 6.59275 13.3358 6.53926 13.2127C6.48577 13.0896 6.45704 12.9572 6.45472 12.823C6.45239 12.6889 6.47653 12.5555 6.52573 12.4307C6.57493 12.3058 6.64825 12.1919 6.74149 12.0954C6.83472 11.9988 6.94606 11.9216 7.06914 11.8681C7.19222 11.8146 7.32463 11.7859 7.45881 11.7836C7.59299 11.7813 7.72631 11.8054 7.85117 11.8546C7.97602 11.9038 8.08996 11.9771 8.18649 12.0704L9.86192 13.7558L15.3119 8.2958C15.4049 8.20207 15.5155 8.12768 15.6373 8.07691C15.7592 8.02614 15.8899 8 16.0219 8C16.1539 8 16.2846 8.02614 16.4065 8.07691Z" fill="#0DADB9"/>
</svg>
