<svg width="24" height="24" viewBox="0 0 24 24" fill="none" xmlns="http://www.w3.org/2000/svg">
<path d="M18.1667 4H6.5C5.83696 4 5.20107 4.26339 4.73223 4.73223C4.26339 5.20107 4 5.83696 4 6.5V14.8333C4 15.4964 4.26339 16.1323 4.73223 16.6011C5.20107 17.0699 5.83696 17.3333 6.5 17.3333H8.7L8.21667 18.1667C8.07039 18.42 7.99338 18.7074 7.99338 19C7.99338 19.2926 8.07039 19.58 8.21667 19.8333C8.36421 20.0889 8.57696 20.3007 8.83318 20.4471C9.08941 20.5936 9.37991 20.6693 9.675 20.6667H15.0583C15.3506 20.6664 15.6377 20.5892 15.8907 20.4429C16.1437 20.2967 16.3539 20.0864 16.5 19.8333C16.6463 19.58 16.7233 19.2926 16.7233 19C16.7233 18.7074 16.6463 18.42 16.5 18.1667L16.0083 17.3333H18.1667C18.8297 17.3333 19.4656 17.0699 19.9344 16.6011C20.4033 16.1323 20.6667 15.4964 20.6667 14.8333V6.5C20.6667 5.83696 20.4033 5.20107 19.9344 4.73223C19.4656 4.26339 18.8297 4 18.1667 4ZM9.64167 19L10.6667 17.3333H14L15 19H9.64167ZM19 14.8333C19 15.0543 18.9122 15.2663 18.7559 15.4226C18.5996 15.5789 18.3877 15.6667 18.1667 15.6667H6.5C6.27899 15.6667 6.06702 15.5789 5.91074 15.4226C5.75446 15.2663 5.66667 15.0543 5.66667 14.8333V14H19V14.8333ZM19 12.3333H5.66667V6.5C5.66667 6.27899 5.75446 6.06702 5.91074 5.91074C6.06702 5.75446 6.27899 5.66667 6.5 5.66667H18.1667C18.3877 5.66667 18.5996 5.75446 18.7559 5.91074C18.9122 6.06702 19 6.27899 19 6.5V12.3333Z" fill="#0DADB9"/>
</svg>
