<svg width="24" height="24" viewBox="0 0 24 24" fill="none" xmlns="http://www.w3.org/2000/svg">
<path fill-rule="evenodd" clip-rule="evenodd" d="M16.1912 9.44822C16.1912 11.6922 14.4634 13.3811 12.4896 13.3811C10.5157 13.3811 8.78801 11.6922 8.78801 9.44822C8.78801 7.69524 7.91586 5.8372 7.06299 4.41081C7.03828 4.36948 7.01318 4.30082 7.01242 4.1961C7.01165 4.08752 7.0382 3.96656 7.09015 3.85852C7.14245 3.74974 7.20115 3.69299 7.2302 3.67212C7.23556 3.66827 7.23951 3.66589 7.24203 3.66451H9.71335V5.97799C9.71335 6.48907 10.1277 6.90339 10.6387 6.90339C11.1498 6.90339 11.5641 6.48907 11.5641 5.97799V3.66451H13.4149V5.97799C13.4149 6.48907 13.8292 6.90339 14.3403 6.90339C14.8514 6.90339 15.2657 6.48907 15.2657 5.97799V3.66451H17.6289L17.6342 3.66466C17.6396 3.6685 17.6549 3.68102 17.6716 3.70851C17.7147 3.7797 17.7144 3.85394 17.6902 3.90856C16.9976 5.46939 16.1912 7.62435 16.1912 9.44822ZM13.4149 15.152C16.0409 14.6931 18.0419 12.3141 18.0419 9.44822C18.0419 8.05106 18.6928 6.21226 19.3819 4.65923C19.9583 3.36029 19.05 1.81372 17.6289 1.81372H7.24114C5.59227 1.81372 4.62832 3.94541 5.4745 5.36061C6.29532 6.73339 6.93722 8.22453 6.93722 9.44822C6.93722 12.314 8.93816 14.693 11.5641 15.152V21.0746C11.5641 21.5857 11.9784 22 12.4895 22C13.0006 22 13.4149 21.5857 13.4149 21.0746V15.152Z" fill="#0DADB9"/>
</svg>
