<svg width="24" height="24" viewBox="0 0 24 24" fill="none" xmlns="http://www.w3.org/2000/svg">
<path d="M11.2 21.325C10.0333 21.1083 8.9 20.7333 7.8 20.2C6.7 19.6667 5.721 18.925 4.863 17.975C4.00433 17.025 3.31267 15.85 2.788 14.45C2.26333 13.05 2.00067 11.3833 2 9.45V9.25C2 9.01667 2.075 8.825 2.225 8.675C2.375 8.525 2.56667 8.45 2.8 8.45H3C3.85 8.45 4.725 8.55833 5.625 8.775C6.525 8.99167 7.36667 9.31667 8.15 9.75C8.33333 8.51667 8.7 7.25 9.25 5.95C9.8 4.65 10.4583 3.475 11.225 2.425C11.425 2.14167 11.6833 2 12 2C12.3167 2 12.575 2.14167 12.775 2.425C13.5417 3.475 14.2 4.65 14.75 5.95C15.3 7.25 15.6667 8.51667 15.85 9.75C16.6333 9.31667 17.475 8.99167 18.375 8.775C19.275 8.55833 20.15 8.45 21 8.45H21.1C21.35 8.45 21.5627 8.53767 21.738 8.713C21.9133 8.88833 22.0007 9.10067 22 9.35V9.45C22 11.3833 21.7373 13.05 21.212 14.45C20.6867 15.85 19.995 17.025 19.137 17.975C18.279 18.925 17.3 19.6667 16.2 20.2C15.1 20.7333 13.9667 21.1083 12.8 21.325C12.5833 21.3583 12.3167 21.375 12 21.375C11.6833 21.375 11.4167 21.3583 11.2 21.325ZM11.95 19.4C11.7667 16.65 10.9377 14.5623 9.463 13.137C7.98833 11.7117 6.184 10.8327 4.05 10.5C4.01667 10.5 4.01667 10.5 4.05 10.5C4.23333 13.3167 5.08767 15.4333 6.613 16.85C8.13833 18.2667 9.91733 19.1167 11.95 19.4C11.9833 19.4167 11.9833 19.421 11.95 19.413C11.9167 19.405 11.9167 19.4007 11.95 19.4ZM10.05 10.9C10.3833 11.1833 10.7333 11.5207 11.1 11.912C11.4667 12.3033 11.7667 12.6827 12 13.05C12.25 12.6833 12.5543 12.304 12.913 11.912C13.2717 11.52 13.6173 11.1827 13.95 10.9C13.9167 9.95 13.7293 8.95833 13.388 7.925C13.0467 6.89167 12.584 5.88333 12 4.9C11.4167 5.88333 10.954 6.89167 10.612 7.925C10.27 8.95833 10.0827 9.95 10.05 10.9ZM13.1 15.15C13.3 15.6833 13.471 16.2667 13.613 16.9C13.755 17.5333 13.8673 18.2167 13.95 18.95C14.55 18.75 15.1833 18.45 15.85 18.05C16.5167 17.65 17.1333 17.1167 17.7 16.45C18.2667 15.7833 18.7583 14.9623 19.175 13.987C19.5917 13.0117 19.85 11.8493 19.95 10.5C19.95 10.4667 19.95 10.4667 19.95 10.5C18.3833 10.7333 17.0083 11.2543 15.825 12.063C14.6417 12.8717 13.7333 13.9007 13.1 15.15Z" fill="#0DADB9"/>
</svg>
