<svg width="24" height="24" viewBox="0 0 24 24" fill="none" xmlns="http://www.w3.org/2000/svg">
<path d="M12.8169 12.18C12.9514 12.1277 13.0612 12.0265 13.1241 11.8966C13.187 11.7667 13.1984 11.6178 13.1559 11.4798V11.4584C12.9807 11.0122 12.8874 10.5381 12.8804 10.0588C12.9274 9.58522 13.0643 9.12496 13.2837 8.70268C13.39 8.44788 13.5171 8.17238 13.6227 7.89688C13.7644 7.55223 13.8505 7.18724 13.8775 6.81557C13.8972 6.44023 13.8394 6.06487 13.7076 5.71285C13.6427 5.54451 13.5647 5.38151 13.4743 5.22537C13.3754 5.06 13.2619 4.90379 13.1352 4.75859C13.0566 4.67704 12.9536 4.62318 12.8418 4.60508C12.73 4.58699 12.6153 4.60563 12.515 4.65821C12.4146 4.71079 12.334 4.79449 12.2853 4.89674C12.2365 4.999 12.2222 5.1143 12.2445 5.22537L12.2866 5.43949C12.3205 5.53676 12.3489 5.6359 12.3715 5.73641C12.4029 5.84023 12.4241 5.94683 12.4351 6.05473C12.4597 6.26659 12.4525 6.48095 12.4136 6.69067C12.3678 6.90376 12.2959 7.11039 12.1995 7.3059L11.8391 8.11171C11.7045 8.41219 11.5979 8.72447 11.5208 9.04456C11.4286 9.39712 11.3999 9.76324 11.4358 10.1259C11.503 10.8326 11.7926 11.4998 12.263 12.0315C12.3267 12.1131 12.4152 12.1717 12.5151 12.1985C12.6151 12.2253 12.721 12.2188 12.8169 12.18Z" fill="#0DADB9"/>
<path d="M17.0823 5.20253C16.9834 5.03715 16.87 4.88094 16.7433 4.73575C16.682 4.67069 16.6048 4.62277 16.5193 4.59674C16.4338 4.5707 16.343 4.56744 16.2558 4.58729C16.1214 4.61663 16.0039 4.6975 15.9285 4.81254C15.8531 4.92758 15.8258 5.0676 15.8525 5.20253L15.8947 5.41665C15.9286 5.51392 15.957 5.61305 15.9796 5.71356C16.0129 5.82396 16.0342 5.93763 16.0431 6.05258C16.0678 6.26444 16.0605 6.4788 16.0217 6.68852C15.9759 6.90162 15.904 7.10825 15.8076 7.30376L15.4471 8.10956C15.3125 8.41004 15.206 8.72232 15.1288 9.04241C15.0367 9.39497 15.0079 9.7611 15.0439 10.1237C15.1002 10.8336 15.3904 11.5049 15.869 12.0322C15.9505 12.1312 16.0644 12.1982 16.1905 12.2215C16.3166 12.2448 16.4469 12.2228 16.5584 12.1594C16.6699 12.096 16.7554 11.9953 16.8 11.875C16.8445 11.7548 16.8452 11.6226 16.8018 11.5019L16.7804 11.4805C16.6052 11.0343 16.5118 10.5602 16.5049 10.0809C16.5519 9.60734 16.6887 9.14708 16.9082 8.7248C17.0145 8.47 17.1416 8.1945 17.2472 7.919C17.3889 7.57435 17.4749 7.20936 17.502 6.83769C17.5216 6.46236 17.4638 6.08699 17.3321 5.73497C17.2618 5.55171 17.1783 5.37377 17.0823 5.20253Z" fill="#0DADB9"/>
<path d="M20.9607 5.70998C20.8958 5.54163 20.8177 5.37864 20.7273 5.2225C20.6284 5.05713 20.5149 4.90091 20.3883 4.75572C20.3096 4.67417 20.2067 4.62031 20.0948 4.60221C19.983 4.58411 19.8683 4.60275 19.768 4.65534C19.6676 4.70792 19.5871 4.79161 19.5383 4.89387C19.4895 4.99612 19.4752 5.11143 19.4975 5.2225L19.5396 5.43662C19.5736 5.53389 19.6019 5.63302 19.6246 5.73353L19.6881 6.05186C19.7127 6.26372 19.7055 6.47807 19.6667 6.68779C19.6208 6.90088 19.5489 7.10752 19.4526 7.30303L19.0921 8.10883C18.9575 8.40932 18.8509 8.72159 18.7738 9.04168C18.6817 9.39425 18.6529 9.76037 18.6889 10.123C18.7458 10.8332 19.0367 11.5044 19.5161 12.0315C19.5976 12.1305 19.7115 12.1975 19.8376 12.2208C19.9637 12.244 20.094 12.222 20.2055 12.1587C20.317 12.0953 20.4026 11.9946 20.4471 11.8743C20.4916 11.754 20.4923 11.6219 20.4489 11.5012V11.4798C20.2737 11.0336 20.1804 10.5595 20.1734 10.0802C20.2221 9.60961 20.3513 9.15091 20.5553 8.72407C20.6616 8.46927 20.7887 8.19377 20.8943 7.91827C21.0388 7.57552 21.1179 7.20879 21.1277 6.83696C21.1292 6.45502 21.0729 6.07505 20.9607 5.70998Z" fill="#0DADB9"/>
<path d="M6.62385 7.17456C8.05277 7.17456 9.21113 6.0162 9.21113 4.58728C9.21113 3.15837 8.05277 2 6.62385 2C5.19494 2 4.03657 3.15837 4.03657 4.58728C4.03657 6.0162 5.19494 7.17456 6.62385 7.17456Z" fill="#0DADB9"/>
<path d="M13.7505 15.2348C13.6565 14.9379 13.47 14.6788 13.2181 14.4957C12.9662 14.3125 12.6623 14.2149 12.3508 14.217H9.31748L9.06268 10.1452C9.06213 10.036 9.04057 9.92789 8.99916 9.82684C8.85544 9.35166 8.57626 8.9287 8.19581 8.60977C7.81536 8.29084 7.35016 8.08979 6.85718 8.03124C6.3642 7.97268 5.86485 8.05917 5.42028 8.2801C4.97571 8.50104 4.60522 8.84683 4.35418 9.27512C4.17792 9.56845 4.06429 9.89509 4.02044 10.2345C3.97659 10.5739 4.00347 10.9187 4.09938 11.2472L4.69321 15.8921C4.73593 16.2497 4.9086 16.5792 5.17837 16.8178C5.44815 17.0564 5.79622 17.1875 6.15636 17.1861H11.2888L12.5428 20.9818C12.6423 21.2753 12.8303 21.5308 13.0809 21.7131C13.3316 21.8953 13.6326 21.9954 13.9425 21.9996C14.1021 22.0024 14.2608 21.9735 14.4093 21.9146C14.7798 21.7898 15.0859 21.5233 15.2606 21.1734C15.4352 20.8235 15.4643 20.4187 15.3414 20.0475L13.7505 15.2348Z" fill="#0DADB9"/>
</svg>
