<svg width="24" height="24" viewBox="0 0 24 24" fill="none" xmlns="http://www.w3.org/2000/svg">
<path d="M11.3713 2.46964L11.3713 2.46992L12.157 7.18421L12.1572 7.18542C12.1634 7.22446 12.1665 7.26392 12.1667 7.30344L12.1667 7.30412C12.1652 8.43151 11.7546 9.52005 11.0112 10.3676C10.293 11.1863 9.31142 11.7263 8.23809 11.8958V20.6611C8.23809 20.8521 8.16221 21.0353 8.02714 21.1704C7.89207 21.3054 7.70887 21.3813 7.51785 21.3813C7.32684 21.3813 7.14364 21.3054 7.00857 21.1704C6.8735 21.0353 6.79762 20.8521 6.79762 20.6611V11.8958C5.72429 11.7263 4.74268 11.1863 4.02453 10.3676C3.28109 9.52005 2.87051 8.43151 2.86905 7.30412L2.86905 7.30344C2.8692 7.26392 2.87236 7.22446 2.87849 7.18542L2.87868 7.18421L2.87869 7.18421L3.6644 2.46992L3.66445 2.46964C3.69628 2.28119 3.80167 2.11311 3.95743 2.00236C4.1132 1.89162 4.30657 1.84728 4.49502 1.87912C4.68347 1.91095 4.85156 2.01634 4.96231 2.1721C5.07302 2.32782 5.11736 2.52112 5.08558 2.70952L5.08559 2.70943L4.95643 2.68788L5.08555 2.70969L4.30954 7.36183C4.31237 8.20886 4.65007 9.02058 5.24922 9.61972C5.8509 10.2214 6.66695 10.5594 7.51785 10.5594C8.36876 10.5594 9.18481 10.2214 9.78649 9.61972C10.3856 9.02058 10.7233 8.20886 10.7262 7.36183L9.95016 2.70969L9.95011 2.70943L10.0793 2.68788L11.3713 2.46964ZM11.3713 2.46964C11.3555 2.37633 11.3215 2.28704 11.2712 2.20686L11.1603 2.27643M11.3713 2.46964L11.1603 2.27643M11.1603 2.27643L11.2712 2.20686C11.221 2.12669 11.1554 2.0572 11.0783 2.00236C11.0783 2.00236 11.0783 2.00236 11.0783 2.00236L11.1603 2.27643ZM20.8095 2.58967V2.58953C20.8094 2.47044 20.7797 2.35325 20.7232 2.24844C20.6667 2.14362 20.5851 2.05446 20.4856 1.98892C20.3862 1.92339 20.2721 1.88354 20.1535 1.87292C20.0349 1.86231 19.9155 1.88127 19.806 1.92811L19.8059 1.92814C16.8506 3.19426 15.3727 6.41918 14.6303 9.34045C13.8858 12.2698 13.869 14.9402 13.869 15.1611C13.869 15.3521 13.9449 15.5353 14.08 15.6704C14.2151 15.8054 14.3983 15.8813 14.5893 15.8813H19.369V20.6611C19.369 20.8521 19.4449 21.0353 19.58 21.1704C19.7151 21.3054 19.8983 21.3813 20.0893 21.3813C20.2803 21.3813 20.4635 21.3054 20.5986 21.1704C20.7336 21.0353 20.8095 20.8521 20.8095 20.6611V2.58967ZM6.79762 2.58967V7.30395C6.79762 7.49497 6.8735 7.67816 7.00857 7.81323C7.14364 7.9483 7.32683 8.02419 7.51785 8.02419C7.70887 8.02419 7.89207 7.9483 8.02714 7.81323C8.16221 7.67816 8.23809 7.49497 8.23809 7.30395V2.58967C8.23809 2.39865 8.16221 2.21545 8.02714 2.08038C7.89207 1.94531 7.70887 1.86943 7.51785 1.86943C7.32683 1.86943 7.14364 1.94531 7.00857 2.08038C6.8735 2.21545 6.79762 2.39865 6.79762 2.58967ZM19.369 14.4408H15.3351C15.3922 13.3885 15.5745 11.3372 16.1562 9.24575C16.7421 7.13939 17.7259 5.01892 19.369 3.82204V14.4408Z" fill="#0DADB9" stroke="#0DADB9" stroke-width="0.261905"/>
</svg>
