<svg width="24" height="24" viewBox="0 0 24 24" fill="none" xmlns="http://www.w3.org/2000/svg">
<path d="M19 16C18.4067 16 17.8267 16.1759 17.3333 16.5056C16.84 16.8352 16.4555 17.3038 16.2284 17.8519C16.0013 18.4001 15.9419 19.0033 16.0577 19.5853C16.1734 20.1672 16.4592 20.7017 16.8787 21.1213C17.2983 21.5409 17.8328 21.8266 18.4148 21.9423C18.9967 22.0581 19.5999 21.9987 20.1481 21.7716C20.6963 21.5446 21.1648 21.16 21.4944 20.6667C21.8241 20.1733 22 19.5933 22 19C22 18.2043 21.684 17.4413 21.1214 16.8787C20.5587 16.3161 19.7957 16 19 16ZM19 20C18.8022 20 18.6089 19.9413 18.4445 19.8315C18.28 19.7216 18.1518 19.5654 18.0762 19.3827C18.0005 19.1999 17.9807 18.9989 18.0192 18.8049C18.0578 18.6109 18.1531 18.4327 18.2929 18.2929C18.4328 18.153 18.611 18.0578 18.8049 18.0192C18.9989 17.9806 19.2 18.0004 19.3827 18.0761C19.5654 18.1518 19.7216 18.28 19.8315 18.4444C19.9414 18.6089 20 18.8022 20 19C20 19.2652 19.8947 19.5196 19.7071 19.7071C19.5196 19.8946 19.2652 20 19 20ZM9.00003 16C8.40669 16 7.82667 16.1759 7.33332 16.5056C6.83997 16.8352 6.45545 17.3038 6.22839 17.8519C6.00133 18.4001 5.94192 19.0033 6.05767 19.5853C6.17343 20.1672 6.45915 20.7017 6.87871 21.1213C7.29827 21.5409 7.83282 21.8266 8.41476 21.9423C8.9967 22.0581 9.5999 21.9987 10.1481 21.7716C10.6963 21.5446 11.1648 21.16 11.4944 20.6667C11.8241 20.1733 12 19.5933 12 19C12 18.2043 11.684 17.4413 11.1214 16.8787C10.5587 16.3161 9.79568 16 9.00003 16ZM9.00003 20C8.80225 20 8.60891 19.9413 8.44446 19.8315C8.28001 19.7216 8.15184 19.5654 8.07615 19.3827C8.00046 19.1999 7.98066 18.9989 8.01925 18.8049C8.05783 18.6109 8.15307 18.4327 8.29292 18.2929C8.43278 18.153 8.61096 18.0578 8.80494 18.0192C8.99892 17.9806 9.19999 18.0004 9.38271 18.0761C9.56544 18.1518 9.72162 18.28 9.8315 18.4444C9.94138 18.6089 10 18.8022 10 19C10 19.2652 9.89467 19.5196 9.70714 19.7071C9.5196 19.8946 9.26525 20 9.00003 20ZM22 8.49999C21.9974 6.77689 21.3117 5.12513 20.0933 3.90671C18.8749 2.6883 17.2231 2.00263 15.5 1.99998H15C14.7348 1.99998 14.4805 2.10534 14.2929 2.29288C14.1054 2.48041 14 2.73477 14 2.99998V7.99999H7.52003L6.27003 4.64999C6.19852 4.45858 6.07009 4.29368 5.90203 4.17747C5.73398 4.06126 5.53435 3.99932 5.33003 3.99998H3.00003C2.73481 3.99998 2.48046 4.10534 2.29292 4.29288C2.10539 4.48041 2.00003 4.73477 2.00003 4.99999C2.00003 5.2652 2.10539 5.51956 2.29292 5.70709C2.48046 5.89463 2.73481 5.99999 3.00003 5.99999H4.64003L5.89003 9.36999L6.40003 10.74V10.83C6.8659 12.0671 7.70118 13.1309 8.79248 13.8769C9.88377 14.6229 11.1782 15.015 12.5 15H15.5C16.354 15.0013 17.1998 14.8341 17.989 14.5079C18.7782 14.1817 19.4953 13.703 20.0992 13.0991C20.703 12.4953 21.1817 11.7782 21.5079 10.989C21.8341 10.1998 22.0013 9.35395 22 8.49999ZM18.68 11.68C18.2636 12.0993 17.7681 12.4319 17.2222 12.6584C16.6764 12.885 16.091 13.0011 15.5 13H12.5C11.6061 13.0027 10.732 12.7374 9.99042 12.2383C9.24886 11.7391 8.67398 11.0291 8.34003 10.2C8.33569 10.1802 8.33569 10.1598 8.34003 10.14L8.26003 9.99999H19.74C19.522 10.6347 19.1591 11.2099 18.68 11.68ZM16 7.99999V3.99998C17.0244 4.10683 17.9809 4.56258 18.7092 5.29085C19.4374 6.01912 19.8932 6.97562 20 7.99999H16Z" fill="#0DADB9"/>
</svg>
