<svg width="24" height="24" viewBox="0 0 24 24" fill="none" xmlns="http://www.w3.org/2000/svg">
<path d="M3.60468 16.9282L3.24533 16.0589L3.60468 16.9282ZM4.83942 20.0025L4.49759 19.1261H4.49759L4.83942 20.0025ZM2.70721 19.0935L1.83821 19.4537L2.70721 19.0935ZM9.45444 14.8341C9.25549 14.3542 8.70515 14.1264 8.22521 14.3254C7.74527 14.5243 7.51749 15.0747 7.71644 15.5546L9.45444 14.8341ZM8.61367 17.719C8.81262 18.1989 9.36297 18.4267 9.8429 18.2278C10.3228 18.0288 10.5506 17.4785 10.3517 16.9985L8.61367 17.719ZM19.8022 11.0713C19.6033 10.5914 19.0529 10.3636 18.573 10.5625C18.0931 10.7615 17.8653 11.3118 18.0642 11.7918L19.8022 11.0713ZM18.9614 13.9562C19.1604 14.4361 19.7107 14.6639 20.1907 14.4649C20.6706 14.266 20.8984 13.7156 20.6994 13.2357L18.9614 13.9562ZM13.5707 5.81745C13.669 5.30731 13.3352 4.81401 12.8251 4.71563C12.315 4.61725 11.8217 4.95105 11.7233 5.46119L13.5707 5.81745ZM13.747 7.61197L13.5098 8.52228L13.747 7.61197ZM14.2964 9.06305C14.3205 9.58203 14.7607 9.98323 15.2797 9.95916C15.7987 9.93509 16.1999 9.49486 16.1758 8.97588L14.2964 9.06305ZM16.3982 3.59371C16.4349 3.07547 16.0445 2.62561 15.5263 2.58892C15.008 2.55224 14.5582 2.94262 14.5215 3.46086L16.3982 3.59371ZM16.6611 6.28642C17.1759 6.3564 17.65 5.9958 17.72 5.48099C17.7899 4.96619 17.4293 4.49213 16.9145 4.42215L16.6611 6.28642ZM5.5595 6.42307C5.19213 6.0557 4.59651 6.0557 4.22914 6.42307C3.86177 6.79043 3.86177 7.38606 4.22914 7.75343L5.5595 6.42307ZM17.399 20.9233C17.7664 21.2907 18.362 21.2907 18.7294 20.9233C19.0968 20.556 19.0968 19.9603 18.7294 19.593L17.399 20.9233ZM14.4163 11.3912C13.9353 11.5875 13.7045 12.1366 13.9008 12.6176C14.0971 13.0986 14.6462 13.3294 15.1272 13.1331L14.4163 11.3912ZM18.7495 10.6386L19.105 11.5096L18.7495 10.6386ZM19.9706 13.6676L19.6227 12.7936L19.9706 13.6676ZM17.2459 13.7399C16.7632 13.932 16.5277 14.4791 16.7199 14.9618C16.912 15.4445 17.4591 15.68 17.9418 15.4879L17.2459 13.7399ZM20.8751 11.5252L21.7441 11.1649L20.8751 11.5252ZM3.96403 17.7976L11.8387 14.5426L11.12 12.8039L3.24533 16.0589L3.96403 17.7976ZM13.4892 15.619L4.49759 19.1261L5.18126 20.8789L14.1729 17.3718L13.4892 15.619ZM1.83821 19.4537C2.37933 20.7591 3.86477 21.3923 5.18126 20.8789L4.49759 19.1261C4.13476 19.2676 3.72535 19.0931 3.57621 18.7333L1.83821 19.4537ZM3.57621 18.7333C3.42471 18.3678 3.59841 17.9487 3.96403 17.7976L3.24533 16.0589C1.91874 16.6072 1.28852 18.1277 1.83821 19.4537L3.57621 18.7333ZM7.71644 15.5546L8.61367 17.719L10.3517 16.9985L9.45444 14.8341L7.71644 15.5546ZM18.0642 11.7918L18.9614 13.9562L20.6994 13.2357L19.8022 11.0713L18.0642 11.7918ZM11.7233 5.46119C11.6489 5.84683 11.6078 6.45244 11.8299 7.05337C12.0734 7.71219 12.6095 8.28766 13.5098 8.52228L13.9842 6.70167C13.8228 6.65961 13.7413 6.60278 13.6988 6.56366C13.6553 6.5235 13.621 6.47234 13.5946 6.40108C13.5341 6.2373 13.5334 6.01047 13.5707 5.81745L11.7233 5.46119ZM13.5098 8.52228C14.2822 8.72359 14.2995 9.12939 14.2964 9.06305L16.1758 8.97588C16.1365 8.129 15.4632 7.08711 13.9842 6.70167L13.5098 8.52228ZM14.5215 3.46086C14.4938 3.85262 14.5253 4.4588 14.8177 5.02887C15.1382 5.65385 15.7392 6.16111 16.6611 6.28642L16.9145 4.42215C16.7492 4.39968 16.6615 4.35302 16.6147 4.31924C16.5666 4.28458 16.5264 4.23789 16.4918 4.1703C16.4121 4.01492 16.3843 3.7898 16.3982 3.59371L14.5215 3.46086ZM4.22914 7.75343L17.399 20.9233L18.7294 19.593L5.5595 6.42307L4.22914 7.75343ZM15.1272 13.1331L19.105 11.5096L18.3941 9.76766L14.4163 11.3912L15.1272 13.1331ZM19.6227 12.7936L17.2459 13.7399L17.9418 15.4879L20.3186 14.5416L19.6227 12.7936ZM20.0061 11.8854C20.154 12.2421 19.9814 12.6508 19.6227 12.7936L20.3186 14.5416C21.6523 14.0106 22.2938 12.4911 21.7441 11.1649L20.0061 11.8854ZM21.7441 11.1649C21.2019 9.85696 19.705 9.23261 18.3941 9.76766L19.105 11.5096C19.4576 11.3657 19.8602 11.5336 20.0061 11.8854L21.7441 11.1649Z" fill="#0DADB9"/>
</svg>
