<svg width="24" height="24" viewBox="0 0 24 24" fill="none" xmlns="http://www.w3.org/2000/svg">
<path d="M12.0001 14.7505C11.456 14.7505 10.9242 14.9119 10.4718 15.2141C10.0195 15.5164 9.66689 15.946 9.45869 16.4486C9.25049 16.9513 9.19601 17.5044 9.30215 18.038C9.40829 18.5716 9.67028 19.0617 10.055 19.4464C10.4397 19.8311 10.9298 20.0931 11.4634 20.1993C11.997 20.3054 12.5501 20.2509 13.0528 20.0427C13.5554 19.8345 13.985 19.482 14.2873 19.0296C14.5896 18.5772 14.7509 18.0454 14.7509 17.5013C14.7509 16.7718 14.4611 16.0721 13.9452 15.5562C13.4293 15.0403 12.7297 14.7505 12.0001 14.7505ZM12.0001 18.4183C11.8187 18.4183 11.6415 18.3645 11.4907 18.2637C11.3399 18.163 11.2224 18.0198 11.153 17.8522C11.0836 17.6847 11.0654 17.5003 11.1008 17.3224C11.1362 17.1446 11.2235 16.9812 11.3517 16.853C11.48 16.7247 11.6433 16.6374 11.8212 16.602C11.9991 16.5666 12.1834 16.5848 12.351 16.6542C12.5185 16.7236 12.6617 16.8411 12.7625 16.9919C12.8633 17.1427 12.917 17.32 12.917 17.5013C12.917 17.7445 12.8204 17.9777 12.6485 18.1497C12.4765 18.3217 12.2433 18.4183 12.0001 18.4183ZM12.0001 11.0828C10.2989 11.0887 8.66847 11.7639 7.46128 12.9625C7.2905 13.1343 7.19464 13.3667 7.19464 13.6089C7.19464 13.8512 7.2905 14.0836 7.46128 14.2554C7.63308 14.4262 7.86547 14.522 8.10771 14.522C8.34996 14.522 8.58235 14.4262 8.75415 14.2554C9.18003 13.8284 9.68595 13.4897 10.2429 13.2586C10.7999 13.0274 11.3971 12.9085 12.0001 12.9085C12.6031 12.9085 13.2003 13.0274 13.7572 13.2586C14.3142 13.4897 14.8202 13.8284 15.246 14.2554C15.4153 14.4281 15.646 14.527 15.8879 14.5305C16.0739 14.5412 16.2588 14.4949 16.4179 14.3979C16.577 14.3009 16.7028 14.1577 16.7785 13.9874C16.8542 13.8172 16.8762 13.6278 16.8416 13.4447C16.807 13.2616 16.7174 13.0934 16.5848 12.9625C15.9814 12.3635 15.266 11.8892 14.4794 11.5666C13.6928 11.2441 12.8503 11.0797 12.0001 11.0828ZM12.0001 7.41506C9.32631 7.42216 6.7631 8.48302 4.86635 10.3676C4.78086 10.4531 4.71304 10.5546 4.66677 10.6663C4.62051 10.778 4.59669 10.8977 4.59669 11.0186C4.59669 11.2628 4.69369 11.497 4.86635 11.6696C5.03902 11.8423 5.2732 11.9393 5.51738 11.9393C5.76156 11.9393 5.99574 11.8423 6.1684 11.6696C7.71573 10.1242 9.8132 9.25618 12.0001 9.25618C14.187 9.25618 16.2845 10.1242 17.8318 11.6696C17.9175 11.7546 18.0191 11.8218 18.1308 11.8675C18.2425 11.9131 18.3621 11.9362 18.4828 11.9355C18.6035 11.9362 18.7231 11.9131 18.8348 11.8675C18.9466 11.8218 19.0482 11.7546 19.1338 11.6696C19.2198 11.5844 19.288 11.483 19.3345 11.3712C19.3811 11.2595 19.4051 11.1397 19.4051 11.0186C19.4051 10.8976 19.3811 10.7777 19.3345 10.666C19.288 10.5542 19.2198 10.4528 19.1338 10.3676C17.2371 8.48302 14.6739 7.42216 12.0001 7.41506ZM21.7288 7.77266C20.4515 6.49455 18.9348 5.48065 17.2656 4.78889C15.5963 4.09714 13.807 3.74109 12.0001 3.74109C10.1932 3.74109 8.40392 4.09714 6.73463 4.78889C5.06535 5.48065 3.54872 6.49455 2.27143 7.77266C2.09877 7.94532 2.00177 8.1795 2.00177 8.42368C2.00177 8.66786 2.09877 8.90204 2.27143 9.07471C2.44409 9.24737 2.67827 9.34437 2.92246 9.34437C3.16664 9.34437 3.40082 9.24737 3.57348 9.07471C5.80876 6.84059 8.83975 5.58557 12.0001 5.58557C15.1604 5.58557 18.1914 6.84059 20.4267 9.07471C20.512 9.16065 20.6134 9.22886 20.7251 9.27541C20.8368 9.32197 20.9567 9.34593 21.0777 9.34593C21.1988 9.34593 21.3186 9.32197 21.4304 9.27541C21.5421 9.22886 21.6435 9.16065 21.7288 9.07471C21.8147 8.98947 21.8829 8.88805 21.9295 8.77631C21.976 8.66458 22 8.54473 22 8.42368C22 8.30264 21.976 8.18279 21.9295 8.07105C21.8829 7.95931 21.8147 7.8579 21.7288 7.77266Z" fill="#0DADB9"/>
</svg>
