<svg width="24" height="24" viewBox="0 0 24 24" fill="none" xmlns="http://www.w3.org/2000/svg">
<path fill-rule="evenodd" clip-rule="evenodd" d="M16.9157 14.462C16.9149 14.4565 16.9138 14.4501 16.9122 14.4428C16.8862 14.3182 16.7654 14.0984 16.5075 13.9495L7.04617 8.48702C6.78832 8.33816 6.53756 8.34336 6.41662 8.38315C6.40954 8.38547 6.40345 8.38772 6.39827 8.3898C5.97219 10.9804 7.15551 13.675 9.55769 15.0619C11.9599 16.4488 14.8851 16.1263 16.9157 14.462ZM6.37323 8.40236C6.37321 8.40234 6.37355 8.40207 6.37429 8.40158L6.37323 8.40236ZM16.9174 14.4887C16.9174 14.4896 16.9173 14.49 16.9173 14.49L16.9174 14.4887ZM18.217 16.044C15.5487 18.233 11.699 18.6636 8.53347 16.8359C5.36792 15.0083 3.816 11.4591 4.37758 8.05376C4.6537 6.37939 6.60076 5.86453 8.07039 6.71302L17.5317 12.1755C19.0014 13.024 19.529 14.9677 18.217 16.044Z" fill="#0DADB9"/>
<path fill-rule="evenodd" clip-rule="evenodd" d="M8.91279 15.1529C9.4014 15.4379 9.56644 16.0651 9.28142 16.5537L7.19262 20.1345L5.42322 19.1023L7.51202 15.5215C7.79704 15.0329 8.42419 14.8679 8.91279 15.1529ZM5.42322 19.1023C4.62661 20.4679 5.61164 22.1829 7.19261 22.1829H11.7771C13.339 22.1829 14.3263 20.505 13.5678 19.1397L12.2794 16.8205C12.0046 16.326 11.3811 16.1478 10.8866 16.4225C10.3921 16.6973 10.214 17.3208 10.4887 17.8153L11.7771 20.1345L7.19262 20.1345L5.42322 19.1023Z" fill="#0DADB9"/>
<path fill-rule="evenodd" clip-rule="evenodd" d="M11.4793 7.975C11.0575 7.59809 11.0211 6.95061 11.398 6.52881C12.3199 5.49709 13.7133 5.52662 14.8143 6.23007C15.3725 6.58669 15.8099 7.0941 16.038 7.66924C16.2655 8.24271 16.3068 8.96697 15.9018 9.60085C15.5973 10.0775 14.9639 10.2171 14.4873 9.91251C14.0188 9.61321 13.876 8.99641 14.1602 8.52279C14.1592 8.50626 14.1538 8.47475 14.1339 8.42442C14.0812 8.29154 13.9477 8.10724 13.7114 7.95627C13.4596 7.79538 13.2724 7.76661 13.1666 7.77321C13.0736 7.77902 12.998 7.81256 12.9254 7.89372C12.5485 8.31552 11.9011 8.35191 11.4793 7.975ZM14.1594 8.53721C14.1592 8.5371 14.1592 8.53463 14.1604 8.53009C14.1603 8.53504 14.1597 8.53731 14.1594 8.53721Z" fill="#0DADB9"/>
<path fill-rule="evenodd" clip-rule="evenodd" d="M17.6169 9.46116C17.0681 9.32422 16.7342 8.76828 16.8711 8.21945C17.112 7.25418 16.8586 6.12366 15.4943 5.25202C14.1709 4.40651 12.9845 4.69574 12.184 5.27966C11.727 5.613 11.0862 5.51275 10.7529 5.05574C10.4196 4.59873 10.5198 3.95802 10.9768 3.62468C12.3441 2.62743 14.4497 2.15378 16.5972 3.52582C18.7038 4.87173 19.3123 6.89711 18.8587 8.71536C18.7217 9.26419 18.1658 9.5981 17.6169 9.46116Z" fill="#0DADB9"/>
</svg>
