<svg width="24" height="24" viewBox="0 0 24 24" fill="none" xmlns="http://www.w3.org/2000/svg">
<path d="M12.5726 3.99422C12.639 3.66448 12.8018 3.36187 13.0403 3.12475C13.3585 2.80841 13.789 2.63086 14.2377 2.63086C14.6864 2.63086 15.1168 2.80841 15.4351 3.12475C15.6736 3.36187 15.8364 3.66448 15.9027 3.99422C15.9691 4.32395 15.936 4.66597 15.8078 4.9769C15.6795 5.28784 15.4618 5.55369 15.1823 5.74076C14.9028 5.92783 14.574 6.0277 14.2377 6.0277C13.9013 6.0277 13.5726 5.92783 13.293 5.74076C13.0135 5.55369 12.7958 5.28784 12.6676 4.9769C12.5393 4.66597 12.5063 4.32395 12.5726 3.99422Z" fill="#0DADB9"/>
<path d="M7.78733 6.22837C7.85368 5.89863 8.01645 5.59602 8.25499 5.3589C8.57321 5.04257 9.00367 4.86501 9.45237 4.86501C9.90107 4.86501 10.3315 5.04257 10.6498 5.3589C10.8883 5.59602 11.0511 5.89863 11.1174 6.22837C11.1838 6.5581 11.1507 6.90012 11.0225 7.21105C10.8942 7.52199 10.6765 7.78784 10.397 7.97492C10.1175 8.16199 9.78872 8.26185 9.45237 8.26185C9.11603 8.26185 8.78725 8.16199 8.50773 7.97492C8.22821 7.78784 8.01052 7.52199 7.88227 7.21105C7.75402 6.90012 7.72098 6.5581 7.78733 6.22837Z" fill="#0DADB9"/>
<path fill-rule="evenodd" clip-rule="evenodd" d="M7.24955 9.39026C5.2431 9.27701 3.5079 10.8548 3.5079 12.8644V14.2062C3.5079 14.9284 3.73329 15.598 4.11757 16.1484C3.25519 16.5567 2.65869 17.4349 2.65869 18.4524C2.65869 19.8594 3.7993 21 5.20632 21H18.7937C20.2007 21 21.3413 19.8594 21.3413 18.4524C21.3413 17.4349 20.7448 16.5567 19.8824 16.1484C20.2667 15.598 20.4921 14.9284 20.4921 14.2062V12.8644C20.4921 10.8548 18.7569 9.27701 16.7505 9.39026C15.339 9.46993 13.6695 9.53557 12 9.53557C10.3305 9.53557 8.66096 9.46993 7.24955 9.39026ZM18.7937 14.2062V12.8644C18.7937 11.8702 17.9187 11.0254 16.8462 11.086C15.4143 11.1668 13.7111 11.234 12 11.234C10.2889 11.234 8.58572 11.1668 7.15384 11.086C6.08128 11.0254 5.20632 11.8702 5.20632 12.8644V14.2062C5.20632 15.1442 5.96673 15.9046 6.90474 15.9046H17.0953C18.0333 15.9046 18.7937 15.1442 18.7937 14.2062ZM5.20632 17.6032C4.73732 17.6032 4.35711 17.9834 4.35711 18.4524C4.35711 18.9214 4.73732 19.3016 5.20632 19.3016H18.7937C19.2627 19.3016 19.6429 18.9214 19.6429 18.4524C19.6429 17.9834 19.2627 17.6032 18.7937 17.6032H5.20632Z" fill="#0DADB9"/>
</svg>
