<svg width="24" height="24" viewBox="0 0 24 24" fill="none" xmlns="http://www.w3.org/2000/svg">
<path d="M9.00003 17H13C14.3261 17 15.5979 16.4732 16.5356 15.5355C17.4732 14.5979 18 13.3261 18 12V11H19C19.7957 11 20.5587 10.6839 21.1214 10.1213C21.684 9.55871 22 8.79565 22 8C22 7.20435 21.684 6.44129 21.1214 5.87868C20.5587 5.31607 19.7957 5 19 5H18V4C18 3.73478 17.8947 3.48043 17.7071 3.29289C17.5196 3.10536 17.2652 3 17 3H5.00003C4.73481 3 4.48046 3.10536 4.29292 3.29289C4.10539 3.48043 4.00003 3.73478 4.00003 4V12C4.00003 13.3261 4.52681 14.5979 5.4645 15.5355C6.40218 16.4732 7.67395 17 9.00003 17ZM18 7H19C19.2652 7 19.5196 7.10536 19.7071 7.29289C19.8947 7.48043 20 7.73478 20 8C20 8.26522 19.8947 8.51957 19.7071 8.70711C19.5196 8.89464 19.2652 9 19 9H18V7ZM6.00003 5H16V12C16 12.7956 15.684 13.5587 15.1214 14.1213C14.5587 14.6839 13.7957 15 13 15H9.00003C8.20438 15 7.44132 14.6839 6.87871 14.1213C6.3161 13.5587 6.00003 12.7956 6.00003 12V5ZM21 19H3.00003C2.73481 19 2.48046 19.1054 2.29292 19.2929C2.10539 19.4804 2.00003 19.7348 2.00003 20C2.00003 20.2652 2.10539 20.5196 2.29292 20.7071C2.48046 20.8946 2.73481 21 3.00003 21H21C21.2652 21 21.5196 20.8946 21.7071 20.7071C21.8947 20.5196 22 20.2652 22 20C22 19.7348 21.8947 19.4804 21.7071 19.2929C21.5196 19.1054 21.2652 19 21 19Z" fill="#0DADB9"/>
</svg>
