<svg width="24" height="24" viewBox="0 0 24 24" fill="none" xmlns="http://www.w3.org/2000/svg">
<path d="M6.58457 2.00171C5.81109 2.00171 5.06929 2.30897 4.52235 2.85591C3.97542 3.40284 3.66815 4.14465 3.66815 4.91813C3.66815 5.69161 3.97542 6.43341 4.52235 6.98035C5.06929 7.52728 5.81109 7.83455 6.58457 7.83455C6.68025 7.85247 6.77105 7.89044 6.851 7.94598C6.93094 8.00151 6.99823 8.07334 7.04842 8.15674L11.7702 15.2395C11.9211 15.4657 12.0015 15.7314 12.0015 16.0033V19.9169C12.0015 20.0274 11.9576 20.1333 11.8794 20.2115C11.8013 20.2896 11.6953 20.3335 11.5848 20.3335H8.66773C8.5583 20.3335 8.44995 20.355 8.34885 20.3969C8.24776 20.4388 8.1559 20.5002 8.07852 20.5775C8.00115 20.6549 7.93977 20.7468 7.89789 20.8479C7.85602 20.949 7.83447 21.0573 7.83447 21.1668C7.83447 21.2762 7.85602 21.3845 7.89789 21.4856C7.93977 21.5867 8.00115 21.6786 8.07852 21.756C8.1559 21.8333 8.24776 21.8947 8.34885 21.9366C8.44995 21.9785 8.5583 22 8.66773 22H17.0004C17.1098 22 17.2181 21.9785 17.3192 21.9366C17.4203 21.8947 17.5122 21.8333 17.5896 21.756C17.6669 21.6786 17.7283 21.5867 17.7702 21.4856C17.8121 21.3845 17.8336 21.2762 17.8336 21.1668C17.8336 21.0573 17.8121 20.949 17.7702 20.8479C17.7283 20.7468 17.6669 20.6549 17.5896 20.5775C17.5122 20.5002 17.4203 20.4388 17.3192 20.3969C17.2181 20.355 17.1098 20.3335 17.0004 20.3335H14.0839C13.9734 20.3335 13.8675 20.2896 13.7893 20.2115C13.7112 20.1333 13.6673 20.0274 13.6673 19.9169V16.0019C13.6673 15.7301 13.7477 15.4643 13.8985 15.2381L20.1945 5.79653C20.2781 5.67097 20.3261 5.52507 20.3332 5.3744C20.3404 5.22373 20.3066 5.07394 20.2353 4.941C20.164 4.80807 20.058 4.69697 19.9285 4.61957C19.799 4.54217 19.651 4.50136 19.5001 4.5015H9.87457C9.75856 4.49439 9.64761 4.45151 9.55696 4.37877C9.46632 4.30603 9.40043 4.20699 9.36836 4.09528C9.19133 3.49327 8.82484 2.96442 8.32334 2.58726C7.82184 2.2101 7.21206 2.00475 6.58457 2.00171V2.00171ZM6.58457 3.66823C6.83178 3.66823 7.07343 3.74154 7.27898 3.87888C7.48452 4.01622 7.64472 4.21143 7.73932 4.43982C7.83393 4.6682 7.85868 4.91952 7.81045 5.16197C7.76222 5.40443 7.64318 5.62714 7.46838 5.80194C7.29358 5.97674 7.07087 6.09578 6.82841 6.14401C6.58596 6.19223 6.33465 6.16748 6.10626 6.07288C5.87787 5.97828 5.68266 5.81808 5.54532 5.61253C5.40798 5.40699 5.33468 5.16533 5.33468 4.91813C5.33301 4.75353 5.36419 4.59024 5.42642 4.43784C5.48864 4.28545 5.58064 4.14699 5.69704 4.0306C5.81344 3.9142 5.95189 3.82219 6.10429 3.75997C6.25669 3.69775 6.41997 3.66656 6.58457 3.66823ZM9.37114 6.16802H17.5253C17.5658 6.16795 17.6055 6.17889 17.6402 6.19966C17.6749 6.22043 17.7033 6.25025 17.7223 6.28593C17.7414 6.3216 17.7503 6.36179 17.7483 6.40218C17.7463 6.44257 17.7333 6.48164 17.7107 6.51522L15.3963 9.98714C15.3253 10.0939 15.229 10.1815 15.116 10.242C15.0029 10.3026 14.8767 10.3343 14.7485 10.3343H10.9182C10.79 10.3343 10.6638 10.3026 10.5507 10.242C10.4377 10.1815 10.3414 10.0939 10.2704 9.98714L8.49135 7.31723C8.46772 7.27826 8.45853 7.23223 8.46539 7.18718C8.47224 7.14212 8.4947 7.1009 8.52885 7.07072C8.76985 6.85411 8.97328 6.59905 9.13088 6.31593C9.15618 6.27386 9.19121 6.23847 9.23301 6.21273C9.27482 6.187 9.32219 6.17166 9.37114 6.16802Z" fill="#0DADB9"/>
</svg>
