<svg width="24" height="24" viewBox="0 0 24 24" fill="none" xmlns="http://www.w3.org/2000/svg">
<path d="M11.6135 5.47038C11.7866 5.35473 11.9901 5.29301 12.1982 5.29301C12.4774 5.29301 12.7451 5.40389 12.9424 5.60127C13.1398 5.79865 13.2507 6.06635 13.2507 6.34548C13.2507 6.55364 13.189 6.75712 13.0733 6.9302C12.9577 7.10328 12.7933 7.23818 12.601 7.31784C12.4087 7.39749 12.1971 7.41834 11.9929 7.37773C11.7887 7.33712 11.6012 7.23688 11.454 7.08969C11.3068 6.9425 11.2066 6.75496 11.166 6.55081C11.1254 6.34665 11.1462 6.13503 11.2259 5.94272C11.3055 5.7504 11.4404 5.58603 11.6135 5.47038Z" fill="#0DADB9"/>
<path fill-rule="evenodd" clip-rule="evenodd" d="M3.34821 16.3985H2.85451C2.38271 16.3985 2.00024 16.7809 2.00024 17.2527C2.00024 17.7245 2.38271 18.107 2.85451 18.107H21.1457C21.6175 18.107 22 17.7245 22 17.2527C22 16.7809 21.6175 16.3985 21.1457 16.3985H20.6521C20.2229 11.9982 16.5131 8.55929 12.0001 8.55929C7.48715 8.55929 3.77734 11.9982 3.34821 16.3985ZM5.50024 16.3985H18.5002C18.079 12.9438 15.5614 10.5 11.9929 10.5C8.42445 10.5 5.92147 12.9438 5.50024 16.3985Z" fill="#0DADB9"/>
</svg>
