<svg width="24" height="24" viewBox="0 0 24 24" fill="none" xmlns="http://www.w3.org/2000/svg">
<path d="M8.81815 4.72727C9.32023 4.72727 9.72724 5.13429 9.72724 5.63636V7C9.72724 7.50208 9.32023 7.90909 8.81815 7.90909C8.31607 7.90909 7.90906 7.50208 7.90906 7V5.63636C7.90906 5.13429 8.31607 4.72727 8.81815 4.72727Z" fill="#0DADB9"/>
<path d="M9.72724 12.9091C9.72724 12.407 9.32023 12 8.81815 12C8.31607 12 7.90906 12.407 7.90906 12.9091V14.7273C7.90906 15.2294 8.31607 15.6364 8.81815 15.6364C9.32023 15.6364 9.72724 15.2294 9.72724 14.7273V12.9091Z" fill="#0DADB9"/>
<path fill-rule="evenodd" clip-rule="evenodd" d="M4.72726 5.63636C4.72726 3.62806 6.35532 2 8.36363 2H15.6364C17.6447 2 19.2727 3.62806 19.2727 5.63636V18.3636C19.2727 20.3719 17.6447 22 15.6364 22H8.36363C6.35532 22 4.72726 20.3719 4.72726 18.3636V5.63636ZM8.36363 3.81818H15.6364C16.6405 3.81818 17.4545 4.63221 17.4545 5.63636V9.27273H6.54545V5.63636C6.54545 4.63221 7.35947 3.81818 8.36363 3.81818ZM6.54545 11.0909V18.3636C6.54545 19.3678 7.35947 20.1818 8.36363 20.1818H15.6364C16.6405 20.1818 17.4545 19.3678 17.4545 18.3636V11.0909H6.54545Z" fill="#0DADB9"/>
</svg>
