<svg width="24" height="24" viewBox="0 0 24 24" fill="none" xmlns="http://www.w3.org/2000/svg">
<path d="M7.33334 12.4667C7.88713 12.4667 8.42848 12.3024 8.88893 11.9948C9.34939 11.6871 9.70827 11.2498 9.9202 10.7382C10.1321 10.2265 10.1876 9.66356 10.0795 9.12041C9.9715 8.57727 9.70482 8.07835 9.31324 7.68677C8.92165 7.29518 8.42274 7.02851 7.87959 6.92047C7.33644 6.81243 6.77346 6.86788 6.26182 7.0798C5.75019 7.29173 5.31289 7.65061 5.00522 8.11107C4.69755 8.57153 4.53334 9.11288 4.53334 9.66667C4.53334 10.4093 4.82834 11.1215 5.35344 11.6466C5.87854 12.1717 6.59073 12.4667 7.33334 12.4667ZM7.33334 8.73333C7.51793 8.73333 7.69838 8.78807 7.85187 8.89063C8.00536 8.99318 8.12498 9.13895 8.19563 9.30949C8.26627 9.48004 8.28475 9.6677 8.24874 9.84875C8.21272 10.0298 8.12383 10.1961 7.9933 10.3266C7.86277 10.4572 7.69647 10.5461 7.51542 10.5821C7.33437 10.6181 7.14671 10.5996 6.97617 10.529C6.80562 10.4583 6.65986 10.3387 6.5573 10.1852C6.45474 10.0317 6.4 9.85126 6.4 9.66667C6.4 9.41913 6.49834 9.18173 6.67337 9.0067C6.84841 8.83167 7.0858 8.73333 7.33334 8.73333ZM19.4667 6.86667H12C11.7525 6.86667 11.5151 6.965 11.34 7.14003C11.165 7.31507 11.0667 7.55246 11.0667 7.8V13.4H3.6V5.93333C3.6 5.6858 3.50167 5.4484 3.32664 5.27337C3.1516 5.09833 2.91421 5 2.66667 5C2.41914 5 2.18174 5.09833 2.0067 5.27337C1.83167 5.4484 1.73334 5.6858 1.73334 5.93333V18.0667C1.73334 18.3142 1.83167 18.5516 2.0067 18.7266C2.18174 18.9017 2.41914 19 2.66667 19C2.91421 19 3.1516 18.9017 3.32664 18.7266C3.50167 18.5516 3.6 18.3142 3.6 18.0667V15.2667H20.4V18.0667C20.4 18.3142 20.4983 18.5516 20.6734 18.7266C20.8484 18.9017 21.0858 19 21.3333 19C21.5809 19 21.8183 18.9017 21.9933 18.7266C22.1683 18.5516 22.2667 18.3142 22.2667 18.0667V9.66667C22.2667 8.92406 21.9717 8.21187 21.4466 7.68677C20.9215 7.16167 20.2093 6.86667 19.4667 6.86667ZM20.4 13.4H12.9333V8.73333H19.4667C19.7142 8.73333 19.9516 8.83167 20.1266 9.0067C20.3017 9.18173 20.4 9.41913 20.4 9.66667V13.4Z" fill="#0DADB9"/>
</svg>
