<svg width="24" height="24" viewBox="0 0 24 24" fill="none" xmlns="http://www.w3.org/2000/svg">
<path d="M15.2307 6.40591C15.3386 6.02049 15.4303 5.69312 15.5993 5.44485C14.3811 5.05598 13.0994 4.84964 11.7979 4.84567C8.45278 4.85758 5.2426 6.18689 2.86968 8.5479C2.71096 8.70663 2.62366 8.9209 2.62366 9.14312C2.62366 9.36533 2.71096 9.57961 2.86968 9.73833C3.0284 9.89705 3.24268 9.98435 3.46489 9.98435C3.68711 9.98435 3.90138 9.89705 4.06011 9.73833C6.11161 7.68683 8.89721 6.53211 11.7979 6.53211C12.9089 6.53211 14.0002 6.70274 15.0398 7.02415L15.0438 7.02812C15.1181 6.80786 15.1764 6.59954 15.2307 6.40591Z" fill="#0DADB9"/>
<path d="M11.798 11.5837C10.2346 11.5837 8.73464 12.2027 7.63151 13.3098C7.47279 13.4685 7.38549 13.6828 7.38549 13.905C7.38549 14.1272 7.47279 14.3415 7.63151 14.5002C7.79024 14.6589 8.00451 14.7462 8.22673 14.7462C8.44894 14.7462 8.66321 14.6589 8.82194 14.5002C9.61159 13.7106 10.683 13.2661 11.798 13.2661C12.913 13.2661 13.9844 13.7106 14.7741 14.5002C14.9328 14.6589 15.1471 14.7462 15.3693 14.7462C15.5915 14.7462 15.8058 14.6589 15.9645 14.5002C16.1232 14.3415 16.2105 14.1272 16.2105 13.905C16.2105 13.6828 16.1232 13.4685 15.9645 13.3098C14.8574 12.2027 13.3614 11.5837 11.798 11.5837Z" fill="#0DADB9"/>
<path d="M14.4947 8.87286C14.3409 9.35061 14.1788 9.85421 14.3017 10.3255H14.2977C13.5001 10.0477 12.6589 9.9009 11.7978 9.9009C9.78998 9.9009 7.86149 10.6985 6.44091 12.1191C6.28219 12.2778 6.06791 12.3651 5.8457 12.3651C5.62349 12.3651 5.40921 12.2778 5.25049 12.1191C5.09176 11.9603 5.00446 11.7461 5.00446 11.5238C5.00446 11.3016 5.09176 11.0874 5.25049 10.9286C6.98851 9.19855 9.34159 8.2224 11.7978 8.21446C12.7462 8.21843 13.6787 8.36525 14.5676 8.64301C14.5443 8.71879 14.5196 8.79548 14.4947 8.87286Z" fill="#0DADB9"/>
<path fill-rule="evenodd" clip-rule="evenodd" d="M11.7979 15.0399C11.1432 15.0399 10.5162 15.2938 10.044 15.7502C9.57182 16.2065 9.29802 16.8255 9.27421 17.4763C9.27421 18.1469 9.54007 18.7858 10.0123 19.2619C10.4845 19.7381 11.1273 20 11.7979 20C12.4685 20 13.1074 19.7341 13.5836 19.2619C14.0558 18.7897 14.3216 18.1469 14.3216 17.4763C14.2978 16.8216 14.024 16.2025 13.5518 15.7502C13.0796 15.2938 12.4526 15.0399 11.7979 15.0399ZM12.3971 18.0755C12.2384 18.2342 12.0241 18.3215 11.7979 18.3215C11.5717 18.3215 11.3575 18.2342 11.1987 18.0755C11.04 17.9168 10.9527 17.7025 10.9527 17.4763C10.9527 17.3652 10.9726 17.2541 11.0162 17.1509C11.0598 17.0477 11.1194 16.9565 11.1987 16.8771C11.2781 16.7978 11.3694 16.7343 11.4725 16.6946C11.5757 16.6509 11.6868 16.6311 11.7979 16.6311C11.909 16.6311 12.0201 16.6509 12.1233 16.6946C12.2265 16.7382 12.3177 16.7978 12.3971 16.8771C12.4765 16.9565 12.536 17.0477 12.5796 17.1509C12.6233 17.2541 12.6431 17.3652 12.6431 17.4763C12.6431 17.7025 12.5558 17.9168 12.3971 18.0755Z" fill="#0DADB9"/>
<path d="M22.2024 7.49822C22.2717 7.54085 22.3237 7.60242 22.354 7.67821H22.341C22.3713 7.754 22.3843 7.83926 22.3713 7.91978C22.354 8.00031 22.3193 8.07609 22.263 8.13767L17.5626 13.2912C17.4976 13.3622 17.4109 13.4143 17.3156 13.4285C17.216 13.4428 17.1207 13.4285 17.034 13.3812C16.9474 13.3338 16.8781 13.258 16.8434 13.1728C16.8087 13.0875 16.8001 12.988 16.8261 12.8933L17.6059 9.99919H15.938C15.873 9.99919 15.808 9.98498 15.7473 9.95656C15.6867 9.92814 15.6347 9.88551 15.5957 9.8334C15.5524 9.7813 15.5264 9.71499 15.5134 9.65341C15.5004 9.59183 15.5047 9.52078 15.5221 9.45921L16.6788 5.16303C16.7048 5.07303 16.7611 4.98777 16.8391 4.93093C16.917 4.87409 17.0167 4.84567 17.112 4.84567H20.1316C20.1966 4.84567 20.2615 4.85988 20.3222 4.8883C20.3828 4.91672 20.4348 4.95935 20.4738 5.01146C20.5171 5.06356 20.5431 5.12987 20.5561 5.19145C20.5691 5.25303 20.5648 5.32408 20.5475 5.38565L20.0016 7.42243H21.9771C22.0594 7.42717 22.1374 7.45085 22.2024 7.49822Z" fill="#0DADB9"/>
</svg>
