<svg width="24" height="24" viewBox="0 0 24 24" fill="none" xmlns="http://www.w3.org/2000/svg">
<path d="M9.72791 9.50926L6.4878 8.1204C6.32742 8.05059 6.15482 8.01316 5.97992 8.01028C5.80503 8.0074 5.63129 8.03912 5.46869 8.10361C5.3061 8.16811 5.15785 8.26411 5.03249 8.38609C4.90712 8.50808 4.80711 8.65364 4.73819 8.81442L2.10878 14.8964C2.03896 15.0568 2.00154 15.2294 1.99865 15.4043C1.99577 15.5792 2.02749 15.7529 2.09199 15.9155C2.15648 16.0781 2.25248 16.2263 2.37447 16.3517C2.49646 16.4771 2.64202 16.5771 2.80279 16.646L8.90393 19.2754C9.06431 19.3452 9.23691 19.3827 9.41181 19.3855C9.58671 19.3884 9.76045 19.3567 9.92304 19.2922C10.0856 19.2277 10.2339 19.1317 10.3592 19.0097C10.4846 18.8877 10.5846 18.7422 10.6535 18.5814L11.8741 15.762L9.79123 9.74504C9.77124 9.65673 9.74874 9.57258 9.72791 9.50926ZM6.46698 12.791C6.32667 12.7329 6.19957 12.647 6.09336 12.5385C5.98715 12.43 5.90402 12.301 5.84898 12.1595C5.79394 12.018 5.76813 11.8667 5.7731 11.715C5.77808 11.5632 5.81374 11.414 5.87794 11.2764C5.93789 11.1376 6.02482 11.012 6.13369 10.9071C6.24255 10.8022 6.37118 10.7199 6.5121 10.6651C6.65302 10.6103 6.80343 10.5841 6.95458 10.5879C7.10573 10.5917 7.25462 10.6255 7.3926 10.6873C7.53291 10.7454 7.66 10.8313 7.76621 10.9399C7.87243 11.0484 7.95556 11.1773 8.0106 11.3189C8.06564 11.4604 8.09145 11.6116 8.08647 11.7634C8.0815 11.9152 8.04583 12.0644 7.98164 12.202C7.85688 12.4792 7.62819 12.6963 7.34486 12.8065C7.06153 12.9167 6.74625 12.9111 6.46698 12.791ZM9.53879 16.0936C9.47884 16.2324 9.39191 16.358 9.28304 16.4629C9.17418 16.5678 9.04555 16.6501 8.90463 16.7049C8.76371 16.7597 8.6133 16.7859 8.46215 16.7821C8.311 16.7783 8.16211 16.7445 8.02413 16.6827C7.886 16.6219 7.76119 16.5345 7.65683 16.4255C7.55247 16.3165 7.47061 16.188 7.41591 16.0473C7.36122 15.9067 7.33476 15.7566 7.33805 15.6058C7.34134 15.4549 7.37432 15.3061 7.43509 15.168C7.49587 15.0299 7.58326 14.9051 7.69227 14.8007C7.80128 14.6963 7.92978 14.6145 8.07043 14.5598C8.21108 14.5051 8.36112 14.4786 8.512 14.4819C8.66287 14.4852 8.81162 14.5182 8.94975 14.579C9.22698 14.7037 9.44408 14.9324 9.55426 15.2157C9.66445 15.4991 9.65889 15.8144 9.53879 16.0936Z" fill="#0DADB9"/>
<path d="M21.9303 12.5811L19.7641 6.29084C19.7076 6.12638 19.6193 5.97467 19.5041 5.8444C19.3889 5.71412 19.2491 5.60783 19.0928 5.53161C18.9365 5.45539 18.7667 5.41074 18.5931 5.4002C18.4195 5.38966 18.2456 5.41344 18.0812 5.47019L11.7909 7.63637C11.6265 7.69289 11.4748 7.78127 11.3445 7.89647C11.2142 8.01166 11.1079 8.15141 11.0317 8.30772C10.9555 8.46403 10.9108 8.63383 10.9003 8.80741C10.8897 8.98099 10.9135 9.15495 10.9703 9.31933L13.1365 15.5929C13.193 15.7574 13.2814 15.9091 13.3966 16.0394C13.5118 16.1697 13.6515 16.2759 13.8078 16.3522C13.9641 16.4284 14.1339 16.473 14.3075 16.4836C14.4811 16.4941 14.655 16.4703 14.8194 16.4136L21.0922 14.2432C21.2574 14.1907 21.4104 14.1056 21.5423 13.9932C21.6743 13.8807 21.7824 13.7431 21.8605 13.5883C21.9385 13.4335 21.9849 13.2647 21.9969 13.0917C22.0089 12.9188 21.9863 12.7452 21.9303 12.5811ZM12.7607 9.99335C12.692 9.79565 12.6835 9.58203 12.7362 9.37949C12.789 9.17695 12.9006 8.9946 13.057 8.8555C13.2133 8.7164 13.4074 8.6268 13.6147 8.59803C13.822 8.56926 14.0332 8.60261 14.2216 8.69387C14.4099 8.78513 14.567 8.93019 14.6729 9.11072C14.7788 9.29124 14.8287 9.49911 14.8165 9.70804C14.8042 9.91697 14.7303 10.1176 14.604 10.2845C14.4777 10.4514 14.3048 10.5771 14.1071 10.6457C13.842 10.7358 13.552 10.7179 13.3 10.5958C13.048 10.4737 12.8543 10.2573 12.7607 9.99335ZM15.4743 14.6423C15.2766 14.711 15.063 14.7195 14.8604 14.6668C14.6579 14.6141 14.4755 14.5024 14.3364 14.3461C14.1973 14.1897 14.1077 13.9956 14.079 13.7883C14.0502 13.581 14.0835 13.3698 14.1748 13.1814C14.2661 12.9931 14.4111 12.8361 14.5916 12.7302C14.7722 12.6243 14.98 12.5743 15.189 12.5865C15.3979 12.5988 15.5985 12.6727 15.7654 12.799C15.9323 12.9253 16.058 13.0982 16.1266 13.2959C16.176 13.4271 16.1982 13.567 16.1917 13.7071C16.1853 13.8471 16.1503 13.9844 16.089 14.1104C16.0278 14.2365 15.9414 14.3488 15.8353 14.4404C15.7292 14.532 15.6055 14.601 15.4718 14.6431L15.4743 14.6423ZM16.7573 8.60449C16.6886 8.40679 16.6801 8.19317 16.7328 7.99063C16.7856 7.78809 16.8972 7.60574 17.0536 7.46664C17.2099 7.32754 17.4041 7.23794 17.6114 7.20917C17.8187 7.1804 18.0298 7.21375 18.2182 7.30501C18.4065 7.39627 18.5636 7.54134 18.6695 7.72186C18.7754 7.90238 18.8253 8.11025 18.8131 8.31918C18.8008 8.52811 18.7269 8.72872 18.6006 8.89562C18.4743 9.06253 18.3014 9.18823 18.1037 9.25685C17.9726 9.30659 17.8328 9.3291 17.6927 9.32299C17.5527 9.31687 17.4153 9.28227 17.2891 9.2213C17.1628 9.16032 17.0504 9.07425 16.9585 8.96835C16.8666 8.86244 16.7973 8.73892 16.7548 8.60532L16.7573 8.60449ZM19.4709 13.2535C19.2732 13.3221 19.0596 13.3307 18.857 13.2779C18.6545 13.2252 18.4721 13.1136 18.333 12.9572C18.1939 12.8008 18.1043 12.6067 18.0756 12.3994C18.0468 12.1921 18.0801 11.9809 18.1714 11.7926C18.2627 11.6042 18.4077 11.4472 18.5883 11.3413C18.7688 11.2354 18.9766 11.1854 19.1856 11.1977C19.3945 11.2099 19.5951 11.2839 19.762 11.4102C19.9289 11.5364 20.0546 11.7094 20.1232 11.9071C20.2136 12.1725 20.1955 12.4629 20.0731 12.7151C19.9506 12.9673 19.7336 13.1611 19.4692 13.2543L19.4709 13.2535Z" fill="#0DADB9"/>
</svg>
