<svg width="24" height="24" viewBox="0 0 24 24" fill="none" xmlns="http://www.w3.org/2000/svg">
<path d="M20.6199 20.1072V3.55232C20.6212 3.32996 20.5769 3.1097 20.4899 2.90508C20.3725 2.64222 20.1826 2.41833 19.9423 2.25971C19.7021 2.10109 19.4216 2.01433 19.1337 2.00964H19.1211H4.73983C4.49925 1.9988 4.2582 2.0075 4.01903 2.03565C3.72967 2.08955 3.46239 2.22688 3.25008 2.43073C3.03778 2.63459 2.88971 2.89607 2.82412 3.183C2.79715 3.31753 2.7842 3.4545 2.78547 3.59171V20.1867C2.7634 20.5022 2.80978 20.8188 2.92146 21.1148C3.04148 21.3764 3.23339 21.5985 3.47482 21.7552C3.71625 21.9119 3.99724 21.9968 4.28505 21.9998H4.43368H19.0252C19.1661 22.0015 19.3067 21.9891 19.4451 21.9627C19.7344 21.8968 19.9978 21.7471 20.2025 21.5323C20.4072 21.3176 20.5442 21.0473 20.5962 20.7551C20.6212 20.5401 20.6292 20.3234 20.6199 20.1072ZM7.72859 3.92685C7.87544 3.75308 8.07145 3.62785 8.29084 3.56763C8.51023 3.50741 8.74271 3.51503 8.95768 3.58948C9.1719 3.66714 9.35795 3.80717 9.49186 3.99154C9.62576 4.1759 9.70138 4.39614 9.70896 4.62388V4.6692C9.70567 4.84877 9.65933 5.02492 9.57384 5.18285C9.48834 5.34079 9.36618 5.47589 9.21763 5.57681C9.06908 5.67774 8.89848 5.74153 8.72016 5.76283C8.54183 5.78414 8.361 5.76232 8.19286 5.69923C8.02471 5.63614 7.87417 5.53361 7.75388 5.40025C7.63359 5.2669 7.54706 5.10662 7.50157 4.93289C7.45608 4.75916 7.45296 4.57704 7.49246 4.40185C7.53197 4.22665 7.61294 4.0635 7.72859 3.9261V3.92685ZM4.46489 5.22133C4.37731 5.07381 4.32473 4.90818 4.31118 4.73716C4.29763 4.56614 4.32347 4.39429 4.38672 4.23483C4.44997 4.07536 4.54894 3.93252 4.67603 3.81728C4.80312 3.70204 4.95494 3.61748 5.11982 3.5701C5.2847 3.52271 5.45825 3.51376 5.62713 3.54394C5.79601 3.57412 5.95572 3.64261 6.09399 3.74417C6.23226 3.84572 6.34539 3.97763 6.42471 4.12975C6.50403 4.28186 6.54741 4.45014 6.55152 4.62165V4.66698C6.54744 4.91116 6.46382 5.14734 6.31333 5.33968C6.16285 5.53202 5.95372 5.67001 5.7177 5.73272C5.48167 5.79542 5.23164 5.77941 5.00553 5.68712C4.77943 5.59483 4.58961 5.43129 4.46489 5.22133ZM18.3505 14.9129C18.0742 16.2721 17.3886 17.5142 16.3859 18.4725C15.3831 19.4307 14.1112 20.0592 12.7408 20.2736C12.3964 20.3245 12.0486 20.3493 11.7005 20.3479C10.3026 20.3484 8.93876 19.9167 7.79576 19.112C6.65276 18.3073 5.7865 17.1689 5.31563 15.8527C4.84476 14.5365 4.79232 13.1069 5.16549 11.7598C5.53865 10.4126 6.31917 9.21381 7.40014 8.3275C8.47119 7.44627 9.78774 6.91643 11.1706 6.81008C12.2166 6.7269 13.2676 6.88779 14.2407 7.28009C15.2139 7.67238 16.0827 8.28535 16.7785 9.07068C17.4743 9.85601 17.9783 10.7922 18.2506 11.8055C18.5228 12.8189 18.556 13.8816 18.3475 14.9099L18.3505 14.9129ZM15.4442 9.82931C15.4029 9.79044 15.3483 9.7688 15.2915 9.7688C15.2348 9.7688 15.1802 9.79044 15.1388 9.82931L14.4247 10.5434L12.7081 12.26C12.02 12.9506 11.3312 13.6394 10.6416 14.3266L8.8477 16.1189C8.55789 16.4087 8.25322 16.6926 7.9753 16.9913L7.96267 17.004C7.9238 17.0453 7.90216 17.0999 7.90216 17.1567C7.90216 17.2134 7.9238 17.268 7.96267 17.3094C8.73491 18.0807 9.7266 18.5946 10.8021 18.7807C11.8631 18.9605 12.9536 18.817 13.932 18.369C14.4901 18.1104 14.9984 17.7557 15.4338 17.3213C15.4383 17.3168 15.4427 17.3146 15.445 17.3101C16.2163 16.5379 16.7302 15.5462 16.9163 14.4707C17.0615 13.6357 17.0036 12.7779 16.7475 11.97C16.4915 11.162 16.0447 10.4275 15.445 9.82857L15.4442 9.82931Z" fill="#0DADB9"/>
</svg>
