<svg width="24" height="24" viewBox="0 0 24 24" fill="none" xmlns="http://www.w3.org/2000/svg">
<path fill-rule="evenodd" clip-rule="evenodd" d="M8.00003 8C5.79089 8 4.00003 9.79086 4.00003 12V12.5C4.00003 14.7091 5.79089 16.5 8.00003 16.5H18.5C19.6046 16.5 20.5 15.6046 20.5 14.5V14.4649C19.9117 14.8052 19.2286 15 18.5 15H8.75003C7.23125 15 6.00003 13.7688 6.00003 12.25C6.00003 10.7312 7.23125 9.5 8.75003 9.5H18.5C19.0523 9.5 19.5 9.94772 19.5 10.5C19.5 11.0523 19.0523 11.5 18.5 11.5H8.75003C8.33582 11.5 8.00003 11.8358 8.00003 12.25C8.00003 12.6642 8.33582 13 8.75003 13H18.5C19.6046 13 20.5 12.1046 20.5 11V10C20.5 8.89543 19.6046 8 18.5 8H8.00003ZM22.4863 11.3339C22.4954 11.2238 22.5 11.1124 22.5 11V10C22.5 7.79086 20.7092 6 18.5 6H8.00003C4.68632 6 2.00003 8.68629 2.00003 12V12.5C2.00003 15.8137 4.68632 18.5 8.00003 18.5H18.5C20.7092 18.5 22.5 16.7091 22.5 14.5V11.5C22.5 11.4434 22.4953 11.3879 22.4863 11.3339Z" fill="#0DADB9"/>
</svg>
