<svg width="24" height="24" viewBox="0 0 24 24" fill="none" xmlns="http://www.w3.org/2000/svg">
<path fill-rule="evenodd" clip-rule="evenodd" d="M7.77778 4.5C7.77778 3.94772 8.22549 3.5 8.77778 3.5H17.3648C18.7228 3.5 19.8541 4.54095 19.9669 5.89427L20.9067 17.172C21.0336 18.6944 19.8322 20 18.3046 20H5.55556C4.18193 20 2.79533 18.8297 3.1246 17.201C4.27706 11.5005 10.6531 7.41001 18.0637 7.13929L17.9738 6.06036C17.9474 5.74363 17.6826 5.5 17.3648 5.5H8.77778C8.22549 5.5 7.77778 5.05228 7.77778 4.5ZM18.23 9.13447C11.2998 9.34779 5.98704 13.1352 5.08494 17.5973C5.06644 17.6889 5.08806 17.7662 5.15925 17.842C5.23977 17.9277 5.38087 18 5.55556 18H18.3046C18.6621 18 18.9433 17.6944 18.9136 17.3381L18.23 9.13447Z" fill="#0DADB9"/>
<path d="M11.9105 13.2299C12.1754 13.0528 12.4869 12.9583 12.8055 12.9583C13.2328 12.9583 13.6426 13.1281 13.9448 13.4302C14.2469 13.7324 14.4167 14.1422 14.4167 14.5694C14.4167 14.8881 14.3222 15.1996 14.1451 15.4645C13.9681 15.7295 13.7165 15.936 13.4221 16.0579C13.1277 16.1799 12.8038 16.2118 12.4912 16.1496C12.1787 16.0874 11.8916 15.934 11.6663 15.7087C11.441 15.4834 11.2876 15.1963 11.2254 14.8838C11.1632 14.5712 11.1951 14.2473 11.3171 13.9529C11.439 13.6585 11.6455 13.4069 11.9105 13.2299Z" fill="#0DADB9"/>
</svg>
