<svg width="24" height="24" viewBox="0 0 24 24" fill="none" xmlns="http://www.w3.org/2000/svg">
<path d="M5.78915 7.77924C6.04312 7.60955 6.3417 7.51898 6.64714 7.51898C7.05673 7.51898 7.44954 7.68168 7.73916 7.9713C8.02878 8.26093 8.19149 8.65374 8.19149 9.06332C8.19149 9.36877 8.10092 9.66735 7.93122 9.92132C7.76153 10.1753 7.52033 10.3732 7.23814 10.4901C6.95595 10.607 6.64543 10.6376 6.34586 10.578C6.04628 10.5184 5.77111 10.3713 5.55513 10.1553C5.33915 9.93936 5.19206 9.66418 5.13247 9.36461C5.07288 9.06504 5.10347 8.75452 5.22035 8.47233C5.33724 8.19013 5.53518 7.94894 5.78915 7.77924Z" fill="#0DADB9"/>
<path fill-rule="evenodd" clip-rule="evenodd" d="M4.48649 13.7045C3.01233 12.8025 2.01404 11.1779 2.01404 9.32363C2.01404 6.48898 3.88043 4.19104 7.14662 4.19104C10.3759 4.19104 13.6052 5.08501 15.2877 5.63555C16.0137 5.87311 16.4786 6.55835 16.4786 7.32227V11.3757C16.4786 12.114 16.0424 12.7813 15.3451 13.0237C14.2008 13.4216 12.2757 13.991 9.96767 14.2773L10.608 16.7844C10.9684 18.1955 10.0888 19.6248 8.66662 19.9389C7.31177 20.2381 5.96316 19.4111 5.61557 18.0678L4.48649 13.7045ZM3.71475 9.32363C3.71475 11.2115 5.27875 12.7555 7.14662 12.7555C10.3988 12.7555 13.2749 11.9415 14.7698 11.4231C14.7734 11.4144 14.7779 11.3988 14.7779 11.3757V7.32227C14.7779 7.28565 14.7669 7.26369 14.7609 7.25503L14.7584 7.2518C13.1352 6.72072 10.1077 5.89175 7.14662 5.89175C5.93427 5.89175 5.11554 6.30622 4.59351 6.86044C4.05646 7.4306 3.71475 8.27666 3.71475 9.32363ZM6.42443 14.4047L7.26206 17.6418C7.38029 18.0987 7.83899 18.38 8.29983 18.2782C8.78356 18.1713 9.08273 17.6852 8.96015 17.2052L8.25084 14.428C7.88855 14.4463 7.52005 14.4562 7.14662 14.4562C6.90191 14.4562 6.66076 14.4387 6.42443 14.4047Z" fill="#0DADB9"/>
<path d="M17.0893 9.98662C17.4007 9.64994 17.9312 9.64972 18.2741 9.98613C18.3988 10.1084 18.552 10.2032 18.6717 10.227C18.7195 10.2364 18.7586 10.2344 18.7994 10.2205C18.8413 10.2062 18.9232 10.166 19.0333 10.0426C19.9428 9.02383 21.0414 8.92413 21.7546 9.3426C22.1649 9.58336 22.3233 10.1114 22.1083 10.5219C21.8976 10.9244 21.4063 11.0646 21.0005 10.8432L20.9981 10.8427C20.9664 10.8362 20.703 10.7821 20.2942 11.2401C19.7429 11.8577 19.0719 12.046 18.4303 11.9188C17.8556 11.8048 17.405 11.459 17.1464 11.2054C16.8034 10.8689 16.7779 10.3233 17.0893 9.98662Z" fill="#0DADB9"/>
<path d="M18.1859 7.05132C17.8082 6.76223 17.2784 6.82989 17.0026 7.20244C16.7267 7.57499 16.8092 8.11136 17.1869 8.40045C17.4712 8.61804 17.9578 8.90284 18.5444 8.9394C19.2005 8.9803 19.8473 8.70086 20.3272 8.01611C20.5933 7.63631 20.4973 7.10184 20.1127 6.82234C19.7281 6.54285 19.2006 6.62416 18.9344 7.00396C18.8376 7.14215 18.7603 7.19284 18.7209 7.21231C18.683 7.23106 18.6462 7.23788 18.5999 7.235C18.4823 7.22767 18.3224 7.15575 18.1859 7.05132Z" fill="#0DADB9"/>
</svg>
