<svg width="24" height="24" viewBox="0 0 24 24" fill="none" xmlns="http://www.w3.org/2000/svg">
<path d="M10.4309 11.5585C10.4309 11.0508 10.8537 10.6392 11.3752 10.6392C11.8968 10.6392 12.3195 10.2277 12.3195 9.71998C12.3195 9.21229 11.8968 8.80073 11.3752 8.80073C9.81067 8.80073 8.54234 10.0354 8.54234 11.5585C8.54234 12.0662 8.96512 12.4777 9.48664 12.4777C10.0082 12.4777 10.4309 12.0662 10.4309 11.5585Z" fill="#0DADB9"/>
<path fill-rule="evenodd" clip-rule="evenodd" d="M11.3752 17.074C14.5044 17.074 17.041 14.6046 17.041 11.5585C17.041 8.51235 14.5044 6.04298 11.3752 6.04298C8.24611 6.04298 5.70945 8.51235 5.70945 11.5585C5.70945 14.6046 8.24611 17.074 11.3752 17.074ZM11.3752 15.2355C13.4613 15.2355 15.1524 13.5892 15.1524 11.5585C15.1524 9.52773 13.4613 7.88148 11.3752 7.88148C9.28915 7.88148 7.59804 9.52773 7.59804 11.5585C7.59804 13.5892 9.28915 15.2355 11.3752 15.2355Z" fill="#0DADB9"/>
<path fill-rule="evenodd" clip-rule="evenodd" d="M18.5696 6.42235C17.4364 4.71117 16.3391 3.05425 14.1554 2.33513C11.0609 1.31606 8.22148 2.85887 6.49306 3.79803C6.4201 3.83768 6.34912 3.87625 6.28018 3.9135C4.57814 4.83331 1.52664 7.34787 2.0622 11.6755C2.21466 12.9074 2.26706 13.9654 2.31366 14.9062C2.43074 17.27 2.51113 18.8932 4.05017 20.6737C5.82447 22.7263 9.97349 22.2658 13.2041 20.1893C14.67 19.2471 15.7946 18.9071 16.8035 18.602C18.0181 18.2348 19.0649 17.9183 20.3374 16.6629C22.6668 14.3648 22.4387 11.1188 20.3374 8.81188C19.6588 8.06695 19.1101 7.23845 18.5696 6.42235ZM7.19684 5.52092C5.78582 6.28346 3.5363 8.21579 3.93724 11.4556C4.07921 12.6028 4.13847 13.602 4.18248 14.4661C4.18875 14.5892 4.19467 14.7084 4.20042 14.8239C4.23608 15.5411 4.26486 16.1199 4.32701 16.659C4.45875 17.8017 4.7213 18.5946 5.49523 19.49C5.84077 19.8897 6.60343 20.2415 7.94358 20.1463C9.24591 20.0538 10.7842 19.5416 12.1635 18.6551C13.8595 17.565 15.2089 17.158 16.2388 16.8475C16.3423 16.8163 16.4426 16.786 16.5397 16.7562C17.4834 16.4659 18.1322 16.2209 18.993 15.3716C20.514 13.871 20.4754 11.7344 18.9243 10.0317C18.3066 9.35352 17.7994 8.63764 17.3593 7.98441C17.2157 7.77133 17.0829 7.57074 16.9558 7.37876C16.6714 6.94922 16.4154 6.56269 16.1313 6.17579C15.3541 5.11719 14.6225 4.42979 13.5502 4.07668C11.2628 3.32341 9.09526 4.49489 7.23436 5.50064L7.19684 5.52092Z" fill="#0DADB9"/>
</svg>
