<svg width="24" height="24" viewBox="0 0 24 24" fill="none" xmlns="http://www.w3.org/2000/svg">
<path d="M4.90039 10.3385C4.90039 9.83647 5.3074 9.42946 5.80948 9.42946H18.1904C18.6925 9.42946 19.0995 9.83647 19.0995 10.3385C19.0995 10.8406 18.6925 11.2476 18.1904 11.2476H5.80948C5.3074 11.2476 4.90039 10.8406 4.90039 10.3385Z" fill="#0DADB9"/>
<path fill-rule="evenodd" clip-rule="evenodd" d="M4.72727 3.67197C3.22104 3.67197 2 4.89301 2 6.39924V11.4209C2 12.9271 3.22104 14.1482 4.72727 14.1482H19.2727C20.779 14.1482 22 12.9271 22 11.4209V6.39924C22 4.89301 20.779 3.67197 19.2727 3.67197H4.72727ZM19.2727 5.49015H4.72727C4.2252 5.49015 3.81818 5.89716 3.81818 6.39924V11.4209C3.81818 11.923 4.2252 12.33 4.72727 12.33H19.2727C19.7748 12.33 20.1818 11.923 20.1818 11.4209V6.39924C20.1818 5.89716 19.7748 5.49015 19.2727 5.49015Z" fill="#0DADB9"/>
<path d="M9.65146 17.2154C10.0123 16.901 10.0534 16.3741 9.74318 16.0386C9.43301 15.7031 8.88905 15.686 8.52823 16.0005C8.25618 16.2375 7.87763 16.6582 7.7197 17.2202C7.5434 17.8475 7.67825 18.5286 8.24876 19.1243C8.67187 19.566 8.5976 19.8234 8.58867 19.8544L8.58801 19.8567C8.33656 20.2426 8.4376 20.7414 8.82092 20.982C9.21198 21.2275 9.74874 21.1113 10.0198 20.7225C10.4909 20.0467 10.4774 18.9477 9.53627 17.9651C9.42225 17.8461 9.38879 17.7617 9.37782 17.7189C9.36717 17.6774 9.36818 17.6384 9.38131 17.5916C9.41422 17.4745 9.52028 17.3298 9.65146 17.2154Z" fill="#0DADB9"/>
<path d="M13.1319 16.0386C13.442 16.3741 13.401 16.901 13.0401 17.2154C12.909 17.3298 12.8029 17.4745 12.77 17.5916C12.7568 17.6384 12.7558 17.6774 12.7665 17.7189C12.7775 17.7617 12.8109 17.8461 12.9249 17.9651C13.8661 18.9477 13.8796 20.0467 13.4085 20.7225C13.1374 21.1113 12.6006 21.2275 12.2096 20.982C11.8263 20.7414 11.7252 20.2426 11.9767 19.8567L11.9773 19.8544C11.9863 19.8234 12.0605 19.566 11.6374 19.1243C11.0669 18.5286 10.9321 17.8475 11.1084 17.2202C11.2663 16.6582 11.6449 16.2375 11.9169 16.0005C12.2777 15.686 12.8217 15.7031 13.1319 16.0386Z" fill="#0DADB9"/>
<path d="M16.429 17.2154C16.7899 16.901 16.8309 16.3741 16.5207 16.0386C16.2106 15.7031 15.6666 15.686 15.3058 16.0005C15.0337 16.2375 14.6552 16.6582 14.4973 17.2202C14.321 17.8475 14.4558 18.5286 15.0263 19.1243C15.4494 19.566 15.3752 19.8234 15.3662 19.8544L15.3656 19.8567C15.1141 20.2426 15.2152 20.7414 15.5985 20.982C15.9895 21.2275 16.5263 21.1113 16.7974 20.7225C17.2685 20.0467 17.255 18.9477 16.3138 17.9651C16.1998 17.8461 16.1664 17.7617 16.1554 17.7189C16.1447 17.6774 16.1457 17.6384 16.1589 17.5916C16.1918 17.4745 16.2978 17.3298 16.429 17.2154Z" fill="#0DADB9"/>
</svg>
