<svg width="24" height="24" viewBox="0 0 24 24" fill="none" xmlns="http://www.w3.org/2000/svg">
<path d="M22 12H4.99997V6.41015C4.99646 6.05002 5.0915 5.69579 5.27481 5.38579C5.45812 5.07579 5.72272 4.82182 6.03997 4.65136C6.39078 4.46124 6.79055 4.38071 7.18761 4.42016C6.98551 5.03222 6.9568 5.68827 7.10466 6.31565C7.25252 6.94302 7.57117 7.51721 8.02532 7.9746L9.08591 9.03515C9.17874 9.12803 9.28896 9.20171 9.41028 9.25197C9.53159 9.30224 9.66162 9.32811 9.79294 9.32811C9.92426 9.32811 10.0543 9.30224 10.1756 9.25197C10.2969 9.20171 10.4071 9.12803 10.5 9.03515L14.0351 5.49999C14.128 5.40716 14.2017 5.29694 14.252 5.17562C14.3022 5.05431 14.3281 4.92428 14.3281 4.79296C14.3281 4.66164 14.3022 4.53161 14.252 4.4103C14.2017 4.28898 14.128 4.17876 14.0351 4.08593L12.9746 3.02538C12.3843 2.43775 11.6035 2.08032 10.773 2.01752C9.94244 1.95472 9.11679 2.19067 8.44486 2.68285C7.83903 2.44624 7.18456 2.36122 6.53838 2.43519C5.8922 2.50916 5.27388 2.73987 4.73718 3.10726C4.20049 3.47466 3.76168 3.96761 3.45892 4.54324C3.15615 5.11887 2.9986 5.75975 2.99997 6.41015V12H1.99997C1.73475 12 1.4804 12.1053 1.29286 12.2929C1.10533 12.4804 0.999969 12.7348 0.999969 13C0.999969 13.2652 1.10533 13.5196 1.29286 13.7071C1.4804 13.8946 1.73475 14 1.99997 14H2.99997V17C3.00187 17.6184 3.19514 18.221 3.55324 18.7251C3.91134 19.2293 4.41671 19.6102 4.99997 19.8157V21C4.99997 21.2652 5.10533 21.5196 5.29286 21.7071C5.4804 21.8946 5.73475 22 5.99997 22C6.26519 22 6.51954 21.8946 6.70708 21.7071C6.89461 21.5196 6.99997 21.2652 6.99997 21V20H17V21C17 21.2652 17.1053 21.5196 17.2929 21.7071C17.4804 21.8946 17.7348 22 18 22C18.2652 22 18.5195 21.8946 18.7071 21.7071C18.8946 21.5196 19 21.2652 19 21V19.8157C19.5832 19.6103 20.0886 19.2293 20.4467 18.7252C20.8048 18.221 20.9981 17.6184 21 17V14H22C22.2652 14 22.5195 13.8946 22.7071 13.7071C22.8946 13.5196 23 13.2652 23 13C23 12.7348 22.8946 12.4804 22.7071 12.2929C22.5195 12.1053 22.2652 12 22 12ZM9.43942 4.43944C9.72095 4.15865 10.1023 4.00097 10.5 4.00097C10.8976 4.00097 11.279 4.15865 11.5605 4.43944L11.914 4.79296L9.79297 6.91405L9.43945 6.56054C9.15851 6.27909 9.00072 5.89767 9.00071 5.5C9.00071 5.10233 9.15849 4.7209 9.43942 4.43944ZM19 17C18.9998 17.2652 18.8944 17.5194 18.7069 17.7069C18.5194 17.8944 18.2651 17.9998 18 18H5.99997C5.73481 17.9998 5.48056 17.8944 5.29306 17.7069C5.10556 17.5194 5.00015 17.2652 4.99997 17V14H19V17Z" fill="#0DADB9"/>
</svg>
