<svg width="24" height="24" viewBox="0 0 24 24" fill="none" xmlns="http://www.w3.org/2000/svg">
<path d="M19.44 13C19.22 13 18.99 12.93 18.77 12.88C18.3245 12.7818 17.8867 12.6515 17.46 12.49C16.9961 12.3212 16.4862 12.33 16.0283 12.5146C15.5705 12.6992 15.1971 13.0466 14.98 13.49L14.76 13.94C13.786 13.3982 12.891 12.7252 12.1 11.94C11.3148 11.149 10.6419 10.254 10.1 9.28L10.52 9.00001C10.9634 8.78292 11.3108 8.40954 11.4954 7.9517C11.68 7.49386 11.6888 6.98392 11.52 6.52001C11.3613 6.09243 11.231 5.6548 11.13 5.21001C11.08 4.99001 11.04 4.76001 11.01 4.53001C10.8886 3.82563 10.5197 3.18775 9.96966 2.73124C9.41966 2.27474 8.72474 2.02961 8.01004 2.04001H5.01004C4.57907 2.03596 4.15229 2.12482 3.75875 2.30054C3.36521 2.47625 3.01415 2.7347 2.72947 3.05829C2.44479 3.38187 2.23317 3.763 2.10903 4.17572C1.98488 4.58844 1.95112 5.02306 2.01004 5.45001C2.54278 9.63939 4.45607 13.5319 7.44769 16.5126C10.4393 19.4934 14.3387 21.3925 18.53 21.91H18.91C19.6475 21.9111 20.3594 21.6405 20.91 21.15C21.2264 20.867 21.4791 20.5202 21.6515 20.1323C21.8239 19.7445 21.912 19.3244 21.91 18.9V15.9C21.8978 15.2054 21.6448 14.5366 21.1944 14.0077C20.7439 13.4788 20.1239 13.1226 19.44 13ZM19.94 19C19.9399 19.142 19.9094 19.2823 19.8508 19.4116C19.7922 19.5409 19.7067 19.6563 19.6 19.75C19.4886 19.847 19.358 19.9194 19.2167 19.9625C19.0754 20.0056 18.9266 20.0184 18.78 20C15.0349 19.5198 11.5563 17.8065 8.89276 15.1303C6.22924 12.4541 4.53245 8.96734 4.07004 5.22001C4.05412 5.07352 4.06807 4.92534 4.11104 4.7844C4.15401 4.64346 4.22511 4.51269 4.32004 4.40001C4.41375 4.29334 4.5291 4.20785 4.65842 4.14922C4.78774 4.0906 4.92806 4.06019 5.07004 4.06001H8.07004C8.30259 4.05483 8.52966 4.13088 8.71218 4.27508C8.8947 4.41927 9.02125 4.62258 9.07004 4.85001C9.11004 5.12334 9.16004 5.39334 9.22004 5.66001C9.33556 6.18715 9.4893 6.70518 9.68004 7.21001L8.28004 7.86001C8.16034 7.91493 8.05266 7.99295 7.9632 8.0896C7.87373 8.18625 7.80424 8.29962 7.75871 8.4232C7.71318 8.54678 7.69251 8.67814 7.69789 8.80973C7.70326 8.94132 7.73458 9.07055 7.79004 9.19C9.22924 12.2728 11.7073 14.7508 14.79 16.19C15.0335 16.29 15.3066 16.29 15.55 16.19C15.6748 16.1454 15.7894 16.0765 15.8872 15.9872C15.9851 15.8979 16.0642 15.7901 16.12 15.67L16.74 14.27C17.257 14.4549 17.7846 14.6085 18.32 14.73C18.5867 14.79 18.8567 14.84 19.13 14.88C19.3575 14.9288 19.5608 15.0553 19.705 15.2379C19.8492 15.4204 19.9252 15.6475 19.92 15.88L19.94 19Z" fill="#0DADB9"/>
</svg>
