<svg width="24" height="24" viewBox="0 0 24 24" fill="none" xmlns="http://www.w3.org/2000/svg">
<path d="M7 8C6.45 8 5.979 7.804 5.587 7.412C5.195 7.02 4.99934 6.54933 5 6C5 5.45 5.196 4.979 5.588 4.587C5.98 4.195 6.45067 3.99933 7 4C7.55 4 8.021 4.196 8.413 4.588C8.805 4.98 9.00067 5.45067 9 6C9 6.55 8.804 7.021 8.412 7.413C8.02 7.805 7.54934 8.00067 7 8ZM4 22C3.45 22 2.979 21.804 2.587 21.412C2.195 21.02 1.99934 20.5493 2 20V13C2 12.7167 2.096 12.479 2.288 12.287C2.48 12.095 2.71733 11.9993 3 12H5V11.25C5 10.6167 5.21667 10.0833 5.65 9.65C6.08333 9.21667 6.61667 9 7.25 9C7.58334 9 7.896 9.06667 8.188 9.2C8.48 9.33333 8.734 9.51667 8.95 9.75L10.35 11.3C10.4667 11.4333 10.5917 11.5583 10.725 11.675C10.8583 11.7917 11 11.9 11.15 12H21C21.2833 12 21.521 12.096 21.713 12.288C21.905 12.48 22.0007 12.7173 22 13V20C22 20.55 21.804 21.021 21.412 21.413C21.02 21.805 20.5493 22.0007 20 22H4ZM19.025 10C18.7583 10 18.5417 9.904 18.375 9.712C18.2083 9.52 18.125 9.27433 18.125 8.975C18.125 8.64167 18.0667 8.325 17.95 8.025C17.8333 7.725 17.6333 7.43333 17.35 7.15C16.8667 6.66667 16.5207 6.14567 16.312 5.587C16.1033 5.02833 16.0077 4.44933 16.025 3.85C16.0417 3.61667 16.1417 3.41667 16.325 3.25C16.5083 3.08333 16.725 3 16.975 3C17.2417 3 17.4583 3.09167 17.625 3.275C17.7917 3.45833 17.8667 3.7 17.85 4C17.8333 4.33333 17.8877 4.65 18.013 4.95C18.1383 5.25 18.334 5.53333 18.6 5.8C19.0833 6.28333 19.4377 6.81267 19.663 7.388C19.8883 7.96333 19.9923 8.55067 19.975 9.15C19.975 9.38333 19.879 9.58333 19.687 9.75C19.495 9.91667 19.2743 10 19.025 10ZM15.025 10C14.7583 10 14.5417 9.904 14.375 9.712C14.2083 9.52 14.125 9.27433 14.125 8.975C14.125 8.64167 14.0667 8.325 13.95 8.025C13.8333 7.725 13.6333 7.43333 13.35 7.15C12.8667 6.66667 12.5207 6.14567 12.312 5.587C12.1033 5.02833 12.0077 4.44933 12.025 3.85C12.0417 3.61667 12.1417 3.41667 12.325 3.25C12.5083 3.08333 12.725 3 12.975 3C13.2417 3 13.4583 3.09167 13.625 3.275C13.7917 3.45833 13.8667 3.7 13.85 4C13.8333 4.33333 13.8877 4.65 14.013 4.95C14.1383 5.25 14.334 5.53333 14.6 5.8C15.0833 6.28333 15.4377 6.81267 15.663 7.388C15.8883 7.96333 15.9923 8.55067 15.975 9.15C15.975 9.38333 15.8793 9.58333 15.688 9.75C15.4967 9.91667 15.2757 10 15.025 10ZM18 20C18.2833 20 18.521 19.904 18.713 19.712C18.905 19.52 19.0007 19.2827 19 19V15C19 14.7167 18.904 14.479 18.712 14.287C18.52 14.095 18.2827 13.9993 18 14C17.7167 14 17.479 14.096 17.287 14.288C17.095 14.48 16.9993 14.7173 17 15V19C17 19.2833 17.096 19.521 17.288 19.713C17.48 19.905 17.7173 20.0007 18 20ZM14 20C14.2833 20 14.521 19.904 14.713 19.712C14.905 19.52 15.0007 19.2827 15 19V15C15 14.7167 14.904 14.479 14.712 14.287C14.52 14.095 14.2827 13.9993 14 14C13.7167 14 13.479 14.096 13.287 14.288C13.095 14.48 12.9993 14.7173 13 15V19C13 19.2833 13.096 19.521 13.288 19.713C13.48 19.905 13.7173 20.0007 14 20ZM10 20C10.2833 20 10.521 19.904 10.713 19.712C10.905 19.52 11.0007 19.2827 11 19V15C11 14.7167 10.904 14.479 10.712 14.287C10.52 14.095 10.2827 13.9993 10 14C9.71667 14 9.479 14.096 9.287 14.288C9.095 14.48 8.99934 14.7173 9 15V19C9 19.2833 9.096 19.521 9.288 19.713C9.48 19.905 9.71734 20.0007 10 20ZM6 20C6.28334 20 6.521 19.904 6.713 19.712C6.905 19.52 7.00067 19.2827 7 19V15C7 14.7167 6.904 14.479 6.712 14.287C6.52 14.095 6.28267 13.9993 6 14C5.71667 14 5.479 14.096 5.287 14.288C5.095 14.48 4.99934 14.7173 5 15V19C5 19.2833 5.096 19.521 5.288 19.713C5.48 19.905 5.71734 20.0007 6 20Z" fill="#0DADB9"/>
</svg>
