<svg width="24" height="24" viewBox="0 0 24 24" fill="none" xmlns="http://www.w3.org/2000/svg">
<path d="M20.4059 8.42083C20.2578 8.36258 20.1 8.33289 19.9409 8.33333H19.9242C19.0838 8.34583 18.1413 9.13292 17.6467 10.3233C17.0538 11.7475 17.3267 13.2046 18.2609 13.5792C18.4088 13.6374 18.5665 13.6671 18.7255 13.6667C19.57 13.6667 20.5255 12.875 21.0242 11.6767C21.613 10.2525 21.3359 8.79542 20.4059 8.42083ZM14.9834 13.9783C13.825 12.0563 13.325 11.3333 12 11.3333C10.675 11.3333 10.1709 12.0608 9.01254 13.9783C8.02087 15.6183 6.0167 15.755 5.5167 17.1479C5.41527 17.4031 5.36432 17.6755 5.3667 17.95C5.3667 19.0829 6.23337 20 7.30004 20C8.62504 20 10.4292 18.9421 12.0042 18.9421C13.5792 18.9421 15.375 20 16.7 20C17.7667 20 18.6292 19.0833 18.6292 17.95C18.6302 17.6752 18.5778 17.4028 18.475 17.1479C17.975 15.75 15.975 15.6183 14.9834 13.9783ZM9.35462 9.5C9.41041 9.50005 9.46613 9.49587 9.52129 9.4875C10.4884 9.34708 11.0921 8.00708 10.873 6.49375C10.6667 5.06708 9.80087 4 8.89545 4C8.83966 3.99996 8.78395 4.00413 8.72879 4.0125C7.7617 4.15292 7.15795 5.49292 7.37712 7.00625C7.58337 8.42875 8.4492 9.5 9.35462 9.5ZM16.6217 7.00625C16.8409 5.49292 16.2371 4.15292 15.27 4.0125C15.2149 4.00413 15.1592 3.99996 15.1034 4C14.198 4 13.3338 5.06708 13.1271 6.49375C12.908 8.00708 13.5117 9.34708 14.4788 9.4875C14.5339 9.49587 14.5897 9.50005 14.6455 9.5C15.5509 9.5 16.4167 8.42875 16.6217 7.00625ZM5.74045 13.5792C6.67337 13.2042 6.94587 11.7458 6.35379 10.3233C5.85545 9.125 4.90087 8.33333 4.05754 8.33333C3.89854 8.3329 3.7409 8.36259 3.59295 8.42083C2.66004 8.79583 2.38754 10.2542 2.97962 11.6767C3.47795 12.875 4.43254 13.6667 5.27587 13.6667C5.43487 13.6671 5.59251 13.6374 5.74045 13.5792Z" stroke="#0DADB9" stroke-width="1.5" stroke-miterlimit="10"/>
</svg>
