<svg width="24" height="24" viewBox="0 0 24 24" fill="none" xmlns="http://www.w3.org/2000/svg">
<path d="M16.5 5.00001C15.6195 4.99931 14.7554 5.2378 14 5.69001C13.4522 4.4328 12.4904 3.40115 11.2745 2.76686C10.0587 2.13258 8.66223 1.93393 7.31773 2.204C5.97324 2.47406 4.76183 3.19655 3.88523 4.25115C3.00863 5.30574 2.51974 6.6288 2.49997 8.00001V12C2.50141 13.4169 3.00422 14.7875 3.91935 15.8692C4.83449 16.9509 6.10291 17.6739 7.49997 17.91V21C7.49997 21.2652 7.60533 21.5196 7.79286 21.7071C7.9804 21.8947 8.23475 22 8.49997 22C8.76519 22 9.01954 21.8947 9.20708 21.7071C9.39461 21.5196 9.49997 21.2652 9.49997 21V17.91C10.5187 17.7332 11.4755 17.2996 12.28 16.65C12.637 17.223 13.1063 17.7178 13.6598 18.1045C14.2132 18.4912 14.8391 18.7618 15.5 18.9V21C15.5 21.2652 15.6053 21.5196 15.7929 21.7071C15.9804 21.8947 16.2348 22 16.5 22C16.7652 22 17.0195 21.8947 17.2071 21.7071C17.3946 21.5196 17.5 21.2652 17.5 21V18.9C18.6293 18.6695 19.6444 18.0558 20.3733 17.1629C21.1022 16.27 21.5002 15.1527 21.5 14V10C21.5 8.67393 20.9732 7.40216 20.0355 6.46448C19.0978 5.52679 17.8261 5.00001 16.5 5.00001ZM11.5 10V14C11.5095 14.191 11.5296 14.3812 11.56 14.57C11.0252 15.207 10.3051 15.6614 9.49997 15.87V13C9.49997 12.7348 9.39461 12.4804 9.20708 12.2929C9.01954 12.1054 8.76519 12 8.49997 12C8.23475 12 7.9804 12.1054 7.79286 12.2929C7.60533 12.4804 7.49997 12.7348 7.49997 13V15.86C6.64349 15.6389 5.88448 15.1401 5.34166 14.4416C4.79884 13.7432 4.50284 12.8846 4.49997 12V8.00001C4.49736 7.20757 4.73018 6.43222 5.1689 5.77231C5.60763 5.1124 6.23247 4.59767 6.96417 4.29341C7.69588 3.98916 8.50146 3.9091 9.27874 4.06339C10.056 4.21767 10.7699 4.59935 11.33 5.16001C11.8713 5.70865 12.2399 6.40401 12.39 7.16001C11.8119 7.99439 11.5015 8.98495 11.5 10ZM19.5 14C19.4982 14.619 19.3051 15.2222 18.947 15.7271C18.589 16.2319 18.0835 16.6137 17.5 16.82V13C17.5 12.7348 17.3946 12.4804 17.2071 12.2929C17.0195 12.1054 16.7652 12 16.5 12C16.2348 12 15.9804 12.1054 15.7929 12.2929C15.6053 12.4804 15.5 12.7348 15.5 13V16.82C14.9164 16.6137 14.411 16.2319 14.0529 15.7271C13.6948 15.2222 13.5017 14.619 13.5 14V10C13.5 9.20436 13.816 8.4413 14.3786 7.87869C14.9413 7.31608 15.7043 7.00001 16.5 7.00001C17.2956 7.00001 18.0587 7.31608 18.6213 7.87869C19.1839 8.4413 19.5 9.20436 19.5 10V14Z" fill="#0DADB9"/>
</svg>
