<svg width="24" height="24" viewBox="0 0 24 24" fill="none" xmlns="http://www.w3.org/2000/svg">
<path fill-rule="evenodd" clip-rule="evenodd" d="M3.99463 12C3.22572 11.1857 2.74075 9.99413 2.74075 8.66669V6.44447C2.74075 3.98987 4.39896 2.00003 6.44445 2.00003H17.5556C19.601 2.00003 21.2593 3.98987 21.2593 6.44447V8.66669C21.2593 9.99412 20.7743 11.1856 20.0054 12C20.7743 12.8144 21.2593 14.0059 21.2593 15.3333V17.5556C21.2593 20.0102 19.6011 22 17.5556 22H6.44448C4.39899 22 2.74078 20.0102 2.74078 17.5556V15.3333C2.74078 14.0059 3.22573 12.8144 3.99463 12ZM6.44445 4.22225H17.5556C18.5783 4.22225 19.4074 5.21717 19.4074 6.44447V8.66669C19.4074 9.89399 18.5783 10.8889 17.5556 10.8889H6.44448C5.42173 10.8889 4.5926 9.89399 4.5926 8.66669V6.44447C4.5926 5.21717 5.4217 4.22225 6.44445 4.22225ZM6.44448 13.1111C5.42173 13.1111 4.59263 14.106 4.59263 15.3333V17.5556C4.59263 18.7829 5.42173 19.7778 6.44448 19.7778H17.5556C18.5783 19.7778 19.4074 18.7829 19.4074 17.5556V15.3333C19.4074 14.106 18.5783 13.1111 17.5556 13.1111H6.44448Z" fill="#0DADB9"/>
</svg>
