<svg width="24" height="24" viewBox="0 0 24 24" fill="none" xmlns="http://www.w3.org/2000/svg">
<path d="M19.63 3.65C19.5138 3.55602 19.378 3.48928 19.2327 3.45467C19.0873 3.42006 18.936 3.41846 18.79 3.45C17.7214 3.67395 16.6183 3.6768 15.5486 3.45839C14.4789 3.23997 13.4652 2.80492 12.57 2.18C12.4026 2.06388 12.2037 2.00165 12 2.00165C11.7962 2.00165 11.5974 2.06388 11.43 2.18C10.5347 2.80492 9.52105 3.23997 8.45134 3.45839C7.38163 3.6768 6.27854 3.67395 5.20998 3.45C5.06391 3.41846 4.91264 3.42006 4.76728 3.45467C4.62191 3.48928 4.48615 3.55602 4.36998 3.65C4.25395 3.74412 4.1605 3.86304 4.09647 3.99802C4.03244 4.133 3.99947 4.28061 3.99998 4.43V11.88C3.99909 13.3138 4.34075 14.727 4.99651 16.002C5.65227 17.277 6.60315 18.3768 7.76998 19.21L11.42 21.81C11.5893 21.9306 11.7921 21.9954 12 21.9954C12.2079 21.9954 12.4106 21.9306 12.58 21.81L16.23 19.21C17.3968 18.3768 18.3477 17.277 19.0034 16.002C19.6592 14.727 20.0009 13.3138 20 11.88V4.43C20.0005 4.28061 19.9675 4.133 19.9035 3.99802C19.8395 3.86304 19.746 3.74412 19.63 3.65ZM18 11.88C18.0007 12.9948 17.7353 14.0936 17.2256 15.085C16.716 16.0765 15.9769 16.9319 15.07 17.58L12 19.77L8.92998 17.58C8.02301 16.9319 7.28396 16.0765 6.77432 15.085C6.26469 14.0936 5.99921 12.9948 5.99998 11.88V5.58C8.0964 5.75944 10.196 5.27303 12 4.19C13.8039 5.27303 15.9035 5.75944 18 5.58V11.88ZM13.54 9.59L10.85 12.29L9.95998 11.39C9.77167 11.2017 9.51628 11.0959 9.24998 11.0959C8.98367 11.0959 8.72828 11.2017 8.53998 11.39C8.35167 11.5783 8.24588 11.8337 8.24588 12.1C8.24588 12.3663 8.35167 12.6217 8.53998 12.81L10.14 14.41C10.2329 14.5037 10.3435 14.5781 10.4654 14.6289C10.5873 14.6797 10.718 14.7058 10.85 14.7058C10.982 14.7058 11.1127 14.6797 11.2346 14.6289C11.3564 14.5781 11.467 14.5037 11.56 14.41L15 11C15.1883 10.8117 15.2941 10.5563 15.2941 10.29C15.2941 10.0237 15.1883 9.76831 15 9.58C14.8117 9.3917 14.5563 9.28591 14.29 9.28591C14.0237 9.28591 13.7683 9.3917 13.58 9.58L13.54 9.59Z" fill="#0DADB9"/>
</svg>
