<svg width="24" height="24" viewBox="0 0 24 24" fill="none" xmlns="http://www.w3.org/2000/svg">
<g clip-path="url(#clip0_3011_29113)">
<path d="M22.4064 21.7306V1.85974C22.4079 1.59284 22.3548 1.32846 22.2503 1.08285C22.1095 0.767335 21.8814 0.49859 21.5931 0.308197C21.3047 0.117805 20.968 0.0136747 20.6225 0.00804355H20.6074H3.34542C3.05665 -0.00497221 2.76731 0.00546802 2.48023 0.0392617C2.13292 0.103955 1.81209 0.268793 1.55726 0.513482C1.30243 0.758172 1.12471 1.07203 1.04597 1.41643C1.0136 1.57792 0.998057 1.74232 0.999588 1.90701V21.8261C0.97309 22.2049 1.02877 22.5849 1.16281 22.9401C1.30687 23.2541 1.53722 23.5207 1.82701 23.7088C2.1168 23.8969 2.45409 23.9987 2.79955 24.0024H2.97794H20.4923C20.6614 24.0045 20.8302 23.9895 20.9963 23.9578C21.3435 23.8787 21.6597 23.699 21.9054 23.4413C22.1511 23.1835 22.3155 22.859 22.3779 22.5084C22.408 22.2503 22.4175 21.9902 22.4064 21.7306ZM6.93285 2.30928C7.10911 2.10071 7.34439 1.95039 7.60772 1.87811C7.87106 1.80583 8.1501 1.81497 8.40814 1.90433C8.66527 1.99755 8.88859 2.16563 9.04931 2.38693C9.21004 2.60822 9.3008 2.87258 9.30991 3.14593V3.20034C9.30596 3.41587 9.25034 3.6273 9.14771 3.81687C9.04509 4.00644 8.89847 4.16861 8.72016 4.28975C8.54185 4.41089 8.33708 4.48746 8.12304 4.51303C7.90899 4.5386 7.69194 4.51241 7.49011 4.43668C7.28829 4.36095 7.10759 4.23789 6.9632 4.07782C6.81882 3.91776 6.71496 3.72538 6.66036 3.51684C6.60576 3.30831 6.60201 3.08971 6.64942 2.87943C6.69684 2.66914 6.79404 2.47331 6.93285 2.30839V2.30928ZM3.0154 3.86306C2.91028 3.68599 2.84717 3.48718 2.8309 3.28191C2.81464 3.07663 2.84565 2.87036 2.92157 2.67895C2.99749 2.48754 3.1163 2.31609 3.26884 2.17777C3.42139 2.03945 3.60361 1.93795 3.80152 1.88107C3.99943 1.82419 4.20774 1.81345 4.41045 1.84967C4.61316 1.8859 4.80486 1.96811 4.97083 2.09001C5.13679 2.2119 5.27259 2.37023 5.36779 2.55282C5.463 2.73541 5.51507 2.9374 5.52 3.14325V3.19766C5.51511 3.49075 5.41473 3.77425 5.23411 4.00511C5.05348 4.23598 4.80246 4.40162 4.51916 4.47688C4.23586 4.55215 3.93574 4.53293 3.66435 4.42215C3.39295 4.31137 3.16511 4.11508 3.0154 3.86306ZM19.6824 15.4959C19.3507 17.1274 18.5278 18.6183 17.3242 19.7685C16.1206 20.9187 14.5939 21.6731 12.9491 21.9304C12.5357 21.9915 12.1182 22.0213 11.7003 22.0196C10.0225 22.0202 8.38543 21.5021 7.01347 20.5361C5.64152 19.5702 4.60174 18.2038 4.03655 16.624C3.47137 15.0441 3.40842 13.3282 3.85634 11.7112C4.30425 10.0942 5.24112 8.65527 6.53861 7.59142C7.8242 6.53367 9.40446 5.8977 11.0644 5.77005C12.3198 5.6702 13.5813 5.86332 14.7494 6.3342C15.9175 6.80507 16.9603 7.54083 17.7955 8.48347C18.6308 9.4261 19.2356 10.5499 19.5624 11.7661C19.8893 12.9824 19.9291 14.258 19.6788 15.4923L19.6824 15.4959ZM16.194 9.39405C16.1444 9.34739 16.0788 9.32142 16.0107 9.32142C15.9426 9.32142 15.877 9.34739 15.8274 9.39405L14.9702 10.2512L12.9098 12.3116C12.0839 13.1405 11.257 13.9674 10.4293 14.7921L8.27613 16.9435C7.92827 17.2914 7.56257 17.6321 7.22898 17.9907L7.21382 18.0058C7.16716 18.0555 7.14118 18.121 7.14118 18.1891C7.14118 18.2573 7.16716 18.3228 7.21382 18.3724C8.14075 19.2983 9.33108 19.9151 10.622 20.1385C11.8955 20.3542 13.2044 20.1821 14.3789 19.6444C15.0487 19.3339 15.6589 18.9082 16.1815 18.3867C16.1869 18.3814 16.1922 18.3787 16.1949 18.3733C17.1207 17.4464 17.7375 16.2561 17.9609 14.9652C18.1352 13.9629 18.0658 12.9333 17.7584 11.9635C17.451 10.9937 16.9147 10.1121 16.1949 9.39316L16.194 9.39405Z" fill="#0DADB9"/>
</g>
<defs>
<clipPath id="clip0_3011_29113">
<rect width="24" height="24" fill="white"/>
</clipPath>
</defs>
</svg>
