<svg width="49" height="48" viewBox="0 0 49 48" fill="none" xmlns="http://www.w3.org/2000/svg">
<g clip-path="url(#clip0_2992_28032)">
<g clip-path="url(#clip1_2992_28032)">
<path d="M45.3138 43.4613V3.71947C45.3168 3.18568 45.2106 2.65691 45.0017 2.16569C44.7199 1.53467 44.2639 0.99718 43.6872 0.616395C43.1104 0.23561 42.437 0.0273495 41.746 0.0160871H41.7157H7.19182C6.61428 -0.00994443 6.0356 0.010936 5.46144 0.0785235C4.76681 0.207911 4.12517 0.537585 3.6155 1.02696C3.10584 1.51634 2.7504 2.14407 2.59292 2.83287C2.52818 3.15583 2.49709 3.48465 2.50015 3.81402V43.6522C2.44716 44.4097 2.55852 45.1698 2.82661 45.8803C3.11472 46.5083 3.57543 47.0415 4.15501 47.4176C4.73459 47.7938 5.40915 47.9975 6.10007 48.0049H6.45686H41.4856C41.8237 48.009 42.1614 47.9791 42.4935 47.9157C43.1879 47.7574 43.8204 47.3981 44.3118 46.8825C44.8032 46.367 45.1319 45.7181 45.2568 45.0168C45.3169 44.5007 45.336 43.9805 45.3138 43.4613ZM14.3667 4.61856C14.7192 4.20142 15.1898 3.90079 15.7164 3.75623C16.2431 3.61166 16.8012 3.62994 17.3173 3.80867C17.8315 3.99509 18.2782 4.33127 18.5996 4.77385C18.9211 5.21644 19.1026 5.74516 19.1208 6.29186V6.40068C19.1129 6.83173 19.0016 7.2546 18.7964 7.63375C18.5912 8.01289 18.2979 8.33722 17.9413 8.5795C17.5847 8.82178 17.1751 8.97492 16.747 9.02606C16.319 9.0772 15.8848 9.02483 15.4812 8.87337C15.0776 8.7219 14.7162 8.47577 14.4274 8.15565C14.1386 7.83552 13.9309 7.45075 13.8217 7.03368C13.7125 6.61661 13.705 6.17942 13.7998 5.75885C13.8947 5.33828 14.0891 4.94662 14.3667 4.61677V4.61856ZM6.53178 7.72612C6.32155 7.37198 6.19531 6.97436 6.16278 6.56381C6.13025 6.15326 6.19228 5.74072 6.34412 5.3579C6.49596 4.97507 6.73357 4.63217 7.03866 4.35553C7.34375 4.0789 7.7082 3.87589 8.10402 3.76214C8.49983 3.64839 8.91646 3.62691 9.32188 3.69935C9.72729 3.77179 10.1107 3.93623 10.4426 4.18002C10.7746 4.42381 11.0462 4.74046 11.2366 5.10564C11.427 5.47082 11.5311 5.87479 11.541 6.28651V6.39533C11.5312 6.98151 11.3304 7.54849 10.9692 8.01023C10.6079 8.47196 10.1059 8.80323 9.5393 8.95376C8.97269 9.10429 8.37245 9.06586 7.82967 8.8443C7.28688 8.62274 6.8312 8.23015 6.53178 7.72612ZM39.8658 30.9918C39.2025 34.2547 37.5567 37.2366 35.1494 39.537C32.7422 41.8374 29.6888 43.3462 26.3991 43.8609C25.5723 43.983 24.7374 44.0427 23.9016 44.0393C20.5459 44.0405 17.2718 43.0041 14.5279 41.0723C11.784 39.1404 9.70445 36.4075 8.57408 33.2479C7.44372 30.0883 7.31782 26.6564 8.21365 23.4224C9.10947 20.1885 10.9832 17.3105 13.5782 15.1828C16.1494 13.0673 19.3099 11.7954 22.6297 11.5401C25.1407 11.3404 27.6637 11.7266 29.9999 12.6684C32.3361 13.6101 34.4216 15.0817 36.092 16.9669C37.7625 18.8522 38.9722 21.0997 39.6259 23.5323C40.2795 25.9649 40.3592 28.516 39.8587 30.9847L39.8658 30.9918ZM32.889 18.7881C32.7897 18.6948 32.6586 18.6428 32.5224 18.6428C32.3861 18.6428 32.255 18.6948 32.1558 18.7881L30.4414 20.5024L26.3206 24.6233C24.6687 26.2811 23.015 27.9348 21.3596 29.5843L17.0532 33.8871C16.3575 34.5828 15.6261 35.2642 14.9589 35.9814L14.9286 36.0117C14.8353 36.1109 14.7833 36.2421 14.7833 36.3783C14.7833 36.5145 14.8353 36.6456 14.9286 36.7449C16.7825 38.5965 19.1631 39.8301 21.7449 40.277C24.2919 40.7085 26.9099 40.3641 29.2587 39.2887C30.5984 38.6678 31.8187 37.8164 32.864 36.7734C32.8747 36.7627 32.8854 36.7574 32.8907 36.7467C34.7424 34.8928 35.976 32.5122 36.4229 29.9304C36.7714 27.9257 36.6325 25.8666 36.0177 23.927C35.4029 21.9874 34.3304 20.2242 32.8907 18.7863L32.889 18.7881Z" fill="currentColor"/>
</g>
</g>
<defs>
<clipPath id="clip0_2992_28032">
<rect width="48" height="48" fill="white" transform="translate(0.5)"/>
</clipPath>
<clipPath id="clip1_2992_28032">
<rect width="48" height="48" fill="white" transform="translate(0.5)"/>
</clipPath>
</defs>
</svg>
