<svg width="24" height="24" viewBox="0 0 24 24" fill="none" xmlns="http://www.w3.org/2000/svg">
<g clip-path="url(#clip0_3011_29232)">
<path fill-rule="evenodd" clip-rule="evenodd" d="M15.152 11.274L20 17.642C20.4469 18.2294 20.7208 18.9299 20.7908 19.6647C20.8607 20.3994 20.7239 21.1391 20.3959 21.8002C20.0678 22.4614 19.5615 23.0177 18.934 23.4064C18.3066 23.7951 17.583 24.0007 16.845 24H7.15498C6.41691 24.0007 5.69334 23.7951 5.06591 23.4064C4.43848 23.0177 3.93216 22.4614 3.60409 21.8002C3.27601 21.1391 3.13923 20.3994 3.20918 19.6647C3.27914 18.9299 3.55303 18.2294 3.99998 17.642L8.84498 11.274C9.21448 10.789 9.69099 10.3959 10.2374 10.1252C10.7838 9.85461 11.3853 9.71381 11.995 9.71381C12.6047 9.71381 13.2062 9.85461 13.7526 10.1252C14.299 10.3959 14.7755 10.789 15.145 11.274H15.152ZM7.99998 0C8.70731 0 9.38567 0.280987 9.88583 0.781146C10.386 1.28131 10.667 1.95967 10.667 2.667V4C10.6738 4.35452 10.6099 4.70684 10.479 5.03637C10.3481 5.36589 10.1528 5.666 9.9045 5.91915C9.65622 6.17229 9.35994 6.37338 9.03301 6.51066C8.70608 6.64793 8.35506 6.71864 8.00048 6.71864C7.6459 6.71864 7.29487 6.64793 6.96794 6.51066C6.64101 6.37338 6.34474 6.17229 6.09645 5.91915C5.84816 5.666 5.65285 5.36589 5.52193 5.03637C5.39101 4.70684 5.32711 4.35452 5.33398 4V2.667C5.33398 1.95984 5.61483 1.28163 6.11477 0.7815C6.61471 0.281369 7.29282 0.000265152 7.99998 0ZM2.66698 6.667C3.37431 6.667 4.05267 6.94799 4.55283 7.44815C5.05299 7.94831 5.33398 8.62667 5.33398 9.334V10.667C5.32045 11.3653 5.03357 12.0304 4.53498 12.5194C4.03639 13.0084 3.36587 13.2824 2.66748 13.2824C1.96909 13.2824 1.29857 13.0084 0.799973 12.5194C0.301379 12.0304 0.0144993 11.3653 0.000976562 10.667V9.333C0.0012416 8.62601 0.282205 7.94806 0.78212 7.44815C1.28203 6.94823 1.95999 6.66726 2.66698 6.667ZM16 0C16.7073 0 17.3857 0.280987 17.8858 0.781146C18.386 1.28131 18.667 1.95967 18.667 2.667V4C18.6535 4.69826 18.3666 5.36335 17.868 5.85238C17.3694 6.34141 16.6989 6.61536 16.0005 6.61536C15.3021 6.61536 14.6316 6.34141 14.133 5.85238C13.6344 5.36335 13.3475 4.69826 13.334 4V2.667C13.334 1.95984 13.6148 1.28163 14.1148 0.7815C14.6147 0.281369 15.2928 0.000265152 16 0ZM21.333 6.667C22.0401 6.667 22.7183 6.94785 23.2185 7.44779C23.7186 7.94774 23.9997 8.62584 24 9.333V10.666C24.0068 11.0205 23.9429 11.3728 23.812 11.7024C23.6811 12.0319 23.4858 12.332 23.2375 12.5851C22.9892 12.8383 22.6929 13.0394 22.366 13.1767C22.0391 13.3139 21.6881 13.3846 21.3335 13.3846C20.9789 13.3846 20.6279 13.3139 20.3009 13.1767C19.974 13.0394 19.6777 12.8383 19.4295 12.5851C19.1812 12.332 18.9858 12.0319 18.8549 11.7024C18.724 11.3728 18.6601 11.0205 18.667 10.666V9.333C18.6672 8.62601 18.9482 7.94806 19.4481 7.44815C19.948 6.94823 20.626 6.66726 21.333 6.667Z" fill="#0DADB9"/>
</g>
<defs>
<clipPath id="clip0_3011_29232">
<rect width="24" height="24" fill="white"/>
</clipPath>
</defs>
</svg>
