<svg width="24" height="24" viewBox="0 0 24 24" fill="none" xmlns="http://www.w3.org/2000/svg">
<g clip-path="url(#clip0_3011_1737)">
<path d="M3.06321 20.3588C2.25111 20.3578 1.47257 20.0347 0.898334 19.4605C0.324095 18.8863 0.0010332 18.1077 0 17.2956V3.18517H4.13504C7.17286 3.18517 8.29643 6.06778 9.28724 8.61167C10.3884 11.4425 11.428 14.1075 14.6015 14.1075H23.427V15.9134H14.6015C10.1951 15.9134 8.76011 12.2293 7.60628 9.26863C6.57252 6.61639 5.84918 4.99107 4.13406 4.99107H1.80298V17.2956C1.79829 17.464 1.82741 17.6316 1.88861 17.7886C1.94981 17.9455 2.04185 18.0886 2.15929 18.2093C2.27673 18.3301 2.41719 18.4261 2.57236 18.4916C2.72753 18.5572 2.89427 18.5909 3.06272 18.5909C3.23117 18.5909 3.3979 18.5572 3.55308 18.4916C3.70825 18.4261 3.84871 18.3301 3.96615 18.2093C4.08359 18.0886 4.17563 17.9455 4.23683 17.7886C4.29803 17.6316 4.32715 17.464 4.32246 17.2956H6.12934C6.12831 18.1082 5.80484 18.8872 5.22997 19.4615C4.6551 20.0359 3.87581 20.3586 3.06321 20.3588Z" fill="#0DADB9"/>
<path d="M23.428 12.7253H17.3318C13.8176 12.7253 12.4607 11.0346 11.0482 7.70487C8.89384 2.62393 7.58188 1.80395 5.27227 1.80395H1.80395V5.22053H0V0H5.27129C9.04808 0 10.7378 2.35744 12.7077 7.00106C13.9553 9.94322 14.7987 10.9223 17.3308 10.9223H23.426L23.428 12.7253Z" fill="#0DADB9"/>
<path d="M4.76391 4.10675H2.95996V15.237H4.76391V4.10675Z" fill="#0DADB9"/>
<path d="M19.5522 11.4944H17.7483V6.61354C17.7483 6.45665 17.686 6.30619 17.575 6.19525C17.4641 6.08431 17.3136 6.02199 17.1567 6.02199C16.9998 6.02199 16.8494 6.08431 16.7384 6.19525C16.6275 6.30619 16.5652 6.45665 16.5652 6.61354H14.7622C14.7558 6.29495 14.813 5.97829 14.9304 5.68208C15.0479 5.38587 15.2233 5.11607 15.4463 4.88849C15.6694 4.66091 15.9356 4.48011 16.2293 4.35668C16.5231 4.23325 16.8386 4.16968 17.1572 4.16968C17.4759 4.16968 17.7913 4.23325 18.0851 4.35668C18.3789 4.48011 18.6451 4.66091 18.8681 4.88849C19.0912 5.11607 19.2665 5.38587 19.384 5.68208C19.5015 5.97829 19.5587 6.29495 19.5522 6.61354V11.4944Z" fill="#0DADB9"/>
<path d="M19.5505 11.4944H17.7466V6.61354C17.7401 6.29495 17.7973 5.97829 17.9148 5.68208C18.0323 5.38587 18.2077 5.11607 18.4307 4.88849C18.6537 4.66091 18.9199 4.48011 19.2137 4.35668C19.5075 4.23325 19.823 4.16968 20.1416 4.16968C20.4603 4.16968 20.7757 4.23325 21.0695 4.35668C21.3633 4.48011 21.6295 4.66091 21.8525 4.88849C22.0755 5.11607 22.2509 5.38587 22.3684 5.68208C22.4859 5.97829 22.5431 6.29495 22.5366 6.61354H20.7336C20.7336 6.45665 20.6713 6.30619 20.5604 6.19525C20.4494 6.08431 20.299 6.02199 20.1421 6.02199C19.9852 6.02199 19.8347 6.08431 19.7238 6.19525C19.6129 6.30619 19.5505 6.45665 19.5505 6.61354V11.4944Z" fill="#0DADB9"/>
<path d="M7.38547 20.3599C6.57236 20.3591 5.79283 20.0355 5.21824 19.4602C4.64366 18.8848 4.32103 18.1049 4.32129 17.2918H6.12524C6.13437 17.6198 6.2711 17.9313 6.50635 18.1601C6.74161 18.3889 7.05682 18.5169 7.38498 18.5169C7.71314 18.5169 8.02836 18.3889 8.26361 18.1601C8.49887 17.9313 8.63559 17.6198 8.64473 17.2918H10.4487C10.4489 18.1047 10.1264 18.8845 9.55207 19.4598C8.97769 20.0351 8.19841 20.3588 7.38547 20.3599Z" fill="#0DADB9"/>
<path d="M11.7097 20.3599C10.8968 20.3588 10.1175 20.0351 9.54309 19.4598C8.96872 18.8845 8.64623 18.1047 8.64648 17.2918H10.4504C10.4458 17.4602 10.4749 17.6278 10.5361 17.7847C10.5973 17.9416 10.6893 18.0847 10.8067 18.2055C10.9242 18.3262 11.0646 18.4222 11.2198 18.4878C11.375 18.5533 11.5417 18.5871 11.7102 18.5871C11.8786 18.5871 12.0454 18.5533 12.2005 18.4878C12.3557 18.4222 12.4962 18.3262 12.6136 18.2055C12.7311 18.0847 12.8231 17.9416 12.8843 17.7847C12.9455 17.6278 12.9746 17.4602 12.9699 17.2918H14.7729C14.7732 18.1047 14.4507 18.8845 13.8763 19.4598C13.3019 20.0351 12.5226 20.3588 11.7097 20.3599Z" fill="#0DADB9"/>
<path d="M16.032 20.3599C15.219 20.3588 14.4397 20.0351 13.8654 19.4598C13.291 18.8845 12.9685 18.1047 12.9688 17.2918H14.7717C14.7809 17.6198 14.9176 17.9313 15.1528 18.1601C15.3881 18.3889 15.7033 18.5169 16.0315 18.5169C16.3596 18.5169 16.6748 18.3889 16.9101 18.1601C17.1453 17.9313 17.2821 17.6198 17.2912 17.2918H19.0952C19.0954 18.1047 18.7729 18.8845 18.1986 19.4598C17.6242 20.0351 16.8449 20.3588 16.032 20.3599Z" fill="#0DADB9"/>
<path d="M20.3572 20.3599C19.544 20.3591 18.7645 20.0355 18.1899 19.4602C17.6153 18.8848 17.2927 18.1049 17.293 17.2918H19.0969C19.0922 17.4602 19.1214 17.6278 19.1826 17.7847C19.2437 17.9416 19.3358 18.0847 19.4532 18.2055C19.5707 18.3262 19.7111 18.4222 19.8663 18.4878C20.0215 18.5533 20.1882 18.5871 20.3567 18.5871C20.5251 18.5871 20.6918 18.5533 20.847 18.4878C21.0022 18.4222 21.1427 18.3262 21.2601 18.2055C21.3775 18.0847 21.4696 17.9416 21.5308 17.7847C21.592 17.6278 21.6211 17.4602 21.6164 17.2918H23.4204C23.4206 18.1047 23.0981 18.8845 22.5237 19.4598C21.9494 20.0351 21.1701 20.3588 20.3572 20.3599Z" fill="#0DADB9"/>
<path d="M3.06321 24.0039C2.25027 24.0029 1.47099 23.6792 0.89661 23.1039C0.322232 22.5286 -0.000259236 21.7488 1.56359e-07 20.9358H1.80298C1.81211 21.2639 1.94884 21.5754 2.18409 21.8042C2.41934 22.033 2.73456 22.161 3.06272 22.161C3.39088 22.161 3.7061 22.033 3.94135 21.8042C4.1766 21.5754 4.31333 21.2639 4.32246 20.9358H6.12934C6.12947 21.3386 6.05026 21.7375 5.89625 22.1096C5.74223 22.4818 5.51641 22.82 5.2317 23.1049C4.94698 23.3898 4.60894 23.6158 4.23687 23.7701C3.8648 23.9243 3.46599 24.0038 3.06321 24.0039Z" fill="#0DADB9"/>
<path d="M7.38547 24.0039C6.57236 24.0031 5.79283 23.6795 5.21824 23.1042C4.64366 22.5289 4.32103 21.7489 4.32129 20.9358H6.12524C6.13437 21.2639 6.2711 21.5754 6.50635 21.8042C6.74161 22.033 7.05682 22.161 7.38498 22.161C7.71314 22.161 8.02836 22.033 8.26361 21.8042C8.49887 21.5754 8.63559 21.2639 8.64473 20.9358H10.4487C10.4489 21.7488 10.1264 22.5286 9.55207 23.1039C8.97769 23.6792 8.19841 24.0029 7.38547 24.0039Z" fill="#0DADB9"/>
<path d="M11.7097 24.0039C10.8968 24.0029 10.1175 23.6792 9.54309 23.1039C8.96872 22.5286 8.64623 21.7488 8.64648 20.9358H10.4504C10.4458 21.1042 10.4749 21.2718 10.5361 21.4288C10.5973 21.5857 10.6893 21.7288 10.8067 21.8495C10.9242 21.9703 11.0646 22.0663 11.2198 22.1318C11.375 22.1974 11.5417 22.2311 11.7102 22.2311C11.8786 22.2311 12.0454 22.1974 12.2005 22.1318C12.3557 22.0663 12.4962 21.9703 12.6136 21.8495C12.7311 21.7288 12.8231 21.5857 12.8843 21.4288C12.9455 21.2718 12.9746 21.1042 12.9699 20.9358H14.7729C14.7732 21.7488 14.4507 22.5286 13.8763 23.1039C13.3019 23.6792 12.5226 24.0029 11.7097 24.0039Z" fill="#0DADB9"/>
<path d="M16.032 24.0039C15.219 24.0029 14.4397 23.6792 13.8654 23.1039C13.291 22.5286 12.9685 21.7488 12.9688 20.9358H14.7717C14.7809 21.2639 14.9176 21.5754 15.1528 21.8042C15.3881 22.033 15.7033 22.161 16.0315 22.161C16.3596 22.161 16.6748 22.033 16.9101 21.8042C17.1453 21.5754 17.2821 21.2639 17.2912 20.9358H19.0952C19.0954 21.7488 18.7729 22.5286 18.1986 23.1039C17.6242 23.6792 16.8449 24.0029 16.032 24.0039Z" fill="#0DADB9"/>
<path d="M20.3572 24.0039C19.544 24.0031 18.7645 23.6795 18.1899 23.1042C17.6153 22.5289 17.2927 21.7489 17.293 20.9358H19.0969C19.0922 21.1042 19.1214 21.2718 19.1826 21.4288C19.2437 21.5857 19.3358 21.7288 19.4532 21.8495C19.5707 21.9703 19.7111 22.0663 19.8663 22.1318C20.0215 22.1974 20.1882 22.2311 20.3567 22.2311C20.5251 22.2311 20.6918 22.1974 20.847 22.1318C21.0022 22.0663 21.1427 21.9703 21.2601 21.8495C21.3775 21.7288 21.4696 21.5857 21.5308 21.4288C21.592 21.2718 21.6211 21.1042 21.6164 20.9358H23.4204C23.4206 21.7488 23.0981 22.5286 22.5237 23.1039C21.9494 23.6792 21.1701 24.0029 20.3572 24.0039Z" fill="#0DADB9"/>
</g>
<defs>
<clipPath id="clip0_3011_1737">
<rect width="24" height="24" fill="white"/>
</clipPath>
</defs>
</svg>
