<svg width="24" height="24" viewBox="0 0 24 24" fill="none" xmlns="http://www.w3.org/2000/svg">
<g clip-path="url(#clip0_3011_29238)">
<path fill-rule="evenodd" clip-rule="evenodd" d="M0.0187129 3.99114C2.99601 7.82523 5.63943 10.9794 6.98911 11.5223C7.91785 11.7061 8.87389 11.703 9.80143 11.5133L10.1473 11.8233L11.811 10.1686L11.533 9.84071C11.7451 8.85891 11.7359 7.84227 11.506 6.86448C11.1461 5.90671 7.65384 3.0034 4.0257 0.0171024C3.91312 -0.0131797 3.79444 -0.0120089 3.68252 0.0206416C3.5706 0.0532922 3.46984 0.116171 3.39121 0.202239C3.31257 0.288307 3.25902 0.394283 3.23658 0.508685C3.21414 0.623088 3.22362 0.741492 3.26392 0.85089L8.48876 5.68275L7.6319 6.73549L2.59904 1.68468C2.47319 1.65006 2.34034 1.65055 2.21473 1.68602C2.08912 1.72149 1.97559 1.79059 1.88644 1.88592C1.79728 1.98125 1.73586 2.09908 1.70886 2.22679C1.68187 2.35449 1.69032 2.48723 1.73327 2.61048L6.69816 7.56122L5.93736 8.41404L0.845544 3.16626C0.731035 3.13334 0.60981 3.13166 0.49443 3.16138C0.379051 3.1911 0.273678 3.25114 0.189327 3.33529C0.104976 3.41944 0.0446882 3.52472 0.0146855 3.64003C-0.0153172 3.75533 -0.0139276 3.87655 0.0187129 3.99114ZM1.25841 21.451C1.14176 21.7925 1.12482 22.1602 1.20959 22.5111C1.29436 22.8619 1.47733 23.1813 1.73706 23.4319C1.99679 23.6825 2.32254 23.854 2.67617 23.9261C3.02979 23.9983 3.39662 23.9683 3.73378 23.8395L12.8697 13.3129L14.6023 13.1489C20.7109 6.38349 23.6151 1.7517 22.3884 0.371023L1.25841 21.451ZM12.8377 14.2526C15.4631 17.4299 18.1534 20.4842 20.9198 23.3155C22.9303 24.9562 25.2458 23.1156 23.1943 20.8951C20.6486 18.2115 17.9008 15.7272 14.9751 13.4639C14.4833 14.1517 13.1616 13.4778 12.8377 14.2476V14.2526Z" fill="#0DADB9"/>
</g>
<defs>
<clipPath id="clip0_3011_29238">
<rect width="24" height="24" fill="white"/>
</clipPath>
</defs>
</svg>
