<svg width="24" height="24" viewBox="0 0 24 24" fill="none" xmlns="http://www.w3.org/2000/svg">
<g clip-path="url(#clip0_3011_27296)">
<path d="M12.5796 12.2163C12.7411 12.1536 12.8728 12.0321 12.9483 11.8762C13.0238 11.7203 13.0374 11.5416 12.9865 11.3761V11.3504C12.7762 10.8149 12.6642 10.246 12.6559 9.67076C12.7122 9.10248 12.8765 8.55017 13.1398 8.04341C13.2674 7.73764 13.4199 7.40703 13.5466 7.07642C13.7167 6.66284 13.8199 6.22484 13.8524 5.77883C13.876 5.32841 13.8066 4.87796 13.6485 4.45553C13.5706 4.25351 13.477 4.05792 13.3685 3.87054C13.2498 3.67209 13.1136 3.48463 12.9616 3.31039C12.8673 3.21253 12.7437 3.1479 12.6095 3.12618C12.4753 3.10446 12.3377 3.12683 12.2173 3.18993C12.0969 3.25303 12.0001 3.35347 11.9416 3.47618C11.8831 3.59888 11.866 3.73726 11.8927 3.87054L11.9433 4.12749C11.984 4.24422 12.018 4.36318 12.0452 4.4838C12.0828 4.60839 12.1083 4.73631 12.1214 4.8658C12.151 5.12003 12.1423 5.37727 12.0957 5.62894C12.0407 5.88465 11.9544 6.13262 11.8388 6.36724L11.4062 7.33423C11.2447 7.69482 11.1168 8.06956 11.0242 8.45368C10.9137 8.87676 10.8792 9.31612 10.9223 9.75127C11.0029 10.5994 11.3504 11.4001 11.915 12.0381C11.9914 12.136 12.0976 12.2064 12.2175 12.2385C12.3374 12.2706 12.4645 12.2628 12.5796 12.2163Z" fill="#0DADB9"/>
<path d="M17.6985 3.8431C17.5799 3.64464 17.4437 3.45718 17.2917 3.28295C17.2182 3.20488 17.1255 3.14738 17.0229 3.11613C16.9203 3.08488 16.8113 3.08098 16.7067 3.10479C16.5455 3.14 16.4044 3.23705 16.314 3.3751C16.2235 3.51315 16.1907 3.68118 16.2228 3.8431L16.2733 4.10005C16.3141 4.21678 16.3481 4.33574 16.3753 4.45635C16.4152 4.58884 16.4407 4.72524 16.4515 4.86319C16.4811 5.11743 16.4724 5.37466 16.4258 5.62633C16.3708 5.88205 16.2845 6.13002 16.1688 6.36464L15.7363 7.33162C15.5748 7.69221 15.4469 8.06695 15.3543 8.45107C15.2438 8.87416 15.2092 9.31351 15.2524 9.74867C15.32 10.6006 15.6682 11.4061 16.2425 12.039C16.3404 12.1577 16.477 12.2382 16.6283 12.2661C16.7797 12.294 16.936 12.2676 17.0698 12.1915C17.2036 12.1155 17.3063 11.9946 17.3597 11.8503C17.4132 11.706 17.4139 11.5474 17.3619 11.4026L17.3362 11.3769C17.126 10.8414 17.014 10.2725 17.0056 9.69728C17.062 9.129 17.2263 8.57668 17.4896 8.06993C17.6172 7.76416 17.7696 7.43355 17.8964 7.10294C18.0665 6.68936 18.1697 6.25135 18.2022 5.80534C18.2258 5.35493 18.1564 4.90448 17.9983 4.48205C17.9139 4.26213 17.8137 4.04859 17.6985 3.8431Z" fill="#0DADB9"/>
<path d="M22.3526 4.45205C22.2747 4.25003 22.1811 4.05444 22.0726 3.86706C21.9539 3.66861 21.8177 3.48115 21.6657 3.30691C21.5714 3.20905 21.4478 3.14442 21.3136 3.1227C21.1794 3.10098 21.0418 3.12335 20.9214 3.18645C20.801 3.24955 20.7042 3.34999 20.6457 3.4727C20.5872 3.59541 20.5701 3.73378 20.5968 3.86706L20.6473 4.12401C20.6881 4.24074 20.7221 4.35971 20.7493 4.48032L20.8255 4.86232C20.8551 5.11655 20.8464 5.37379 20.7998 5.62546C20.7448 5.88117 20.6585 6.12914 20.5429 6.36376L20.1103 7.33075C19.9488 7.69134 19.8209 8.06608 19.7283 8.4502C19.6178 8.87328 19.5833 9.31264 19.6264 9.7478C19.6947 10.6 20.0438 11.4055 20.6191 12.0381C20.7169 12.1569 20.8536 12.2373 21.0049 12.2652C21.1563 12.2931 21.3126 12.2667 21.4464 12.1907C21.5802 12.1146 21.6829 11.9938 21.7363 11.8494C21.7898 11.7051 21.7905 11.5465 21.7385 11.4017V11.376C21.5283 10.8406 21.4163 10.2716 21.4079 9.69641C21.4664 9.13172 21.6214 8.58127 21.8662 8.06906C21.9938 7.76328 22.1462 7.43267 22.273 7.10206C22.4464 6.69076 22.5414 6.25067 22.5531 5.80447C22.5549 5.34613 22.4873 4.89015 22.3526 4.45205Z" fill="#0DADB9"/>
<path d="M5.14778 6.20963C6.86252 6.20963 8.2526 4.81956 8.2526 3.10481C8.2526 1.39007 6.86252 0 5.14778 0C3.43304 0 2.04297 1.39007 2.04297 3.10481C2.04297 4.81956 3.43304 6.20963 5.14778 6.20963Z" fill="#0DADB9"/>
<path d="M13.6999 15.8821C13.5872 15.5258 13.3632 15.215 13.061 14.9952C12.7587 14.7754 12.394 14.6582 12.0203 14.6607H8.38016L8.07439 9.77441C8.07373 9.64336 8.04785 9.51367 7.99816 9.39241C7.82569 8.82217 7.49067 8.31461 7.03412 7.93189C6.57757 7.54917 6.01931 7.3079 5.42773 7.23763C4.83614 7.16736 4.2369 7.27115 3.7034 7.53628C3.1699 7.8014 2.7253 8.21636 2.42406 8.73033C2.21254 9.08234 2.07618 9.47431 2.02355 9.88159C1.97093 10.2889 2.00318 10.7026 2.11829 11.0968L2.83089 16.6709C2.88216 17.1001 3.08937 17.4954 3.41311 17.7817C3.73685 18.068 4.15454 18.2254 4.58672 18.2238H10.7458L12.2507 22.7787C12.37 23.1309 12.5956 23.4375 12.8964 23.6562C13.1972 23.875 13.5584 23.9951 13.9303 24C14.1219 24.0034 14.3123 23.9687 14.4904 23.8981C14.9351 23.7483 15.3024 23.4285 15.512 23.0086C15.7216 22.5887 15.7565 22.103 15.609 21.6575L13.6999 15.8821Z" fill="#0DADB9"/>
</g>
<defs>
<clipPath id="clip0_3011_27296">
<rect width="24" height="24" fill="white"/>
</clipPath>
</defs>
</svg>
