<svg width="49" height="48" viewBox="0 0 49 48" fill="none" xmlns="http://www.w3.org/2000/svg">
<g clip-path="url(#clip0_2992_28042)">
<g clip-path="url(#clip1_2992_28042)">
<path d="M46.7065 14.0404C45.7356 13.0332 44.456 12.3794 43.071 12.1827V10.1129H43.3189C43.6147 10.1124 43.8982 9.99467 44.1074 9.78553C44.3165 9.57638 44.4342 9.29286 44.4348 8.99709V5.82952C44.435 5.32604 44.336 4.82746 44.1432 4.36234C43.9505 3.89722 43.6679 3.47469 43.3116 3.11896C42.9553 2.76323 42.5323 2.48128 42.0669 2.28928C41.6015 2.09728 41.1028 1.99899 40.5993 2.00004H38.4656C37.9626 1.99978 37.4645 2.09865 36.9998 2.29101C36.5351 2.48336 36.1128 2.76543 35.7571 3.12108C35.4015 3.47673 35.1194 3.899 34.9271 4.36373C34.7347 4.82846 34.6358 5.32655 34.6361 5.82952V8.99909C34.6366 9.29486 34.7544 9.57838 34.9635 9.78753C35.1727 9.99667 35.4562 10.1144 35.7519 10.1149H35.9939V12.1807C34.6053 12.3806 33.3216 13.0337 32.3424 14.0384C31.7446 14.655 31.2798 15.3877 30.9768 16.1913C30.6738 16.9948 30.5389 17.852 30.5807 18.7098L31.5805 42.4665C31.5939 42.7535 31.7173 43.0244 31.925 43.2229C32.1328 43.4213 32.409 43.5322 32.6964 43.5324H46.4945C46.7826 43.5347 47.0602 43.4247 47.2685 43.2257C47.4768 43.0267 47.5994 42.7544 47.6103 42.4665L48.4982 18.6698C48.535 16.9507 47.891 15.2867 46.7065 14.0404ZM36.8338 5.82952C36.8338 5.61943 36.8752 5.4114 36.9556 5.21731C37.036 5.02321 37.1538 4.84685 37.3024 4.6983C37.4509 4.54975 37.6273 4.43191 37.8214 4.35151C38.0155 4.27112 38.2235 4.22974 38.4336 4.22974H40.5673C40.9916 4.22974 41.3985 4.39828 41.6985 4.6983C41.9985 4.99832 42.1671 5.40523 42.1671 5.82952V7.88324H36.8338V5.82952ZM38.1916 12.0287V10.2429H40.8253V12.0187L38.1916 12.0287ZM45.3906 41.3287H33.7202L32.7604 18.6298C32.7369 18.0718 32.8265 17.5148 33.0239 16.9924C33.2212 16.4699 33.5222 15.9928 33.9087 15.5897C34.2952 15.1865 34.7593 14.8657 35.2729 14.6466C35.7866 14.4274 36.3393 14.3144 36.8978 14.3144H42.1191C42.6742 14.3124 43.2239 14.4231 43.735 14.6396C44.2461 14.8561 44.7079 15.1741 45.0927 15.5742C45.4805 15.9729 45.7824 16.4469 45.9795 16.967C46.1766 17.4871 46.2647 18.0422 46.2385 18.5978L45.3906 41.3287Z" fill="currentColor"/>
<path d="M22.4185 29.2944C23.4725 28.9072 24.4158 28.268 25.1661 27.4327C25.4988 27.053 25.7403 26.6023 25.872 26.1149C26.0037 25.6276 26.0222 25.1166 25.926 24.621C25.5523 23.4674 24.8825 22.4321 23.9835 21.6183C23.0845 20.8046 21.9877 20.2409 20.8027 19.9837C21.6568 19.6685 22.4295 19.1663 23.0644 18.5139C23.3462 18.223 23.5614 17.8744 23.6954 17.4922C23.8293 17.11 23.8788 16.7033 23.8403 16.3002C23.5324 13.6665 20.3488 11.9528 15.7114 11.9528C11.574 11.9528 8.32642 13.6325 7.61452 16.1222C7.51228 16.4958 7.49955 16.8882 7.57738 17.2676C7.65521 17.647 7.8214 18.0027 8.06246 18.3059C8.6238 18.9745 9.33972 19.4962 10.1482 19.8257C7.0446 20.7136 4.96088 22.4433 4.58893 24.673C4.51753 25.1507 4.55451 25.6383 4.69712 26.0997C4.83974 26.5612 5.08435 26.9846 5.41282 27.3387C6.1715 28.16 7.10504 28.8003 8.14445 29.2124C3.24711 30.2943 0.677465 32.6699 0.517486 36.2914C0.45417 37.0864 0.563257 37.8857 0.837289 38.6346C1.11132 39.3835 1.54384 40.0645 2.10527 40.6309C4.31897 42.9505 8.87635 44.1304 15.6314 44.1304C24.1163 44.1304 30.7734 40.6888 30.7734 36.3094C30.7734 33.1899 27.3958 30.5562 22.4185 29.2944ZM9.73223 16.7221C10.0882 15.4943 12.2859 14.1685 15.6794 14.1685C19.3469 14.1685 21.4646 15.3963 21.5946 16.5441C21.5907 16.6334 21.5686 16.7209 21.5298 16.8014C21.4909 16.8818 21.4361 16.9535 21.3686 17.0121C19.7271 18.2298 17.7015 18.8148 15.6634 18.6598C13.5648 18.8168 11.4804 18.2079 9.79622 16.9461C9.75023 16.8808 9.72768 16.8018 9.73223 16.7221ZM6.79063 25.013C7.09859 23.2032 10.1042 21.3615 15.2595 21.3615C20.1068 21.3615 23.3724 23.2352 23.7283 25.047C23.7617 25.22 23.7528 25.3986 23.7023 25.5675C23.6518 25.7363 23.5613 25.8905 23.4384 26.0168C22.3385 27.3587 18.979 28.2945 15.2615 28.2945C12.3395 28.5287 9.43519 27.6645 7.11659 25.8709C6.71064 25.4169 6.75864 25.109 6.79063 25.013ZM15.6314 41.9007C9.58825 41.9007 5.46681 40.9308 3.70505 39.0891C3.35701 38.7293 3.08918 38.2998 2.91925 37.8289C2.74931 37.3581 2.68113 36.8566 2.71919 36.3574C2.88116 32.6079 7.22857 30.7182 15.6314 30.7182C23.2424 30.7182 28.5437 33.6758 28.5437 36.3174C28.5437 38.9591 23.2424 41.9007 15.6314 41.9007Z" fill="currentColor"/>
</g>
</g>
<defs>
<clipPath id="clip0_2992_28042">
<rect width="48" height="48" fill="white" transform="translate(0.5)"/>
</clipPath>
<clipPath id="clip1_2992_28042">
<rect width="48" height="48" fill="white" transform="translate(0.5)"/>
</clipPath>
</defs>
</svg>
