<svg width="24" height="24" viewBox="0 0 24 24" fill="none" xmlns="http://www.w3.org/2000/svg">
<g clip-path="url(#clip0_3011_27325)">
<path d="M23.1037 7.02018C22.6183 6.5166 21.9785 6.18966 21.286 6.09131V5.05645H21.4099C21.5578 5.05619 21.6996 4.99732 21.8042 4.89275C21.9087 4.78817 21.9676 4.64642 21.9679 4.49853V2.91474C21.968 2.66301 21.9185 2.41372 21.8221 2.18115C21.7257 1.94859 21.5844 1.73733 21.4063 1.55946C21.2281 1.3816 21.0167 1.24063 20.7839 1.14462C20.5512 1.04862 20.3019 0.999478 20.0501 1H18.9833C18.7318 0.999873 18.4828 1.04931 18.2504 1.14549C18.018 1.24167 17.8069 1.3827 17.6291 1.56053C17.4512 1.73835 17.3102 1.94948 17.214 2.18185C17.1178 2.41422 17.0684 2.66326 17.0685 2.91474V4.49953C17.0688 4.64742 17.1277 4.78917 17.2322 4.89375C17.3368 4.99832 17.4786 5.05719 17.6265 5.05745H17.7474V6.09031C17.0531 6.19026 16.4113 6.51681 15.9217 7.01918C15.6228 7.32748 15.3904 7.69385 15.2389 8.09562C15.0874 8.49738 15.0199 8.92598 15.0408 9.35487L15.5407 21.2332C15.5474 21.3768 15.6091 21.5122 15.713 21.6114C15.8169 21.7107 15.955 21.7661 16.0987 21.7662H22.9977C23.1418 21.7673 23.2806 21.7123 23.3847 21.6128C23.4889 21.5133 23.5502 21.3772 23.5557 21.2332L23.9996 9.33487C24.018 8.47533 23.696 7.64335 23.1037 7.02018ZM18.1674 2.91474C18.1674 2.8097 18.1881 2.70569 18.2283 2.60864C18.2685 2.51159 18.3274 2.42341 18.4017 2.34914C18.4759 2.27486 18.5641 2.21594 18.6612 2.17574C18.7582 2.13554 18.8622 2.11485 18.9673 2.11485H20.0341C20.2463 2.11485 20.4497 2.19913 20.5997 2.34914C20.7498 2.49914 20.834 2.7026 20.834 2.91474V3.9416H18.1674V2.91474ZM18.8463 6.01432V5.12144H20.1631V6.00932L18.8463 6.01432ZM22.4458 20.6643H16.6106L16.1307 9.31487C16.1189 9.03588 16.1638 8.75739 16.2624 8.49617C16.3611 8.23495 16.5116 7.99638 16.7048 7.79481C16.8981 7.59325 17.1301 7.43285 17.387 7.32327C17.6438 7.21369 17.9201 7.15719 18.1994 7.15717H20.81C21.0876 7.1562 21.3624 7.21152 21.618 7.31979C21.8735 7.42806 22.1045 7.58702 22.2968 7.78708C22.4908 7.98641 22.6417 8.22345 22.7402 8.4835C22.8388 8.74356 22.8829 9.02108 22.8697 9.29887L22.4458 20.6643Z" fill="#0DADB9"/>
<path d="M10.9593 14.6472C11.4862 14.4536 11.9579 14.134 12.3331 13.7163C12.4994 13.5265 12.6201 13.3011 12.686 13.0575C12.7518 12.8138 12.7611 12.5583 12.713 12.3105C12.5262 11.7337 12.1913 11.216 11.7418 10.8092C11.2923 10.4023 10.7439 10.1205 10.1514 9.99183C10.5784 9.83424 10.9648 9.58315 11.2822 9.25693C11.4231 9.11148 11.5307 8.93719 11.5977 8.7461C11.6647 8.55501 11.6894 8.35166 11.6702 8.15008C11.5162 6.83326 9.92439 5.97638 7.60571 5.97638C5.53699 5.97638 3.91321 6.81627 3.55726 8.0611C3.50614 8.24788 3.49978 8.44409 3.53869 8.6338C3.57761 8.82351 3.6607 9.00137 3.78123 9.15295C4.0619 9.48726 4.41986 9.74809 4.82409 9.91284C3.2723 10.3568 2.23044 11.2217 2.04447 12.3365C2.00876 12.5753 2.02725 12.8191 2.09856 13.0499C2.16987 13.2806 2.29217 13.4923 2.45641 13.6693C2.83575 14.08 3.30252 14.4002 3.82222 14.6062C1.37356 15.1471 0.0887323 16.335 0.00874319 18.1457C-0.0229148 18.5432 0.0316285 18.9428 0.168645 19.3173C0.305661 19.6918 0.521919 20.0322 0.802635 20.3154C1.90948 21.4753 4.18817 22.0652 7.56571 22.0652C11.8081 22.0652 15.1367 20.3444 15.1367 18.1547C15.1367 16.5949 13.4479 15.2781 10.9593 14.6472ZM4.61612 8.36105C4.79409 7.74714 5.89294 7.08423 7.58971 7.08423C9.42346 7.08423 10.4823 7.69815 10.5473 8.27207C10.5453 8.31669 10.5343 8.36045 10.5149 8.40068C10.4955 8.4409 10.4681 8.47675 10.4343 8.50603C9.61353 9.1149 8.60073 9.40742 7.58171 9.32992C6.5324 9.40838 5.49021 9.10397 4.64811 8.47304C4.62512 8.44039 4.61384 8.40092 4.61612 8.36105ZM3.14532 12.5065C3.29929 11.6016 4.80209 10.6807 7.37974 10.6807C9.80341 10.6807 11.4362 11.6176 11.6142 12.5235C11.6309 12.61 11.6264 12.6993 11.6011 12.7837C11.5759 12.8682 11.5306 12.9453 11.4692 13.0084C10.9193 13.6793 9.23949 14.1473 7.38074 14.1473C5.91974 14.2643 4.4676 13.8322 3.30829 12.9354C3.10532 12.7085 3.12932 12.5545 3.14532 12.5065ZM7.56571 20.9503C4.54413 20.9503 2.48341 20.4654 1.60253 19.5445C1.4285 19.3646 1.29459 19.1499 1.20962 18.9145C1.12466 18.679 1.09056 18.4283 1.10959 18.1787C1.19058 16.304 3.36429 15.3591 7.56571 15.3591C11.3712 15.3591 14.0218 16.8379 14.0218 18.1587C14.0218 19.4795 11.3712 20.9503 7.56571 20.9503Z" fill="#0DADB9"/>
</g>
<defs>
<clipPath id="clip0_3011_27325">
<rect width="24" height="24" fill="white"/>
</clipPath>
</defs>
</svg>
