<svg width="49" height="48" viewBox="0 0 49 48" fill="none" xmlns="http://www.w3.org/2000/svg">
<g clip-path="url(#clip0_2992_28037)">
<path d="M24.3082 30.0136C23.1215 30.0136 21.9615 30.3655 20.9748 31.0248C19.9881 31.6841 19.219 32.6212 18.7649 33.7175C18.3108 34.8139 18.192 36.0203 18.4235 37.1842C18.655 38.3481 19.2264 39.4172 20.0655 40.2563C20.9047 41.0954 21.9738 41.6668 23.1376 41.8983C24.3015 42.1298 25.5079 42.011 26.6043 41.5569C27.7006 41.1028 28.6377 40.3337 29.297 39.347C29.9563 38.3604 30.3082 37.2003 30.3082 36.0136C30.3082 34.4223 29.676 32.8962 28.5508 31.771C27.4256 30.6458 25.8995 30.0136 24.3082 30.0136ZM24.3082 38.0136C23.9126 38.0136 23.5259 37.8963 23.197 37.6766C22.8681 37.4568 22.6118 37.1444 22.4604 36.779C22.309 36.4135 22.2694 36.0114 22.3466 35.6234C22.4238 35.2355 22.6143 34.8791 22.894 34.5994C23.1737 34.3197 23.53 34.1292 23.918 34.0521C24.306 33.9749 24.7081 34.0145 25.0736 34.1659C25.439 34.3172 25.7514 34.5736 25.9711 34.9025C26.1909 35.2314 26.3082 35.6181 26.3082 36.0136C26.3082 36.5441 26.0975 37.0528 25.7224 37.4278C25.3473 37.8029 24.8386 38.0136 24.3082 38.0136ZM24.3082 22.0136C20.5977 22.0264 17.0413 23.4993 14.4082 26.1136C14.0357 26.4884 13.8266 26.9953 13.8266 27.5236C13.8266 28.052 14.0357 28.5589 14.4082 28.9336C14.7829 29.3061 15.2898 29.5152 15.8182 29.5152C16.3466 29.5152 16.8535 29.3061 17.2282 28.9336C18.1571 28.0024 19.2606 27.2635 20.4755 26.7594C21.6904 26.2552 22.9928 25.9958 24.3082 25.9958C25.6235 25.9958 26.926 26.2552 28.1409 26.7594C29.3558 27.2635 30.4593 28.0024 31.3882 28.9336C31.7574 29.3105 32.2606 29.5261 32.7882 29.5336C33.194 29.557 33.5972 29.4561 33.9443 29.2446C34.2913 29.033 34.5657 28.7206 34.7307 28.3492C34.8958 27.9778 34.9438 27.5649 34.8683 27.1655C34.7928 26.7661 34.5974 26.3992 34.3082 26.1136C32.9922 24.807 31.4318 23.7725 29.716 23.069C28.0002 22.3655 26.1626 22.0069 24.3082 22.0136ZM24.3082 14.0136C18.4762 14.0291 12.8853 16.3431 8.74818 20.4536C8.56171 20.6401 8.41378 20.8615 8.31286 21.1051C8.21194 21.3488 8.16 21.6099 8.16 21.8736C8.16 22.4062 8.37158 22.917 8.74818 23.2936C9.12479 23.6702 9.63558 23.8818 10.1682 23.8818C10.7008 23.8818 11.2116 23.6702 11.5882 23.2936C14.9632 19.9228 19.5382 18.0295 24.3082 18.0295C29.0782 18.0295 33.6532 19.9228 37.0282 23.2936C37.2151 23.479 37.4367 23.6256 37.6804 23.7252C37.924 23.8247 38.185 23.8751 38.4482 23.8736C38.7114 23.8751 38.9723 23.8247 39.216 23.7252C39.4597 23.6256 39.6813 23.479 39.8682 23.2936C40.0556 23.1077 40.2044 22.8865 40.306 22.6428C40.4075 22.3991 40.4598 22.1376 40.4598 21.8736C40.4598 21.6096 40.4075 21.3482 40.306 21.1045C40.2044 20.8608 40.0556 20.6396 39.8682 20.4536C35.731 16.3431 30.1402 14.0291 24.3082 14.0136ZM45.5282 14.7936C42.7422 12.0058 39.4341 9.79433 35.7931 8.28548C32.1521 6.77664 28.2495 6.00003 24.3082 6.00003C20.3669 6.00003 16.4643 6.77664 12.8232 8.28548C9.18222 9.79433 5.87419 12.0058 3.08818 14.7936C2.71158 15.1702 2.5 15.681 2.5 16.2136C2.5 16.7462 2.71158 17.257 3.08818 17.6336C3.46479 18.0102 3.97558 18.2218 4.50818 18.2218C5.04079 18.2218 5.55158 18.0102 5.92818 17.6336C10.8037 12.7606 17.4149 10.0232 24.3082 10.0232C31.2015 10.0232 37.8126 12.7606 42.6882 17.6336C42.8741 17.8211 43.0953 17.9699 43.339 18.0714C43.5827 18.1729 43.8442 18.2252 44.1082 18.2252C44.3722 18.2252 44.6336 18.1729 44.8773 18.0714C45.1211 17.9699 45.3423 17.8211 45.5282 17.6336C45.7156 17.4477 45.8644 17.2265 45.966 16.9828C46.0675 16.7391 46.1198 16.4777 46.1198 16.2136C46.1198 15.9496 46.0675 15.6882 45.966 15.4445C45.8644 15.2008 45.7156 14.9796 45.5282 14.7936Z" fill="currentColor"/>
</g>
<defs>
<clipPath id="clip0_2992_28037">
<rect width="48" height="48" fill="white" transform="translate(0.5)"/>
</clipPath>
</defs>
</svg>
