<svg width="24" height="24" viewBox="0 0 24 24" fill="none" xmlns="http://www.w3.org/2000/svg">
<path d="M11.9041 15.0068C11.3107 15.0068 10.7307 15.1827 10.2374 15.5124C9.74403 15.842 9.35952 16.3106 9.13245 16.8587C8.90539 17.4069 8.84598 18.0101 8.96174 18.5921C9.07749 19.174 9.36321 19.7086 9.78277 20.1281C10.2023 20.5477 10.7369 20.8334 11.3188 20.9492C11.9008 21.0649 12.504 21.0055 13.0521 20.7784C13.6003 20.5514 14.0689 20.1669 14.3985 19.6735C14.7281 19.1802 14.9041 18.6001 14.9041 18.0068C14.9041 17.2111 14.588 16.4481 14.0254 15.8855C13.4628 15.3229 12.6997 15.0068 11.9041 15.0068ZM11.9041 19.0068C11.7063 19.0068 11.513 18.9481 11.3485 18.8383C11.1841 18.7284 11.0559 18.5722 10.9802 18.3895C10.9045 18.2068 10.8847 18.0057 10.9233 17.8117C10.9619 17.6177 11.0571 17.4395 11.197 17.2997C11.3368 17.1598 11.515 17.0646 11.709 17.026C11.903 16.9874 12.104 17.0072 12.2868 17.0829C12.4695 17.1586 12.6257 17.2868 12.7356 17.4512C12.8454 17.6157 12.9041 17.809 12.9041 18.0068C12.9041 18.272 12.7987 18.5264 12.6112 18.7139C12.4237 18.9014 12.1693 19.0068 11.9041 19.0068ZM11.9041 11.0068C10.0488 11.0132 8.27064 11.7496 6.95409 13.0568C6.76784 13.2442 6.6633 13.4976 6.6633 13.7618C6.6633 14.026 6.76784 14.2794 6.95409 14.4668C7.14145 14.653 7.39491 14.7576 7.65909 14.7576C7.92328 14.7576 8.17673 14.653 8.36409 14.4668C8.82855 14.0012 9.3803 13.6317 9.98776 13.3797C10.5952 13.1276 11.2464 12.9979 11.9041 12.9979C12.5618 12.9979 13.213 13.1276 13.8204 13.3797C14.4279 13.6317 14.9796 14.0012 15.4441 14.4668C15.6287 14.6552 15.8803 14.763 16.1441 14.7668C16.347 14.7785 16.5486 14.7281 16.7221 14.6223C16.8957 14.5165 17.0328 14.3603 17.1154 14.1746C17.1979 13.9889 17.2219 13.7824 17.1842 13.5827C17.1464 13.383 17.0487 13.1996 16.9041 13.0568C16.2461 12.4035 15.4659 11.8862 14.608 11.5345C13.7501 11.1827 12.8313 11.0034 11.9041 11.0068ZM11.9041 7.0068C8.98808 7.01455 6.19267 8.17152 4.12409 10.2268C4.03085 10.32 3.95689 10.4307 3.90643 10.5525C3.85597 10.6744 3.83 10.8049 3.83 10.9368C3.83 11.2031 3.93579 11.4585 4.12409 11.6468C4.3124 11.8351 4.56779 11.9409 4.83409 11.9409C5.10039 11.9409 5.35579 11.8351 5.54409 11.6468C7.2316 9.96139 9.51908 9.01472 11.9041 9.01472C14.2891 9.01472 16.5766 9.96139 18.2641 11.6468C18.3575 11.7395 18.4683 11.8128 18.5902 11.8626C18.712 11.9123 18.8425 11.9376 18.9741 11.9368C19.1057 11.9376 19.2362 11.9123 19.358 11.8626C19.4798 11.8128 19.5907 11.7395 19.6841 11.6468C19.7778 11.5538 19.8522 11.4432 19.903 11.3214C19.9538 11.1995 19.9799 11.0688 19.9799 10.9368C19.9799 10.8048 19.9538 10.6741 19.903 10.5522C19.8522 10.4304 19.7778 10.3198 19.6841 10.2268C17.6155 8.17152 14.8201 7.01455 11.9041 7.0068ZM22.5141 7.3968C21.1211 6.0029 19.4671 4.89715 17.6466 4.14273C15.8261 3.3883 13.8747 3 11.9041 3C9.93345 3 7.98213 3.3883 6.16162 4.14273C4.34111 4.89715 2.6871 6.0029 1.29409 7.3968C1.10579 7.5851 1 7.8405 1 8.1068C1 8.3731 1.10579 8.62849 1.29409 8.8168C1.4824 9.0051 1.73779 9.11089 2.00409 9.11089C2.27039 9.11089 2.52579 9.0051 2.71409 8.8168C5.15187 6.38029 8.45745 5.01157 11.9041 5.01157C15.3507 5.01157 18.6563 6.38029 21.0941 8.8168C21.1871 8.91053 21.2977 8.98492 21.4195 9.03569C21.5414 9.08646 21.6721 9.1126 21.8041 9.1126C21.9361 9.1126 22.0668 9.08646 22.1887 9.03569C22.3105 8.98492 22.4211 8.91053 22.5141 8.8168C22.6078 8.72383 22.6822 8.61323 22.733 8.49137C22.7838 8.36951 22.8099 8.23881 22.8099 8.1068C22.8099 7.97479 22.7838 7.84408 22.733 7.72222C22.6822 7.60036 22.6078 7.48976 22.5141 7.3968Z" fill="#0DADB9"/>
</svg>
