<svg width="24" height="15" viewBox="0 0 24 15" fill="none" xmlns="http://www.w3.org/2000/svg">
<path d="M22 0H2C0.895431 0 0 0.895431 0 2V12.7692C0 13.8738 0.89543 14.7692 2 14.7692H22C23.1046 14.7692 24 13.8738 24 12.7692V2C24 0.895431 23.1046 0 22 0Z" fill="#3E76B7"/>
<path d="M4.31369 7.70492H5.58569L4.94784 6.15415L4.31369 7.70492ZM22.3238 9.83446L22.0663 9.55476L22.0478 9.53538L22.0294 9.516L21.7534 9.21692L21.5014 8.94276L20.1094 7.43353L20.5728 6.93415V6.92861L21.8983 5.48676H21.9177L22.6322 4.71692H19.3275L18.5642 5.54769L17.8488 4.71784H10.5454L9.93615 6.12184L9.31677 4.71784H6.46907V5.3603L6.15338 4.71784H3.72569L3.67492 4.83415L3.6703 4.82769L3.2623 5.77846L2.59769 7.29876V7.32646L1.38477 10.1548L2.59769 10.152H4.19L4.54907 9.2843H5.35215L5.70938 10.152H8.84138V9.48923L9.122 10.1548H10.7457L11.0245 9.48184V10.1529H12.9675V10.1538H13.3848V10.152H13.5168V10.1511H17.75L18.5429 9.30646L19.2897 10.1511L22.1448 10.1538H22.6155L22.3238 9.83446ZM12.6537 9.38492H11.7002L11.6946 6.33692L10.3451 9.38492H9.52815L8.17123 6.33046V9.38492H6.278L5.92169 8.5163H3.98138L3.62138 9.38492H2.60969L4.27492 5.48861H5.66046L7.24353 9.17907V5.48953H8.76569L9.9823 8.13415L11.1029 5.48953H12.6537V9.38492ZM19.6931 9.38492L18.5466 8.0963L17.3549 9.38492H13.6663V5.48769H17.4131L18.5577 6.7643L19.742 5.48769H20.966L20.5728 5.90861L19.1448 7.44369L20.8792 9.38584H19.6931V9.38492ZM14.5931 6.29538V7.00246H16.6377V7.79723H14.5931V8.57353H16.8823L17.9438 7.43076L16.9257 6.29538H14.5931Z" fill="white"/>
</svg>
