<svg width="18" height="16" viewBox="0 0 18 16" fill="none" xmlns="http://www.w3.org/2000/svg">
<path fill-rule="evenodd" clip-rule="evenodd" d="M10.5451 15.0501C14.4421 15.0689 18 11.8721 18 7.98262C18 3.73062 14.4416 0.790715 10.5451 0.792156L7.1905 0.792115C3.24689 0.790689 0 3.73112 0 7.98261C0 11.8732 3.24688 15.0689 7.1905 15.0502L10.5451 15.0501V15.0501Z" fill="#0079BE"/>
<path fill-rule="evenodd" clip-rule="evenodd" d="M7.20621 1.38165C3.60291 1.38218 0.68168 4.30396 0.681152 7.90833C0.681678 11.5125 3.60291 14.4329 7.20621 14.4344C10.8117 14.4329 13.7334 11.5126 13.7334 7.90833C13.7334 4.30398 10.8111 1.38222 7.20621 1.38165Z" fill="#FFFFFE"/>
<path fill-rule="evenodd" clip-rule="evenodd" d="M3.07129 7.90832C3.07426 6.14626 4.17442 4.64421 5.72561 4.04718V11.7685C4.17442 11.1719 3.07427 9.66975 3.07129 7.90832V7.90832Z" fill="#0079BE"/>
<path fill-rule="evenodd" clip-rule="evenodd" d="M8.68753 11.7695V4.04718C10.2397 4.64218 11.3412 6.1459 11.3443 7.90832C11.3412 9.67076 10.2396 11.1728 8.6875 11.7695H8.68753Z" fill="#0079BE"/>
</svg>
