<svg width="33" height="6" viewBox="0 0 33 6" fill="none" xmlns="http://www.w3.org/2000/svg">
<path d="M17.329 0C18.8708 0 20.1208 1.17613 20.1208 2.62904V2.63069C20.1208 4.0836 18.8708 5.26138 17.329 5.26138C15.787 5.26138 14.5371 4.0836 14.5371 2.63069V2.62904C14.5371 1.17613 15.787 0 17.329 0Z" fill="#F47216"/>
<path d="M12.9441 0.0339355C13.3845 0.0339355 13.7538 0.122968 14.2034 0.337695V1.47253C13.7776 1.08033 13.4083 0.916185 12.9198 0.916185C11.9597 0.916185 11.2048 1.66511 11.2048 2.61459C11.2048 3.61585 11.9365 4.32019 12.9674 4.32019C13.4315 4.32019 13.794 4.16457 14.2034 3.77871V4.91414C13.7378 5.12069 13.3606 5.20219 12.9198 5.20219C11.3611 5.20219 10.1499 4.07508 10.1499 2.62163C10.1499 1.18373 11.3933 0.0339355 12.9441 0.0339355Z" fill="black"/>
<path d="M8.10457 0.0651245C8.67997 0.0651245 9.20639 0.250722 9.64659 0.613488L9.11095 1.27428C8.84428 0.992664 8.59211 0.873904 8.28552 0.873904C7.84428 0.873904 7.52299 1.11058 7.52299 1.42197C7.52299 1.68902 7.70329 1.83037 8.31757 2.04455C9.48193 2.44572 9.82704 2.8015 9.82704 3.58709C9.82704 4.54441 9.0807 5.21083 8.01706 5.21083C7.23808 5.21083 6.67184 4.92179 6.2002 4.26958L6.86142 3.66949C7.09714 4.09889 7.49044 4.32903 7.97873 4.32903C8.43538 4.32903 8.77347 4.0322 8.77347 3.63153C8.77347 3.42384 8.671 3.24582 8.46658 3.11988C8.36362 3.06027 8.15969 2.97139 7.75896 2.83826C6.79753 2.51216 6.46771 2.16356 6.46771 1.48227C6.46766 0.672943 7.17603 0.0651245 8.10457 0.0651245Z" fill="black"/>
<path d="M19.8018 0.151367H20.9199L22.3195 3.47287L23.7371 0.151367H24.8468L22.5796 5.2233H22.0287L19.8018 0.151367Z" fill="black"/>
<path d="M4.79102 0.158966H5.81469V5.10406H4.79102V0.158966Z" fill="black"/>
<path d="M25.3101 0.158966H28.2131V0.996873H26.333V2.0945H28.1439V2.93201H26.333V4.26685H28.2131V5.10406H25.3101V0.158966Z" fill="black"/>
<path d="M31.0707 3.02082C31.8417 2.87293 32.266 2.37609 32.266 1.61899C32.266 0.693144 31.5894 0.158997 30.4088 0.158997H28.8911V5.10409H29.9135V3.11749H30.0471L31.4639 5.10404H32.7228L31.0707 3.02082ZM30.2127 2.43545H29.9135V0.937848H30.2288C30.8663 0.937848 31.2128 1.18968 31.2128 1.67091C31.2129 2.168 30.8664 2.43545 30.2127 2.43545Z" fill="black"/>
<path d="M1.5025 0.158966H0V5.10406H1.49467C2.28936 5.10406 2.86341 4.92734 3.36715 4.5332C3.96588 4.06634 4.31987 3.36271 4.31987 2.63498C4.31992 1.17559 3.16263 0.158966 1.5025 0.158966ZM2.69841 3.87386C2.37677 4.14739 1.95899 4.26685 1.29762 4.26685H1.02283V0.996873H1.29757C1.95894 0.996873 2.36022 1.1085 2.69836 1.3968C3.05239 1.69387 3.26534 2.1541 3.26534 2.6279C3.26539 3.10239 3.05239 3.57678 2.69841 3.87386Z" fill="black"/>
</svg>
