<svg width="20" height="14" viewBox="0 0 20 14" fill="none" xmlns="http://www.w3.org/2000/svg">
<path d="M3.16954 4.62484C3.16954 4.66755 3.16954 4.70212 3.16954 4.73635C3.16954 5.57889 3.17225 6.42178 3.16818 7.26466C3.16683 7.59171 3.06278 7.88115 2.80588 8.09907C2.58762 8.28446 2.327 8.36004 2.04739 8.36919C1.41565 8.39054 0.823226 8.22718 0.248764 7.97943C0.187759 7.95334 0.129127 7.92114 0.0667666 7.89877C0.0115233 7.87945 0 7.8459 0 7.791C0.00135566 5.95949 -0.0003392 4.12698 0.00169429 2.29548C0.00271104 1.19536 0.724263 0.295195 1.79659 0.0593099C1.97147 0.0210124 2.15517 0.00813345 2.33479 0.00779453C3.38204 0.00576104 4.42997 0.0118614 5.47688 0.0138949C5.53924 0.0138949 5.57957 0.0145726 5.57957 0.0999794C5.5772 3.85991 5.57923 7.61917 5.57516 11.3788C5.57449 12.0196 5.32064 12.5602 4.85395 12.9964C4.4215 13.4001 3.9016 13.5966 3.31155 13.599C2.24294 13.6031 1.174 13.6014 0.105064 13.6024C0.0738835 13.6024 0.0423644 13.6024 0.00610037 13.6024C0.00610037 12.0122 0.00610037 10.4288 0.00610037 8.83655C0.14065 8.86502 0.273844 8.89552 0.407377 8.92196C0.847967 9.0094 1.29229 9.07684 1.74169 9.09108C2.12636 9.10328 2.51204 9.10904 2.89637 9.08938C3.37323 9.06532 3.83924 8.97415 4.26831 8.74809C4.81633 8.459 5.11221 8.00112 5.12271 7.38362C5.13864 6.48786 5.1322 5.59245 5.13593 4.69602C5.13593 4.64891 5.13119 4.61671 5.06849 4.61671C4.45166 4.61942 3.83449 4.61874 3.21767 4.6201C3.20547 4.61976 3.19259 4.62213 3.16954 4.62484Z" fill="#437ACC"/>
<path d="M6.95453 8.38444C7.02536 8.43596 7.08772 8.4851 7.15313 8.52882C7.54492 8.78911 7.98314 8.92772 8.44135 9.01144C9.07004 9.12599 9.70517 9.13243 10.34 9.08769C10.867 9.05075 11.3859 8.95653 11.9047 8.83113C11.9047 8.51526 11.9047 8.20007 11.9047 7.87742C11.8844 7.88454 11.8651 7.88861 11.8478 7.89742C11.4194 8.10755 10.9734 8.26379 10.4996 8.33191C10.0353 8.39868 9.57265 8.41122 9.12664 8.23057C8.61182 8.02214 8.33086 7.63069 8.25495 7.08741C8.21563 6.80814 8.22614 6.52989 8.31053 6.25944C8.48643 5.69684 8.89211 5.39487 9.45064 5.28099C9.97799 5.17321 10.4992 5.23795 11.0076 5.38877C11.2855 5.47078 11.5516 5.59381 11.8227 5.69921C11.8488 5.70938 11.8739 5.7226 11.9057 5.73683C11.9078 5.71209 11.9105 5.6965 11.9105 5.68125C11.9105 5.40198 11.9098 5.12272 11.9112 4.84379C11.9115 4.7977 11.9027 4.77431 11.8502 4.76245C11.0639 4.57842 10.2691 4.47369 9.46047 4.49776C8.87415 4.51504 8.29528 4.58011 7.74013 4.78448C7.45883 4.88785 7.19787 5.02816 6.9569 5.22609C6.95351 5.19694 6.94978 5.17762 6.94978 5.15864C6.94978 4.19883 6.94572 3.23936 6.9508 2.27989C6.95622 1.18858 7.67913 0.292149 8.74332 0.0576191C8.91312 0.0203384 9.09071 0.00610389 9.26492 0.00474823C10.3257 3.40639e-06 11.3865 0.00271475 12.4473 3.42721e-06C12.5263 -0.000335489 12.5426 0.0244058 12.5426 0.0993062C12.5409 3.82365 12.5412 7.54834 12.5405 11.2734C12.5405 11.9336 12.3209 12.507 11.8427 12.969C11.4682 13.3309 11.0178 13.5404 10.4969 13.5892C10.3935 13.599 10.2901 13.6024 10.1864 13.6024C9.14189 13.6037 8.09667 13.6031 7.05214 13.6031C7.02095 13.6031 6.98977 13.6031 6.95419 13.6031C6.95453 11.8617 6.95453 10.1292 6.95453 8.38444Z" fill="#D26161"/>
<path d="M13.9042 4.61974C13.9028 4.58483 13.9005 4.55636 13.9005 4.52789C13.8998 3.78364 13.8984 3.03904 13.9005 2.29478C13.9035 1.19669 14.6247 0.295514 15.6954 0.0599671C15.8703 0.0216696 16.0533 0.00709619 16.2329 0.00709619C17.2805 0.00438487 18.3277 0.00912967 19.375 0.011841C19.478 0.011841 19.478 0.0125188 19.478 0.118938C19.4783 3.84328 19.4733 7.56797 19.4814 11.2927C19.4838 12.3426 18.8148 13.1879 17.9464 13.4793C17.7153 13.5569 17.4784 13.5983 17.2357 13.599C16.1539 13.601 15.0714 13.6003 13.9896 13.6003C13.9635 13.6003 13.9378 13.6003 13.9045 13.6003C13.9028 13.5647 13.9005 13.5363 13.9005 13.5078C13.8998 12.0322 13.9005 10.5569 13.8984 9.08123C13.8984 9.00362 13.9198 8.98328 13.9964 8.98396C15.105 8.98769 16.2136 8.98803 17.3222 8.99006C17.6055 8.99074 17.8844 8.96566 18.1484 8.85178C18.4735 8.71181 18.7171 8.49219 18.8215 8.14379C18.9469 7.72387 18.7971 7.29819 18.4362 7.04028C18.1966 6.86912 17.9251 6.78846 17.636 6.75728C17.618 6.75525 17.6004 6.75322 17.5804 6.73796C17.6523 6.72 17.7248 6.70543 17.795 6.6834C18.1596 6.56817 18.4433 6.35668 18.5514 5.9754C18.6982 5.46059 18.4819 4.95222 17.8831 4.73294C17.6377 4.64346 17.3825 4.61906 17.1242 4.61906C16.0844 4.61974 15.045 4.61974 14.0059 4.61974C13.974 4.61974 13.9428 4.61974 13.9042 4.61974Z" fill="#56BA5C"/>
<path d="M15.0156 8.2621C15.0156 7.86997 15.0156 7.48225 15.0156 7.09013C15.0387 7.08742 15.059 7.08369 15.0793 7.08369C15.4942 7.08335 15.9087 7.08199 16.3235 7.08403C16.6082 7.08538 16.8346 7.25213 16.9051 7.50496C17.0135 7.89438 16.7566 8.25634 16.3452 8.26752C15.9124 8.27938 15.4786 8.27023 15.0451 8.27023C15.0377 8.27023 15.0302 8.26617 15.0156 8.2621Z" fill="#25BA2F"/>
<path d="M15.0156 6.38857C15.0156 6.02797 15.0156 5.67549 15.0156 5.3176C15.038 5.31421 15.0583 5.3098 15.0787 5.3098C15.4613 5.30946 15.8433 5.30709 16.2259 5.31116C16.4886 5.31455 16.6841 5.46062 16.7519 5.69312C16.8542 6.04423 16.6204 6.38247 16.2557 6.3923C15.8602 6.40213 15.4643 6.39569 15.0688 6.39637C15.0536 6.39603 15.038 6.39196 15.0156 6.38857Z" fill="#25BA2F"/>
</svg>
