<svg width="23" height="15" viewBox="0 0 23 15" fill="none" xmlns="http://www.w3.org/2000/svg">
<path d="M22.7693 7.0547C22.7693 10.951 19.6168 14.1095 15.7279 14.1095C11.8391 14.1095 8.68652 10.951 8.68652 7.0547C8.68652 3.1585 11.8391 0 15.7279 0C19.6168 0 22.7693 3.1585 22.7693 7.0547Z" fill="#F79F1A"/>
<path d="M14.0828 7.0547C14.0828 10.951 10.9303 14.1095 7.04138 14.1095C3.15253 14.1095 0 10.951 0 7.0547C0 3.1585 3.15253 0 7.04138 0C10.9303 0 14.0828 3.1585 14.0828 7.0547Z" fill="#EA001B"/>
<path d="M11.3851 1.50113C9.7421 2.79261 8.6875 4.79955 8.6875 7.05406C8.6875 9.3085 9.7421 11.3169 11.3851 12.6084C13.0279 11.3169 14.0826 9.3085 14.0826 7.05406C14.0826 4.79955 13.0279 2.79261 11.3851 1.50113Z" fill="#FF5F01"/>
</svg>
