<svg width="214" height="33" viewBox="0 0 214 33" fill="none" xmlns="http://www.w3.org/2000/svg">
<path d="M8.95868 21.0517L10.3714 19.3717C11.6695 20.479 12.9676 21.128 14.6476 21.128C16.0984 21.128 17.0529 20.4408 17.0529 19.4481V19.4099C17.0529 18.4554 16.5184 17.9209 13.9985 17.3482C11.135 16.6609 9.4932 15.821 9.4932 13.3392V13.301C9.4932 10.972 11.4022 9.40665 14.113 9.40665C16.0602 9.40665 17.6256 10.0175 19.0001 11.0866L17.7402 12.8047C16.5184 11.8884 15.2966 11.4302 14.0749 11.4302C12.7004 11.4302 11.8604 12.1556 11.8604 13.0338V13.072C11.8604 14.1028 12.4713 14.561 15.0675 15.2101C17.9311 15.8973 19.4201 16.9282 19.4201 19.1427V19.1808C19.4201 21.7007 17.4347 23.1898 14.6094 23.1898C12.5476 23.1898 10.6004 22.5025 8.95868 21.0517Z" fill="white"/>
<path d="M3.88096 16.2791C3.88096 10.6284 8.46261 6.00861 14.1515 5.97043V3.41234V0.777893L12.5861 3.52688C6.24815 4.29049 1.32288 9.71211 1.32288 16.2791C1.32288 22.8462 6.28633 28.2296 12.6243 28.9932L10.9062 25.977C6.82086 24.6025 3.91914 20.7844 3.88096 16.2791Z" fill="white"/>
<path d="M27.0178 16.2409C27.0178 9.71208 22.0925 4.32864 15.7546 3.52686L17.5491 6.58129C21.558 7.95578 24.4215 11.7738 24.4597 16.2409C24.4597 21.8916 19.8781 26.5115 14.2274 26.5496V27.6187V31.7422L15.7928 29.0314C22.0925 28.1914 27.0178 22.7698 27.0178 16.2409Z" fill="white"/>
<path d="M38.7386 20.9373L40.1131 19.2574C41.3731 20.3646 42.633 20.9755 44.2748 20.9755C45.6875 20.9755 46.6038 20.3264 46.6038 19.2956V19.2574C46.6038 18.3029 46.0693 17.8065 43.6257 17.2338C40.8386 16.5466 39.235 15.7066 39.235 13.2631V13.2249C39.235 10.934 41.1058 9.36865 43.7403 9.36865C45.6493 9.36865 47.1765 9.94136 48.5128 11.0486L47.2529 12.8049C46.0693 11.9267 44.8857 11.4304 43.7021 11.4304C42.3658 11.4304 41.564 12.1176 41.564 12.9958V13.034C41.564 14.0648 42.1749 14.523 44.6948 15.1339C47.482 15.8211 48.9328 16.8138 48.9328 19.0283V19.1047C48.9328 21.5864 46.9856 23.0754 44.2366 23.0754C42.2131 23.0754 40.304 22.3882 38.7386 20.9373Z" fill="white"/>
<path d="M57.5617 9.59772H55.2327V22.8845H57.5617V9.59772Z" fill="white"/>
<path d="M64.511 9.59772H66.9927L71.0017 15.8975L74.9724 9.59772H77.4541V22.8845H75.1251V13.3394L71.0017 19.6392H70.9253L66.8018 13.3776V22.8845H64.511V9.59772Z" fill="white"/>
<path d="M84.4023 9.59772H89.5948C92.6492 9.59772 94.5965 11.354 94.5965 14.0266V14.0648C94.5965 17.0429 92.2293 18.6083 89.3276 18.6083H86.7313V22.8845H84.4023V9.59772V9.59772ZM89.4039 16.5084C91.1602 16.5084 92.2293 15.5157 92.2293 14.1412V14.103C92.2293 12.5376 91.122 11.7358 89.4039 11.7358H86.7313V16.5084H89.4039Z" fill="white"/>
<path d="M100.362 9.59772H102.653V20.7464H109.601V22.8845H100.362V9.59772Z" fill="white"/>
<path d="M115.252 9.59772H124.988V11.6976H117.543V15.1339H124.148V17.2338H117.543V20.7846H125.065V22.8845H115.252V9.59772Z" fill="white"/>
<path d="M131.364 9.59772H133.54L140.565 18.7992V9.59772H142.856V22.8845H140.909L133.655 13.4158V22.8845H131.364V9.59772Z" fill="white"/>
<path d="M152.135 9.59772H149.844V22.8845H152.135V9.59772Z" fill="white"/>
<path d="M158.511 16.2793C158.511 12.5376 161.336 9.36865 165.307 9.36865C167.598 9.36865 169.011 10.0177 170.347 11.1631L168.896 12.9194C167.865 12.0413 166.872 11.5068 165.231 11.5068C162.825 11.5068 160.954 13.6449 160.954 16.2029V16.2411C160.954 18.9901 162.749 20.9755 165.422 20.9755C166.643 20.9755 167.789 20.5937 168.591 19.9828V17.5011H165.231V15.4775H170.843V21.0519C169.545 22.1591 167.674 23.1136 165.345 23.1136C161.222 23.1136 158.511 20.1355 158.511 16.2793Z" fill="white"/>
<path d="M177.448 9.59772H179.777V15.1339H186.038V9.59772H188.329V22.8845H186.038V17.272H179.777V22.8845H177.448V9.59772Z" fill="white"/>
<path d="M198.18 11.774H194.018V9.59772H204.671V11.774H200.509V22.8845H198.18V11.774Z" fill="white"/>
<path d="M209.674 9.59756C210.018 9.59756 210.361 9.67393 210.705 9.86483C211.048 10.0557 211.316 10.2848 211.468 10.6284C211.659 10.9721 211.736 11.3157 211.736 11.6593C211.736 12.0029 211.659 12.3466 211.468 12.6902C211.278 13.0338 211.01 13.2629 210.705 13.4538C210.361 13.6447 210.018 13.721 209.674 13.721C209.33 13.721 208.949 13.6447 208.643 13.4538C208.338 13.2629 208.07 12.9956 207.879 12.6902C207.689 12.3466 207.612 12.0029 207.612 11.6593C207.612 11.2775 207.689 10.9339 207.879 10.6284C208.07 10.2848 208.338 10.0175 208.643 9.86483C208.949 9.71211 209.33 9.59756 209.674 9.59756ZM209.674 9.94119C209.368 9.94119 209.101 10.0175 208.834 10.1703C208.567 10.323 208.338 10.5521 208.185 10.8193C208.032 11.0866 207.956 11.392 207.956 11.6975C207.956 12.0029 208.032 12.2702 208.185 12.5756C208.338 12.8811 208.567 13.072 208.834 13.2247C209.101 13.3774 209.407 13.4538 209.712 13.4538C210.018 13.4538 210.285 13.3774 210.59 13.2247C210.896 13.072 211.087 12.8429 211.239 12.5756C211.392 12.3084 211.468 12.0029 211.468 11.6975C211.468 11.392 211.392 11.0866 211.239 10.8193C211.087 10.5521 210.858 10.323 210.59 10.1703C210.247 10.0175 209.941 9.94119 209.674 9.94119ZM208.758 12.8429V10.5903H209.521C209.788 10.5903 209.979 10.6284 210.094 10.6666C210.208 10.7048 210.323 10.7812 210.361 10.8957C210.438 11.0102 210.476 11.1248 210.476 11.2393C210.476 11.392 210.399 11.5448 210.285 11.6593C210.17 11.7738 210.018 11.8502 209.827 11.8502C209.903 11.8884 209.979 11.9266 210.018 11.9647C210.094 12.0411 210.208 12.1938 210.361 12.4229L210.628 12.8811H210.17L209.979 12.5375C209.827 12.2702 209.712 12.0793 209.598 12.0029C209.521 11.9648 209.445 11.9266 209.292 11.9266H209.063V12.8811H208.758V12.8429ZM209.101 11.5829H209.559C209.788 11.5829 209.903 11.5448 209.979 11.5066C210.056 11.4684 210.094 11.3539 210.094 11.2393C210.094 11.163 210.094 11.1248 210.056 11.0484C210.018 10.9721 209.979 10.9721 209.903 10.9339C209.827 10.8957 209.712 10.8957 209.521 10.8957H209.101V11.5829Z" fill="white"/>
</svg>
