<svg width="277" height="42" viewBox="0 0 277 42" fill="none" xmlns="http://www.w3.org/2000/svg">
<path d="M11.9648 27.1701L13.7881 25.0019C15.4635 26.4309 17.1389 27.2686 19.3071 27.2686C21.1796 27.2686 22.4115 26.3816 22.4115 25.1004V25.0512C22.4115 23.8192 21.7217 23.1294 18.4694 22.3902C14.7736 21.5032 12.6547 20.4191 12.6547 17.2161V17.1669C12.6547 14.161 15.1186 12.1406 18.6172 12.1406C21.1303 12.1406 23.1507 12.9291 24.9247 14.3088L23.2985 16.5263C21.7217 15.3436 20.1448 14.7523 18.5679 14.7523C16.794 14.7523 15.7099 15.6886 15.7099 16.8219V16.8712C15.7099 18.2017 16.4983 18.793 19.8491 19.6307C23.5449 20.5177 25.4667 21.8482 25.4667 24.7062V24.7555C25.4667 28.0078 22.9043 29.9296 19.2578 29.9296C16.5969 29.9296 14.0838 29.0426 11.9648 27.1701Z" fill="#454545"/>
<path d="M5.4119 21.0103C5.4119 13.7173 11.3251 7.75484 18.6674 7.70556V4.40401V1.00391L16.647 4.55184C8.46707 5.53738 2.11035 12.5347 2.11035 21.0103C2.11035 29.4859 8.51635 36.434 16.6963 37.4195L14.4789 33.5267C9.20622 31.7527 5.46118 26.825 5.4119 21.0103Z" fill="#454545"/>
<path d="M35.2734 20.9619C35.2734 12.5356 28.9167 5.58755 20.7367 4.55273L23.0527 8.49489C28.2268 10.2689 31.9226 15.1965 31.9718 20.9619C31.9718 28.2549 26.0586 34.2174 18.7656 34.2667V35.6465V40.9684L20.786 37.4697C28.9167 36.3856 35.2734 29.3883 35.2734 20.9619Z" fill="#454545"/>
<path d="M50.4004 27.0227L52.1744 24.8545C53.8005 26.2835 55.4266 27.072 57.5455 27.072C59.3688 27.072 60.5514 26.2343 60.5514 24.9038V24.8545C60.5514 23.6226 59.8616 22.982 56.7078 22.2428C53.1106 21.3559 51.041 20.2718 51.041 17.118V17.0688C51.041 14.1121 53.4556 12.0918 56.8557 12.0918C59.3195 12.0918 61.2906 12.831 63.0153 14.26L61.3891 16.5267C59.8616 15.3933 58.334 14.7527 56.8064 14.7527C55.0817 14.7527 54.0469 15.6397 54.0469 16.7731V16.8224C54.0469 18.1529 54.8353 18.7442 58.0876 19.5326C61.6848 20.4196 63.5573 21.7008 63.5573 24.5589V24.6574C63.5573 27.8604 61.0442 29.7822 57.4963 29.7822C54.8846 29.7822 52.4207 28.8952 50.4004 27.0227Z" fill="#454545"/>
<path d="M74.6934 12.3867H71.6875V29.5351H74.6934V12.3867Z" fill="#454545"/>
<path d="M83.6631 12.3867H86.8661L92.0402 20.5174L97.165 12.3867H100.368V29.5351H97.3621V17.2159L92.0402 25.3465H91.9416L86.6197 17.2651V29.5351H83.6631V12.3867Z" fill="#454545"/>
<path d="M109.336 12.3867H116.038C119.98 12.3867 122.493 14.6535 122.493 18.1028V18.1521C122.493 21.9957 119.438 24.0161 115.693 24.0161H112.342V29.5351H109.336V12.3867ZM115.791 21.3058C118.058 21.3058 119.438 20.0246 119.438 18.2507V18.2014C119.438 16.181 118.009 15.1462 115.791 15.1462H112.342V21.3058H115.791Z" fill="#454545"/>
<path d="M129.933 12.3867H132.889V26.7756H141.858V29.5351H129.933V12.3867Z" fill="#454545"/>
<path d="M149.151 12.3867H161.717V15.0969H152.108V19.5319H160.633V22.2421H152.108V26.8248H161.816V29.5351H149.151V12.3867Z" fill="#454545"/>
<path d="M169.946 12.3867H172.755L181.822 24.2625V12.3867H184.779V29.5351H182.266L172.903 17.3144V29.5351H169.946V12.3867Z" fill="#454545"/>
<path d="M196.753 12.3867H193.796V29.5351H196.753V12.3867Z" fill="#454545"/>
<path d="M204.983 21.0109C204.983 16.1818 208.63 12.0918 213.755 12.0918C216.711 12.0918 218.535 12.9295 220.259 14.4078L218.387 16.6745C217.056 15.5412 215.775 14.8513 213.656 14.8513C210.552 14.8513 208.137 17.6108 208.137 20.9124V20.9616C208.137 24.5096 210.453 27.072 213.903 27.072C215.479 27.072 216.958 26.5792 217.992 25.7908V22.5878H213.656V19.9761H220.9V27.1705C219.224 28.5996 216.81 29.8315 213.804 29.8315C208.482 29.8315 204.983 25.9879 204.983 21.0109Z" fill="#454545"/>
<path d="M229.423 12.3867H232.429V19.5319H240.51V12.3867H243.467V29.5351H240.51V22.2914H232.429V29.5351H229.423V12.3867Z" fill="#454545"/>
<path d="M256.181 15.1955H250.81V12.3867H264.558V15.1955H259.187V29.5351H256.181V15.1955Z" fill="#454545"/>
<path d="M271.014 12.3867C271.458 12.3867 271.901 12.4853 272.345 12.7317C272.788 12.978 273.133 13.2737 273.331 13.7172C273.577 14.1607 273.675 14.6042 273.675 15.0477C273.675 15.4912 273.577 15.9347 273.331 16.3781C273.084 16.8216 272.739 17.1173 272.345 17.3637C271.901 17.6101 271.458 17.7086 271.014 17.7086C270.571 17.7086 270.078 17.6101 269.684 17.3637C269.29 17.1173 268.945 16.7724 268.698 16.3781C268.452 15.9347 268.354 15.4912 268.354 15.0477C268.354 14.5549 268.452 14.1114 268.698 13.7172C268.945 13.2737 269.29 12.9288 269.684 12.7317C270.078 12.5345 270.571 12.3867 271.014 12.3867ZM271.014 12.8302C270.62 12.8302 270.275 12.9288 269.93 13.1259C269.585 13.323 269.29 13.6186 269.093 13.9636C268.896 14.3085 268.797 14.7027 268.797 15.0969C268.797 15.4912 268.896 15.8361 269.093 16.2303C269.29 16.6245 269.585 16.8709 269.93 17.068C270.275 17.2651 270.67 17.3637 271.064 17.3637C271.458 17.3637 271.803 17.2651 272.197 17.068C272.591 16.8709 272.838 16.5753 273.035 16.2303C273.232 15.8854 273.331 15.4912 273.331 15.0969C273.331 14.7027 273.232 14.3085 273.035 13.9636C272.838 13.6186 272.542 13.323 272.197 13.1259C271.754 12.9288 271.359 12.8302 271.014 12.8302ZM269.832 16.5753V13.6679H270.817C271.162 13.6679 271.409 13.7172 271.557 13.7665C271.704 13.8157 271.852 13.9143 271.901 14.0621C272 14.21 272.049 14.3578 272.049 14.5056C272.049 14.7027 271.951 14.8998 271.803 15.0477C271.655 15.1955 271.458 15.2941 271.212 15.2941C271.31 15.3433 271.409 15.3926 271.458 15.4419C271.557 15.5404 271.704 15.7375 271.901 16.0332L272.246 16.6245H271.655L271.409 16.181C271.212 15.8361 271.064 15.5897 270.916 15.4912C270.817 15.4419 270.719 15.3926 270.522 15.3926H270.226V16.6245H269.832V16.5753ZM270.275 14.9491H270.867C271.162 14.9491 271.31 14.8998 271.409 14.8506C271.507 14.8013 271.557 14.6535 271.557 14.5056C271.557 14.4071 271.557 14.3578 271.507 14.2592C271.458 14.1607 271.409 14.1607 271.31 14.1114C271.212 14.0621 271.064 14.0621 270.817 14.0621H270.275V14.9491Z" fill="#454545"/>
</svg>
