<svg width="23" height="15" viewBox="0 0 23 15" fill="none" xmlns="http://www.w3.org/2000/svg">
<path fill-rule="evenodd" clip-rule="evenodd" d="M4.50515 0H10.2426C11.0432 0 11.5436 0.661665 11.3559 1.47084L8.68317 13.0647C8.49554 13.8739 7.69079 14.5356 6.89021 14.5356H1.15273C0.352151 14.5356 -0.148211 13.8739 0.0394248 13.0647L2.71219 1.47084C2.89983 0.657451 3.70041 0 4.50098 0H4.50515Z" fill="#D10429"/>
<path fill-rule="evenodd" clip-rule="evenodd" d="M9.74104 0H16.3416C17.1422 0 16.7795 0.661665 16.5918 1.47084L13.9191 13.0647C13.7314 13.8739 13.7898 14.5356 12.9892 14.5356H6.38861C5.58386 14.5356 5.08767 13.8739 5.27948 13.0647L7.95224 1.47084C8.13988 0.657451 8.94046 0 9.74521 0H9.74104Z" fill="#022E64"/>
<path fill-rule="evenodd" clip-rule="evenodd" d="M16.1099 0H21.8473C22.6479 0 23.1483 0.661665 22.9606 1.47084L20.2879 13.0647C20.1002 13.8739 19.2955 14.5356 18.4949 14.5356H12.7574C11.9527 14.5356 11.4565 13.8739 11.6441 13.0647L14.3169 1.47084C14.5045 0.657451 15.3051 0 16.1057 0H16.1099Z" fill="#076F74"/>
<path fill-rule="evenodd" clip-rule="evenodd" d="M15.1463 10.9299H15.6884L15.8426 10.4031H15.3047L15.1463 10.9299ZM15.5799 9.48018L15.3923 10.1039C15.3923 10.1039 15.5966 9.99856 15.7092 9.96484C15.8218 9.93955 15.9886 9.91848 15.9886 9.91848L16.1178 9.4844H15.5758L15.5799 9.48018ZM15.851 8.58672L15.6717 9.18517C15.6717 9.18517 15.8718 9.09245 15.9844 9.06295C16.097 9.03345 16.2638 9.02502 16.2638 9.02502L16.393 8.59094H15.8551L15.851 8.58672ZM17.0477 8.58672L16.3472 10.9257H16.5348L16.3889 11.4104H16.2012L16.1554 11.5579H15.4882L15.5341 11.4104H14.1831L14.3165 10.9637H14.4541L15.163 8.58672L15.3047 8.10628H15.9844L15.9135 8.3465C15.9135 8.3465 16.0928 8.21585 16.2679 8.16949C16.4389 8.12313 17.4229 8.10628 17.4229 8.10628L17.277 8.58251H17.0435L17.0477 8.58672Z" fill="#FEFEFE"/>
<path fill-rule="evenodd" clip-rule="evenodd" d="M17.3259 8.10628H18.0514L18.0598 8.38022C18.0556 8.42657 18.0931 8.44765 18.1807 8.44765H18.3266L18.1932 8.89859H17.8012C17.4635 8.92388 17.3342 8.77637 17.3426 8.61201L17.3301 8.11049L17.3259 8.10628ZM17.4152 10.2518H16.723L16.8398 9.85146H17.632L17.7446 9.48481H16.9649L17.0983 9.03386H19.2665L19.1331 9.48481H18.4034L18.2908 9.85146H19.0205L18.8996 10.2518H18.1115L17.9698 10.4204H18.2908L18.3701 10.9261C18.3784 10.9767 18.3784 11.0104 18.3951 11.0315C18.4118 11.0484 18.5077 11.0568 18.5619 11.0568H18.6578L18.5077 11.5499H18.2616C18.2241 11.5499 18.1657 11.5457 18.0865 11.5457C18.0115 11.5372 17.9614 11.4951 17.9114 11.4698C17.8655 11.4487 17.7988 11.3939 17.7821 11.297L17.7071 10.7913L17.3485 11.2886C17.2359 11.4445 17.0816 11.5667 16.8189 11.5667H16.3186L16.452 11.1284H16.6438C16.698 11.1284 16.7481 11.1074 16.7856 11.0863C16.8231 11.0694 16.8565 11.0526 16.8898 10.9978L17.4152 10.2518ZM9.84402 9.15485H11.6745L11.5411 9.59737H10.8114L10.6988 9.97245H11.4493L11.3117 10.4276H10.5654L10.3819 11.0387C10.3611 11.1061 10.5612 11.1146 10.6321 11.1146L11.0074 11.064L10.8573 11.5697H10.015C9.94826 11.5697 9.89823 11.5613 9.82317 11.5444C9.75229 11.5276 9.71893 11.4939 9.68974 11.4475C9.66056 11.3969 9.61052 11.359 9.64388 11.2494L9.88572 10.4403H9.46875L9.60635 9.97666H10.0233L10.1359 9.60158H9.71893L9.85236 9.15907L9.84402 9.15485ZM11.1087 8.35493H11.8593L11.7217 8.8143H10.6959L10.5833 8.91123C10.5333 8.95759 10.5208 8.94073 10.4582 8.97445C10.3999 9.00395 10.2789 9.06295 10.1205 9.06295H9.79109L9.92453 8.62044H10.0246C10.108 8.62044 10.1664 8.61201 10.1956 8.59515C10.2289 8.57408 10.2664 8.52772 10.304 8.45186L10.4916 8.10628H11.238L11.1087 8.35914V8.35493ZM12.5233 9.11353C12.5233 9.11353 12.7276 8.92388 13.0779 8.86488C13.1571 8.84802 13.6575 8.85645 13.6575 8.85645L13.7325 8.60358H12.6776L12.5233 9.11774V9.11353ZM13.5157 9.30739H12.4691L12.4066 9.52233H13.3156C13.424 9.50968 13.4448 9.52654 13.4532 9.51811L13.5199 9.30739H13.5157ZM12.1564 8.11049H12.7943L12.7026 8.435C12.7026 8.435 12.9028 8.27064 13.0445 8.21164C13.1863 8.16107 13.5032 8.11049 13.5032 8.11049L14.5373 8.10628L14.1829 9.29475C14.1245 9.49704 14.0536 9.62769 14.0119 9.6909C13.9744 9.7499 13.9285 9.80469 13.8368 9.85527C13.7492 9.90162 13.67 9.93113 13.5949 9.93534C13.5282 9.93955 13.4198 9.94377 13.278 9.94377H12.2815L12.0021 10.8836C11.9771 10.9763 11.9646 11.0227 11.9813 11.0479C11.9938 11.069 12.0313 11.0943 12.0772 11.0943L12.515 11.0522L12.3649 11.5663H11.8728C11.7144 11.5663 11.6018 11.5621 11.5226 11.5579C11.4475 11.5495 11.3683 11.5579 11.3141 11.5158C11.2682 11.4736 11.1974 11.4188 11.2015 11.364C11.2057 11.3135 11.2265 11.2292 11.2599 11.1112L12.1564 8.11049Z" fill="#FEFEFE"/>
<path fill-rule="evenodd" clip-rule="evenodd" d="M14.0154 10.0018L13.957 10.2884C13.932 10.3769 13.9112 10.4443 13.8445 10.5033C13.7736 10.5623 13.6943 10.6255 13.5025 10.6255L13.1481 10.6424L13.144 10.9627C13.1398 11.0512 13.1648 11.0427 13.1773 11.0596C13.194 11.0765 13.2065 11.0807 13.2232 11.0891L13.3358 11.0807L13.6735 11.0638L13.5317 11.5358H13.144C12.8729 11.5358 12.6686 11.5274 12.6061 11.4768C12.5393 11.4347 12.531 11.3841 12.531 11.2914L12.556 10.0355H13.1773L13.169 10.2926H13.3191C13.3691 10.2926 13.4066 10.2884 13.4275 10.2757C13.4483 10.2631 13.4608 10.242 13.4692 10.2125L13.5317 10.0102H14.0196L14.0154 10.0018ZM5.17632 3.71034C5.15548 3.81149 4.75519 5.67005 4.75519 5.67005C4.66762 6.04514 4.60508 6.31486 4.39659 6.48765C4.27567 6.5888 4.1339 6.63516 3.97129 6.63516C3.7086 6.63516 3.55849 6.50451 3.53347 6.25586L3.5293 6.17157C3.5293 6.17157 3.60852 5.67005 3.60852 5.66584C3.60852 5.66584 4.02549 3.97164 4.10055 3.74827C4.10472 3.73563 4.10472 3.7272 4.10472 3.72299C3.29163 3.73141 3.14569 3.72299 3.13735 3.71034C3.13318 3.7272 3.11233 3.83256 3.11233 3.83256L2.68703 5.7417L2.6495 5.90185L2.57861 6.43286C2.57861 6.5888 2.6078 6.71945 2.67035 6.82481C2.86632 7.17039 3.42089 7.22096 3.73362 7.22096C4.13807 7.22096 4.51751 7.13246 4.77187 6.97653C5.21802 6.71102 5.33477 6.29379 5.43485 5.92713L5.48488 5.73748C5.48488 5.73748 5.91436 3.98007 5.98941 3.75249C5.99358 3.73984 5.99358 3.73141 5.99775 3.7272C5.40566 3.73141 5.2347 3.7272 5.17632 3.71456V3.71034ZM7.55477 7.20381C7.26706 7.1996 7.16282 7.1996 6.82508 7.21646L6.81257 7.19117C6.84176 7.06052 6.87511 6.93409 6.90013 6.80344L6.94183 6.62644C7.00437 6.3525 7.06275 6.02799 7.07109 5.93105C7.07943 5.87205 7.09611 5.72455 6.92932 5.72455C6.85844 5.72455 6.78755 5.75826 6.7125 5.79198C6.6708 5.93948 6.59158 6.3525 6.54988 6.53793C6.46648 6.93409 6.46232 6.98045 6.42479 7.17431L6.39977 7.1996C6.10372 7.19538 5.99948 7.19538 5.65757 7.21224L5.64089 7.18274C5.69926 6.94673 5.75347 6.71072 5.80768 6.47472C5.94944 5.83834 5.98697 5.5939 6.0245 5.26939L6.05369 5.25253C6.38726 5.20617 6.46649 5.19353 6.82925 5.12188L6.85843 5.1556L6.80423 5.35789C6.86677 5.31996 6.92515 5.28203 6.9877 5.25253C7.15865 5.16824 7.34629 5.14296 7.45053 5.14296C7.60898 5.14296 7.7841 5.18931 7.85499 5.37475C7.9217 5.53911 7.88001 5.7414 7.78827 6.14178L7.74241 6.34407C7.65067 6.7908 7.634 6.87087 7.58396 7.17431L7.5506 7.1996L7.55477 7.20381ZM8.72566 7.20492C8.55054 7.20492 8.43796 7.20071 8.32954 7.20492C8.22113 7.20492 8.11689 7.21335 7.95427 7.21757L7.94593 7.20492L7.93759 7.18807C7.98346 7.01949 8.00431 6.96049 8.02933 6.90149C8.05018 6.84248 8.07102 6.78348 8.11272 6.61069C8.16276 6.38732 8.19611 6.23139 8.21696 6.09231C8.24198 5.96167 8.25449 5.84788 8.27117 5.71723L8.28368 5.7088L8.29619 5.69616C8.47131 5.67087 8.57972 5.65401 8.69231 5.63716C8.80489 5.6203 8.92164 5.59923 9.10094 5.56551L9.10927 5.58237L9.11344 5.59923C9.08009 5.7383 9.04673 5.87738 9.01337 6.01646C8.98001 6.15553 8.94666 6.29461 8.91747 6.43368C8.85492 6.72869 8.82574 6.83827 8.81323 6.91834C8.79655 6.9942 8.79238 7.03213 8.76736 7.18385L8.75068 7.1965L8.734 7.20914L8.72566 7.20492ZM10.5768 6.16946C10.5643 6.24532 10.4975 6.52769 10.41 6.64569C10.3474 6.7342 10.2765 6.78898 10.1932 6.78898C10.1681 6.78898 10.0264 6.78898 10.0222 6.57405C10.0222 6.46869 10.043 6.35911 10.0681 6.24111C10.1431 5.89974 10.2349 5.61737 10.4642 5.61737C10.6435 5.61737 10.656 5.82809 10.5768 6.16946ZM11.3315 6.20318C11.4315 5.75645 11.3523 5.54573 11.2564 5.41929C11.1063 5.22543 10.8395 5.16221 10.5643 5.16221C10.3975 5.16221 10.0055 5.17907 9.69696 5.46565C9.47597 5.67216 9.37173 5.95453 9.31335 6.22425C9.25081 6.49819 9.17992 6.99128 9.63025 7.17671C9.76785 7.23571 9.96799 7.25257 10.0973 7.25257C10.4267 7.25257 10.7644 7.15985 11.0188 6.89013C11.2147 6.67098 11.3023 6.34225 11.3356 6.20318H11.3315ZM18.3599 7.25497C18.0096 7.25076 17.9096 7.25076 17.5885 7.26761L17.5676 7.24233C17.6552 6.90939 17.7428 6.57223 17.822 6.23508C17.9221 5.79678 17.9471 5.61134 17.9804 5.35426L18.0055 5.33319C18.3515 5.28262 18.4474 5.26997 18.8102 5.20254L18.8185 5.23204C18.7518 5.5102 18.6893 5.78413 18.6226 6.05807C18.4891 6.63545 18.4433 6.93046 18.3932 7.2339L18.3599 7.25919V7.25497Z" fill="#FEFEFE"/>
<path fill-rule="evenodd" clip-rule="evenodd" d="M17.8562 6.22586C17.8395 6.29751 17.7728 6.58409 17.6852 6.70209C17.6269 6.78638 17.4851 6.84117 17.4059 6.84117C17.3809 6.84117 17.2433 6.84117 17.2349 6.63045C17.2349 6.52509 17.2558 6.41551 17.2808 6.29751C17.3558 5.96457 17.4476 5.6822 17.6769 5.6822C17.8562 5.6822 17.9354 5.88871 17.8562 6.23008V6.22586ZM18.5442 6.25958C18.6443 5.81285 18.2356 6.22165 18.1731 6.07414C18.073 5.84235 18.1356 5.37876 17.7353 5.22283C17.581 5.15961 17.2182 5.23969 16.9097 5.52627C16.6929 5.72856 16.5844 6.01093 16.5261 6.28065C16.4635 6.55037 16.3926 7.04768 16.8388 7.22047C16.9806 7.28368 17.1098 7.30054 17.2391 7.29211C17.6894 7.26683 18.0313 6.57987 18.2857 6.31015C18.4817 6.09521 18.515 6.39022 18.5442 6.25958ZM13.3084 7.20381C13.0207 7.1996 12.9206 7.1996 12.5829 7.21646L12.5704 7.19117C12.5996 7.06052 12.6329 6.93409 12.6621 6.80344L12.6996 6.62644C12.7622 6.3525 12.8247 6.02799 12.8289 5.93105C12.8372 5.87205 12.8539 5.72455 12.6913 5.72455C12.6204 5.72455 12.5454 5.75826 12.4745 5.79198C12.4369 5.93948 12.3535 6.3525 12.3119 6.53793C12.2326 6.93409 12.2243 6.98045 12.1868 7.17431L12.1617 7.1996C11.8657 7.19538 11.7615 7.19538 11.4195 7.21224L11.4029 7.18274C11.4612 6.94673 11.5154 6.71072 11.5696 6.47472C11.7114 5.83834 11.7448 5.5939 11.7865 5.26939L11.8115 5.25253C12.1451 5.20617 12.2285 5.19353 12.5871 5.12188L12.6162 5.1556L12.5662 5.35789C12.6246 5.31996 12.6871 5.28203 12.7455 5.25253C12.9165 5.16824 13.1041 5.14296 13.2083 5.14296C13.3668 5.14296 13.5377 5.18931 13.6128 5.37475C13.6795 5.53911 13.6336 5.7414 13.5419 6.14178L13.496 6.34407C13.4001 6.7908 13.3876 6.87087 13.3376 7.17431L13.3042 7.1996L13.3084 7.20381ZM15.8066 3.71456L15.5648 3.71877C14.9393 3.7272 14.6891 3.72299 14.5891 3.71034C14.5807 3.7567 14.5641 3.83678 14.5641 3.83678C14.5641 3.83678 14.3389 4.88195 14.3389 4.88617C14.3389 4.88617 13.8052 7.11139 13.7802 7.21675C14.3264 7.20832 14.5474 7.20832 14.6433 7.22096C14.6641 7.1156 14.7892 6.49608 14.7934 6.49608C14.7934 6.49608 14.9018 6.04092 14.906 6.02406C14.906 6.02406 14.9393 5.97771 14.9727 5.95663H15.0227C15.4939 5.95663 16.0234 5.95663 16.4404 5.64898C16.7239 5.43826 16.9158 5.12218 17.0033 4.74288C17.0242 4.65016 17.0408 4.54059 17.0408 4.4268C17.0408 4.27929 17.0117 4.136 16.9283 4.02221C16.7156 3.72299 16.2945 3.71877 15.8066 3.71456ZM16.1193 4.80609C16.0693 5.03789 15.9192 5.23597 15.7274 5.32868C15.5689 5.40876 15.3771 5.41719 15.177 5.41719H15.0477L15.0561 5.36661C15.0561 5.36661 15.2937 4.32143 15.2937 4.32565L15.3021 4.27086L15.3063 4.22872L15.4022 4.23715C15.4022 4.23715 15.8942 4.27929 15.9025 4.27929C16.0943 4.35515 16.1777 4.54901 16.1193 4.80609ZM21.2449 5.1556L21.2157 5.12188C20.8613 5.19353 20.7946 5.20617 20.4693 5.25253L20.4443 5.27782C20.4443 5.28203 20.4402 5.28625 20.4402 5.29468V5.29046C20.1983 5.85941 20.2025 5.73719 20.0065 6.18392C20.0065 6.16285 20.0065 6.1502 20.0023 6.12913L19.9523 5.15981L19.9231 5.1261C19.5478 5.19774 19.5395 5.21039 19.1976 5.25675L19.1726 5.28203C19.1684 5.29468 19.1684 5.30732 19.1684 5.31996L19.1726 5.32418C19.2143 5.54754 19.2059 5.49697 19.2476 5.84677C19.2685 6.01956 19.2935 6.19235 19.3143 6.36093C19.3477 6.64751 19.3686 6.78658 19.4102 7.22067C19.1767 7.6084 19.1225 7.7559 18.8974 8.09727L18.9099 8.13099C19.2476 8.11834 19.3227 8.11834 19.5729 8.11834L19.6271 8.05513C19.8147 7.64633 21.2491 5.15981 21.2491 5.15981L21.2449 5.1556ZM9.04747 5.43478C9.23928 5.29992 9.26429 5.11448 9.10168 5.01755C8.93906 4.92062 8.65135 4.95012 8.45955 5.08498C8.26774 5.21563 8.24689 5.40106 8.40951 5.50221C8.56796 5.59493 8.85567 5.56964 9.04747 5.43478Z" fill="#FEFEFE"/>
<path fill-rule="evenodd" clip-rule="evenodd" d="M19.5714 8.11049L19.292 8.59515C19.2045 8.75951 19.0377 8.88595 18.7792 8.88595L18.333 8.87752L18.4623 8.43922H18.5498C18.5957 8.43922 18.6291 8.435 18.6541 8.42236C18.6791 8.41393 18.6916 8.39707 18.7124 8.37179L18.8792 8.10628H19.5756L19.5714 8.11049Z" fill="#FEFEFE"/>
</svg>
