<svg width="31" height="10" viewBox="0 0 31 10" fill="none" xmlns="http://www.w3.org/2000/svg">
<path fill-rule="evenodd" clip-rule="evenodd" d="M11.598 0.165867L7.67098 9.29869L5.03078 9.30186L2.79493 1.65219L2.61377 1.07583L2.62872 1.08401L2.65327 1.09762L2.62917 1.08505L2.62888 1.08412C2.64061 1.09044 2.65215 1.09688 2.66383 1.10324C3.06608 1.31635 4.85188 2.33468 5.95605 3.98439C6.12415 4.82339 6.2851 5.58552 6.51234 6.40758L8.95526 0.165863H11.598L11.598 0.165867Z" fill="#006CB5"/>
<path fill-rule="evenodd" clip-rule="evenodd" d="M22.2209 6.31697C22.2025 8.21809 20.5018 9.44559 17.88 9.44559C16.7625 9.43353 15.6848 9.21375 15.0996 8.95716L15.4501 6.9088L15.7723 7.05628C16.5932 7.39787 17.1226 7.53491 18.1214 7.53491C18.8391 7.53491 19.6064 7.25356 19.6118 6.63925C19.615 6.23835 19.2896 5.9538 18.3187 5.50561C17.3734 5.06698 16.1203 4.33427 16.1362 3.01931C16.1482 1.24023 17.8866 0 20.3511 0C21.3164 0 22.0893 0.197278 22.5848 0.384782L22.2466 2.36748L22.0204 2.2609C21.5634 2.07657 20.9716 1.89774 20.1539 1.91045C19.1798 1.91045 18.7259 2.31794 18.7259 2.69953C18.7227 3.1252 19.2552 3.41065 20.1259 3.83314C21.5666 4.48495 22.2336 5.27721 22.2209 6.31697H22.2209Z" fill="#006CB5"/>
<path fill-rule="evenodd" clip-rule="evenodd" d="M28.9831 0.165869H27.0572C26.4593 0.165869 26.0111 0.328607 25.7513 0.926755L22.0464 9.31074H24.6641C24.6641 9.31074 25.0929 8.18347 25.1909 7.93573C25.4754 7.93573 28.0218 7.94212 28.3849 7.94212C28.4572 8.26211 28.6856 9.31074 28.6856 9.31074H31.0004L28.9831 0.165863V0.165869ZM25.9074 6.06601C26.3557 4.92759 26.8051 3.78104 27.232 2.63377C27.4775 3.77853 27.7285 4.92203 27.9777 6.06601H25.9074H25.9074Z" fill="#006CB5"/>
<path fill-rule="evenodd" clip-rule="evenodd" d="M12.6059 0.156342H15.0993L13.5391 9.30763H11.0464L12.6059 0.156342Z" fill="#006CB5"/>
<path fill-rule="evenodd" clip-rule="evenodd" d="M3.24799e-06 0.0756865L4.21895 0.0786429C4.73915 0.0970453 5.15847 0.26293 5.30598 0.820197L5.95557 3.98444C4.8514 2.33472 3.0656 1.3164 2.66334 1.10329C2.65166 1.09693 2.64013 1.09049 2.6284 1.08417L2.62868 1.0851L2.65278 1.09766L2.62823 1.08405C2.56099 1.04718 2.493 1.01087 2.42437 0.975283C1.68746 0.592885 0.872468 0.286241 0 0.0756836L3.24799e-06 0.0756865Z" fill="#FAA841"/>
</svg>
