<svg width="32" height="32" viewBox="0 0 32 32" fill="none" xmlns="http://www.w3.org/2000/svg">
<path fill-rule="evenodd" clip-rule="evenodd" d="M8.39085 17.7239L9.33366 18.6668C8.3971 17.7302 8.39053 17.7243 8.39084 17.7239L8.39085 17.7239ZM10.2729 19.6132L9.33366 18.6668L10.2758 19.6102L10.2729 19.6132ZM10.2759 19.6102L10.2729 19.6132C9.75187 20.1303 8.91035 20.1291 8.39085 19.6096C7.87015 19.0889 7.87015 18.2446 8.39085 17.7239L8.39236 17.7224L8.39412 17.7207L8.39839 17.7164L8.40996 17.7051L8.44504 17.6713C8.4737 17.644 8.51291 17.6073 8.56234 17.5627C8.66112 17.4735 8.80117 17.3519 8.9799 17.2089C9.33653 16.9236 9.85199 16.5492 10.5055 16.1758C11.8069 15.4321 13.702 14.6667 16.0003 14.6667C18.2987 14.6667 20.1938 15.4321 21.4952 16.1758C22.1487 16.5492 22.6641 16.9236 23.0208 17.2089C23.1995 17.3519 23.3395 17.4735 23.4383 17.5627C23.4877 17.6073 23.5269 17.644 23.5556 17.6713L23.5907 17.7051L23.6023 17.7164L23.6065 17.7207L23.6083 17.7224C23.6087 17.7228 23.6098 17.7239 22.684 18.6497L23.6098 17.7239C24.1305 18.2446 24.1305 19.0889 23.6098 19.6096C23.0903 20.1291 22.2487 20.1303 21.7277 19.6131L21.7254 19.6108H21.7254L21.7165 19.6023C21.7042 19.5906 21.6822 19.5699 21.6509 19.5416C21.5882 19.485 21.4887 19.3983 21.3549 19.2912C21.0865 19.0766 20.6853 18.7843 20.1721 18.4911C19.1402 17.9014 17.702 17.3334 16.0003 17.3334C14.2987 17.3334 12.8604 17.9014 11.8285 18.4911C11.3153 18.7843 10.9141 19.0766 10.6458 19.2912C10.512 19.3983 10.4124 19.485 10.3498 19.5416C10.3185 19.5699 10.2965 19.5906 10.2841 19.6023L10.2759 19.6102ZM10.2759 19.6102L21.7254 19.6108L21.7277 19.6131L10.2759 19.6102ZM6.5262 20.7371C6.19688 20.0785 5.39598 19.8115 4.73734 20.1408C4.0787 20.4701 3.81174 21.271 4.14106 21.9297L6.07067 25.7889C6.74824 27.144 8.1333 28 9.64838 28H22.3522C23.8673 28 25.2523 27.144 25.9299 25.7889L27.8595 21.9297C28.1888 21.271 27.9219 20.4701 27.2632 20.1408C26.6046 19.8115 25.8037 20.0785 25.4744 20.7371L23.5448 24.5963C23.3189 25.048 22.8572 25.3334 22.3522 25.3334H9.64838C9.14335 25.3334 8.68167 25.048 8.45581 24.5963L6.5262 20.7371Z" fill="#0DADB9"/>
</svg>
