<svg width="16" height="16" viewBox="0 0 16 16" fill="none" xmlns="http://www.w3.org/2000/svg">
<path d="M13.6934 4.1935L12.6667 3.16683L11.7267 2.22683C11.6645 2.16467 11.5908 2.11536 11.5095 2.08172C11.4283 2.04808 11.3413 2.03077 11.2534 2.03077C11.1655 2.03077 11.0784 2.04808 10.9972 2.08172C10.916 2.11536 10.8422 2.16467 10.78 2.22683C10.7179 2.28899 10.6686 2.36278 10.6349 2.444C10.6013 2.52521 10.584 2.61226 10.584 2.70016C10.584 2.78807 10.6013 2.87511 10.6349 2.95633C10.6686 3.03754 10.7179 3.11134 10.78 3.1735L11.4467 3.84016L10.8934 5.50016C10.7764 5.85284 10.7599 6.23115 10.8459 6.59265C10.9318 6.95416 11.1168 7.28457 11.38 7.54683L13.3467 9.54683V12.6668C13.3467 12.8436 13.2765 13.0132 13.1514 13.1382C13.0264 13.2633 12.8569 13.3335 12.68 13.3335C12.5032 13.3335 12.3337 13.2633 12.2086 13.1382C12.0836 13.0132 12.0134 12.8436 12.0134 12.6668V11.3335C12.0134 10.8031 11.8027 10.2944 11.4276 9.91928C11.0525 9.54421 10.5438 9.3335 10.0134 9.3335H9.33337V3.3335C9.33337 2.80306 9.12266 2.29436 8.74759 1.91928C8.37252 1.54421 7.86381 1.3335 7.33337 1.3335H3.33337C2.80294 1.3335 2.29423 1.54421 1.91916 1.91928C1.54409 2.29436 1.33337 2.80306 1.33337 3.3335V12.6668C1.33337 13.1973 1.54409 13.706 1.91916 14.081C2.29423 14.4561 2.80294 14.6668 3.33337 14.6668H7.33337C7.86381 14.6668 8.37252 14.4561 8.74759 14.081C9.12266 13.706 9.33337 13.1973 9.33337 12.6668V10.6668H10C10.1769 10.6668 10.3464 10.7371 10.4714 10.8621C10.5965 10.9871 10.6667 11.1567 10.6667 11.3335V12.6668C10.6667 13.1973 10.8774 13.706 11.2525 14.081C11.6276 14.4561 12.1363 14.6668 12.6667 14.6668C13.1971 14.6668 13.7058 14.4561 14.0809 14.081C14.456 13.706 14.6667 13.1973 14.6667 12.6668V6.5535C14.6675 6.11546 14.5819 5.68157 14.4149 5.27663C14.2479 4.87168 14.0027 4.50362 13.6934 4.1935ZM8.00004 12.6668C8.00004 12.8436 7.9298 13.0132 7.80478 13.1382C7.67975 13.2633 7.51019 13.3335 7.33337 13.3335H3.33337C3.15656 13.3335 2.98699 13.2633 2.86197 13.1382C2.73695 13.0132 2.66671 12.8436 2.66671 12.6668V8.00016H8.00004V12.6668ZM8.00004 6.66683H2.66671V3.3335C2.66671 3.15669 2.73695 2.98712 2.86197 2.86209C2.98699 2.73707 3.15656 2.66683 3.33337 2.66683H7.33337C7.51019 2.66683 7.67975 2.73707 7.80478 2.86209C7.9298 2.98712 8.00004 3.15669 8.00004 3.3335V6.66683ZM13.3334 7.6135L12.3067 6.58683C12.2222 6.50062 12.1626 6.39306 12.1344 6.27564C12.1063 6.15822 12.1105 6.03536 12.1467 5.92016L12.4867 4.8935L12.7467 5.16016C13.117 5.52996 13.3276 6.03018 13.3334 6.5535V7.6135Z" fill="currentColor"/>
</svg>
