<svg width="32" height="32" viewBox="0 0 32 32" fill="none" xmlns="http://www.w3.org/2000/svg">
<path d="M15.9994 2.66675C13.3623 2.66675 10.7844 3.44873 8.59175 4.91382C6.3991 6.37891 4.69013 8.46129 3.68096 10.8976C2.67179 13.334 2.40775 16.0149 2.92222 18.6013C3.43669 21.1877 4.70656 23.5635 6.57126 25.4282C8.43597 27.2929 10.8117 28.5627 13.3982 29.0772C15.9846 29.5917 18.6655 29.3276 21.1018 28.3185C23.5382 27.3093 25.6205 25.6003 27.0856 23.4077C28.5507 21.215 29.3327 18.6372 29.3327 16.0001C29.3327 14.2491 28.9878 12.5153 28.3177 10.8976C27.6477 9.27996 26.6656 7.81011 25.4274 6.57199C24.1893 5.33388 22.7195 4.35175 21.1018 3.68169C19.4841 3.01162 17.7503 2.66675 15.9994 2.66675ZM17.3327 26.5734V25.3334C17.3327 24.9798 17.1922 24.6407 16.9422 24.3906C16.6921 24.1406 16.353 24.0001 15.9994 24.0001C15.6457 24.0001 15.3066 24.1406 15.0565 24.3906C14.8065 24.6407 14.666 24.9798 14.666 25.3334V26.5734C12.3193 26.2758 10.1381 25.2066 8.46547 23.534C6.79282 21.8613 5.72361 19.6801 5.42602 17.3334H6.66602C7.01964 17.3334 7.35878 17.1929 7.60883 16.9429C7.85888 16.6928 7.99935 16.3537 7.99935 16.0001C7.99935 15.6465 7.85888 15.3073 7.60883 15.0573C7.35878 14.8072 7.01964 14.6667 6.66602 14.6667H5.42602C5.72361 12.3201 6.79282 10.1388 8.46547 8.4662C10.1381 6.79354 12.3193 5.72434 14.666 5.42675V6.66675C14.666 7.02037 14.8065 7.35951 15.0565 7.60956C15.3066 7.85961 15.6457 8.00008 15.9994 8.00008C16.353 8.00008 16.6921 7.85961 16.9422 7.60956C17.1922 7.35951 17.3327 7.02037 17.3327 6.66675V5.42675C19.6794 5.72434 21.8606 6.79354 23.5332 8.4662C25.2059 10.1388 26.2751 12.3201 26.5727 14.6667H25.3327C24.9791 14.6667 24.6399 14.8072 24.3899 15.0573C24.1398 15.3073 23.9994 15.6465 23.9994 16.0001C23.9994 16.3537 24.1398 16.6928 24.3899 16.9429C24.6399 17.1929 24.9791 17.3334 25.3327 17.3334H26.5727C26.2751 19.6801 25.2059 21.8613 23.5332 23.534C21.8606 25.2066 19.6794 26.2758 17.3327 26.5734ZM20.186 10.0667L13.5194 12.8934C13.2086 13.0281 12.9607 13.276 12.826 13.5867L9.99935 20.2534C9.89435 20.4979 9.8649 20.7682 9.91479 21.0296C9.96469 21.291 10.0917 21.5315 10.2794 21.7201C10.5255 21.9713 10.861 22.1151 11.2127 22.1201C11.3972 22.1203 11.5794 22.0793 11.746 22.0001L18.4127 19.1734C18.7235 19.0388 18.9714 18.7909 19.106 18.4801L21.9327 11.8134C22.0357 11.5691 22.0636 11.2996 22.0127 11.0394C21.9618 10.7791 21.8344 10.54 21.6469 10.3525C21.4595 10.165 21.2203 10.0377 20.9601 9.98676C20.6998 9.93586 20.4303 9.96371 20.186 10.0667ZM16.866 16.8667L13.826 18.2001L15.1594 15.1601L18.1994 13.8267L16.866 16.8667Z" fill="#0DADB9"/>
</svg>
