<svg width="32" height="32" viewBox="0 0 32 32" fill="none" xmlns="http://www.w3.org/2000/svg">
<path fill-rule="evenodd" clip-rule="evenodd" d="M5.33366 18.6667C6.66699 18.6667 6.66699 17.3334 6.66699 17.3334C6.66699 17.3334 6.66699 5.33341 16.0003 5.33341C25.3337 5.33341 25.3337 17.3334 25.3337 17.3334C25.3337 17.3334 25.3337 18.6667 26.667 18.6667C28.0003 18.6667 28.0003 17.3334 28.0003 17.3334C28.0003 17.3334 28.0003 2.66675 16.0003 2.66675C4.00033 2.66675 4.00033 17.3334 4.00033 17.3334C4.00033 17.3334 4.00033 18.6667 5.33366 18.6667ZM9.33366 21.3334C9.33366 20.597 9.93061 20.0001 10.667 20.0001H21.3337C22.07 20.0001 22.667 20.597 22.667 21.3334C22.667 22.0698 22.07 22.6667 21.3337 22.6667H10.667C9.93061 22.6667 9.33366 22.0698 9.33366 21.3334ZM4.73734 21.4741C5.39598 21.1448 6.19688 21.4118 6.5262 22.0704L8.45581 25.9297C8.68167 26.3814 9.14335 26.6667 9.64838 26.6667H22.3522C22.8572 26.6667 23.3189 26.3814 23.5448 25.9297L25.4744 22.0704C25.8037 21.4118 26.6046 21.1448 27.2632 21.4741C27.9219 21.8035 28.1888 22.6044 27.8595 23.263L25.9299 27.1222C25.2523 28.4774 23.8673 29.3334 22.3522 29.3334H9.64838C8.1333 29.3334 6.74824 28.4774 6.07067 27.1222L4.14106 23.263C3.81174 22.6044 4.0787 21.8035 4.73734 21.4741Z" fill="currentColor"/>
</svg>
