<svg width="20" height="20" viewBox="0 0 20 20" fill="none" xmlns="http://www.w3.org/2000/svg">
<path d="M10.0007 1.66675C8.23254 1.66675 6.53685 2.36913 5.28661 3.61937C4.03636 4.86961 3.33398 6.5653 3.33398 8.33342C3.33398 12.8334 9.20898 17.9167 9.45898 18.1334C9.60993 18.2625 9.80202 18.3335 10.0007 18.3335C10.1993 18.3335 10.3914 18.2625 10.5423 18.1334C10.834 17.9167 16.6673 12.8334 16.6673 8.33342C16.6673 6.5653 15.9649 4.86961 14.7147 3.61937C13.4645 2.36913 11.7688 1.66675 10.0007 1.66675ZM10.0007 16.3751C8.22565 14.7084 5.00065 11.1167 5.00065 8.33342C5.00065 7.00733 5.52744 5.73556 6.46512 4.79788C7.4028 3.8602 8.67457 3.33341 10.0007 3.33341C11.3267 3.33341 12.5985 3.8602 13.5362 4.79788C14.4739 5.73556 15.0007 7.00733 15.0007 8.33342C15.0007 11.1167 11.7757 14.7167 10.0007 16.3751ZM10.0007 5.00008C9.34138 5.00008 8.69691 5.19558 8.14875 5.56185C7.60059 5.92812 7.17334 6.44872 6.92105 7.0578C6.66876 7.66689 6.60275 8.33711 6.73137 8.98372C6.85998 9.63032 7.17745 10.2243 7.64363 10.6904C8.1098 11.1566 8.70375 11.4741 9.35035 11.6027C9.99695 11.7313 10.6672 11.6653 11.2763 11.413C11.8853 11.1607 12.4059 10.7335 12.7722 10.1853C13.1385 9.63715 13.334 8.99269 13.334 8.33342C13.334 7.44936 12.9828 6.60151 12.3577 5.97639C11.7326 5.35127 10.8847 5.00008 10.0007 5.00008ZM10.0007 10.0001C9.67102 10.0001 9.34878 9.90233 9.0747 9.7192C8.80062 9.53606 8.587 9.27576 8.46085 8.97122C8.33471 8.66668 8.3017 8.33157 8.36601 8.00826C8.43032 7.68496 8.58905 7.38799 8.82214 7.1549C9.05523 6.92182 9.3522 6.76308 9.6755 6.69877C9.9988 6.63446 10.3339 6.66747 10.6385 6.79362C10.943 6.91976 11.2033 7.13338 11.3864 7.40746C11.5696 7.68155 11.6673 8.00378 11.6673 8.33342C11.6673 8.77544 11.4917 9.19937 11.1792 9.51193C10.8666 9.82449 10.4427 10.0001 10.0007 10.0001Z" fill="currentColor"/>
</svg>
