<svg width="14" height="18" viewBox="0 0 14 18" fill="none" xmlns="http://www.w3.org/2000/svg">
<path d="M7.00016 0.666687C5.23205 0.666687 3.53636 1.36907 2.28612 2.61931C1.03588 3.86955 0.333496 5.56524 0.333496 7.33335C0.333496 11.8334 6.2085 16.9167 6.4585 17.1334C6.60944 17.2625 6.80154 17.3334 7.00016 17.3334C7.19879 17.3334 7.39089 17.2625 7.54183 17.1334C7.8335 16.9167 13.6668 11.8334 13.6668 7.33335C13.6668 5.56524 12.9645 3.86955 11.7142 2.61931C10.464 1.36907 8.76827 0.666687 7.00016 0.666687V0.666687ZM7.00016 15.375C5.22516 13.7084 2.00016 10.1167 2.00016 7.33335C2.00016 6.00727 2.52695 4.7355 3.46463 3.79782C4.40231 2.86014 5.67408 2.33335 7.00016 2.33335C8.32625 2.33335 9.59802 2.86014 10.5357 3.79782C11.4734 4.7355 12.0002 6.00727 12.0002 7.33335C12.0002 10.1167 8.77516 13.7167 7.00016 15.375ZM7.00016 4.00002C6.34089 4.00002 5.69643 4.19552 5.14826 4.56179C4.6001 4.92806 4.17286 5.44866 3.92056 6.05774C3.66827 6.66683 3.60226 7.33705 3.73088 7.98366C3.8595 8.63026 4.17696 9.2242 4.64314 9.69038C5.10931 10.1566 5.70326 10.474 6.34986 10.6026C6.99646 10.7313 7.66669 10.6652 8.27577 10.413C8.88486 10.1607 9.40546 9.73342 9.77173 9.18525C10.138 8.63709 10.3335 7.99263 10.3335 7.33335C10.3335 6.4493 9.98231 5.60145 9.35719 4.97633C8.73206 4.35121 7.88422 4.00002 7.00016 4.00002ZM7.00016 9.00002C6.67053 9.00002 6.34829 8.90227 6.07421 8.71914C5.80013 8.536 5.58651 8.2757 5.46036 7.97116C5.33422 7.66662 5.30121 7.33151 5.36552 7.0082C5.42983 6.6849 5.58856 6.38793 5.82165 6.15484C6.05474 5.92176 6.35171 5.76302 6.67501 5.69871C6.99831 5.6344 7.33342 5.66741 7.63797 5.79355C7.94251 5.9197 8.20281 6.13332 8.38595 6.4074C8.56908 6.68149 8.66683 7.00372 8.66683 7.33335C8.66683 7.77538 8.49123 8.1993 8.17867 8.51187C7.86611 8.82443 7.44219 9.00002 7.00016 9.00002Z" fill="currentColor"/>
</svg>
