<svg width="16" height="16" viewBox="0 0 16 16" fill="none" xmlns="http://www.w3.org/2000/svg">
<path d="M14 5.3335C14.1769 5.3335 14.3464 5.26326 14.4714 5.13823C14.5965 5.01321 14.6667 4.84364 14.6667 4.66683V2.00016C14.6657 1.91304 14.6475 1.82698 14.6134 1.74683C14.5457 1.58393 14.4163 1.45448 14.2534 1.38683C14.1732 1.35267 14.0872 1.33455 14 1.3335H11.3334C11.1566 1.3335 10.987 1.40373 10.862 1.52876C10.7369 1.65378 10.6667 1.82335 10.6667 2.00016C10.6667 2.17697 10.7369 2.34654 10.862 2.47157C10.987 2.59659 11.1566 2.66683 11.3334 2.66683H12.3934L8.00004 7.06016L3.60671 2.66683H4.66671C4.84352 2.66683 5.01309 2.59659 5.13811 2.47157C5.26314 2.34654 5.33337 2.17697 5.33337 2.00016C5.33337 1.82335 5.26314 1.65378 5.13811 1.52876C5.01309 1.40373 4.84352 1.3335 4.66671 1.3335H2.00004C1.91292 1.33455 1.82686 1.35267 1.74671 1.38683C1.58381 1.45448 1.45436 1.58393 1.38671 1.74683C1.35255 1.82698 1.33443 1.91304 1.33337 2.00016V4.66683C1.33337 4.84364 1.40361 5.01321 1.52864 5.13823C1.65366 5.26326 1.82323 5.3335 2.00004 5.3335C2.17685 5.3335 2.34642 5.26326 2.47145 5.13823C2.59647 5.01321 2.66671 4.84364 2.66671 4.66683V3.60683L7.06004 8.00016L2.66671 12.3935V11.3335C2.66671 11.1567 2.59647 10.9871 2.47145 10.8621C2.34642 10.7371 2.17685 10.6668 2.00004 10.6668C1.82323 10.6668 1.65366 10.7371 1.52864 10.8621C1.40361 10.9871 1.33337 11.1567 1.33337 11.3335V14.0002C1.33443 14.0873 1.35255 14.1733 1.38671 14.2535C1.45436 14.4164 1.58381 14.5458 1.74671 14.6135C1.82686 14.6477 1.91292 14.6658 2.00004 14.6668H4.66671C4.84352 14.6668 5.01309 14.5966 5.13811 14.4716C5.26314 14.3465 5.33337 14.177 5.33337 14.0002C5.33337 13.8234 5.26314 13.6538 5.13811 13.5288C5.01309 13.4037 4.84352 13.3335 4.66671 13.3335H3.60671L8.00004 8.94016L12.3934 13.3335H11.3334C11.1566 13.3335 10.987 13.4037 10.862 13.5288C10.7369 13.6538 10.6667 13.8234 10.6667 14.0002C10.6667 14.177 10.7369 14.3465 10.862 14.4716C10.987 14.5966 11.1566 14.6668 11.3334 14.6668H14C14.0872 14.6658 14.1732 14.6477 14.2534 14.6135C14.4163 14.5458 14.5457 14.4164 14.6134 14.2535C14.6475 14.1733 14.6657 14.0873 14.6667 14.0002V11.3335C14.6667 11.1567 14.5965 10.9871 14.4714 10.8621C14.3464 10.7371 14.1769 10.6668 14 10.6668C13.8232 10.6668 13.6537 10.7371 13.5286 10.8621C13.4036 10.9871 13.3334 11.1567 13.3334 11.3335V12.3935L8.94004 8.00016L13.3334 3.60683V4.66683C13.3334 4.84364 13.4036 5.01321 13.5286 5.13823C13.6537 5.26326 13.8232 5.3335 14 5.3335Z" fill="currentColor"/>
</svg>
