<svg width="16" height="16" viewBox="0 0 16 16" fill="none" xmlns="http://www.w3.org/2000/svg">
<path fill-rule="evenodd" clip-rule="evenodd" d="M8 1.3335C6 1.3335 6 3.3335 6 3.3335V4.66683H7.33333V3.3335C7.33333 3.3335 7.33333 2.66683 8 2.66683C8.66667 2.66683 8.66667 3.3335 8.66667 3.3335V4.66683H10V3.3335C10 3.3335 10 1.3335 8 1.3335ZM8 14.6668C10 14.6668 10 12.6668 10 12.6668V8.66683H8.66667V12.6668C8.66667 12.6668 8.66667 13.3335 8 13.3335C7.33333 13.3335 7.33333 12.6668 7.33333 12.6668V8.66683H6V12.6668C6 12.6668 6 14.6668 8 14.6668ZM11.3333 7.3335C11.7015 7.3335 12 7.03502 12 6.66683C12 6.29864 11.7015 6.00016 11.3333 6.00016L4.66667 6.00016C4.29848 6.00016 4 6.29864 4 6.66683C4 7.03502 4.29848 7.3335 4.66667 7.3335H11.3333Z" fill="#0DADB9"/>
</svg>
