<svg width="20" height="20" viewBox="0 0 20 20" fill="none" xmlns="http://www.w3.org/2000/svg">
<path d="M10.2507 10.1834C10.6953 9.79853 11.0519 9.32249 11.2964 8.7876C11.5408 8.25272 11.6673 7.67151 11.6673 7.08342C11.6673 5.97835 11.2283 4.91854 10.4469 4.13714C9.66553 3.35574 8.60572 2.91675 7.50065 2.91675C6.39558 2.91675 5.33577 3.35574 4.55437 4.13714C3.77297 4.91854 3.33398 5.97835 3.33398 7.08342C3.33398 7.67151 3.46049 8.25272 3.70492 8.7876C3.94936 9.32249 4.306 9.79853 4.75065 10.1834C3.5841 10.7117 2.59437 11.5647 1.8998 12.6405C1.20523 13.7164 0.835211 14.9695 0.833984 16.2501C0.833984 16.4711 0.921782 16.6831 1.07806 16.8393C1.23434 16.9956 1.4463 17.0834 1.66732 17.0834C1.88833 17.0834 2.10029 16.9956 2.25657 16.8393C2.41285 16.6831 2.50065 16.4711 2.50065 16.2501C2.50065 14.924 3.02744 13.6522 3.96512 12.7145C4.9028 11.7769 6.17457 11.2501 7.50065 11.2501C8.82673 11.2501 10.0985 11.7769 11.0362 12.7145C11.9739 13.6522 12.5007 14.924 12.5007 16.2501C12.5007 16.4711 12.5884 16.6831 12.7447 16.8393C12.901 16.9956 13.113 17.0834 13.334 17.0834C13.555 17.0834 13.767 16.9956 13.9232 16.8393C14.0795 16.6831 14.1673 16.4711 14.1673 16.2501C14.1661 14.9695 13.7961 13.7164 13.1015 12.6405C12.4069 11.5647 11.4172 10.7117 10.2507 10.1834ZM7.50065 9.58342C7.0062 9.58342 6.52285 9.43679 6.11173 9.16209C5.7006 8.88739 5.38017 8.49694 5.19095 8.04012C5.00173 7.58331 4.95222 7.08064 5.04869 6.59569C5.14515 6.11074 5.38325 5.66528 5.73288 5.31565C6.08252 4.96602 6.52797 4.72792 7.01293 4.63145C7.49788 4.53499 8.00054 4.5845 8.45736 4.77372C8.91418 4.96294 9.30462 5.28337 9.57932 5.69449C9.85403 6.10561 10.0007 6.58896 10.0007 7.08342C10.0007 7.74646 9.73726 8.38234 9.26842 8.85118C8.79958 9.32002 8.16369 9.58342 7.50065 9.58342ZM15.6173 9.85008C16.1506 9.24952 16.499 8.50763 16.6205 7.7137C16.742 6.91977 16.6314 6.10764 16.3021 5.37508C15.9728 4.64252 15.4388 4.02074 14.7644 3.5846C14.0899 3.14846 13.3038 2.91653 12.5007 2.91675C12.2796 2.91675 12.0677 3.00455 11.9114 3.16083C11.7551 3.31711 11.6673 3.52907 11.6673 3.75008C11.6673 3.9711 11.7551 4.18306 11.9114 4.33934C12.0677 4.49562 12.2796 4.58342 12.5007 4.58342C13.1637 4.58342 13.7996 4.84681 14.2684 5.31565C14.7373 5.78449 15.0007 6.42037 15.0007 7.08342C14.9995 7.52112 14.8834 7.95083 14.664 8.3296C14.4447 8.70836 14.1297 9.0229 13.7507 9.24175C13.6271 9.31302 13.5239 9.4148 13.451 9.53737C13.378 9.65993 13.3377 9.79917 13.334 9.94175C13.3305 10.0832 13.3631 10.2232 13.4287 10.3486C13.4943 10.474 13.5908 10.5806 13.709 10.6584L14.034 10.8751L14.1423 10.9334C15.1468 11.4098 15.9942 12.1634 16.5848 13.1053C17.1754 14.0473 17.4844 15.1384 17.4757 16.2501C17.4757 16.4711 17.5634 16.6831 17.7197 16.8393C17.876 16.9956 18.088 17.0834 18.309 17.0834C18.53 17.0834 18.742 16.9956 18.8982 16.8393C19.0545 16.6831 19.1423 16.4711 19.1423 16.2501C19.1491 14.9713 18.8288 13.712 18.2119 12.5918C17.5949 11.4716 16.7018 10.5278 15.6173 9.85008Z" fill="#0DADB9"/>
</svg>
